%TF.GenerationSoftware,KiCad,Pcbnew,7.0.5-7.0.5~ubuntu22.04.1*%
%TF.CreationDate,2023-07-14T10:21:11+02:00*%
%TF.ProjectId,pur-offset-space-55,7075722d-6f66-4667-9365-742d73706163,rev?*%
%TF.SameCoordinates,Original*%
%TF.FileFunction,Drillmap*%
%TF.FilePolarity,Positive*%
%FSLAX45Y45*%
G04 Gerber Fmt 4.5, Leading zero omitted, Abs format (unit mm)*
G04 Created by KiCad (PCBNEW 7.0.5-7.0.5~ubuntu22.04.1) date 2023-07-14 10:21:11*
%MOMM*%
%LPD*%
G01*
G04 APERTURE LIST*
%ADD10C,0.100000*%
%ADD11C,0.200000*%
%ADD12C,0.040000*%
%ADD13C,0.075000*%
%ADD14C,0.109220*%
%ADD15C,0.150000*%
G04 APERTURE END LIST*
D10*
X24033380Y-10494580D02*
G75*
G03*
X24033380Y-9974580I0J260000D01*
G01*
X23833380Y-10494580D02*
G75*
G03*
X23633380Y-10694580I0J-200000D01*
G01*
X17808380Y-4479520D02*
G75*
G03*
X17608380Y-4679514I-10J-199990D01*
G01*
X19397259Y-14525535D02*
X19427469Y-14535972D01*
X4583380Y-6424580D02*
X4583380Y-4679514D01*
X8789302Y-14535967D02*
X8799110Y-14532309D01*
X8809085Y-14529028D01*
X8819230Y-14526136D01*
X8829549Y-14523641D01*
X8835527Y-14522398D01*
X23633380Y-9774580D02*
X23633380Y-8329580D01*
X23633386Y-4679514D02*
G75*
G03*
X23433380Y-4479514I-200006J-6D01*
G01*
X8109630Y-14244580D02*
G75*
G03*
X7909630Y-14044580I-200000J0D01*
G01*
X7750876Y-4679514D02*
G75*
G03*
X7550880Y-4479514I-199996J4D01*
G01*
X4583380Y-10694580D02*
G75*
G03*
X4383380Y-10494580I-200000J0D01*
G01*
X19620490Y-14690746D02*
X19628559Y-14698388D01*
X19636657Y-14705964D01*
X19644787Y-14713470D01*
X19652953Y-14720897D01*
X19657636Y-14725103D01*
X7909630Y-14044580D02*
X4783380Y-14044580D01*
X4783380Y-4479514D02*
X7550880Y-4479514D01*
X20307130Y-14044580D02*
G75*
G03*
X20107130Y-14244580I0J-200000D01*
G01*
X23633380Y-10694580D02*
X23633380Y-13844580D01*
X20107130Y-14544580D02*
X20107130Y-14244580D01*
X4783380Y-4479514D02*
G75*
G03*
X4583380Y-4679514I0J-200000D01*
G01*
X4183380Y-9974580D02*
X4383380Y-9974580D01*
X8835527Y-14522398D02*
X8869630Y-14520830D01*
X7750880Y-4679514D02*
X7750880Y-6224580D01*
X8533656Y-14746311D02*
X8542055Y-14739409D01*
X8550407Y-14732400D01*
X8558710Y-14725284D01*
X8566966Y-14718062D01*
X8571662Y-14713886D01*
X24033380Y-9974580D02*
X23833380Y-9974580D01*
X7550880Y-5272080D02*
G75*
G03*
X7550880Y-5272080I-110000J0D01*
G01*
X17408380Y-6424580D02*
G75*
G03*
X17608380Y-6224580I0J200000D01*
G01*
X24033380Y-10494580D02*
X23833380Y-10494580D01*
X19559514Y-14631440D02*
X19567532Y-14639185D01*
X19575529Y-14646977D01*
X19583511Y-14654806D01*
X19591482Y-14662662D01*
X19596033Y-14667159D01*
X8632886Y-14655129D02*
X8657268Y-14631412D01*
X19596033Y-14667159D02*
X19620490Y-14690746D01*
X8109630Y-14544580D02*
G75*
G03*
X8533656Y-14746311I260000J0D01*
G01*
X17608380Y-4679514D02*
X17608380Y-6224580D01*
X4293380Y-10234580D02*
G75*
G03*
X4293380Y-10234580I-110000J0D01*
G01*
X4583380Y-9774580D02*
X4583380Y-6424580D01*
X8657268Y-14631412D02*
X8665310Y-14623725D01*
X8673381Y-14616106D01*
X8681485Y-14608565D01*
X8689628Y-14601111D01*
X8694300Y-14596895D01*
X19347130Y-14520830D02*
X19358449Y-14521055D01*
X19369570Y-14521731D01*
X19380493Y-14522856D01*
X19391219Y-14524432D01*
X19397259Y-14525535D01*
X8789302Y-14535967D02*
X8760221Y-14548963D01*
X8694300Y-14596895D02*
X8720055Y-14576323D01*
X4183380Y-9974580D02*
G75*
G03*
X4183380Y-10494580I0J-260000D01*
G01*
X19427469Y-14535972D02*
X19437116Y-14539999D01*
X19446607Y-14544384D01*
X19455945Y-14549117D01*
X19465134Y-14554187D01*
X19470320Y-14557232D01*
X24143380Y-10234580D02*
G75*
G03*
X24143380Y-10234580I-110000J0D01*
G01*
X19534957Y-14608117D02*
X19559514Y-14631440D01*
X4583380Y-13844580D02*
G75*
G03*
X4783380Y-14044580I200000J0D01*
G01*
X4583380Y-10694580D02*
X4583380Y-13844580D01*
X23433380Y-14044580D02*
X21728380Y-14044580D01*
X19957130Y-14544580D02*
G75*
G03*
X19957130Y-14544580I-110000J0D01*
G01*
X23633380Y-9774580D02*
G75*
G03*
X23833380Y-9974580I200000J0D01*
G01*
X8479630Y-14544580D02*
G75*
G03*
X8479630Y-14544580I-110000J0D01*
G01*
X19496722Y-14576339D02*
X19505234Y-14582953D01*
X19513658Y-14589766D01*
X19522001Y-14596767D01*
X19530266Y-14603942D01*
X19534957Y-14608117D01*
X20307130Y-14044580D02*
X21728380Y-14044580D01*
X19657636Y-14725103D02*
X19683145Y-14746345D01*
X7750880Y-6224580D02*
G75*
G03*
X7950880Y-6424580I200000J0D01*
G01*
X17808380Y-4479514D02*
X23433380Y-4479514D01*
X19683145Y-14746345D02*
G75*
G03*
X20107130Y-14544580I163985J201765D01*
G01*
X4383380Y-9974580D02*
G75*
G03*
X4583380Y-9774580I0J200000D01*
G01*
X23633380Y-6424580D02*
X23633380Y-8329580D01*
X8109630Y-14544580D02*
X8109630Y-14244580D01*
X7950880Y-6424580D02*
X17408380Y-6424580D01*
X19470320Y-14557232D02*
X19496722Y-14576339D01*
X8596299Y-14690710D02*
X8604340Y-14683009D01*
X8612358Y-14675257D01*
X8620355Y-14667459D01*
X8628333Y-14659622D01*
X8632886Y-14655129D01*
X18028380Y-5272080D02*
G75*
G03*
X18028380Y-5272080I-110000J0D01*
G01*
X8720055Y-14576323D02*
X8728659Y-14569922D01*
X8737360Y-14563743D01*
X8746165Y-14557800D01*
X8755077Y-14552103D01*
X8760221Y-14548963D01*
X19347130Y-14520830D02*
X8869630Y-14520830D01*
X23433380Y-14044580D02*
G75*
G03*
X23633380Y-13844580I0J200000D01*
G01*
X23633380Y-4679514D02*
X23633380Y-6424580D01*
X4183380Y-10494580D02*
X4383380Y-10494580D01*
X8571662Y-14713886D02*
X8596299Y-14690710D01*
D11*
D12*
X23152420Y-6914200D02*
X23192420Y-6954200D01*
X23192420Y-6914200D02*
X23152420Y-6954200D01*
X23152420Y-7036120D02*
X23192420Y-7076120D01*
X23192420Y-7036120D02*
X23152420Y-7076120D01*
X23152420Y-7152960D02*
X23192420Y-7192960D01*
X23192420Y-7152960D02*
X23152420Y-7192960D01*
X23154960Y-7267260D02*
X23194960Y-7307260D01*
X23194960Y-7267260D02*
X23154960Y-7307260D01*
D13*
X18645540Y-5512460D02*
G75*
G03*
X18645540Y-5512460I-37500J0D01*
G01*
X18645540Y-5712460D02*
G75*
G03*
X18645540Y-5712460I-37500J0D01*
G01*
D10*
X4837800Y-4969220D02*
X4837800Y-5069220D01*
X4787800Y-5019220D02*
X4887800Y-5019220D01*
X4837800Y-5469220D02*
X4837800Y-5569220D01*
X4787800Y-5519220D02*
X4887800Y-5519220D01*
X6287800Y-4969220D02*
X6287800Y-5069220D01*
X6237800Y-5019220D02*
X6337800Y-5019220D01*
X6287800Y-5219220D02*
X6287800Y-5319220D01*
X6237800Y-5269220D02*
X6337800Y-5269220D01*
X6287800Y-5469220D02*
X6287800Y-5569220D01*
X6237800Y-5519220D02*
X6337800Y-5519220D01*
X20086320Y-4821720D02*
X20086320Y-4921720D01*
X20036320Y-4871720D02*
X20136320Y-4871720D01*
X20086320Y-6345720D02*
X20086320Y-6445720D01*
X20036320Y-6395720D02*
X20136320Y-6395720D01*
X20340320Y-4821720D02*
X20340320Y-4921720D01*
X20290320Y-4871720D02*
X20390320Y-4871720D01*
X20340320Y-6345720D02*
X20340320Y-6445720D01*
X20290320Y-6395720D02*
X20390320Y-6395720D01*
X20594320Y-4821720D02*
X20594320Y-4921720D01*
X20544320Y-4871720D02*
X20644320Y-4871720D01*
X20594320Y-5583720D02*
X20594320Y-5683720D01*
X20544320Y-5633720D02*
X20644320Y-5633720D01*
X20594320Y-5837720D02*
X20594320Y-5937720D01*
X20544320Y-5887720D02*
X20644320Y-5887720D01*
X20594320Y-6091720D02*
X20594320Y-6191720D01*
X20544320Y-6141720D02*
X20644320Y-6141720D01*
X20594320Y-6345720D02*
X20594320Y-6445720D01*
X20544320Y-6395720D02*
X20644320Y-6395720D01*
X20848320Y-4821720D02*
X20848320Y-4921720D01*
X20798320Y-4871720D02*
X20898320Y-4871720D01*
X20848320Y-6345720D02*
X20848320Y-6445720D01*
X20798320Y-6395720D02*
X20898320Y-6395720D01*
X21102320Y-4821720D02*
X21102320Y-4921720D01*
X21052320Y-4871720D02*
X21152320Y-4871720D01*
X21102320Y-6345720D02*
X21102320Y-6445720D01*
X21052320Y-6395720D02*
X21152320Y-6395720D01*
X21356320Y-4821720D02*
X21356320Y-4921720D01*
X21306320Y-4871720D02*
X21406320Y-4871720D01*
X21356320Y-6345720D02*
X21356320Y-6445720D01*
X21306320Y-6395720D02*
X21406320Y-6395720D01*
X21610320Y-4821720D02*
X21610320Y-4921720D01*
X21560320Y-4871720D02*
X21660320Y-4871720D01*
X21610320Y-6345720D02*
X21610320Y-6445720D01*
X21560320Y-6395720D02*
X21660320Y-6395720D01*
X21864320Y-4821720D02*
X21864320Y-4921720D01*
X21814320Y-4871720D02*
X21914320Y-4871720D01*
X21864320Y-6345720D02*
X21864320Y-6445720D01*
X21814320Y-6395720D02*
X21914320Y-6395720D01*
X22118320Y-4821720D02*
X22118320Y-4921720D01*
X22068320Y-4871720D02*
X22168320Y-4871720D01*
X22118320Y-6345720D02*
X22118320Y-6445720D01*
X22068320Y-6395720D02*
X22168320Y-6395720D01*
X22372320Y-4821720D02*
X22372320Y-4921720D01*
X22322320Y-4871720D02*
X22422320Y-4871720D01*
X22372320Y-6345720D02*
X22372320Y-6445720D01*
X22322320Y-6395720D02*
X22422320Y-6395720D01*
X22626320Y-4821720D02*
X22626320Y-4921720D01*
X22576320Y-4871720D02*
X22676320Y-4871720D01*
X22626320Y-6345720D02*
X22626320Y-6445720D01*
X22576320Y-6395720D02*
X22676320Y-6395720D01*
X22880320Y-4821720D02*
X22880320Y-4921720D01*
X22830320Y-4871720D02*
X22930320Y-4871720D01*
X22880320Y-6345720D02*
X22880320Y-6445720D01*
X22830320Y-6395720D02*
X22930320Y-6395720D01*
X23134320Y-4821720D02*
X23134320Y-4921720D01*
X23084320Y-4871720D02*
X23184320Y-4871720D01*
X23134320Y-6345720D02*
X23134320Y-6445720D01*
X23084320Y-6395720D02*
X23184320Y-6395720D01*
D14*
X19753916Y-4799876D02*
X19753916Y-4722645D01*
X19676685Y-4722645D01*
X19676685Y-4799876D01*
X19753916Y-4799876D01*
X19753916Y-5053876D02*
X19753916Y-4976645D01*
X19676685Y-4976645D01*
X19676685Y-5053876D01*
X19753916Y-5053876D01*
X19753916Y-5307876D02*
X19753916Y-5230645D01*
X19676685Y-5230645D01*
X19676685Y-5307876D01*
X19753916Y-5307876D01*
X19753916Y-5561876D02*
X19753916Y-5484645D01*
X19676685Y-5484645D01*
X19676685Y-5561876D01*
X19753916Y-5561876D01*
X19753916Y-5815875D02*
X19753916Y-5738644D01*
X19676685Y-5738644D01*
X19676685Y-5815875D01*
X19753916Y-5815875D01*
D15*
X5097840Y-7919260D02*
X5172840Y-7844260D01*
X5097840Y-7769260D01*
X5022840Y-7844260D01*
X5097840Y-7919260D01*
X5097840Y-9824260D02*
X5172840Y-9749260D01*
X5097840Y-9674260D01*
X5022840Y-9749260D01*
X5097840Y-9824260D01*
X5097840Y-11729260D02*
X5172840Y-11654260D01*
X5097840Y-11579260D01*
X5022840Y-11654260D01*
X5097840Y-11729260D01*
X5097840Y-13634260D02*
X5172840Y-13559260D01*
X5097840Y-13484260D01*
X5022840Y-13559260D01*
X5097840Y-13634260D01*
X5537800Y-4784220D02*
X5612800Y-4709220D01*
X5537800Y-4634220D01*
X5462800Y-4709220D01*
X5537800Y-4784220D01*
D11*
X5602800Y-4634220D02*
X5472800Y-4634220D01*
X5472800Y-4634220D02*
G75*
G03*
X5472800Y-4784220I0J-75000D01*
G01*
X5472800Y-4784220D02*
X5602800Y-4784220D01*
X5602800Y-4784220D02*
G75*
G03*
X5602800Y-4634220I0J75000D01*
G01*
D15*
X5537800Y-5904220D02*
X5612800Y-5829220D01*
X5537800Y-5754220D01*
X5462800Y-5829220D01*
X5537800Y-5904220D01*
D11*
X5602800Y-5754220D02*
X5472800Y-5754220D01*
X5472800Y-5754220D02*
G75*
G03*
X5472800Y-5904220I0J-75000D01*
G01*
X5472800Y-5904220D02*
X5602800Y-5904220D01*
X5602800Y-5904220D02*
G75*
G03*
X5602800Y-5754220I0J75000D01*
G01*
D15*
X5797840Y-8024260D02*
X5872840Y-7949260D01*
X5797840Y-7874260D01*
X5722840Y-7949260D01*
X5797840Y-8024260D01*
X5797840Y-9929260D02*
X5872840Y-9854260D01*
X5797840Y-9779260D01*
X5722840Y-9854260D01*
X5797840Y-9929260D01*
X5797840Y-11834260D02*
X5872840Y-11759260D01*
X5797840Y-11684260D01*
X5722840Y-11759260D01*
X5797840Y-11834260D01*
X5797840Y-13739260D02*
X5872840Y-13664260D01*
X5797840Y-13589260D01*
X5722840Y-13664260D01*
X5797840Y-13739260D01*
X7002840Y-7919260D02*
X7077840Y-7844260D01*
X7002840Y-7769260D01*
X6927840Y-7844260D01*
X7002840Y-7919260D01*
X7002840Y-9824260D02*
X7077840Y-9749260D01*
X7002840Y-9674260D01*
X6927840Y-9749260D01*
X7002840Y-9824260D01*
X7002840Y-11729260D02*
X7077840Y-11654260D01*
X7002840Y-11579260D01*
X6927840Y-11654260D01*
X7002840Y-11729260D01*
X7002840Y-13634260D02*
X7077840Y-13559260D01*
X7002840Y-13484260D01*
X6927840Y-13559260D01*
X7002840Y-13634260D01*
X7702840Y-8024260D02*
X7777840Y-7949260D01*
X7702840Y-7874260D01*
X7627840Y-7949260D01*
X7702840Y-8024260D01*
X7702840Y-9929260D02*
X7777840Y-9854260D01*
X7702840Y-9779260D01*
X7627840Y-9854260D01*
X7702840Y-9929260D01*
X7702840Y-11834260D02*
X7777840Y-11759260D01*
X7702840Y-11684260D01*
X7627840Y-11759260D01*
X7702840Y-11834260D01*
X7702840Y-13739260D02*
X7777840Y-13664260D01*
X7702840Y-13589260D01*
X7627840Y-13664260D01*
X7702840Y-13739260D01*
X8907840Y-7919260D02*
X8982840Y-7844260D01*
X8907840Y-7769260D01*
X8832840Y-7844260D01*
X8907840Y-7919260D01*
X8907840Y-9824260D02*
X8982840Y-9749260D01*
X8907840Y-9674260D01*
X8832840Y-9749260D01*
X8907840Y-9824260D01*
X8907840Y-11729260D02*
X8982840Y-11654260D01*
X8907840Y-11579260D01*
X8832840Y-11654260D01*
X8907840Y-11729260D01*
X9384090Y-14110510D02*
X9459090Y-14035510D01*
X9384090Y-13960510D01*
X9309090Y-14035510D01*
X9384090Y-14110510D01*
X9607840Y-8024260D02*
X9682840Y-7949260D01*
X9607840Y-7874260D01*
X9532840Y-7949260D01*
X9607840Y-8024260D01*
X9607840Y-9929260D02*
X9682840Y-9854260D01*
X9607840Y-9779260D01*
X9532840Y-9854260D01*
X9607840Y-9929260D01*
X9607840Y-11834260D02*
X9682840Y-11759260D01*
X9607840Y-11684260D01*
X9532840Y-11759260D01*
X9607840Y-11834260D01*
X10084090Y-14215510D02*
X10159090Y-14140510D01*
X10084090Y-14065510D01*
X10009090Y-14140510D01*
X10084090Y-14215510D01*
X10812840Y-7919260D02*
X10887840Y-7844260D01*
X10812840Y-7769260D01*
X10737840Y-7844260D01*
X10812840Y-7919260D01*
X10812840Y-9824260D02*
X10887840Y-9749260D01*
X10812840Y-9674260D01*
X10737840Y-9749260D01*
X10812840Y-9824260D01*
X10812840Y-11729260D02*
X10887840Y-11654260D01*
X10812840Y-11579260D01*
X10737840Y-11654260D01*
X10812840Y-11729260D01*
X11512840Y-8024260D02*
X11587840Y-7949260D01*
X11512840Y-7874260D01*
X11437840Y-7949260D01*
X11512840Y-8024260D01*
X11512840Y-9929260D02*
X11587840Y-9854260D01*
X11512840Y-9779260D01*
X11437840Y-9854260D01*
X11512840Y-9929260D01*
X11512840Y-11834260D02*
X11587840Y-11759260D01*
X11512840Y-11684260D01*
X11437840Y-11759260D01*
X11512840Y-11834260D01*
X12003465Y-14110510D02*
X12078465Y-14035510D01*
X12003465Y-13960510D01*
X11928465Y-14035510D01*
X12003465Y-14110510D01*
X12703465Y-14215510D02*
X12778465Y-14140510D01*
X12703465Y-14065510D01*
X12628465Y-14140510D01*
X12703465Y-14215510D01*
X12717840Y-7919260D02*
X12792840Y-7844260D01*
X12717840Y-7769260D01*
X12642840Y-7844260D01*
X12717840Y-7919260D01*
X12717840Y-9824260D02*
X12792840Y-9749260D01*
X12717840Y-9674260D01*
X12642840Y-9749260D01*
X12717840Y-9824260D01*
X12717840Y-11729260D02*
X12792840Y-11654260D01*
X12717840Y-11579260D01*
X12642840Y-11654260D01*
X12717840Y-11729260D01*
X13417840Y-8024260D02*
X13492840Y-7949260D01*
X13417840Y-7874260D01*
X13342840Y-7949260D01*
X13417840Y-8024260D01*
X13417840Y-9929260D02*
X13492840Y-9854260D01*
X13417840Y-9779260D01*
X13342840Y-9854260D01*
X13417840Y-9929260D01*
X13417840Y-11834260D02*
X13492840Y-11759260D01*
X13417840Y-11684260D01*
X13342840Y-11759260D01*
X13417840Y-11834260D01*
X14622840Y-7919260D02*
X14697840Y-7844260D01*
X14622840Y-7769260D01*
X14547840Y-7844260D01*
X14622840Y-7919260D01*
X14622840Y-9824260D02*
X14697840Y-9749260D01*
X14622840Y-9674260D01*
X14547840Y-9749260D01*
X14622840Y-9824260D01*
X14622840Y-11729260D02*
X14697840Y-11654260D01*
X14622840Y-11579260D01*
X14547840Y-11654260D01*
X14622840Y-11729260D01*
X15322840Y-8024260D02*
X15397840Y-7949260D01*
X15322840Y-7874260D01*
X15247840Y-7949260D01*
X15322840Y-8024260D01*
X15322840Y-9929260D02*
X15397840Y-9854260D01*
X15322840Y-9779260D01*
X15247840Y-9854260D01*
X15322840Y-9929260D01*
X15322840Y-11834260D02*
X15397840Y-11759260D01*
X15322840Y-11684260D01*
X15247840Y-11759260D01*
X15322840Y-11834260D01*
X15337215Y-14110510D02*
X15412215Y-14035510D01*
X15337215Y-13960510D01*
X15262215Y-14035510D01*
X15337215Y-14110510D01*
X16037215Y-14215510D02*
X16112215Y-14140510D01*
X16037215Y-14065510D01*
X15962215Y-14140510D01*
X16037215Y-14215510D01*
X16527840Y-7919260D02*
X16602840Y-7844260D01*
X16527840Y-7769260D01*
X16452840Y-7844260D01*
X16527840Y-7919260D01*
X16527840Y-9824260D02*
X16602840Y-9749260D01*
X16527840Y-9674260D01*
X16452840Y-9749260D01*
X16527840Y-9824260D01*
X16527840Y-11729260D02*
X16602840Y-11654260D01*
X16527840Y-11579260D01*
X16452840Y-11654260D01*
X16527840Y-11729260D01*
X17227840Y-8024260D02*
X17302840Y-7949260D01*
X17227840Y-7874260D01*
X17152840Y-7949260D01*
X17227840Y-8024260D01*
X17227840Y-9929260D02*
X17302840Y-9854260D01*
X17227840Y-9779260D01*
X17152840Y-9854260D01*
X17227840Y-9929260D01*
X17227840Y-11834260D02*
X17302840Y-11759260D01*
X17227840Y-11684260D01*
X17152840Y-11759260D01*
X17227840Y-11834260D01*
X17956590Y-14110510D02*
X18031590Y-14035510D01*
X17956590Y-13960510D01*
X17881590Y-14035510D01*
X17956590Y-14110510D01*
X18432840Y-7919260D02*
X18507840Y-7844260D01*
X18432840Y-7769260D01*
X18357840Y-7844260D01*
X18432840Y-7919260D01*
X18432840Y-9824260D02*
X18507840Y-9749260D01*
X18432840Y-9674260D01*
X18357840Y-9749260D01*
X18432840Y-9824260D01*
X18432840Y-11729260D02*
X18507840Y-11654260D01*
X18432840Y-11579260D01*
X18357840Y-11654260D01*
X18432840Y-11729260D01*
X18656590Y-14215510D02*
X18731590Y-14140510D01*
X18656590Y-14065510D01*
X18581590Y-14140510D01*
X18656590Y-14215510D01*
X19132840Y-8024260D02*
X19207840Y-7949260D01*
X19132840Y-7874260D01*
X19057840Y-7949260D01*
X19132840Y-8024260D01*
X19132840Y-9929260D02*
X19207840Y-9854260D01*
X19132840Y-9779260D01*
X19057840Y-9854260D01*
X19132840Y-9929260D01*
X19132840Y-11834260D02*
X19207840Y-11759260D01*
X19132840Y-11684260D01*
X19057840Y-11759260D01*
X19132840Y-11834260D01*
X20337840Y-7919260D02*
X20412840Y-7844260D01*
X20337840Y-7769260D01*
X20262840Y-7844260D01*
X20337840Y-7919260D01*
X20337840Y-9824260D02*
X20412840Y-9749260D01*
X20337840Y-9674260D01*
X20262840Y-9749260D01*
X20337840Y-9824260D01*
X20337840Y-11729260D02*
X20412840Y-11654260D01*
X20337840Y-11579260D01*
X20262840Y-11654260D01*
X20337840Y-11729260D01*
X20337840Y-13634260D02*
X20412840Y-13559260D01*
X20337840Y-13484260D01*
X20262840Y-13559260D01*
X20337840Y-13634260D01*
X21037840Y-8024260D02*
X21112840Y-7949260D01*
X21037840Y-7874260D01*
X20962840Y-7949260D01*
X21037840Y-8024260D01*
X21037840Y-9929260D02*
X21112840Y-9854260D01*
X21037840Y-9779260D01*
X20962840Y-9854260D01*
X21037840Y-9929260D01*
X21037840Y-11834260D02*
X21112840Y-11759260D01*
X21037840Y-11684260D01*
X20962840Y-11759260D01*
X21037840Y-11834260D01*
X21037840Y-13739260D02*
X21112840Y-13664260D01*
X21037840Y-13589260D01*
X20962840Y-13664260D01*
X21037840Y-13739260D01*
X22242840Y-7919260D02*
X22317840Y-7844260D01*
X22242840Y-7769260D01*
X22167840Y-7844260D01*
X22242840Y-7919260D01*
X22242840Y-9824260D02*
X22317840Y-9749260D01*
X22242840Y-9674260D01*
X22167840Y-9749260D01*
X22242840Y-9824260D01*
X22242840Y-11729260D02*
X22317840Y-11654260D01*
X22242840Y-11579260D01*
X22167840Y-11654260D01*
X22242840Y-11729260D01*
X22242840Y-13634260D02*
X22317840Y-13559260D01*
X22242840Y-13484260D01*
X22167840Y-13559260D01*
X22242840Y-13634260D01*
X22942840Y-8024260D02*
X23017840Y-7949260D01*
X22942840Y-7874260D01*
X22867840Y-7949260D01*
X22942840Y-8024260D01*
X22942840Y-9929260D02*
X23017840Y-9854260D01*
X22942840Y-9779260D01*
X22867840Y-9854260D01*
X22942840Y-9929260D01*
X22942840Y-11834260D02*
X23017840Y-11759260D01*
X22942840Y-11684260D01*
X22867840Y-11759260D01*
X22942840Y-11834260D01*
X22942840Y-13739260D02*
X23017840Y-13664260D01*
X22942840Y-13589260D01*
X22867840Y-13664260D01*
X22942840Y-13739260D01*
D11*
X4179157Y-15121064D02*
X4179157Y-14921064D01*
X4179157Y-14921064D02*
X4226776Y-14921064D01*
X4226776Y-14921064D02*
X4255347Y-14930588D01*
X4255347Y-14930588D02*
X4274395Y-14949635D01*
X4274395Y-14949635D02*
X4283919Y-14968683D01*
X4283919Y-14968683D02*
X4293443Y-15006778D01*
X4293443Y-15006778D02*
X4293443Y-15035349D01*
X4293443Y-15035349D02*
X4283919Y-15073445D01*
X4283919Y-15073445D02*
X4274395Y-15092492D01*
X4274395Y-15092492D02*
X4255347Y-15111540D01*
X4255347Y-15111540D02*
X4226776Y-15121064D01*
X4226776Y-15121064D02*
X4179157Y-15121064D01*
X4379157Y-15121064D02*
X4379157Y-14987730D01*
X4379157Y-15025826D02*
X4388681Y-15006778D01*
X4388681Y-15006778D02*
X4398204Y-14997254D01*
X4398204Y-14997254D02*
X4417252Y-14987730D01*
X4417252Y-14987730D02*
X4436300Y-14987730D01*
X4502966Y-15121064D02*
X4502966Y-14987730D01*
X4502966Y-14921064D02*
X4493443Y-14930588D01*
X4493443Y-14930588D02*
X4502966Y-14940111D01*
X4502966Y-14940111D02*
X4512490Y-14930588D01*
X4512490Y-14930588D02*
X4502966Y-14921064D01*
X4502966Y-14921064D02*
X4502966Y-14940111D01*
X4626776Y-15121064D02*
X4607728Y-15111540D01*
X4607728Y-15111540D02*
X4598204Y-15092492D01*
X4598204Y-15092492D02*
X4598204Y-14921064D01*
X4731538Y-15121064D02*
X4712490Y-15111540D01*
X4712490Y-15111540D02*
X4702966Y-15092492D01*
X4702966Y-15092492D02*
X4702966Y-14921064D01*
X4960109Y-15121064D02*
X4960109Y-14921064D01*
X4960109Y-14921064D02*
X5026776Y-15063921D01*
X5026776Y-15063921D02*
X5093443Y-14921064D01*
X5093443Y-14921064D02*
X5093443Y-15121064D01*
X5274395Y-15121064D02*
X5274395Y-15016302D01*
X5274395Y-15016302D02*
X5264871Y-14997254D01*
X5264871Y-14997254D02*
X5245824Y-14987730D01*
X5245824Y-14987730D02*
X5207728Y-14987730D01*
X5207728Y-14987730D02*
X5188681Y-14997254D01*
X5274395Y-15111540D02*
X5255347Y-15121064D01*
X5255347Y-15121064D02*
X5207728Y-15121064D01*
X5207728Y-15121064D02*
X5188681Y-15111540D01*
X5188681Y-15111540D02*
X5179157Y-15092492D01*
X5179157Y-15092492D02*
X5179157Y-15073445D01*
X5179157Y-15073445D02*
X5188681Y-15054397D01*
X5188681Y-15054397D02*
X5207728Y-15044873D01*
X5207728Y-15044873D02*
X5255347Y-15044873D01*
X5255347Y-15044873D02*
X5274395Y-15035349D01*
X5369633Y-14987730D02*
X5369633Y-15187730D01*
X5369633Y-14997254D02*
X5388681Y-14987730D01*
X5388681Y-14987730D02*
X5426776Y-14987730D01*
X5426776Y-14987730D02*
X5445824Y-14997254D01*
X5445824Y-14997254D02*
X5455347Y-15006778D01*
X5455347Y-15006778D02*
X5464871Y-15025826D01*
X5464871Y-15025826D02*
X5464871Y-15082968D01*
X5464871Y-15082968D02*
X5455347Y-15102016D01*
X5455347Y-15102016D02*
X5445824Y-15111540D01*
X5445824Y-15111540D02*
X5426776Y-15121064D01*
X5426776Y-15121064D02*
X5388681Y-15121064D01*
X5388681Y-15121064D02*
X5369633Y-15111540D01*
X5550585Y-15102016D02*
X5560109Y-15111540D01*
X5560109Y-15111540D02*
X5550585Y-15121064D01*
X5550585Y-15121064D02*
X5541062Y-15111540D01*
X5541062Y-15111540D02*
X5550585Y-15102016D01*
X5550585Y-15102016D02*
X5550585Y-15121064D01*
X5550585Y-14997254D02*
X5560109Y-15006778D01*
X5560109Y-15006778D02*
X5550585Y-15016302D01*
X5550585Y-15016302D02*
X5541062Y-15006778D01*
X5541062Y-15006778D02*
X5550585Y-14997254D01*
X5550585Y-14997254D02*
X5550585Y-15016302D01*
D12*
X3878380Y-15429580D02*
X3918380Y-15469580D01*
X3918380Y-15429580D02*
X3878380Y-15469580D01*
D11*
X4217252Y-15341064D02*
X4236300Y-15341064D01*
X4236300Y-15341064D02*
X4255347Y-15350588D01*
X4255347Y-15350588D02*
X4264871Y-15360111D01*
X4264871Y-15360111D02*
X4274395Y-15379159D01*
X4274395Y-15379159D02*
X4283919Y-15417254D01*
X4283919Y-15417254D02*
X4283919Y-15464873D01*
X4283919Y-15464873D02*
X4274395Y-15502968D01*
X4274395Y-15502968D02*
X4264871Y-15522016D01*
X4264871Y-15522016D02*
X4255347Y-15531540D01*
X4255347Y-15531540D02*
X4236300Y-15541064D01*
X4236300Y-15541064D02*
X4217252Y-15541064D01*
X4217252Y-15541064D02*
X4198204Y-15531540D01*
X4198204Y-15531540D02*
X4188681Y-15522016D01*
X4188681Y-15522016D02*
X4179157Y-15502968D01*
X4179157Y-15502968D02*
X4169633Y-15464873D01*
X4169633Y-15464873D02*
X4169633Y-15417254D01*
X4169633Y-15417254D02*
X4179157Y-15379159D01*
X4179157Y-15379159D02*
X4188681Y-15360111D01*
X4188681Y-15360111D02*
X4198204Y-15350588D01*
X4198204Y-15350588D02*
X4217252Y-15341064D01*
X4369633Y-15522016D02*
X4379157Y-15531540D01*
X4379157Y-15531540D02*
X4369633Y-15541064D01*
X4369633Y-15541064D02*
X4360109Y-15531540D01*
X4360109Y-15531540D02*
X4369633Y-15522016D01*
X4369633Y-15522016D02*
X4369633Y-15541064D01*
X4550585Y-15407730D02*
X4550585Y-15541064D01*
X4502966Y-15331540D02*
X4455347Y-15474397D01*
X4455347Y-15474397D02*
X4579157Y-15474397D01*
X4693443Y-15341064D02*
X4712490Y-15341064D01*
X4712490Y-15341064D02*
X4731538Y-15350588D01*
X4731538Y-15350588D02*
X4741062Y-15360111D01*
X4741062Y-15360111D02*
X4750585Y-15379159D01*
X4750585Y-15379159D02*
X4760109Y-15417254D01*
X4760109Y-15417254D02*
X4760109Y-15464873D01*
X4760109Y-15464873D02*
X4750585Y-15502968D01*
X4750585Y-15502968D02*
X4741062Y-15522016D01*
X4741062Y-15522016D02*
X4731538Y-15531540D01*
X4731538Y-15531540D02*
X4712490Y-15541064D01*
X4712490Y-15541064D02*
X4693443Y-15541064D01*
X4693443Y-15541064D02*
X4674395Y-15531540D01*
X4674395Y-15531540D02*
X4664871Y-15522016D01*
X4664871Y-15522016D02*
X4655347Y-15502968D01*
X4655347Y-15502968D02*
X4645824Y-15464873D01*
X4645824Y-15464873D02*
X4645824Y-15417254D01*
X4645824Y-15417254D02*
X4655347Y-15379159D01*
X4655347Y-15379159D02*
X4664871Y-15360111D01*
X4664871Y-15360111D02*
X4674395Y-15350588D01*
X4674395Y-15350588D02*
X4693443Y-15341064D01*
X4883919Y-15341064D02*
X4902966Y-15341064D01*
X4902966Y-15341064D02*
X4922014Y-15350588D01*
X4922014Y-15350588D02*
X4931538Y-15360111D01*
X4931538Y-15360111D02*
X4941062Y-15379159D01*
X4941062Y-15379159D02*
X4950585Y-15417254D01*
X4950585Y-15417254D02*
X4950585Y-15464873D01*
X4950585Y-15464873D02*
X4941062Y-15502968D01*
X4941062Y-15502968D02*
X4931538Y-15522016D01*
X4931538Y-15522016D02*
X4922014Y-15531540D01*
X4922014Y-15531540D02*
X4902966Y-15541064D01*
X4902966Y-15541064D02*
X4883919Y-15541064D01*
X4883919Y-15541064D02*
X4864871Y-15531540D01*
X4864871Y-15531540D02*
X4855347Y-15522016D01*
X4855347Y-15522016D02*
X4845824Y-15502968D01*
X4845824Y-15502968D02*
X4836300Y-15464873D01*
X4836300Y-15464873D02*
X4836300Y-15417254D01*
X4836300Y-15417254D02*
X4845824Y-15379159D01*
X4845824Y-15379159D02*
X4855347Y-15360111D01*
X4855347Y-15360111D02*
X4864871Y-15350588D01*
X4864871Y-15350588D02*
X4883919Y-15341064D01*
X5036300Y-15541064D02*
X5036300Y-15407730D01*
X5036300Y-15426778D02*
X5045824Y-15417254D01*
X5045824Y-15417254D02*
X5064871Y-15407730D01*
X5064871Y-15407730D02*
X5093443Y-15407730D01*
X5093443Y-15407730D02*
X5112490Y-15417254D01*
X5112490Y-15417254D02*
X5122014Y-15436302D01*
X5122014Y-15436302D02*
X5122014Y-15541064D01*
X5122014Y-15436302D02*
X5131538Y-15417254D01*
X5131538Y-15417254D02*
X5150585Y-15407730D01*
X5150585Y-15407730D02*
X5179157Y-15407730D01*
X5179157Y-15407730D02*
X5198205Y-15417254D01*
X5198205Y-15417254D02*
X5207728Y-15436302D01*
X5207728Y-15436302D02*
X5207728Y-15541064D01*
X5302966Y-15541064D02*
X5302966Y-15407730D01*
X5302966Y-15426778D02*
X5312490Y-15417254D01*
X5312490Y-15417254D02*
X5331538Y-15407730D01*
X5331538Y-15407730D02*
X5360109Y-15407730D01*
X5360109Y-15407730D02*
X5379157Y-15417254D01*
X5379157Y-15417254D02*
X5388681Y-15436302D01*
X5388681Y-15436302D02*
X5388681Y-15541064D01*
X5388681Y-15436302D02*
X5398205Y-15417254D01*
X5398205Y-15417254D02*
X5417252Y-15407730D01*
X5417252Y-15407730D02*
X5445824Y-15407730D01*
X5445824Y-15407730D02*
X5464871Y-15417254D01*
X5464871Y-15417254D02*
X5474395Y-15436302D01*
X5474395Y-15436302D02*
X5474395Y-15541064D01*
X5864871Y-15331540D02*
X5693443Y-15588683D01*
X6122014Y-15341064D02*
X6141062Y-15341064D01*
X6141062Y-15341064D02*
X6160109Y-15350588D01*
X6160109Y-15350588D02*
X6169633Y-15360111D01*
X6169633Y-15360111D02*
X6179157Y-15379159D01*
X6179157Y-15379159D02*
X6188681Y-15417254D01*
X6188681Y-15417254D02*
X6188681Y-15464873D01*
X6188681Y-15464873D02*
X6179157Y-15502968D01*
X6179157Y-15502968D02*
X6169633Y-15522016D01*
X6169633Y-15522016D02*
X6160109Y-15531540D01*
X6160109Y-15531540D02*
X6141062Y-15541064D01*
X6141062Y-15541064D02*
X6122014Y-15541064D01*
X6122014Y-15541064D02*
X6102966Y-15531540D01*
X6102966Y-15531540D02*
X6093443Y-15522016D01*
X6093443Y-15522016D02*
X6083919Y-15502968D01*
X6083919Y-15502968D02*
X6074395Y-15464873D01*
X6074395Y-15464873D02*
X6074395Y-15417254D01*
X6074395Y-15417254D02*
X6083919Y-15379159D01*
X6083919Y-15379159D02*
X6093443Y-15360111D01*
X6093443Y-15360111D02*
X6102966Y-15350588D01*
X6102966Y-15350588D02*
X6122014Y-15341064D01*
X6274395Y-15522016D02*
X6283919Y-15531540D01*
X6283919Y-15531540D02*
X6274395Y-15541064D01*
X6274395Y-15541064D02*
X6264871Y-15531540D01*
X6264871Y-15531540D02*
X6274395Y-15522016D01*
X6274395Y-15522016D02*
X6274395Y-15541064D01*
X6407728Y-15341064D02*
X6426776Y-15341064D01*
X6426776Y-15341064D02*
X6445824Y-15350588D01*
X6445824Y-15350588D02*
X6455347Y-15360111D01*
X6455347Y-15360111D02*
X6464871Y-15379159D01*
X6464871Y-15379159D02*
X6474395Y-15417254D01*
X6474395Y-15417254D02*
X6474395Y-15464873D01*
X6474395Y-15464873D02*
X6464871Y-15502968D01*
X6464871Y-15502968D02*
X6455347Y-15522016D01*
X6455347Y-15522016D02*
X6445824Y-15531540D01*
X6445824Y-15531540D02*
X6426776Y-15541064D01*
X6426776Y-15541064D02*
X6407728Y-15541064D01*
X6407728Y-15541064D02*
X6388681Y-15531540D01*
X6388681Y-15531540D02*
X6379157Y-15522016D01*
X6379157Y-15522016D02*
X6369633Y-15502968D01*
X6369633Y-15502968D02*
X6360109Y-15464873D01*
X6360109Y-15464873D02*
X6360109Y-15417254D01*
X6360109Y-15417254D02*
X6369633Y-15379159D01*
X6369633Y-15379159D02*
X6379157Y-15360111D01*
X6379157Y-15360111D02*
X6388681Y-15350588D01*
X6388681Y-15350588D02*
X6407728Y-15341064D01*
X6664871Y-15541064D02*
X6550586Y-15541064D01*
X6607728Y-15541064D02*
X6607728Y-15341064D01*
X6607728Y-15341064D02*
X6588681Y-15369635D01*
X6588681Y-15369635D02*
X6569633Y-15388683D01*
X6569633Y-15388683D02*
X6550586Y-15398207D01*
X6845824Y-15341064D02*
X6750586Y-15341064D01*
X6750586Y-15341064D02*
X6741062Y-15436302D01*
X6741062Y-15436302D02*
X6750586Y-15426778D01*
X6750586Y-15426778D02*
X6769633Y-15417254D01*
X6769633Y-15417254D02*
X6817252Y-15417254D01*
X6817252Y-15417254D02*
X6836300Y-15426778D01*
X6836300Y-15426778D02*
X6845824Y-15436302D01*
X6845824Y-15436302D02*
X6855347Y-15455349D01*
X6855347Y-15455349D02*
X6855347Y-15502968D01*
X6855347Y-15502968D02*
X6845824Y-15522016D01*
X6845824Y-15522016D02*
X6836300Y-15531540D01*
X6836300Y-15531540D02*
X6817252Y-15541064D01*
X6817252Y-15541064D02*
X6769633Y-15541064D01*
X6769633Y-15541064D02*
X6750586Y-15531540D01*
X6750586Y-15531540D02*
X6741062Y-15522016D01*
X6922014Y-15341064D02*
X7055347Y-15341064D01*
X7055347Y-15341064D02*
X6969633Y-15541064D01*
X7122014Y-15341064D02*
X7122014Y-15379159D01*
X7198205Y-15341064D02*
X7198205Y-15379159D01*
X7493443Y-15617254D02*
X7483919Y-15607730D01*
X7483919Y-15607730D02*
X7464871Y-15579159D01*
X7464871Y-15579159D02*
X7455348Y-15560111D01*
X7455348Y-15560111D02*
X7445824Y-15531540D01*
X7445824Y-15531540D02*
X7436300Y-15483921D01*
X7436300Y-15483921D02*
X7436300Y-15445826D01*
X7436300Y-15445826D02*
X7445824Y-15398207D01*
X7445824Y-15398207D02*
X7455348Y-15369635D01*
X7455348Y-15369635D02*
X7464871Y-15350588D01*
X7464871Y-15350588D02*
X7483919Y-15322016D01*
X7483919Y-15322016D02*
X7493443Y-15312492D01*
X7655348Y-15407730D02*
X7655348Y-15541064D01*
X7607728Y-15331540D02*
X7560109Y-15474397D01*
X7560109Y-15474397D02*
X7683919Y-15474397D01*
X7912490Y-15541064D02*
X7912490Y-15341064D01*
X7998205Y-15541064D02*
X7998205Y-15436302D01*
X7998205Y-15436302D02*
X7988681Y-15417254D01*
X7988681Y-15417254D02*
X7969633Y-15407730D01*
X7969633Y-15407730D02*
X7941062Y-15407730D01*
X7941062Y-15407730D02*
X7922014Y-15417254D01*
X7922014Y-15417254D02*
X7912490Y-15426778D01*
X8122014Y-15541064D02*
X8102967Y-15531540D01*
X8102967Y-15531540D02*
X8093443Y-15522016D01*
X8093443Y-15522016D02*
X8083919Y-15502968D01*
X8083919Y-15502968D02*
X8083919Y-15445826D01*
X8083919Y-15445826D02*
X8093443Y-15426778D01*
X8093443Y-15426778D02*
X8102967Y-15417254D01*
X8102967Y-15417254D02*
X8122014Y-15407730D01*
X8122014Y-15407730D02*
X8150586Y-15407730D01*
X8150586Y-15407730D02*
X8169633Y-15417254D01*
X8169633Y-15417254D02*
X8179157Y-15426778D01*
X8179157Y-15426778D02*
X8188681Y-15445826D01*
X8188681Y-15445826D02*
X8188681Y-15502968D01*
X8188681Y-15502968D02*
X8179157Y-15522016D01*
X8179157Y-15522016D02*
X8169633Y-15531540D01*
X8169633Y-15531540D02*
X8150586Y-15541064D01*
X8150586Y-15541064D02*
X8122014Y-15541064D01*
X8302967Y-15541064D02*
X8283919Y-15531540D01*
X8283919Y-15531540D02*
X8274395Y-15512492D01*
X8274395Y-15512492D02*
X8274395Y-15341064D01*
X8455348Y-15531540D02*
X8436300Y-15541064D01*
X8436300Y-15541064D02*
X8398205Y-15541064D01*
X8398205Y-15541064D02*
X8379157Y-15531540D01*
X8379157Y-15531540D02*
X8369633Y-15512492D01*
X8369633Y-15512492D02*
X8369633Y-15436302D01*
X8369633Y-15436302D02*
X8379157Y-15417254D01*
X8379157Y-15417254D02*
X8398205Y-15407730D01*
X8398205Y-15407730D02*
X8436300Y-15407730D01*
X8436300Y-15407730D02*
X8455348Y-15417254D01*
X8455348Y-15417254D02*
X8464872Y-15436302D01*
X8464872Y-15436302D02*
X8464872Y-15455349D01*
X8464872Y-15455349D02*
X8369633Y-15474397D01*
X8541062Y-15531540D02*
X8560110Y-15541064D01*
X8560110Y-15541064D02*
X8598205Y-15541064D01*
X8598205Y-15541064D02*
X8617253Y-15531540D01*
X8617253Y-15531540D02*
X8626776Y-15512492D01*
X8626776Y-15512492D02*
X8626776Y-15502968D01*
X8626776Y-15502968D02*
X8617253Y-15483921D01*
X8617253Y-15483921D02*
X8598205Y-15474397D01*
X8598205Y-15474397D02*
X8569633Y-15474397D01*
X8569633Y-15474397D02*
X8550586Y-15464873D01*
X8550586Y-15464873D02*
X8541062Y-15445826D01*
X8541062Y-15445826D02*
X8541062Y-15436302D01*
X8541062Y-15436302D02*
X8550586Y-15417254D01*
X8550586Y-15417254D02*
X8569633Y-15407730D01*
X8569633Y-15407730D02*
X8598205Y-15407730D01*
X8598205Y-15407730D02*
X8617253Y-15417254D01*
X8693443Y-15617254D02*
X8702967Y-15607730D01*
X8702967Y-15607730D02*
X8722014Y-15579159D01*
X8722014Y-15579159D02*
X8731538Y-15560111D01*
X8731538Y-15560111D02*
X8741062Y-15531540D01*
X8741062Y-15531540D02*
X8750586Y-15483921D01*
X8750586Y-15483921D02*
X8750586Y-15445826D01*
X8750586Y-15445826D02*
X8741062Y-15398207D01*
X8741062Y-15398207D02*
X8731538Y-15369635D01*
X8731538Y-15369635D02*
X8722014Y-15350588D01*
X8722014Y-15350588D02*
X8702967Y-15322016D01*
X8702967Y-15322016D02*
X8693443Y-15312492D01*
D13*
X3918380Y-15713580D02*
G75*
G03*
X3918380Y-15713580I-37500J0D01*
G01*
D11*
X4217252Y-15605064D02*
X4236300Y-15605064D01*
X4236300Y-15605064D02*
X4255347Y-15614588D01*
X4255347Y-15614588D02*
X4264871Y-15624111D01*
X4264871Y-15624111D02*
X4274395Y-15643159D01*
X4274395Y-15643159D02*
X4283919Y-15681254D01*
X4283919Y-15681254D02*
X4283919Y-15728873D01*
X4283919Y-15728873D02*
X4274395Y-15766968D01*
X4274395Y-15766968D02*
X4264871Y-15786016D01*
X4264871Y-15786016D02*
X4255347Y-15795540D01*
X4255347Y-15795540D02*
X4236300Y-15805064D01*
X4236300Y-15805064D02*
X4217252Y-15805064D01*
X4217252Y-15805064D02*
X4198204Y-15795540D01*
X4198204Y-15795540D02*
X4188681Y-15786016D01*
X4188681Y-15786016D02*
X4179157Y-15766968D01*
X4179157Y-15766968D02*
X4169633Y-15728873D01*
X4169633Y-15728873D02*
X4169633Y-15681254D01*
X4169633Y-15681254D02*
X4179157Y-15643159D01*
X4179157Y-15643159D02*
X4188681Y-15624111D01*
X4188681Y-15624111D02*
X4198204Y-15614588D01*
X4198204Y-15614588D02*
X4217252Y-15605064D01*
X4369633Y-15786016D02*
X4379157Y-15795540D01*
X4379157Y-15795540D02*
X4369633Y-15805064D01*
X4369633Y-15805064D02*
X4360109Y-15795540D01*
X4360109Y-15795540D02*
X4369633Y-15786016D01*
X4369633Y-15786016D02*
X4369633Y-15805064D01*
X4445824Y-15605064D02*
X4579157Y-15605064D01*
X4579157Y-15605064D02*
X4493443Y-15805064D01*
X4750585Y-15605064D02*
X4655347Y-15605064D01*
X4655347Y-15605064D02*
X4645824Y-15700302D01*
X4645824Y-15700302D02*
X4655347Y-15690778D01*
X4655347Y-15690778D02*
X4674395Y-15681254D01*
X4674395Y-15681254D02*
X4722014Y-15681254D01*
X4722014Y-15681254D02*
X4741062Y-15690778D01*
X4741062Y-15690778D02*
X4750585Y-15700302D01*
X4750585Y-15700302D02*
X4760109Y-15719349D01*
X4760109Y-15719349D02*
X4760109Y-15766968D01*
X4760109Y-15766968D02*
X4750585Y-15786016D01*
X4750585Y-15786016D02*
X4741062Y-15795540D01*
X4741062Y-15795540D02*
X4722014Y-15805064D01*
X4722014Y-15805064D02*
X4674395Y-15805064D01*
X4674395Y-15805064D02*
X4655347Y-15795540D01*
X4655347Y-15795540D02*
X4645824Y-15786016D01*
X4883919Y-15605064D02*
X4902966Y-15605064D01*
X4902966Y-15605064D02*
X4922014Y-15614588D01*
X4922014Y-15614588D02*
X4931538Y-15624111D01*
X4931538Y-15624111D02*
X4941062Y-15643159D01*
X4941062Y-15643159D02*
X4950585Y-15681254D01*
X4950585Y-15681254D02*
X4950585Y-15728873D01*
X4950585Y-15728873D02*
X4941062Y-15766968D01*
X4941062Y-15766968D02*
X4931538Y-15786016D01*
X4931538Y-15786016D02*
X4922014Y-15795540D01*
X4922014Y-15795540D02*
X4902966Y-15805064D01*
X4902966Y-15805064D02*
X4883919Y-15805064D01*
X4883919Y-15805064D02*
X4864871Y-15795540D01*
X4864871Y-15795540D02*
X4855347Y-15786016D01*
X4855347Y-15786016D02*
X4845824Y-15766968D01*
X4845824Y-15766968D02*
X4836300Y-15728873D01*
X4836300Y-15728873D02*
X4836300Y-15681254D01*
X4836300Y-15681254D02*
X4845824Y-15643159D01*
X4845824Y-15643159D02*
X4855347Y-15624111D01*
X4855347Y-15624111D02*
X4864871Y-15614588D01*
X4864871Y-15614588D02*
X4883919Y-15605064D01*
X5036300Y-15805064D02*
X5036300Y-15671730D01*
X5036300Y-15690778D02*
X5045824Y-15681254D01*
X5045824Y-15681254D02*
X5064871Y-15671730D01*
X5064871Y-15671730D02*
X5093443Y-15671730D01*
X5093443Y-15671730D02*
X5112490Y-15681254D01*
X5112490Y-15681254D02*
X5122014Y-15700302D01*
X5122014Y-15700302D02*
X5122014Y-15805064D01*
X5122014Y-15700302D02*
X5131538Y-15681254D01*
X5131538Y-15681254D02*
X5150585Y-15671730D01*
X5150585Y-15671730D02*
X5179157Y-15671730D01*
X5179157Y-15671730D02*
X5198205Y-15681254D01*
X5198205Y-15681254D02*
X5207728Y-15700302D01*
X5207728Y-15700302D02*
X5207728Y-15805064D01*
X5302966Y-15805064D02*
X5302966Y-15671730D01*
X5302966Y-15690778D02*
X5312490Y-15681254D01*
X5312490Y-15681254D02*
X5331538Y-15671730D01*
X5331538Y-15671730D02*
X5360109Y-15671730D01*
X5360109Y-15671730D02*
X5379157Y-15681254D01*
X5379157Y-15681254D02*
X5388681Y-15700302D01*
X5388681Y-15700302D02*
X5388681Y-15805064D01*
X5388681Y-15700302D02*
X5398205Y-15681254D01*
X5398205Y-15681254D02*
X5417252Y-15671730D01*
X5417252Y-15671730D02*
X5445824Y-15671730D01*
X5445824Y-15671730D02*
X5464871Y-15681254D01*
X5464871Y-15681254D02*
X5474395Y-15700302D01*
X5474395Y-15700302D02*
X5474395Y-15805064D01*
X5864871Y-15595540D02*
X5693443Y-15852683D01*
X6122014Y-15605064D02*
X6141062Y-15605064D01*
X6141062Y-15605064D02*
X6160109Y-15614588D01*
X6160109Y-15614588D02*
X6169633Y-15624111D01*
X6169633Y-15624111D02*
X6179157Y-15643159D01*
X6179157Y-15643159D02*
X6188681Y-15681254D01*
X6188681Y-15681254D02*
X6188681Y-15728873D01*
X6188681Y-15728873D02*
X6179157Y-15766968D01*
X6179157Y-15766968D02*
X6169633Y-15786016D01*
X6169633Y-15786016D02*
X6160109Y-15795540D01*
X6160109Y-15795540D02*
X6141062Y-15805064D01*
X6141062Y-15805064D02*
X6122014Y-15805064D01*
X6122014Y-15805064D02*
X6102966Y-15795540D01*
X6102966Y-15795540D02*
X6093443Y-15786016D01*
X6093443Y-15786016D02*
X6083919Y-15766968D01*
X6083919Y-15766968D02*
X6074395Y-15728873D01*
X6074395Y-15728873D02*
X6074395Y-15681254D01*
X6074395Y-15681254D02*
X6083919Y-15643159D01*
X6083919Y-15643159D02*
X6093443Y-15624111D01*
X6093443Y-15624111D02*
X6102966Y-15614588D01*
X6102966Y-15614588D02*
X6122014Y-15605064D01*
X6274395Y-15786016D02*
X6283919Y-15795540D01*
X6283919Y-15795540D02*
X6274395Y-15805064D01*
X6274395Y-15805064D02*
X6264871Y-15795540D01*
X6264871Y-15795540D02*
X6274395Y-15786016D01*
X6274395Y-15786016D02*
X6274395Y-15805064D01*
X6407728Y-15605064D02*
X6426776Y-15605064D01*
X6426776Y-15605064D02*
X6445824Y-15614588D01*
X6445824Y-15614588D02*
X6455347Y-15624111D01*
X6455347Y-15624111D02*
X6464871Y-15643159D01*
X6464871Y-15643159D02*
X6474395Y-15681254D01*
X6474395Y-15681254D02*
X6474395Y-15728873D01*
X6474395Y-15728873D02*
X6464871Y-15766968D01*
X6464871Y-15766968D02*
X6455347Y-15786016D01*
X6455347Y-15786016D02*
X6445824Y-15795540D01*
X6445824Y-15795540D02*
X6426776Y-15805064D01*
X6426776Y-15805064D02*
X6407728Y-15805064D01*
X6407728Y-15805064D02*
X6388681Y-15795540D01*
X6388681Y-15795540D02*
X6379157Y-15786016D01*
X6379157Y-15786016D02*
X6369633Y-15766968D01*
X6369633Y-15766968D02*
X6360109Y-15728873D01*
X6360109Y-15728873D02*
X6360109Y-15681254D01*
X6360109Y-15681254D02*
X6369633Y-15643159D01*
X6369633Y-15643159D02*
X6379157Y-15624111D01*
X6379157Y-15624111D02*
X6388681Y-15614588D01*
X6388681Y-15614588D02*
X6407728Y-15605064D01*
X6550586Y-15624111D02*
X6560109Y-15614588D01*
X6560109Y-15614588D02*
X6579157Y-15605064D01*
X6579157Y-15605064D02*
X6626776Y-15605064D01*
X6626776Y-15605064D02*
X6645824Y-15614588D01*
X6645824Y-15614588D02*
X6655347Y-15624111D01*
X6655347Y-15624111D02*
X6664871Y-15643159D01*
X6664871Y-15643159D02*
X6664871Y-15662207D01*
X6664871Y-15662207D02*
X6655347Y-15690778D01*
X6655347Y-15690778D02*
X6541062Y-15805064D01*
X6541062Y-15805064D02*
X6664871Y-15805064D01*
X6760109Y-15805064D02*
X6798205Y-15805064D01*
X6798205Y-15805064D02*
X6817252Y-15795540D01*
X6817252Y-15795540D02*
X6826776Y-15786016D01*
X6826776Y-15786016D02*
X6845824Y-15757445D01*
X6845824Y-15757445D02*
X6855347Y-15719349D01*
X6855347Y-15719349D02*
X6855347Y-15643159D01*
X6855347Y-15643159D02*
X6845824Y-15624111D01*
X6845824Y-15624111D02*
X6836300Y-15614588D01*
X6836300Y-15614588D02*
X6817252Y-15605064D01*
X6817252Y-15605064D02*
X6779157Y-15605064D01*
X6779157Y-15605064D02*
X6760109Y-15614588D01*
X6760109Y-15614588D02*
X6750586Y-15624111D01*
X6750586Y-15624111D02*
X6741062Y-15643159D01*
X6741062Y-15643159D02*
X6741062Y-15690778D01*
X6741062Y-15690778D02*
X6750586Y-15709826D01*
X6750586Y-15709826D02*
X6760109Y-15719349D01*
X6760109Y-15719349D02*
X6779157Y-15728873D01*
X6779157Y-15728873D02*
X6817252Y-15728873D01*
X6817252Y-15728873D02*
X6836300Y-15719349D01*
X6836300Y-15719349D02*
X6845824Y-15709826D01*
X6845824Y-15709826D02*
X6855347Y-15690778D01*
X7036300Y-15605064D02*
X6941062Y-15605064D01*
X6941062Y-15605064D02*
X6931538Y-15700302D01*
X6931538Y-15700302D02*
X6941062Y-15690778D01*
X6941062Y-15690778D02*
X6960109Y-15681254D01*
X6960109Y-15681254D02*
X7007728Y-15681254D01*
X7007728Y-15681254D02*
X7026776Y-15690778D01*
X7026776Y-15690778D02*
X7036300Y-15700302D01*
X7036300Y-15700302D02*
X7045824Y-15719349D01*
X7045824Y-15719349D02*
X7045824Y-15766968D01*
X7045824Y-15766968D02*
X7036300Y-15786016D01*
X7036300Y-15786016D02*
X7026776Y-15795540D01*
X7026776Y-15795540D02*
X7007728Y-15805064D01*
X7007728Y-15805064D02*
X6960109Y-15805064D01*
X6960109Y-15805064D02*
X6941062Y-15795540D01*
X6941062Y-15795540D02*
X6931538Y-15786016D01*
X7122014Y-15605064D02*
X7122014Y-15643159D01*
X7198205Y-15605064D02*
X7198205Y-15643159D01*
X7493443Y-15881254D02*
X7483919Y-15871730D01*
X7483919Y-15871730D02*
X7464871Y-15843159D01*
X7464871Y-15843159D02*
X7455348Y-15824111D01*
X7455348Y-15824111D02*
X7445824Y-15795540D01*
X7445824Y-15795540D02*
X7436300Y-15747921D01*
X7436300Y-15747921D02*
X7436300Y-15709826D01*
X7436300Y-15709826D02*
X7445824Y-15662207D01*
X7445824Y-15662207D02*
X7455348Y-15633635D01*
X7455348Y-15633635D02*
X7464871Y-15614588D01*
X7464871Y-15614588D02*
X7483919Y-15586016D01*
X7483919Y-15586016D02*
X7493443Y-15576492D01*
X7560109Y-15624111D02*
X7569633Y-15614588D01*
X7569633Y-15614588D02*
X7588681Y-15605064D01*
X7588681Y-15605064D02*
X7636300Y-15605064D01*
X7636300Y-15605064D02*
X7655348Y-15614588D01*
X7655348Y-15614588D02*
X7664871Y-15624111D01*
X7664871Y-15624111D02*
X7674395Y-15643159D01*
X7674395Y-15643159D02*
X7674395Y-15662207D01*
X7674395Y-15662207D02*
X7664871Y-15690778D01*
X7664871Y-15690778D02*
X7550586Y-15805064D01*
X7550586Y-15805064D02*
X7674395Y-15805064D01*
X7912490Y-15805064D02*
X7912490Y-15605064D01*
X7998205Y-15805064D02*
X7998205Y-15700302D01*
X7998205Y-15700302D02*
X7988681Y-15681254D01*
X7988681Y-15681254D02*
X7969633Y-15671730D01*
X7969633Y-15671730D02*
X7941062Y-15671730D01*
X7941062Y-15671730D02*
X7922014Y-15681254D01*
X7922014Y-15681254D02*
X7912490Y-15690778D01*
X8122014Y-15805064D02*
X8102967Y-15795540D01*
X8102967Y-15795540D02*
X8093443Y-15786016D01*
X8093443Y-15786016D02*
X8083919Y-15766968D01*
X8083919Y-15766968D02*
X8083919Y-15709826D01*
X8083919Y-15709826D02*
X8093443Y-15690778D01*
X8093443Y-15690778D02*
X8102967Y-15681254D01*
X8102967Y-15681254D02*
X8122014Y-15671730D01*
X8122014Y-15671730D02*
X8150586Y-15671730D01*
X8150586Y-15671730D02*
X8169633Y-15681254D01*
X8169633Y-15681254D02*
X8179157Y-15690778D01*
X8179157Y-15690778D02*
X8188681Y-15709826D01*
X8188681Y-15709826D02*
X8188681Y-15766968D01*
X8188681Y-15766968D02*
X8179157Y-15786016D01*
X8179157Y-15786016D02*
X8169633Y-15795540D01*
X8169633Y-15795540D02*
X8150586Y-15805064D01*
X8150586Y-15805064D02*
X8122014Y-15805064D01*
X8302967Y-15805064D02*
X8283919Y-15795540D01*
X8283919Y-15795540D02*
X8274395Y-15776492D01*
X8274395Y-15776492D02*
X8274395Y-15605064D01*
X8455348Y-15795540D02*
X8436300Y-15805064D01*
X8436300Y-15805064D02*
X8398205Y-15805064D01*
X8398205Y-15805064D02*
X8379157Y-15795540D01*
X8379157Y-15795540D02*
X8369633Y-15776492D01*
X8369633Y-15776492D02*
X8369633Y-15700302D01*
X8369633Y-15700302D02*
X8379157Y-15681254D01*
X8379157Y-15681254D02*
X8398205Y-15671730D01*
X8398205Y-15671730D02*
X8436300Y-15671730D01*
X8436300Y-15671730D02*
X8455348Y-15681254D01*
X8455348Y-15681254D02*
X8464872Y-15700302D01*
X8464872Y-15700302D02*
X8464872Y-15719349D01*
X8464872Y-15719349D02*
X8369633Y-15738397D01*
X8541062Y-15795540D02*
X8560110Y-15805064D01*
X8560110Y-15805064D02*
X8598205Y-15805064D01*
X8598205Y-15805064D02*
X8617253Y-15795540D01*
X8617253Y-15795540D02*
X8626776Y-15776492D01*
X8626776Y-15776492D02*
X8626776Y-15766968D01*
X8626776Y-15766968D02*
X8617253Y-15747921D01*
X8617253Y-15747921D02*
X8598205Y-15738397D01*
X8598205Y-15738397D02*
X8569633Y-15738397D01*
X8569633Y-15738397D02*
X8550586Y-15728873D01*
X8550586Y-15728873D02*
X8541062Y-15709826D01*
X8541062Y-15709826D02*
X8541062Y-15700302D01*
X8541062Y-15700302D02*
X8550586Y-15681254D01*
X8550586Y-15681254D02*
X8569633Y-15671730D01*
X8569633Y-15671730D02*
X8598205Y-15671730D01*
X8598205Y-15671730D02*
X8617253Y-15681254D01*
X8693443Y-15881254D02*
X8702967Y-15871730D01*
X8702967Y-15871730D02*
X8722014Y-15843159D01*
X8722014Y-15843159D02*
X8731538Y-15824111D01*
X8731538Y-15824111D02*
X8741062Y-15795540D01*
X8741062Y-15795540D02*
X8750586Y-15747921D01*
X8750586Y-15747921D02*
X8750586Y-15709826D01*
X8750586Y-15709826D02*
X8741062Y-15662207D01*
X8741062Y-15662207D02*
X8731538Y-15633635D01*
X8731538Y-15633635D02*
X8722014Y-15614588D01*
X8722014Y-15614588D02*
X8702967Y-15586016D01*
X8702967Y-15586016D02*
X8693443Y-15576492D01*
D10*
X3868380Y-15927580D02*
X3868380Y-16027580D01*
X3818380Y-15977580D02*
X3918380Y-15977580D01*
D11*
X4283919Y-16069064D02*
X4169633Y-16069064D01*
X4226776Y-16069064D02*
X4226776Y-15869064D01*
X4226776Y-15869064D02*
X4207728Y-15897635D01*
X4207728Y-15897635D02*
X4188681Y-15916683D01*
X4188681Y-15916683D02*
X4169633Y-15926207D01*
X4369633Y-16050016D02*
X4379157Y-16059540D01*
X4379157Y-16059540D02*
X4369633Y-16069064D01*
X4369633Y-16069064D02*
X4360109Y-16059540D01*
X4360109Y-16059540D02*
X4369633Y-16050016D01*
X4369633Y-16050016D02*
X4369633Y-16069064D01*
X4502966Y-15869064D02*
X4522014Y-15869064D01*
X4522014Y-15869064D02*
X4541062Y-15878588D01*
X4541062Y-15878588D02*
X4550585Y-15888111D01*
X4550585Y-15888111D02*
X4560109Y-15907159D01*
X4560109Y-15907159D02*
X4569633Y-15945254D01*
X4569633Y-15945254D02*
X4569633Y-15992873D01*
X4569633Y-15992873D02*
X4560109Y-16030968D01*
X4560109Y-16030968D02*
X4550585Y-16050016D01*
X4550585Y-16050016D02*
X4541062Y-16059540D01*
X4541062Y-16059540D02*
X4522014Y-16069064D01*
X4522014Y-16069064D02*
X4502966Y-16069064D01*
X4502966Y-16069064D02*
X4483919Y-16059540D01*
X4483919Y-16059540D02*
X4474395Y-16050016D01*
X4474395Y-16050016D02*
X4464871Y-16030968D01*
X4464871Y-16030968D02*
X4455347Y-15992873D01*
X4455347Y-15992873D02*
X4455347Y-15945254D01*
X4455347Y-15945254D02*
X4464871Y-15907159D01*
X4464871Y-15907159D02*
X4474395Y-15888111D01*
X4474395Y-15888111D02*
X4483919Y-15878588D01*
X4483919Y-15878588D02*
X4502966Y-15869064D01*
X4693443Y-15869064D02*
X4712490Y-15869064D01*
X4712490Y-15869064D02*
X4731538Y-15878588D01*
X4731538Y-15878588D02*
X4741062Y-15888111D01*
X4741062Y-15888111D02*
X4750585Y-15907159D01*
X4750585Y-15907159D02*
X4760109Y-15945254D01*
X4760109Y-15945254D02*
X4760109Y-15992873D01*
X4760109Y-15992873D02*
X4750585Y-16030968D01*
X4750585Y-16030968D02*
X4741062Y-16050016D01*
X4741062Y-16050016D02*
X4731538Y-16059540D01*
X4731538Y-16059540D02*
X4712490Y-16069064D01*
X4712490Y-16069064D02*
X4693443Y-16069064D01*
X4693443Y-16069064D02*
X4674395Y-16059540D01*
X4674395Y-16059540D02*
X4664871Y-16050016D01*
X4664871Y-16050016D02*
X4655347Y-16030968D01*
X4655347Y-16030968D02*
X4645824Y-15992873D01*
X4645824Y-15992873D02*
X4645824Y-15945254D01*
X4645824Y-15945254D02*
X4655347Y-15907159D01*
X4655347Y-15907159D02*
X4664871Y-15888111D01*
X4664871Y-15888111D02*
X4674395Y-15878588D01*
X4674395Y-15878588D02*
X4693443Y-15869064D01*
X4883919Y-15869064D02*
X4902966Y-15869064D01*
X4902966Y-15869064D02*
X4922014Y-15878588D01*
X4922014Y-15878588D02*
X4931538Y-15888111D01*
X4931538Y-15888111D02*
X4941062Y-15907159D01*
X4941062Y-15907159D02*
X4950585Y-15945254D01*
X4950585Y-15945254D02*
X4950585Y-15992873D01*
X4950585Y-15992873D02*
X4941062Y-16030968D01*
X4941062Y-16030968D02*
X4931538Y-16050016D01*
X4931538Y-16050016D02*
X4922014Y-16059540D01*
X4922014Y-16059540D02*
X4902966Y-16069064D01*
X4902966Y-16069064D02*
X4883919Y-16069064D01*
X4883919Y-16069064D02*
X4864871Y-16059540D01*
X4864871Y-16059540D02*
X4855347Y-16050016D01*
X4855347Y-16050016D02*
X4845824Y-16030968D01*
X4845824Y-16030968D02*
X4836300Y-15992873D01*
X4836300Y-15992873D02*
X4836300Y-15945254D01*
X4836300Y-15945254D02*
X4845824Y-15907159D01*
X4845824Y-15907159D02*
X4855347Y-15888111D01*
X4855347Y-15888111D02*
X4864871Y-15878588D01*
X4864871Y-15878588D02*
X4883919Y-15869064D01*
X5036300Y-16069064D02*
X5036300Y-15935730D01*
X5036300Y-15954778D02*
X5045824Y-15945254D01*
X5045824Y-15945254D02*
X5064871Y-15935730D01*
X5064871Y-15935730D02*
X5093443Y-15935730D01*
X5093443Y-15935730D02*
X5112490Y-15945254D01*
X5112490Y-15945254D02*
X5122014Y-15964302D01*
X5122014Y-15964302D02*
X5122014Y-16069064D01*
X5122014Y-15964302D02*
X5131538Y-15945254D01*
X5131538Y-15945254D02*
X5150585Y-15935730D01*
X5150585Y-15935730D02*
X5179157Y-15935730D01*
X5179157Y-15935730D02*
X5198205Y-15945254D01*
X5198205Y-15945254D02*
X5207728Y-15964302D01*
X5207728Y-15964302D02*
X5207728Y-16069064D01*
X5302966Y-16069064D02*
X5302966Y-15935730D01*
X5302966Y-15954778D02*
X5312490Y-15945254D01*
X5312490Y-15945254D02*
X5331538Y-15935730D01*
X5331538Y-15935730D02*
X5360109Y-15935730D01*
X5360109Y-15935730D02*
X5379157Y-15945254D01*
X5379157Y-15945254D02*
X5388681Y-15964302D01*
X5388681Y-15964302D02*
X5388681Y-16069064D01*
X5388681Y-15964302D02*
X5398205Y-15945254D01*
X5398205Y-15945254D02*
X5417252Y-15935730D01*
X5417252Y-15935730D02*
X5445824Y-15935730D01*
X5445824Y-15935730D02*
X5464871Y-15945254D01*
X5464871Y-15945254D02*
X5474395Y-15964302D01*
X5474395Y-15964302D02*
X5474395Y-16069064D01*
X5864871Y-15859540D02*
X5693443Y-16116683D01*
X6122014Y-15869064D02*
X6141062Y-15869064D01*
X6141062Y-15869064D02*
X6160109Y-15878588D01*
X6160109Y-15878588D02*
X6169633Y-15888111D01*
X6169633Y-15888111D02*
X6179157Y-15907159D01*
X6179157Y-15907159D02*
X6188681Y-15945254D01*
X6188681Y-15945254D02*
X6188681Y-15992873D01*
X6188681Y-15992873D02*
X6179157Y-16030968D01*
X6179157Y-16030968D02*
X6169633Y-16050016D01*
X6169633Y-16050016D02*
X6160109Y-16059540D01*
X6160109Y-16059540D02*
X6141062Y-16069064D01*
X6141062Y-16069064D02*
X6122014Y-16069064D01*
X6122014Y-16069064D02*
X6102966Y-16059540D01*
X6102966Y-16059540D02*
X6093443Y-16050016D01*
X6093443Y-16050016D02*
X6083919Y-16030968D01*
X6083919Y-16030968D02*
X6074395Y-15992873D01*
X6074395Y-15992873D02*
X6074395Y-15945254D01*
X6074395Y-15945254D02*
X6083919Y-15907159D01*
X6083919Y-15907159D02*
X6093443Y-15888111D01*
X6093443Y-15888111D02*
X6102966Y-15878588D01*
X6102966Y-15878588D02*
X6122014Y-15869064D01*
X6274395Y-16050016D02*
X6283919Y-16059540D01*
X6283919Y-16059540D02*
X6274395Y-16069064D01*
X6274395Y-16069064D02*
X6264871Y-16059540D01*
X6264871Y-16059540D02*
X6274395Y-16050016D01*
X6274395Y-16050016D02*
X6274395Y-16069064D01*
X6407728Y-15869064D02*
X6426776Y-15869064D01*
X6426776Y-15869064D02*
X6445824Y-15878588D01*
X6445824Y-15878588D02*
X6455347Y-15888111D01*
X6455347Y-15888111D02*
X6464871Y-15907159D01*
X6464871Y-15907159D02*
X6474395Y-15945254D01*
X6474395Y-15945254D02*
X6474395Y-15992873D01*
X6474395Y-15992873D02*
X6464871Y-16030968D01*
X6464871Y-16030968D02*
X6455347Y-16050016D01*
X6455347Y-16050016D02*
X6445824Y-16059540D01*
X6445824Y-16059540D02*
X6426776Y-16069064D01*
X6426776Y-16069064D02*
X6407728Y-16069064D01*
X6407728Y-16069064D02*
X6388681Y-16059540D01*
X6388681Y-16059540D02*
X6379157Y-16050016D01*
X6379157Y-16050016D02*
X6369633Y-16030968D01*
X6369633Y-16030968D02*
X6360109Y-15992873D01*
X6360109Y-15992873D02*
X6360109Y-15945254D01*
X6360109Y-15945254D02*
X6369633Y-15907159D01*
X6369633Y-15907159D02*
X6379157Y-15888111D01*
X6379157Y-15888111D02*
X6388681Y-15878588D01*
X6388681Y-15878588D02*
X6407728Y-15869064D01*
X6541062Y-15869064D02*
X6664871Y-15869064D01*
X6664871Y-15869064D02*
X6598205Y-15945254D01*
X6598205Y-15945254D02*
X6626776Y-15945254D01*
X6626776Y-15945254D02*
X6645824Y-15954778D01*
X6645824Y-15954778D02*
X6655347Y-15964302D01*
X6655347Y-15964302D02*
X6664871Y-15983349D01*
X6664871Y-15983349D02*
X6664871Y-16030968D01*
X6664871Y-16030968D02*
X6655347Y-16050016D01*
X6655347Y-16050016D02*
X6645824Y-16059540D01*
X6645824Y-16059540D02*
X6626776Y-16069064D01*
X6626776Y-16069064D02*
X6569633Y-16069064D01*
X6569633Y-16069064D02*
X6550586Y-16059540D01*
X6550586Y-16059540D02*
X6541062Y-16050016D01*
X6760109Y-16069064D02*
X6798205Y-16069064D01*
X6798205Y-16069064D02*
X6817252Y-16059540D01*
X6817252Y-16059540D02*
X6826776Y-16050016D01*
X6826776Y-16050016D02*
X6845824Y-16021445D01*
X6845824Y-16021445D02*
X6855347Y-15983349D01*
X6855347Y-15983349D02*
X6855347Y-15907159D01*
X6855347Y-15907159D02*
X6845824Y-15888111D01*
X6845824Y-15888111D02*
X6836300Y-15878588D01*
X6836300Y-15878588D02*
X6817252Y-15869064D01*
X6817252Y-15869064D02*
X6779157Y-15869064D01*
X6779157Y-15869064D02*
X6760109Y-15878588D01*
X6760109Y-15878588D02*
X6750586Y-15888111D01*
X6750586Y-15888111D02*
X6741062Y-15907159D01*
X6741062Y-15907159D02*
X6741062Y-15954778D01*
X6741062Y-15954778D02*
X6750586Y-15973826D01*
X6750586Y-15973826D02*
X6760109Y-15983349D01*
X6760109Y-15983349D02*
X6779157Y-15992873D01*
X6779157Y-15992873D02*
X6817252Y-15992873D01*
X6817252Y-15992873D02*
X6836300Y-15983349D01*
X6836300Y-15983349D02*
X6845824Y-15973826D01*
X6845824Y-15973826D02*
X6855347Y-15954778D01*
X7026776Y-15935730D02*
X7026776Y-16069064D01*
X6979157Y-15859540D02*
X6931538Y-16002397D01*
X6931538Y-16002397D02*
X7055347Y-16002397D01*
X7122014Y-15869064D02*
X7122014Y-15907159D01*
X7198205Y-15869064D02*
X7198205Y-15907159D01*
X7493443Y-16145254D02*
X7483919Y-16135730D01*
X7483919Y-16135730D02*
X7464871Y-16107159D01*
X7464871Y-16107159D02*
X7455348Y-16088111D01*
X7455348Y-16088111D02*
X7445824Y-16059540D01*
X7445824Y-16059540D02*
X7436300Y-16011921D01*
X7436300Y-16011921D02*
X7436300Y-15973826D01*
X7436300Y-15973826D02*
X7445824Y-15926207D01*
X7445824Y-15926207D02*
X7455348Y-15897635D01*
X7455348Y-15897635D02*
X7464871Y-15878588D01*
X7464871Y-15878588D02*
X7483919Y-15850016D01*
X7483919Y-15850016D02*
X7493443Y-15840492D01*
X7550586Y-15869064D02*
X7674395Y-15869064D01*
X7674395Y-15869064D02*
X7607728Y-15945254D01*
X7607728Y-15945254D02*
X7636300Y-15945254D01*
X7636300Y-15945254D02*
X7655348Y-15954778D01*
X7655348Y-15954778D02*
X7664871Y-15964302D01*
X7664871Y-15964302D02*
X7674395Y-15983349D01*
X7674395Y-15983349D02*
X7674395Y-16030968D01*
X7674395Y-16030968D02*
X7664871Y-16050016D01*
X7664871Y-16050016D02*
X7655348Y-16059540D01*
X7655348Y-16059540D02*
X7636300Y-16069064D01*
X7636300Y-16069064D02*
X7579157Y-16069064D01*
X7579157Y-16069064D02*
X7560109Y-16059540D01*
X7560109Y-16059540D02*
X7550586Y-16050016D01*
X7845824Y-15935730D02*
X7845824Y-16069064D01*
X7798205Y-15859540D02*
X7750586Y-16002397D01*
X7750586Y-16002397D02*
X7874395Y-16002397D01*
X8102967Y-16069064D02*
X8102967Y-15869064D01*
X8188681Y-16069064D02*
X8188681Y-15964302D01*
X8188681Y-15964302D02*
X8179157Y-15945254D01*
X8179157Y-15945254D02*
X8160110Y-15935730D01*
X8160110Y-15935730D02*
X8131538Y-15935730D01*
X8131538Y-15935730D02*
X8112490Y-15945254D01*
X8112490Y-15945254D02*
X8102967Y-15954778D01*
X8312490Y-16069064D02*
X8293443Y-16059540D01*
X8293443Y-16059540D02*
X8283919Y-16050016D01*
X8283919Y-16050016D02*
X8274395Y-16030968D01*
X8274395Y-16030968D02*
X8274395Y-15973826D01*
X8274395Y-15973826D02*
X8283919Y-15954778D01*
X8283919Y-15954778D02*
X8293443Y-15945254D01*
X8293443Y-15945254D02*
X8312490Y-15935730D01*
X8312490Y-15935730D02*
X8341062Y-15935730D01*
X8341062Y-15935730D02*
X8360110Y-15945254D01*
X8360110Y-15945254D02*
X8369633Y-15954778D01*
X8369633Y-15954778D02*
X8379157Y-15973826D01*
X8379157Y-15973826D02*
X8379157Y-16030968D01*
X8379157Y-16030968D02*
X8369633Y-16050016D01*
X8369633Y-16050016D02*
X8360110Y-16059540D01*
X8360110Y-16059540D02*
X8341062Y-16069064D01*
X8341062Y-16069064D02*
X8312490Y-16069064D01*
X8493443Y-16069064D02*
X8474395Y-16059540D01*
X8474395Y-16059540D02*
X8464872Y-16040492D01*
X8464872Y-16040492D02*
X8464872Y-15869064D01*
X8645824Y-16059540D02*
X8626776Y-16069064D01*
X8626776Y-16069064D02*
X8588681Y-16069064D01*
X8588681Y-16069064D02*
X8569633Y-16059540D01*
X8569633Y-16059540D02*
X8560110Y-16040492D01*
X8560110Y-16040492D02*
X8560110Y-15964302D01*
X8560110Y-15964302D02*
X8569633Y-15945254D01*
X8569633Y-15945254D02*
X8588681Y-15935730D01*
X8588681Y-15935730D02*
X8626776Y-15935730D01*
X8626776Y-15935730D02*
X8645824Y-15945254D01*
X8645824Y-15945254D02*
X8655348Y-15964302D01*
X8655348Y-15964302D02*
X8655348Y-15983349D01*
X8655348Y-15983349D02*
X8560110Y-16002397D01*
X8731538Y-16059540D02*
X8750586Y-16069064D01*
X8750586Y-16069064D02*
X8788681Y-16069064D01*
X8788681Y-16069064D02*
X8807729Y-16059540D01*
X8807729Y-16059540D02*
X8817253Y-16040492D01*
X8817253Y-16040492D02*
X8817253Y-16030968D01*
X8817253Y-16030968D02*
X8807729Y-16011921D01*
X8807729Y-16011921D02*
X8788681Y-16002397D01*
X8788681Y-16002397D02*
X8760110Y-16002397D01*
X8760110Y-16002397D02*
X8741062Y-15992873D01*
X8741062Y-15992873D02*
X8731538Y-15973826D01*
X8731538Y-15973826D02*
X8731538Y-15964302D01*
X8731538Y-15964302D02*
X8741062Y-15945254D01*
X8741062Y-15945254D02*
X8760110Y-15935730D01*
X8760110Y-15935730D02*
X8788681Y-15935730D01*
X8788681Y-15935730D02*
X8807729Y-15945254D01*
X8883919Y-16145254D02*
X8893443Y-16135730D01*
X8893443Y-16135730D02*
X8912491Y-16107159D01*
X8912491Y-16107159D02*
X8922014Y-16088111D01*
X8922014Y-16088111D02*
X8931538Y-16059540D01*
X8931538Y-16059540D02*
X8941062Y-16011921D01*
X8941062Y-16011921D02*
X8941062Y-15973826D01*
X8941062Y-15973826D02*
X8931538Y-15926207D01*
X8931538Y-15926207D02*
X8922014Y-15897635D01*
X8922014Y-15897635D02*
X8912491Y-15878588D01*
X8912491Y-15878588D02*
X8893443Y-15850016D01*
X8893443Y-15850016D02*
X8883919Y-15840492D01*
D14*
X3902385Y-16280195D02*
X3902385Y-16202964D01*
X3825154Y-16202964D01*
X3825154Y-16280195D01*
X3902385Y-16280195D01*
D11*
X4283919Y-16333064D02*
X4169633Y-16333064D01*
X4226776Y-16333064D02*
X4226776Y-16133064D01*
X4226776Y-16133064D02*
X4207728Y-16161635D01*
X4207728Y-16161635D02*
X4188681Y-16180683D01*
X4188681Y-16180683D02*
X4169633Y-16190207D01*
X4369633Y-16314016D02*
X4379157Y-16323540D01*
X4379157Y-16323540D02*
X4369633Y-16333064D01*
X4369633Y-16333064D02*
X4360109Y-16323540D01*
X4360109Y-16323540D02*
X4369633Y-16314016D01*
X4369633Y-16314016D02*
X4369633Y-16333064D01*
X4502966Y-16133064D02*
X4522014Y-16133064D01*
X4522014Y-16133064D02*
X4541062Y-16142588D01*
X4541062Y-16142588D02*
X4550585Y-16152111D01*
X4550585Y-16152111D02*
X4560109Y-16171159D01*
X4560109Y-16171159D02*
X4569633Y-16209254D01*
X4569633Y-16209254D02*
X4569633Y-16256873D01*
X4569633Y-16256873D02*
X4560109Y-16294968D01*
X4560109Y-16294968D02*
X4550585Y-16314016D01*
X4550585Y-16314016D02*
X4541062Y-16323540D01*
X4541062Y-16323540D02*
X4522014Y-16333064D01*
X4522014Y-16333064D02*
X4502966Y-16333064D01*
X4502966Y-16333064D02*
X4483919Y-16323540D01*
X4483919Y-16323540D02*
X4474395Y-16314016D01*
X4474395Y-16314016D02*
X4464871Y-16294968D01*
X4464871Y-16294968D02*
X4455347Y-16256873D01*
X4455347Y-16256873D02*
X4455347Y-16209254D01*
X4455347Y-16209254D02*
X4464871Y-16171159D01*
X4464871Y-16171159D02*
X4474395Y-16152111D01*
X4474395Y-16152111D02*
X4483919Y-16142588D01*
X4483919Y-16142588D02*
X4502966Y-16133064D01*
X4664871Y-16333064D02*
X4702966Y-16333064D01*
X4702966Y-16333064D02*
X4722014Y-16323540D01*
X4722014Y-16323540D02*
X4731538Y-16314016D01*
X4731538Y-16314016D02*
X4750585Y-16285445D01*
X4750585Y-16285445D02*
X4760109Y-16247349D01*
X4760109Y-16247349D02*
X4760109Y-16171159D01*
X4760109Y-16171159D02*
X4750585Y-16152111D01*
X4750585Y-16152111D02*
X4741062Y-16142588D01*
X4741062Y-16142588D02*
X4722014Y-16133064D01*
X4722014Y-16133064D02*
X4683919Y-16133064D01*
X4683919Y-16133064D02*
X4664871Y-16142588D01*
X4664871Y-16142588D02*
X4655347Y-16152111D01*
X4655347Y-16152111D02*
X4645824Y-16171159D01*
X4645824Y-16171159D02*
X4645824Y-16218778D01*
X4645824Y-16218778D02*
X4655347Y-16237826D01*
X4655347Y-16237826D02*
X4664871Y-16247349D01*
X4664871Y-16247349D02*
X4683919Y-16256873D01*
X4683919Y-16256873D02*
X4722014Y-16256873D01*
X4722014Y-16256873D02*
X4741062Y-16247349D01*
X4741062Y-16247349D02*
X4750585Y-16237826D01*
X4750585Y-16237826D02*
X4760109Y-16218778D01*
X4836300Y-16152111D02*
X4845824Y-16142588D01*
X4845824Y-16142588D02*
X4864871Y-16133064D01*
X4864871Y-16133064D02*
X4912490Y-16133064D01*
X4912490Y-16133064D02*
X4931538Y-16142588D01*
X4931538Y-16142588D02*
X4941062Y-16152111D01*
X4941062Y-16152111D02*
X4950585Y-16171159D01*
X4950585Y-16171159D02*
X4950585Y-16190207D01*
X4950585Y-16190207D02*
X4941062Y-16218778D01*
X4941062Y-16218778D02*
X4826776Y-16333064D01*
X4826776Y-16333064D02*
X4950585Y-16333064D01*
X5036300Y-16333064D02*
X5036300Y-16199730D01*
X5036300Y-16218778D02*
X5045824Y-16209254D01*
X5045824Y-16209254D02*
X5064871Y-16199730D01*
X5064871Y-16199730D02*
X5093443Y-16199730D01*
X5093443Y-16199730D02*
X5112490Y-16209254D01*
X5112490Y-16209254D02*
X5122014Y-16228302D01*
X5122014Y-16228302D02*
X5122014Y-16333064D01*
X5122014Y-16228302D02*
X5131538Y-16209254D01*
X5131538Y-16209254D02*
X5150585Y-16199730D01*
X5150585Y-16199730D02*
X5179157Y-16199730D01*
X5179157Y-16199730D02*
X5198205Y-16209254D01*
X5198205Y-16209254D02*
X5207728Y-16228302D01*
X5207728Y-16228302D02*
X5207728Y-16333064D01*
X5302966Y-16333064D02*
X5302966Y-16199730D01*
X5302966Y-16218778D02*
X5312490Y-16209254D01*
X5312490Y-16209254D02*
X5331538Y-16199730D01*
X5331538Y-16199730D02*
X5360109Y-16199730D01*
X5360109Y-16199730D02*
X5379157Y-16209254D01*
X5379157Y-16209254D02*
X5388681Y-16228302D01*
X5388681Y-16228302D02*
X5388681Y-16333064D01*
X5388681Y-16228302D02*
X5398205Y-16209254D01*
X5398205Y-16209254D02*
X5417252Y-16199730D01*
X5417252Y-16199730D02*
X5445824Y-16199730D01*
X5445824Y-16199730D02*
X5464871Y-16209254D01*
X5464871Y-16209254D02*
X5474395Y-16228302D01*
X5474395Y-16228302D02*
X5474395Y-16333064D01*
X5864871Y-16123540D02*
X5693443Y-16380683D01*
X6122014Y-16133064D02*
X6141062Y-16133064D01*
X6141062Y-16133064D02*
X6160109Y-16142588D01*
X6160109Y-16142588D02*
X6169633Y-16152111D01*
X6169633Y-16152111D02*
X6179157Y-16171159D01*
X6179157Y-16171159D02*
X6188681Y-16209254D01*
X6188681Y-16209254D02*
X6188681Y-16256873D01*
X6188681Y-16256873D02*
X6179157Y-16294968D01*
X6179157Y-16294968D02*
X6169633Y-16314016D01*
X6169633Y-16314016D02*
X6160109Y-16323540D01*
X6160109Y-16323540D02*
X6141062Y-16333064D01*
X6141062Y-16333064D02*
X6122014Y-16333064D01*
X6122014Y-16333064D02*
X6102966Y-16323540D01*
X6102966Y-16323540D02*
X6093443Y-16314016D01*
X6093443Y-16314016D02*
X6083919Y-16294968D01*
X6083919Y-16294968D02*
X6074395Y-16256873D01*
X6074395Y-16256873D02*
X6074395Y-16209254D01*
X6074395Y-16209254D02*
X6083919Y-16171159D01*
X6083919Y-16171159D02*
X6093443Y-16152111D01*
X6093443Y-16152111D02*
X6102966Y-16142588D01*
X6102966Y-16142588D02*
X6122014Y-16133064D01*
X6274395Y-16314016D02*
X6283919Y-16323540D01*
X6283919Y-16323540D02*
X6274395Y-16333064D01*
X6274395Y-16333064D02*
X6264871Y-16323540D01*
X6264871Y-16323540D02*
X6274395Y-16314016D01*
X6274395Y-16314016D02*
X6274395Y-16333064D01*
X6407728Y-16133064D02*
X6426776Y-16133064D01*
X6426776Y-16133064D02*
X6445824Y-16142588D01*
X6445824Y-16142588D02*
X6455347Y-16152111D01*
X6455347Y-16152111D02*
X6464871Y-16171159D01*
X6464871Y-16171159D02*
X6474395Y-16209254D01*
X6474395Y-16209254D02*
X6474395Y-16256873D01*
X6474395Y-16256873D02*
X6464871Y-16294968D01*
X6464871Y-16294968D02*
X6455347Y-16314016D01*
X6455347Y-16314016D02*
X6445824Y-16323540D01*
X6445824Y-16323540D02*
X6426776Y-16333064D01*
X6426776Y-16333064D02*
X6407728Y-16333064D01*
X6407728Y-16333064D02*
X6388681Y-16323540D01*
X6388681Y-16323540D02*
X6379157Y-16314016D01*
X6379157Y-16314016D02*
X6369633Y-16294968D01*
X6369633Y-16294968D02*
X6360109Y-16256873D01*
X6360109Y-16256873D02*
X6360109Y-16209254D01*
X6360109Y-16209254D02*
X6369633Y-16171159D01*
X6369633Y-16171159D02*
X6379157Y-16152111D01*
X6379157Y-16152111D02*
X6388681Y-16142588D01*
X6388681Y-16142588D02*
X6407728Y-16133064D01*
X6645824Y-16199730D02*
X6645824Y-16333064D01*
X6598205Y-16123540D02*
X6550586Y-16266397D01*
X6550586Y-16266397D02*
X6674395Y-16266397D01*
X6731538Y-16133064D02*
X6855347Y-16133064D01*
X6855347Y-16133064D02*
X6788681Y-16209254D01*
X6788681Y-16209254D02*
X6817252Y-16209254D01*
X6817252Y-16209254D02*
X6836300Y-16218778D01*
X6836300Y-16218778D02*
X6845824Y-16228302D01*
X6845824Y-16228302D02*
X6855347Y-16247349D01*
X6855347Y-16247349D02*
X6855347Y-16294968D01*
X6855347Y-16294968D02*
X6845824Y-16314016D01*
X6845824Y-16314016D02*
X6836300Y-16323540D01*
X6836300Y-16323540D02*
X6817252Y-16333064D01*
X6817252Y-16333064D02*
X6760109Y-16333064D01*
X6760109Y-16333064D02*
X6741062Y-16323540D01*
X6741062Y-16323540D02*
X6731538Y-16314016D01*
X6979157Y-16133064D02*
X6998205Y-16133064D01*
X6998205Y-16133064D02*
X7017252Y-16142588D01*
X7017252Y-16142588D02*
X7026776Y-16152111D01*
X7026776Y-16152111D02*
X7036300Y-16171159D01*
X7036300Y-16171159D02*
X7045824Y-16209254D01*
X7045824Y-16209254D02*
X7045824Y-16256873D01*
X7045824Y-16256873D02*
X7036300Y-16294968D01*
X7036300Y-16294968D02*
X7026776Y-16314016D01*
X7026776Y-16314016D02*
X7017252Y-16323540D01*
X7017252Y-16323540D02*
X6998205Y-16333064D01*
X6998205Y-16333064D02*
X6979157Y-16333064D01*
X6979157Y-16333064D02*
X6960109Y-16323540D01*
X6960109Y-16323540D02*
X6950586Y-16314016D01*
X6950586Y-16314016D02*
X6941062Y-16294968D01*
X6941062Y-16294968D02*
X6931538Y-16256873D01*
X6931538Y-16256873D02*
X6931538Y-16209254D01*
X6931538Y-16209254D02*
X6941062Y-16171159D01*
X6941062Y-16171159D02*
X6950586Y-16152111D01*
X6950586Y-16152111D02*
X6960109Y-16142588D01*
X6960109Y-16142588D02*
X6979157Y-16133064D01*
X7122014Y-16133064D02*
X7122014Y-16171159D01*
X7198205Y-16133064D02*
X7198205Y-16171159D01*
X7493443Y-16409254D02*
X7483919Y-16399730D01*
X7483919Y-16399730D02*
X7464871Y-16371159D01*
X7464871Y-16371159D02*
X7455348Y-16352111D01*
X7455348Y-16352111D02*
X7445824Y-16323540D01*
X7445824Y-16323540D02*
X7436300Y-16275921D01*
X7436300Y-16275921D02*
X7436300Y-16237826D01*
X7436300Y-16237826D02*
X7445824Y-16190207D01*
X7445824Y-16190207D02*
X7455348Y-16161635D01*
X7455348Y-16161635D02*
X7464871Y-16142588D01*
X7464871Y-16142588D02*
X7483919Y-16114016D01*
X7483919Y-16114016D02*
X7493443Y-16104492D01*
X7664871Y-16133064D02*
X7569633Y-16133064D01*
X7569633Y-16133064D02*
X7560109Y-16228302D01*
X7560109Y-16228302D02*
X7569633Y-16218778D01*
X7569633Y-16218778D02*
X7588681Y-16209254D01*
X7588681Y-16209254D02*
X7636300Y-16209254D01*
X7636300Y-16209254D02*
X7655348Y-16218778D01*
X7655348Y-16218778D02*
X7664871Y-16228302D01*
X7664871Y-16228302D02*
X7674395Y-16247349D01*
X7674395Y-16247349D02*
X7674395Y-16294968D01*
X7674395Y-16294968D02*
X7664871Y-16314016D01*
X7664871Y-16314016D02*
X7655348Y-16323540D01*
X7655348Y-16323540D02*
X7636300Y-16333064D01*
X7636300Y-16333064D02*
X7588681Y-16333064D01*
X7588681Y-16333064D02*
X7569633Y-16323540D01*
X7569633Y-16323540D02*
X7560109Y-16314016D01*
X7912490Y-16333064D02*
X7912490Y-16133064D01*
X7998205Y-16333064D02*
X7998205Y-16228302D01*
X7998205Y-16228302D02*
X7988681Y-16209254D01*
X7988681Y-16209254D02*
X7969633Y-16199730D01*
X7969633Y-16199730D02*
X7941062Y-16199730D01*
X7941062Y-16199730D02*
X7922014Y-16209254D01*
X7922014Y-16209254D02*
X7912490Y-16218778D01*
X8122014Y-16333064D02*
X8102967Y-16323540D01*
X8102967Y-16323540D02*
X8093443Y-16314016D01*
X8093443Y-16314016D02*
X8083919Y-16294968D01*
X8083919Y-16294968D02*
X8083919Y-16237826D01*
X8083919Y-16237826D02*
X8093443Y-16218778D01*
X8093443Y-16218778D02*
X8102967Y-16209254D01*
X8102967Y-16209254D02*
X8122014Y-16199730D01*
X8122014Y-16199730D02*
X8150586Y-16199730D01*
X8150586Y-16199730D02*
X8169633Y-16209254D01*
X8169633Y-16209254D02*
X8179157Y-16218778D01*
X8179157Y-16218778D02*
X8188681Y-16237826D01*
X8188681Y-16237826D02*
X8188681Y-16294968D01*
X8188681Y-16294968D02*
X8179157Y-16314016D01*
X8179157Y-16314016D02*
X8169633Y-16323540D01*
X8169633Y-16323540D02*
X8150586Y-16333064D01*
X8150586Y-16333064D02*
X8122014Y-16333064D01*
X8302967Y-16333064D02*
X8283919Y-16323540D01*
X8283919Y-16323540D02*
X8274395Y-16304492D01*
X8274395Y-16304492D02*
X8274395Y-16133064D01*
X8455348Y-16323540D02*
X8436300Y-16333064D01*
X8436300Y-16333064D02*
X8398205Y-16333064D01*
X8398205Y-16333064D02*
X8379157Y-16323540D01*
X8379157Y-16323540D02*
X8369633Y-16304492D01*
X8369633Y-16304492D02*
X8369633Y-16228302D01*
X8369633Y-16228302D02*
X8379157Y-16209254D01*
X8379157Y-16209254D02*
X8398205Y-16199730D01*
X8398205Y-16199730D02*
X8436300Y-16199730D01*
X8436300Y-16199730D02*
X8455348Y-16209254D01*
X8455348Y-16209254D02*
X8464872Y-16228302D01*
X8464872Y-16228302D02*
X8464872Y-16247349D01*
X8464872Y-16247349D02*
X8369633Y-16266397D01*
X8541062Y-16323540D02*
X8560110Y-16333064D01*
X8560110Y-16333064D02*
X8598205Y-16333064D01*
X8598205Y-16333064D02*
X8617253Y-16323540D01*
X8617253Y-16323540D02*
X8626776Y-16304492D01*
X8626776Y-16304492D02*
X8626776Y-16294968D01*
X8626776Y-16294968D02*
X8617253Y-16275921D01*
X8617253Y-16275921D02*
X8598205Y-16266397D01*
X8598205Y-16266397D02*
X8569633Y-16266397D01*
X8569633Y-16266397D02*
X8550586Y-16256873D01*
X8550586Y-16256873D02*
X8541062Y-16237826D01*
X8541062Y-16237826D02*
X8541062Y-16228302D01*
X8541062Y-16228302D02*
X8550586Y-16209254D01*
X8550586Y-16209254D02*
X8569633Y-16199730D01*
X8569633Y-16199730D02*
X8598205Y-16199730D01*
X8598205Y-16199730D02*
X8617253Y-16209254D01*
X8693443Y-16409254D02*
X8702967Y-16399730D01*
X8702967Y-16399730D02*
X8722014Y-16371159D01*
X8722014Y-16371159D02*
X8731538Y-16352111D01*
X8731538Y-16352111D02*
X8741062Y-16323540D01*
X8741062Y-16323540D02*
X8750586Y-16275921D01*
X8750586Y-16275921D02*
X8750586Y-16237826D01*
X8750586Y-16237826D02*
X8741062Y-16190207D01*
X8741062Y-16190207D02*
X8731538Y-16161635D01*
X8731538Y-16161635D02*
X8722014Y-16142588D01*
X8722014Y-16142588D02*
X8702967Y-16114016D01*
X8702967Y-16114016D02*
X8693443Y-16104492D01*
D15*
X3843380Y-16580580D02*
X3918380Y-16505580D01*
X3843380Y-16430580D01*
X3768380Y-16505580D01*
X3843380Y-16580580D01*
D11*
X4283919Y-16597064D02*
X4169633Y-16597064D01*
X4226776Y-16597064D02*
X4226776Y-16397064D01*
X4226776Y-16397064D02*
X4207728Y-16425635D01*
X4207728Y-16425635D02*
X4188681Y-16444683D01*
X4188681Y-16444683D02*
X4169633Y-16454207D01*
X4369633Y-16578016D02*
X4379157Y-16587540D01*
X4379157Y-16587540D02*
X4369633Y-16597064D01*
X4369633Y-16597064D02*
X4360109Y-16587540D01*
X4360109Y-16587540D02*
X4369633Y-16578016D01*
X4369633Y-16578016D02*
X4369633Y-16597064D01*
X4560109Y-16397064D02*
X4464871Y-16397064D01*
X4464871Y-16397064D02*
X4455347Y-16492302D01*
X4455347Y-16492302D02*
X4464871Y-16482778D01*
X4464871Y-16482778D02*
X4483919Y-16473254D01*
X4483919Y-16473254D02*
X4531538Y-16473254D01*
X4531538Y-16473254D02*
X4550585Y-16482778D01*
X4550585Y-16482778D02*
X4560109Y-16492302D01*
X4560109Y-16492302D02*
X4569633Y-16511349D01*
X4569633Y-16511349D02*
X4569633Y-16558968D01*
X4569633Y-16558968D02*
X4560109Y-16578016D01*
X4560109Y-16578016D02*
X4550585Y-16587540D01*
X4550585Y-16587540D02*
X4531538Y-16597064D01*
X4531538Y-16597064D02*
X4483919Y-16597064D01*
X4483919Y-16597064D02*
X4464871Y-16587540D01*
X4464871Y-16587540D02*
X4455347Y-16578016D01*
X4693443Y-16397064D02*
X4712490Y-16397064D01*
X4712490Y-16397064D02*
X4731538Y-16406588D01*
X4731538Y-16406588D02*
X4741062Y-16416111D01*
X4741062Y-16416111D02*
X4750585Y-16435159D01*
X4750585Y-16435159D02*
X4760109Y-16473254D01*
X4760109Y-16473254D02*
X4760109Y-16520873D01*
X4760109Y-16520873D02*
X4750585Y-16558968D01*
X4750585Y-16558968D02*
X4741062Y-16578016D01*
X4741062Y-16578016D02*
X4731538Y-16587540D01*
X4731538Y-16587540D02*
X4712490Y-16597064D01*
X4712490Y-16597064D02*
X4693443Y-16597064D01*
X4693443Y-16597064D02*
X4674395Y-16587540D01*
X4674395Y-16587540D02*
X4664871Y-16578016D01*
X4664871Y-16578016D02*
X4655347Y-16558968D01*
X4655347Y-16558968D02*
X4645824Y-16520873D01*
X4645824Y-16520873D02*
X4645824Y-16473254D01*
X4645824Y-16473254D02*
X4655347Y-16435159D01*
X4655347Y-16435159D02*
X4664871Y-16416111D01*
X4664871Y-16416111D02*
X4674395Y-16406588D01*
X4674395Y-16406588D02*
X4693443Y-16397064D01*
X4883919Y-16397064D02*
X4902966Y-16397064D01*
X4902966Y-16397064D02*
X4922014Y-16406588D01*
X4922014Y-16406588D02*
X4931538Y-16416111D01*
X4931538Y-16416111D02*
X4941062Y-16435159D01*
X4941062Y-16435159D02*
X4950585Y-16473254D01*
X4950585Y-16473254D02*
X4950585Y-16520873D01*
X4950585Y-16520873D02*
X4941062Y-16558968D01*
X4941062Y-16558968D02*
X4931538Y-16578016D01*
X4931538Y-16578016D02*
X4922014Y-16587540D01*
X4922014Y-16587540D02*
X4902966Y-16597064D01*
X4902966Y-16597064D02*
X4883919Y-16597064D01*
X4883919Y-16597064D02*
X4864871Y-16587540D01*
X4864871Y-16587540D02*
X4855347Y-16578016D01*
X4855347Y-16578016D02*
X4845824Y-16558968D01*
X4845824Y-16558968D02*
X4836300Y-16520873D01*
X4836300Y-16520873D02*
X4836300Y-16473254D01*
X4836300Y-16473254D02*
X4845824Y-16435159D01*
X4845824Y-16435159D02*
X4855347Y-16416111D01*
X4855347Y-16416111D02*
X4864871Y-16406588D01*
X4864871Y-16406588D02*
X4883919Y-16397064D01*
X5036300Y-16597064D02*
X5036300Y-16463730D01*
X5036300Y-16482778D02*
X5045824Y-16473254D01*
X5045824Y-16473254D02*
X5064871Y-16463730D01*
X5064871Y-16463730D02*
X5093443Y-16463730D01*
X5093443Y-16463730D02*
X5112490Y-16473254D01*
X5112490Y-16473254D02*
X5122014Y-16492302D01*
X5122014Y-16492302D02*
X5122014Y-16597064D01*
X5122014Y-16492302D02*
X5131538Y-16473254D01*
X5131538Y-16473254D02*
X5150585Y-16463730D01*
X5150585Y-16463730D02*
X5179157Y-16463730D01*
X5179157Y-16463730D02*
X5198205Y-16473254D01*
X5198205Y-16473254D02*
X5207728Y-16492302D01*
X5207728Y-16492302D02*
X5207728Y-16597064D01*
X5302966Y-16597064D02*
X5302966Y-16463730D01*
X5302966Y-16482778D02*
X5312490Y-16473254D01*
X5312490Y-16473254D02*
X5331538Y-16463730D01*
X5331538Y-16463730D02*
X5360109Y-16463730D01*
X5360109Y-16463730D02*
X5379157Y-16473254D01*
X5379157Y-16473254D02*
X5388681Y-16492302D01*
X5388681Y-16492302D02*
X5388681Y-16597064D01*
X5388681Y-16492302D02*
X5398205Y-16473254D01*
X5398205Y-16473254D02*
X5417252Y-16463730D01*
X5417252Y-16463730D02*
X5445824Y-16463730D01*
X5445824Y-16463730D02*
X5464871Y-16473254D01*
X5464871Y-16473254D02*
X5474395Y-16492302D01*
X5474395Y-16492302D02*
X5474395Y-16597064D01*
X5864871Y-16387540D02*
X5693443Y-16644683D01*
X6122014Y-16397064D02*
X6141062Y-16397064D01*
X6141062Y-16397064D02*
X6160109Y-16406588D01*
X6160109Y-16406588D02*
X6169633Y-16416111D01*
X6169633Y-16416111D02*
X6179157Y-16435159D01*
X6179157Y-16435159D02*
X6188681Y-16473254D01*
X6188681Y-16473254D02*
X6188681Y-16520873D01*
X6188681Y-16520873D02*
X6179157Y-16558968D01*
X6179157Y-16558968D02*
X6169633Y-16578016D01*
X6169633Y-16578016D02*
X6160109Y-16587540D01*
X6160109Y-16587540D02*
X6141062Y-16597064D01*
X6141062Y-16597064D02*
X6122014Y-16597064D01*
X6122014Y-16597064D02*
X6102966Y-16587540D01*
X6102966Y-16587540D02*
X6093443Y-16578016D01*
X6093443Y-16578016D02*
X6083919Y-16558968D01*
X6083919Y-16558968D02*
X6074395Y-16520873D01*
X6074395Y-16520873D02*
X6074395Y-16473254D01*
X6074395Y-16473254D02*
X6083919Y-16435159D01*
X6083919Y-16435159D02*
X6093443Y-16416111D01*
X6093443Y-16416111D02*
X6102966Y-16406588D01*
X6102966Y-16406588D02*
X6122014Y-16397064D01*
X6274395Y-16578016D02*
X6283919Y-16587540D01*
X6283919Y-16587540D02*
X6274395Y-16597064D01*
X6274395Y-16597064D02*
X6264871Y-16587540D01*
X6264871Y-16587540D02*
X6274395Y-16578016D01*
X6274395Y-16578016D02*
X6274395Y-16597064D01*
X6407728Y-16397064D02*
X6426776Y-16397064D01*
X6426776Y-16397064D02*
X6445824Y-16406588D01*
X6445824Y-16406588D02*
X6455347Y-16416111D01*
X6455347Y-16416111D02*
X6464871Y-16435159D01*
X6464871Y-16435159D02*
X6474395Y-16473254D01*
X6474395Y-16473254D02*
X6474395Y-16520873D01*
X6474395Y-16520873D02*
X6464871Y-16558968D01*
X6464871Y-16558968D02*
X6455347Y-16578016D01*
X6455347Y-16578016D02*
X6445824Y-16587540D01*
X6445824Y-16587540D02*
X6426776Y-16597064D01*
X6426776Y-16597064D02*
X6407728Y-16597064D01*
X6407728Y-16597064D02*
X6388681Y-16587540D01*
X6388681Y-16587540D02*
X6379157Y-16578016D01*
X6379157Y-16578016D02*
X6369633Y-16558968D01*
X6369633Y-16558968D02*
X6360109Y-16520873D01*
X6360109Y-16520873D02*
X6360109Y-16473254D01*
X6360109Y-16473254D02*
X6369633Y-16435159D01*
X6369633Y-16435159D02*
X6379157Y-16416111D01*
X6379157Y-16416111D02*
X6388681Y-16406588D01*
X6388681Y-16406588D02*
X6407728Y-16397064D01*
X6655347Y-16397064D02*
X6560109Y-16397064D01*
X6560109Y-16397064D02*
X6550586Y-16492302D01*
X6550586Y-16492302D02*
X6560109Y-16482778D01*
X6560109Y-16482778D02*
X6579157Y-16473254D01*
X6579157Y-16473254D02*
X6626776Y-16473254D01*
X6626776Y-16473254D02*
X6645824Y-16482778D01*
X6645824Y-16482778D02*
X6655347Y-16492302D01*
X6655347Y-16492302D02*
X6664871Y-16511349D01*
X6664871Y-16511349D02*
X6664871Y-16558968D01*
X6664871Y-16558968D02*
X6655347Y-16578016D01*
X6655347Y-16578016D02*
X6645824Y-16587540D01*
X6645824Y-16587540D02*
X6626776Y-16597064D01*
X6626776Y-16597064D02*
X6579157Y-16597064D01*
X6579157Y-16597064D02*
X6560109Y-16587540D01*
X6560109Y-16587540D02*
X6550586Y-16578016D01*
X6760109Y-16597064D02*
X6798205Y-16597064D01*
X6798205Y-16597064D02*
X6817252Y-16587540D01*
X6817252Y-16587540D02*
X6826776Y-16578016D01*
X6826776Y-16578016D02*
X6845824Y-16549445D01*
X6845824Y-16549445D02*
X6855347Y-16511349D01*
X6855347Y-16511349D02*
X6855347Y-16435159D01*
X6855347Y-16435159D02*
X6845824Y-16416111D01*
X6845824Y-16416111D02*
X6836300Y-16406588D01*
X6836300Y-16406588D02*
X6817252Y-16397064D01*
X6817252Y-16397064D02*
X6779157Y-16397064D01*
X6779157Y-16397064D02*
X6760109Y-16406588D01*
X6760109Y-16406588D02*
X6750586Y-16416111D01*
X6750586Y-16416111D02*
X6741062Y-16435159D01*
X6741062Y-16435159D02*
X6741062Y-16482778D01*
X6741062Y-16482778D02*
X6750586Y-16501826D01*
X6750586Y-16501826D02*
X6760109Y-16511349D01*
X6760109Y-16511349D02*
X6779157Y-16520873D01*
X6779157Y-16520873D02*
X6817252Y-16520873D01*
X6817252Y-16520873D02*
X6836300Y-16511349D01*
X6836300Y-16511349D02*
X6845824Y-16501826D01*
X6845824Y-16501826D02*
X6855347Y-16482778D01*
X7045824Y-16597064D02*
X6931538Y-16597064D01*
X6988681Y-16597064D02*
X6988681Y-16397064D01*
X6988681Y-16397064D02*
X6969633Y-16425635D01*
X6969633Y-16425635D02*
X6950586Y-16444683D01*
X6950586Y-16444683D02*
X6931538Y-16454207D01*
X7122014Y-16397064D02*
X7122014Y-16435159D01*
X7198205Y-16397064D02*
X7198205Y-16435159D01*
X7493443Y-16673254D02*
X7483919Y-16663730D01*
X7483919Y-16663730D02*
X7464871Y-16635159D01*
X7464871Y-16635159D02*
X7455348Y-16616111D01*
X7455348Y-16616111D02*
X7445824Y-16587540D01*
X7445824Y-16587540D02*
X7436300Y-16539921D01*
X7436300Y-16539921D02*
X7436300Y-16501826D01*
X7436300Y-16501826D02*
X7445824Y-16454207D01*
X7445824Y-16454207D02*
X7455348Y-16425635D01*
X7455348Y-16425635D02*
X7464871Y-16406588D01*
X7464871Y-16406588D02*
X7483919Y-16378016D01*
X7483919Y-16378016D02*
X7493443Y-16368492D01*
X7550586Y-16397064D02*
X7683919Y-16397064D01*
X7683919Y-16397064D02*
X7598205Y-16597064D01*
X7845824Y-16397064D02*
X7807728Y-16397064D01*
X7807728Y-16397064D02*
X7788681Y-16406588D01*
X7788681Y-16406588D02*
X7779157Y-16416111D01*
X7779157Y-16416111D02*
X7760109Y-16444683D01*
X7760109Y-16444683D02*
X7750586Y-16482778D01*
X7750586Y-16482778D02*
X7750586Y-16558968D01*
X7750586Y-16558968D02*
X7760109Y-16578016D01*
X7760109Y-16578016D02*
X7769633Y-16587540D01*
X7769633Y-16587540D02*
X7788681Y-16597064D01*
X7788681Y-16597064D02*
X7826776Y-16597064D01*
X7826776Y-16597064D02*
X7845824Y-16587540D01*
X7845824Y-16587540D02*
X7855348Y-16578016D01*
X7855348Y-16578016D02*
X7864871Y-16558968D01*
X7864871Y-16558968D02*
X7864871Y-16511349D01*
X7864871Y-16511349D02*
X7855348Y-16492302D01*
X7855348Y-16492302D02*
X7845824Y-16482778D01*
X7845824Y-16482778D02*
X7826776Y-16473254D01*
X7826776Y-16473254D02*
X7788681Y-16473254D01*
X7788681Y-16473254D02*
X7769633Y-16482778D01*
X7769633Y-16482778D02*
X7760109Y-16492302D01*
X7760109Y-16492302D02*
X7750586Y-16511349D01*
X8102967Y-16597064D02*
X8102967Y-16397064D01*
X8188681Y-16597064D02*
X8188681Y-16492302D01*
X8188681Y-16492302D02*
X8179157Y-16473254D01*
X8179157Y-16473254D02*
X8160110Y-16463730D01*
X8160110Y-16463730D02*
X8131538Y-16463730D01*
X8131538Y-16463730D02*
X8112490Y-16473254D01*
X8112490Y-16473254D02*
X8102967Y-16482778D01*
X8312490Y-16597064D02*
X8293443Y-16587540D01*
X8293443Y-16587540D02*
X8283919Y-16578016D01*
X8283919Y-16578016D02*
X8274395Y-16558968D01*
X8274395Y-16558968D02*
X8274395Y-16501826D01*
X8274395Y-16501826D02*
X8283919Y-16482778D01*
X8283919Y-16482778D02*
X8293443Y-16473254D01*
X8293443Y-16473254D02*
X8312490Y-16463730D01*
X8312490Y-16463730D02*
X8341062Y-16463730D01*
X8341062Y-16463730D02*
X8360110Y-16473254D01*
X8360110Y-16473254D02*
X8369633Y-16482778D01*
X8369633Y-16482778D02*
X8379157Y-16501826D01*
X8379157Y-16501826D02*
X8379157Y-16558968D01*
X8379157Y-16558968D02*
X8369633Y-16578016D01*
X8369633Y-16578016D02*
X8360110Y-16587540D01*
X8360110Y-16587540D02*
X8341062Y-16597064D01*
X8341062Y-16597064D02*
X8312490Y-16597064D01*
X8493443Y-16597064D02*
X8474395Y-16587540D01*
X8474395Y-16587540D02*
X8464872Y-16568492D01*
X8464872Y-16568492D02*
X8464872Y-16397064D01*
X8645824Y-16587540D02*
X8626776Y-16597064D01*
X8626776Y-16597064D02*
X8588681Y-16597064D01*
X8588681Y-16597064D02*
X8569633Y-16587540D01*
X8569633Y-16587540D02*
X8560110Y-16568492D01*
X8560110Y-16568492D02*
X8560110Y-16492302D01*
X8560110Y-16492302D02*
X8569633Y-16473254D01*
X8569633Y-16473254D02*
X8588681Y-16463730D01*
X8588681Y-16463730D02*
X8626776Y-16463730D01*
X8626776Y-16463730D02*
X8645824Y-16473254D01*
X8645824Y-16473254D02*
X8655348Y-16492302D01*
X8655348Y-16492302D02*
X8655348Y-16511349D01*
X8655348Y-16511349D02*
X8560110Y-16530397D01*
X8731538Y-16587540D02*
X8750586Y-16597064D01*
X8750586Y-16597064D02*
X8788681Y-16597064D01*
X8788681Y-16597064D02*
X8807729Y-16587540D01*
X8807729Y-16587540D02*
X8817253Y-16568492D01*
X8817253Y-16568492D02*
X8817253Y-16558968D01*
X8817253Y-16558968D02*
X8807729Y-16539921D01*
X8807729Y-16539921D02*
X8788681Y-16530397D01*
X8788681Y-16530397D02*
X8760110Y-16530397D01*
X8760110Y-16530397D02*
X8741062Y-16520873D01*
X8741062Y-16520873D02*
X8731538Y-16501826D01*
X8731538Y-16501826D02*
X8731538Y-16492302D01*
X8731538Y-16492302D02*
X8741062Y-16473254D01*
X8741062Y-16473254D02*
X8760110Y-16463730D01*
X8760110Y-16463730D02*
X8788681Y-16463730D01*
X8788681Y-16463730D02*
X8807729Y-16473254D01*
X9055348Y-16520873D02*
X9207729Y-16520873D01*
X9131538Y-16597064D02*
X9131538Y-16444683D01*
X9445824Y-16416111D02*
X9455348Y-16406588D01*
X9455348Y-16406588D02*
X9474395Y-16397064D01*
X9474395Y-16397064D02*
X9522015Y-16397064D01*
X9522015Y-16397064D02*
X9541062Y-16406588D01*
X9541062Y-16406588D02*
X9550586Y-16416111D01*
X9550586Y-16416111D02*
X9560110Y-16435159D01*
X9560110Y-16435159D02*
X9560110Y-16454207D01*
X9560110Y-16454207D02*
X9550586Y-16482778D01*
X9550586Y-16482778D02*
X9436300Y-16597064D01*
X9436300Y-16597064D02*
X9560110Y-16597064D01*
X9788681Y-16587540D02*
X9807729Y-16597064D01*
X9807729Y-16597064D02*
X9845824Y-16597064D01*
X9845824Y-16597064D02*
X9864872Y-16587540D01*
X9864872Y-16587540D02*
X9874396Y-16568492D01*
X9874396Y-16568492D02*
X9874396Y-16558968D01*
X9874396Y-16558968D02*
X9864872Y-16539921D01*
X9864872Y-16539921D02*
X9845824Y-16530397D01*
X9845824Y-16530397D02*
X9817253Y-16530397D01*
X9817253Y-16530397D02*
X9798205Y-16520873D01*
X9798205Y-16520873D02*
X9788681Y-16501826D01*
X9788681Y-16501826D02*
X9788681Y-16492302D01*
X9788681Y-16492302D02*
X9798205Y-16473254D01*
X9798205Y-16473254D02*
X9817253Y-16463730D01*
X9817253Y-16463730D02*
X9845824Y-16463730D01*
X9845824Y-16463730D02*
X9864872Y-16473254D01*
X9988681Y-16597064D02*
X9969634Y-16587540D01*
X9969634Y-16587540D02*
X9960110Y-16568492D01*
X9960110Y-16568492D02*
X9960110Y-16397064D01*
X10093443Y-16597064D02*
X10074396Y-16587540D01*
X10074396Y-16587540D02*
X10064872Y-16578016D01*
X10064872Y-16578016D02*
X10055348Y-16558968D01*
X10055348Y-16558968D02*
X10055348Y-16501826D01*
X10055348Y-16501826D02*
X10064872Y-16482778D01*
X10064872Y-16482778D02*
X10074396Y-16473254D01*
X10074396Y-16473254D02*
X10093443Y-16463730D01*
X10093443Y-16463730D02*
X10122015Y-16463730D01*
X10122015Y-16463730D02*
X10141062Y-16473254D01*
X10141062Y-16473254D02*
X10150586Y-16482778D01*
X10150586Y-16482778D02*
X10160110Y-16501826D01*
X10160110Y-16501826D02*
X10160110Y-16558968D01*
X10160110Y-16558968D02*
X10150586Y-16578016D01*
X10150586Y-16578016D02*
X10141062Y-16587540D01*
X10141062Y-16587540D02*
X10122015Y-16597064D01*
X10122015Y-16597064D02*
X10093443Y-16597064D01*
X10217253Y-16463730D02*
X10293443Y-16463730D01*
X10245824Y-16397064D02*
X10245824Y-16568492D01*
X10245824Y-16568492D02*
X10255348Y-16587540D01*
X10255348Y-16587540D02*
X10274396Y-16597064D01*
X10274396Y-16597064D02*
X10293443Y-16597064D01*
X10350586Y-16587540D02*
X10369634Y-16597064D01*
X10369634Y-16597064D02*
X10407729Y-16597064D01*
X10407729Y-16597064D02*
X10426777Y-16587540D01*
X10426777Y-16587540D02*
X10436300Y-16568492D01*
X10436300Y-16568492D02*
X10436300Y-16558968D01*
X10436300Y-16558968D02*
X10426777Y-16539921D01*
X10426777Y-16539921D02*
X10407729Y-16530397D01*
X10407729Y-16530397D02*
X10379157Y-16530397D01*
X10379157Y-16530397D02*
X10360110Y-16520873D01*
X10360110Y-16520873D02*
X10350586Y-16501826D01*
X10350586Y-16501826D02*
X10350586Y-16492302D01*
X10350586Y-16492302D02*
X10360110Y-16473254D01*
X10360110Y-16473254D02*
X10379157Y-16463730D01*
X10379157Y-16463730D02*
X10407729Y-16463730D01*
X10407729Y-16463730D02*
X10426777Y-16473254D01*
X10502967Y-16673254D02*
X10512491Y-16663730D01*
X10512491Y-16663730D02*
X10531538Y-16635159D01*
X10531538Y-16635159D02*
X10541062Y-16616111D01*
X10541062Y-16616111D02*
X10550586Y-16587540D01*
X10550586Y-16587540D02*
X10560110Y-16539921D01*
X10560110Y-16539921D02*
X10560110Y-16501826D01*
X10560110Y-16501826D02*
X10550586Y-16454207D01*
X10550586Y-16454207D02*
X10541062Y-16425635D01*
X10541062Y-16425635D02*
X10531538Y-16406588D01*
X10531538Y-16406588D02*
X10512491Y-16378016D01*
X10512491Y-16378016D02*
X10502967Y-16368492D01*
M02*
