G04 #@! TF.GenerationSoftware,KiCad,Pcbnew,7.0.5-7.0.5~ubuntu22.04.1*
G04 #@! TF.CreationDate,2023-07-14T10:16:13+02:00*
G04 #@! TF.ProjectId,pur-offset-space-55,7075722d-6f66-4667-9365-742d73706163,rev?*
G04 #@! TF.SameCoordinates,Original*
G04 #@! TF.FileFunction,Copper,L1,Top*
G04 #@! TF.FilePolarity,Positive*
%FSLAX46Y46*%
G04 Gerber Fmt 4.6, Leading zero omitted, Abs format (unit mm)*
G04 Created by KiCad (PCBNEW 7.0.5-7.0.5~ubuntu22.04.1) date 2023-07-14 10:16:13*
%MOMM*%
%LPD*%
G01*
G04 APERTURE LIST*
G04 Aperture macros list*
%AMRoundRect*
0 Rectangle with rounded corners*
0 $1 Rounding radius*
0 $2 $3 $4 $5 $6 $7 $8 $9 X,Y pos of 4 corners*
0 Add a 4 corners polygon primitive as box body*
4,1,4,$2,$3,$4,$5,$6,$7,$8,$9,$2,$3,0*
0 Add four circle primitives for the rounded corners*
1,1,$1+$1,$2,$3*
1,1,$1+$1,$4,$5*
1,1,$1+$1,$6,$7*
1,1,$1+$1,$8,$9*
0 Add four rect primitives between the rounded corners*
20,1,$1+$1,$2,$3,$4,$5,0*
20,1,$1+$1,$4,$5,$6,$7,0*
20,1,$1+$1,$6,$7,$8,$9,0*
20,1,$1+$1,$8,$9,$2,$3,0*%
G04 Aperture macros list end*
G04 #@! TA.AperFunction,ComponentPad*
%ADD10C,2.500000*%
G04 #@! TD*
G04 #@! TA.AperFunction,ComponentPad*
%ADD11C,1.752600*%
G04 #@! TD*
G04 #@! TA.AperFunction,ComponentPad*
%ADD12C,2.000000*%
G04 #@! TD*
G04 #@! TA.AperFunction,ComponentPad*
%ADD13RoundRect,0.500000X0.500000X0.500000X-0.500000X0.500000X-0.500000X-0.500000X0.500000X-0.500000X0*%
G04 #@! TD*
G04 #@! TA.AperFunction,ComponentPad*
%ADD14RoundRect,0.550000X1.150000X0.550000X-1.150000X0.550000X-1.150000X-0.550000X1.150000X-0.550000X0*%
G04 #@! TD*
G04 #@! TA.AperFunction,ComponentPad*
%ADD15C,1.800000*%
G04 #@! TD*
G04 #@! TA.AperFunction,ComponentPad*
%ADD16RoundRect,0.450000X0.450000X-0.450000X0.450000X0.450000X-0.450000X0.450000X-0.450000X-0.450000X0*%
G04 #@! TD*
G04 #@! TA.AperFunction,ComponentPad*
%ADD17O,4.340000X1.800000*%
G04 #@! TD*
G04 #@! TA.AperFunction,ComponentPad*
%ADD18RoundRect,0.250000X-0.625000X0.350000X-0.625000X-0.350000X0.625000X-0.350000X0.625000X0.350000X0*%
G04 #@! TD*
G04 #@! TA.AperFunction,ComponentPad*
%ADD19O,1.750000X1.200000*%
G04 #@! TD*
G04 #@! TA.AperFunction,ViaPad*
%ADD20C,0.800000*%
G04 #@! TD*
G04 #@! TA.AperFunction,Conductor*
%ADD21C,0.250000*%
G04 #@! TD*
G04 APERTURE END LIST*
D10*
X210378400Y-98542600D03*
X203378400Y-97492600D03*
X96078400Y-98542600D03*
X89078400Y-97492600D03*
X153228400Y-98542600D03*
X146228400Y-97492600D03*
X100840900Y-141405100D03*
X93840900Y-140355100D03*
X57978400Y-136642600D03*
X50978400Y-135592600D03*
X210378400Y-117592600D03*
X203378400Y-116542600D03*
X172278400Y-79492600D03*
X165278400Y-78442600D03*
X153228400Y-79492600D03*
X146228400Y-78442600D03*
X134178400Y-79492600D03*
X127178400Y-78442600D03*
X57978400Y-98542600D03*
X50978400Y-97492600D03*
X191328400Y-79492600D03*
X184328400Y-78442600D03*
X115128400Y-117592600D03*
X108128400Y-116542600D03*
D11*
X197153000Y-47612600D03*
X197153000Y-50152600D03*
X197153000Y-52692600D03*
X197153000Y-55232600D03*
X197153000Y-57772600D03*
D10*
X57978400Y-117592600D03*
X50978400Y-116542600D03*
X191328400Y-98542600D03*
X184328400Y-97492600D03*
X115128400Y-98542600D03*
X108128400Y-97492600D03*
X134178400Y-117592600D03*
X127178400Y-116542600D03*
X115128400Y-79492600D03*
X108128400Y-78442600D03*
X210378400Y-136642600D03*
X203378400Y-135592600D03*
X229428400Y-136642600D03*
X222428400Y-135592600D03*
X172278400Y-98542600D03*
X165278400Y-97492600D03*
X96078400Y-79492600D03*
X89078400Y-78442600D03*
X96078400Y-117592600D03*
X89078400Y-116542600D03*
X77028400Y-79492600D03*
X70028400Y-78442600D03*
X160372150Y-141405100D03*
X153372150Y-140355100D03*
X191328400Y-117592600D03*
X184328400Y-116542600D03*
X229428400Y-79492600D03*
X222428400Y-78442600D03*
X77028400Y-98542600D03*
X70028400Y-97492600D03*
X229428400Y-98542600D03*
X222428400Y-97492600D03*
D12*
X62878000Y-55192200D03*
X62878000Y-50192200D03*
D13*
X62878000Y-52692200D03*
D14*
X55378000Y-58292200D03*
X55378000Y-47092200D03*
D12*
X48378000Y-50192200D03*
X48378000Y-55192200D03*
D10*
X229428400Y-117592600D03*
X222428400Y-116542600D03*
X77028400Y-117592600D03*
X70028400Y-116542600D03*
X134178400Y-98542600D03*
X127178400Y-97492600D03*
X57978400Y-79492600D03*
X50978400Y-78442600D03*
X77028400Y-136642600D03*
X70028400Y-135592600D03*
X153228400Y-117592600D03*
X146228400Y-116542600D03*
X210378400Y-79492600D03*
X203378400Y-78442600D03*
X172278400Y-117592600D03*
X165278400Y-116542600D03*
X186565900Y-141405100D03*
X179565900Y-140355100D03*
X127034650Y-141405100D03*
X120034650Y-140355100D03*
D15*
X228803200Y-63957200D03*
X226263200Y-63957200D03*
D16*
X223723200Y-63957200D03*
X221183200Y-63957200D03*
D15*
X218643200Y-63957200D03*
X216103200Y-63957200D03*
X213563200Y-63957200D03*
X211023200Y-63957200D03*
X208483200Y-63957200D03*
X205943200Y-63957200D03*
X203403200Y-63957200D03*
X200863200Y-63957200D03*
D17*
X230073200Y-48717200D03*
D16*
X226263200Y-48717200D03*
D15*
X223723200Y-48717200D03*
X221183200Y-48717200D03*
X218643200Y-48717200D03*
X216103200Y-48717200D03*
X213563200Y-48717200D03*
X211023200Y-48717200D03*
X208483200Y-48717200D03*
X205943200Y-48717200D03*
X203403200Y-48717200D03*
X200863200Y-48717200D03*
X205943200Y-61417200D03*
X205943200Y-58877200D03*
X205943200Y-56337200D03*
D16*
X231343200Y-63957200D03*
D15*
X231343200Y-48717200D03*
D18*
X186080400Y-55124600D03*
D19*
X186080400Y-57124600D03*
D20*
X231724200Y-69342000D03*
X231724200Y-70561200D03*
X231724200Y-71729600D03*
X231749600Y-72872600D03*
D21*
X160997149Y-140780100D02*
X160372150Y-141405100D01*
X161622149Y-136566216D02*
X161622149Y-139271218D01*
X161622144Y-136566216D02*
G75*
G03*
X160825252Y-134642338I-2720744J16D01*
G01*
X160997134Y-140780085D02*
G75*
G03*
X161622149Y-139271218I-1508834J1508885D01*
G01*
X154025296Y-127842382D02*
X160825252Y-134642338D01*
X153228405Y-125918504D02*
G75*
G03*
X154025296Y-127842382I2720795J4D01*
G01*
X154233103Y-80497303D02*
X153228400Y-79492600D01*
X155030000Y-82421181D02*
X155030000Y-95614018D01*
X155030000Y-101471181D02*
X155030000Y-114664018D01*
X153935505Y-97835493D02*
X154233103Y-97537896D01*
X153935506Y-97835494D02*
G75*
G03*
X153935506Y-99249706I707094J-707106D01*
G01*
X154233100Y-116587893D02*
G75*
G03*
X155030000Y-114664018I-1923900J1923893D01*
G01*
X154233100Y-97537893D02*
G75*
G03*
X155030000Y-95614018I-1923900J1923893D01*
G01*
X153935506Y-99249706D02*
X154233103Y-99547303D01*
X155030005Y-101471181D02*
G75*
G03*
X154233103Y-99547303I-2720805J-19D01*
G01*
X154025296Y-116795703D02*
X154233103Y-116587896D01*
X153228400Y-125918504D02*
X153228400Y-118719581D01*
X155030005Y-82421181D02*
G75*
G03*
X154233103Y-80497303I-2720805J-19D01*
G01*
X154025300Y-116795707D02*
G75*
G03*
X153228400Y-118719581I1923900J-1923893D01*
G01*
X198948818Y-69824604D02*
G75*
G03*
X200872695Y-69027702I-18J2720804D01*
G01*
X164023381Y-69824594D02*
G75*
G03*
X162099503Y-70621496I19J-2720806D01*
G01*
X135980005Y-101471181D02*
G75*
G03*
X135183103Y-99547303I-2720805J-19D01*
G01*
X134885507Y-78785494D02*
G75*
G03*
X134885506Y-80199706I707093J-707106D01*
G01*
X135183100Y-97537893D02*
G75*
G03*
X135980000Y-95614018I-1923900J1923893D01*
G01*
X196858818Y-69374604D02*
G75*
G03*
X198782695Y-68577702I-18J2720804D01*
G01*
X145423381Y-69374594D02*
G75*
G03*
X143499503Y-70171496I19J-2720806D01*
G01*
X135183100Y-116587893D02*
G75*
G03*
X135980000Y-114664018I-1923900J1923893D01*
G01*
X133381525Y-135058268D02*
G75*
G03*
X134178400Y-133134368I-1923925J1923868D01*
G01*
X135980005Y-82421181D02*
G75*
G03*
X135183103Y-80497303I-2720805J-19D01*
G01*
X116930005Y-82421181D02*
G75*
G03*
X116133103Y-80497303I-2720805J-19D01*
G01*
X126823381Y-68924594D02*
G75*
G03*
X124899503Y-69721496I19J-2720806D01*
G01*
X194768818Y-68924604D02*
G75*
G03*
X196692695Y-68127702I-18J2720804D01*
G01*
X116133100Y-97537893D02*
G75*
G03*
X116930000Y-95614018I-1923900J1923893D01*
G01*
X116930005Y-101471181D02*
G75*
G03*
X116133103Y-99547303I-2720805J-19D01*
G01*
X116133100Y-116587893D02*
G75*
G03*
X116930000Y-114664018I-1923900J1923893D01*
G01*
X108270381Y-68427594D02*
G75*
G03*
X106346503Y-69224496I19J-2720806D01*
G01*
X101465894Y-140780095D02*
G75*
G03*
X102090899Y-139271218I-1508894J1508895D01*
G01*
X97083100Y-116587893D02*
G75*
G03*
X97880000Y-114664018I-1923900J1923893D01*
G01*
X192979818Y-68427604D02*
G75*
G03*
X194903695Y-67630702I-18J2720804D01*
G01*
X97880005Y-82421181D02*
G75*
G03*
X97083103Y-80497303I-2720805J-19D01*
G01*
X202244181Y-61417194D02*
G75*
G03*
X200320303Y-62214096I19J-2720806D01*
G01*
X96078440Y-128299754D02*
G75*
G03*
X96875296Y-130223632I2720760J-46D01*
G01*
X97880005Y-101471181D02*
G75*
G03*
X97083103Y-99547303I-2720805J-19D01*
G01*
X97083100Y-97537893D02*
G75*
G03*
X97880000Y-95614018I-1923900J1923893D01*
G01*
X102090880Y-136566216D02*
G75*
G03*
X101294002Y-134642338I-2720780J16D01*
G01*
X204147785Y-58877197D02*
G75*
G03*
X202223907Y-59674096I15J-2720803D01*
G01*
X77735506Y-97835494D02*
G75*
G03*
X77735506Y-99249706I707094J-707106D01*
G01*
X78033100Y-116587893D02*
G75*
G03*
X78830000Y-114664018I-1923900J1923893D01*
G01*
X192851422Y-67919607D02*
G75*
G03*
X194775300Y-67122703I-22J2720807D01*
G01*
X78830005Y-120521181D02*
G75*
G03*
X78033103Y-118597303I-2720805J-19D01*
G01*
X78830005Y-82421181D02*
G75*
G03*
X78033103Y-80497303I-2720805J-19D01*
G01*
X78033100Y-135637893D02*
G75*
G03*
X78830000Y-133714018I-1923900J1923893D01*
G01*
X78830005Y-101471181D02*
G75*
G03*
X78033103Y-99547303I-2720805J-19D01*
G01*
X78033100Y-97537893D02*
G75*
G03*
X78830000Y-95614018I-1923900J1923893D01*
G01*
X89728381Y-67919594D02*
G75*
G03*
X87804503Y-68716496I19J-2720806D01*
G01*
X59780005Y-101471181D02*
G75*
G03*
X58983103Y-99547303I-2720805J-19D01*
G01*
X58685506Y-97835494D02*
G75*
G03*
X58685506Y-99249706I707094J-707106D01*
G01*
X58983100Y-116587893D02*
G75*
G03*
X59780000Y-114664018I-1923900J1923893D01*
G01*
X59780005Y-120521181D02*
G75*
G03*
X58983103Y-118597303I-2720805J-19D01*
G01*
X192672226Y-67462410D02*
G75*
G03*
X194596104Y-66665503I-26J2720810D01*
G01*
X205433804Y-56337205D02*
G75*
G03*
X204564210Y-56697397I-4J-1229795D01*
G01*
X59780005Y-82421181D02*
G75*
G03*
X58983103Y-80497303I-2720805J-19D01*
G01*
X71135581Y-67462394D02*
G75*
G03*
X69211703Y-68259296I19J-2720806D01*
G01*
X58983100Y-135637893D02*
G75*
G03*
X59780000Y-133714018I-1923900J1923893D01*
G01*
X58983100Y-97537893D02*
G75*
G03*
X59780000Y-95614018I-1923900J1923893D01*
G01*
X233670500Y-70951693D02*
G75*
G03*
X234467400Y-69027818I-1923900J1923893D01*
G01*
X234467405Y-62594981D02*
G75*
G03*
X233670503Y-60671103I-2720805J-19D01*
G01*
X220890507Y-50964499D02*
G75*
G03*
X222814381Y-51761400I1923893J1923899D01*
G01*
X225557692Y-52558300D02*
G75*
G03*
X223633818Y-51761400I-1923892J-1923900D01*
G01*
X218800507Y-51414499D02*
G75*
G03*
X220724381Y-52211400I1923893J1923899D01*
G01*
X234017408Y-62781377D02*
G75*
G03*
X233220503Y-60857499I-2720808J-23D01*
G01*
X225371294Y-53008302D02*
G75*
G03*
X223447422Y-52211400I-1923894J-1923898D01*
G01*
X233220500Y-70233293D02*
G75*
G03*
X234017400Y-68309418I-1923900J1923893D01*
G01*
X233567411Y-62967773D02*
G75*
G03*
X232770503Y-61043895I-2720811J-27D01*
G01*
X232770500Y-69514893D02*
G75*
G03*
X233567400Y-67591018I-1923900J1923893D01*
G01*
X216710507Y-51864499D02*
G75*
G03*
X218634381Y-52661400I1923893J1923899D01*
G01*
X225184896Y-53458304D02*
G75*
G03*
X223261026Y-52661400I-1923896J-1923896D01*
G01*
X232420833Y-68645433D02*
G75*
G03*
X233117400Y-66963658I-1681833J1681733D01*
G01*
X214620507Y-52314499D02*
G75*
G03*
X216544381Y-53111400I1923893J1923899D01*
G01*
X233117413Y-63154169D02*
G75*
G03*
X232320502Y-61230292I-2720813J-31D01*
G01*
X224998498Y-53908306D02*
G75*
G03*
X223074630Y-53111400I-1923898J-1923894D01*
G01*
X182236298Y-51086709D02*
G75*
G03*
X181439400Y-53010585I1923902J-1923891D01*
G01*
X201438692Y-46752700D02*
G75*
G03*
X199514818Y-45955800I-1923892J-1923900D01*
G01*
X63859860Y-50448674D02*
G75*
G03*
X63240700Y-50192200I-619160J-619126D01*
G01*
X74087705Y-65765497D02*
G75*
G03*
X76011577Y-66562400I1923895J1923897D01*
G01*
X65227205Y-52942981D02*
G75*
G03*
X64430303Y-51019103I-2720805J-19D01*
G01*
X181262835Y-66385835D02*
G75*
G03*
X181439400Y-65959456I-426435J426335D01*
G01*
X65227192Y-55778022D02*
G75*
G03*
X66024096Y-57701900I2720808J22D01*
G01*
X188494185Y-45955797D02*
G75*
G03*
X186570307Y-46752696I15J-2720803D01*
G01*
X180836456Y-66562352D02*
G75*
G03*
X181262801Y-66385801I44J602952D01*
G01*
X181581033Y-66704033D02*
G75*
G03*
X181889400Y-65959456I-744633J744533D01*
G01*
X73901307Y-66215499D02*
G75*
G03*
X75825181Y-67012400I1923893J1923899D01*
G01*
X180836456Y-67012352D02*
G75*
G03*
X181580999Y-66703999I44J1052952D01*
G01*
X199348692Y-47202700D02*
G75*
G03*
X197424818Y-46405800I-1923892J-1923900D01*
G01*
X188680581Y-46405794D02*
G75*
G03*
X186756703Y-47202696I19J-2720806D01*
G01*
X182686300Y-51273107D02*
G75*
G03*
X181889400Y-53196981I1923900J-1923893D01*
G01*
X172985507Y-78785494D02*
G75*
G03*
X172985506Y-80199706I707093J-707106D01*
G01*
X201038818Y-70274604D02*
G75*
G03*
X202962695Y-69477702I-18J2720804D01*
G01*
X173283100Y-97537893D02*
G75*
G03*
X174080000Y-95614018I-1923900J1923893D01*
G01*
X182623381Y-70274594D02*
G75*
G03*
X180699503Y-71071496I19J-2720806D01*
G01*
X174080005Y-101471181D02*
G75*
G03*
X173283103Y-99547303I-2720805J-19D01*
G01*
X173283100Y-116587893D02*
G75*
G03*
X174080000Y-114664018I-1923900J1923893D01*
G01*
X174080005Y-82421181D02*
G75*
G03*
X173283103Y-80497303I-2720805J-19D01*
G01*
X192138356Y-79492578D02*
G75*
G03*
X191901125Y-80065325I44J-335522D01*
G01*
X192333100Y-97537892D02*
G75*
G03*
X193130000Y-95614018I-1923900J1923892D01*
G01*
X190531500Y-137439493D02*
G75*
G03*
X191328400Y-135515618I-1923900J1923893D01*
G01*
X192035507Y-97835494D02*
G75*
G03*
X192035506Y-99249706I707093J-707106D01*
G01*
X192333100Y-116587893D02*
G75*
G03*
X193130000Y-114664018I-1923900J1923893D01*
G01*
X193130005Y-82421181D02*
G75*
G03*
X192333103Y-80497303I-2720805J-19D01*
G01*
X194360818Y-79492604D02*
G75*
G03*
X196284695Y-78695702I-18J2720804D01*
G01*
X193130005Y-101471181D02*
G75*
G03*
X192333103Y-99547303I-2720805J-19D01*
G01*
X211085506Y-97835494D02*
G75*
G03*
X211085506Y-99249706I707094J-707106D01*
G01*
X212180005Y-120521181D02*
G75*
G03*
X211383103Y-118597303I-2720805J-19D01*
G01*
X211383100Y-116587893D02*
G75*
G03*
X212180000Y-114664018I-1923900J1923893D01*
G01*
X212180005Y-82421181D02*
G75*
G03*
X211383103Y-80497303I-2720805J-19D01*
G01*
X212766300Y-77104693D02*
G75*
G03*
X213563200Y-75180818I-1923900J1923893D01*
G01*
X211383100Y-135637893D02*
G75*
G03*
X212180000Y-133714018I-1923900J1923893D01*
G01*
X212180005Y-101471181D02*
G75*
G03*
X211383103Y-99547303I-2720805J-19D01*
G01*
X211383100Y-97537893D02*
G75*
G03*
X212180000Y-95614018I-1923900J1923893D01*
G01*
X230433100Y-116587893D02*
G75*
G03*
X231230000Y-114664018I-1923900J1923893D01*
G01*
X231230005Y-120521181D02*
G75*
G03*
X230433103Y-118597303I-2720805J-19D01*
G01*
X230678405Y-69499380D02*
G75*
G03*
X229881502Y-67575502I-2720805J-20D01*
G01*
X231230005Y-82421181D02*
G75*
G03*
X230433103Y-80497303I-2720805J-19D01*
G01*
X230053400Y-78867601D02*
G75*
G03*
X230053399Y-80117599I625000J-624999D01*
G01*
X230433100Y-135637893D02*
G75*
G03*
X231230000Y-133714018I-1923900J1923893D01*
G01*
X230433100Y-97537893D02*
G75*
G03*
X231230000Y-95614018I-1923900J1923893D01*
G01*
X231230005Y-101471181D02*
G75*
G03*
X230433103Y-99547303I-2720805J-19D01*
G01*
X230053394Y-78867595D02*
G75*
G03*
X230678399Y-77358718I-1508894J1508895D01*
G01*
X194134018Y-57124604D02*
G75*
G03*
X196057895Y-56327702I-18J2720804D01*
G01*
X207578292Y-55432300D02*
G75*
G03*
X205654418Y-54635400I-1923892J-1923900D01*
G01*
X200838907Y-53838499D02*
G75*
G03*
X202762781Y-54635400I1923893J1923899D01*
G01*
X197173039Y-47617825D02*
G75*
G03*
X197160400Y-47612600I-12639J-12675D01*
G01*
X202943707Y-53388499D02*
G75*
G03*
X204867581Y-54185400I1923893J1923899D01*
G01*
X209668292Y-54982300D02*
G75*
G03*
X207744418Y-54185400I-1923892J-1923900D01*
G01*
X232420800Y-68645400D02*
X231724200Y-69342000D01*
X233117400Y-66963658D02*
X233117400Y-63154169D01*
X232320503Y-61230291D02*
X224998508Y-53908296D01*
X216544381Y-53111400D02*
X223074630Y-53111400D01*
X214620503Y-52314503D02*
X211023200Y-48717200D01*
X232770503Y-69514896D02*
X231724200Y-70561200D01*
X233567400Y-62967773D02*
X233567400Y-67591018D01*
X232770503Y-61043895D02*
X225184904Y-53458296D01*
X218634381Y-52661400D02*
X223261026Y-52661400D01*
X216710503Y-51864503D02*
X213563200Y-48717200D01*
X233220503Y-70233296D02*
X231724200Y-71729600D01*
X234017400Y-62781377D02*
X234017400Y-68309418D01*
X233220503Y-60857499D02*
X225371300Y-53008296D01*
X220724381Y-52211400D02*
X223447422Y-52211400D01*
X218800503Y-51414503D02*
X216103200Y-48717200D01*
X233670503Y-70951696D02*
X231749600Y-72872600D01*
X234467400Y-69027818D02*
X234467400Y-62594981D01*
X222814381Y-51761400D02*
X223633818Y-51761400D01*
X220890503Y-50964503D02*
X218643200Y-48717200D01*
X233670503Y-60671103D02*
X225557696Y-52558296D01*
X211085505Y-97835493D02*
X211383103Y-97537896D01*
X211085506Y-99249706D02*
X211383103Y-99547303D01*
X191901125Y-80065325D02*
X192333103Y-80497303D01*
X192333103Y-97537895D02*
X192035506Y-97835493D01*
X192035506Y-99249706D02*
X192333103Y-99547303D01*
X172985506Y-80199706D02*
X173283103Y-80497303D01*
X58983103Y-99547303D02*
X58685506Y-99249706D01*
X58685505Y-97835493D02*
X58983103Y-97537896D01*
X77735505Y-97835493D02*
X78033103Y-97537896D01*
X77735506Y-99249706D02*
X78033103Y-99547303D01*
X134885506Y-80199706D02*
X135183103Y-80497303D01*
X209668296Y-54982296D02*
X218643200Y-63957200D01*
X197173032Y-47617832D02*
X202943703Y-53388503D01*
X197160400Y-47612600D02*
X197153000Y-47612600D01*
X204867581Y-54185400D02*
X207744418Y-54185400D01*
X200838903Y-53838503D02*
X197153000Y-50152600D01*
X207578296Y-55432296D02*
X216103200Y-63957200D01*
X205654418Y-54635400D02*
X202762781Y-54635400D01*
X196057896Y-56327703D02*
X197153000Y-55232600D01*
X194134018Y-57124600D02*
X186080400Y-57124600D01*
X230433103Y-118597303D02*
X229428400Y-117592600D01*
X231230000Y-82421181D02*
X231230000Y-95614018D01*
X231230000Y-114664018D02*
X231230000Y-101471181D01*
X230433103Y-80497303D02*
X230053399Y-80117599D01*
X230433103Y-99547303D02*
X229428400Y-98542600D01*
X230433103Y-97537896D02*
X229428400Y-98542600D01*
X230433103Y-135637896D02*
X229428400Y-136642600D01*
X230433103Y-116587896D02*
X229428400Y-117592600D01*
X229881502Y-67575502D02*
X226263200Y-63957200D01*
X231230000Y-120521181D02*
X231230000Y-133714018D01*
X230678399Y-69499380D02*
X230678399Y-77358718D01*
X212766303Y-77104696D02*
X210378400Y-79492600D01*
X211383103Y-116587896D02*
X210378400Y-117592600D01*
X211383103Y-135637896D02*
X210378400Y-136642600D01*
X211383103Y-80497303D02*
X210378400Y-79492600D01*
X212180000Y-114664018D02*
X212180000Y-101471181D01*
X211383103Y-118597303D02*
X210378400Y-117592600D01*
X212180000Y-82421181D02*
X212180000Y-95614018D01*
X212180000Y-120521181D02*
X212180000Y-133714018D01*
X213563200Y-75180818D02*
X213563200Y-63957200D01*
X191328400Y-135515618D02*
X191328400Y-117592600D01*
X193130000Y-114664018D02*
X193130000Y-101471181D01*
X196284696Y-78695703D02*
X211023200Y-63957200D01*
X192333103Y-116587896D02*
X191328400Y-117592600D01*
X193130000Y-95614018D02*
X193130000Y-82421181D01*
X190531503Y-137439496D02*
X186565900Y-141405100D01*
X192138356Y-79492600D02*
X194360818Y-79492600D01*
X174080000Y-101471181D02*
X174080000Y-114664018D01*
X173283103Y-99547303D02*
X172278400Y-98542600D01*
X201038818Y-70274600D02*
X182623381Y-70274600D01*
X174080000Y-95614018D02*
X174080000Y-82421181D01*
X173283103Y-116587896D02*
X172278400Y-117592600D01*
X202962696Y-69477703D02*
X208483200Y-63957200D01*
X172985506Y-78785493D02*
X180699503Y-71071496D01*
X173283103Y-97537896D02*
X172278400Y-98542600D01*
X186756703Y-47202696D02*
X182686296Y-51273103D01*
X181889400Y-65959456D02*
X181889400Y-53196981D01*
X73901303Y-66215503D02*
X62878000Y-55192200D01*
X75825181Y-67012400D02*
X180836456Y-67012400D01*
X197424818Y-46405800D02*
X188680581Y-46405800D01*
X199348696Y-47202696D02*
X200863200Y-48717200D01*
X63240700Y-50192200D02*
X62878000Y-50192200D01*
X201438696Y-46752696D02*
X203403200Y-48717200D01*
X199514818Y-45955800D02*
X188494185Y-45955800D01*
X182236296Y-51086707D02*
X186570307Y-46752696D01*
X65227200Y-52942981D02*
X65227200Y-55778022D01*
X74087699Y-65765503D02*
X66024096Y-57701900D01*
X76011577Y-66562400D02*
X180836456Y-66562400D01*
X63859867Y-50448667D02*
X64430303Y-51019103D01*
X181439400Y-53010585D02*
X181439400Y-65959456D01*
X58983103Y-80497303D02*
X57978400Y-79492600D01*
X205433804Y-56337200D02*
X205943200Y-56337200D01*
X58983103Y-135637896D02*
X57978400Y-136642600D01*
X69211703Y-68259296D02*
X57978400Y-79492600D01*
X58983103Y-116587896D02*
X57978400Y-117592600D01*
X58983103Y-118597303D02*
X57978400Y-117592600D01*
X59780000Y-101471181D02*
X59780000Y-114664018D01*
X59780000Y-82421181D02*
X59780000Y-95614018D01*
X194596104Y-66665503D02*
X204564210Y-56697397D01*
X192672226Y-67462400D02*
X71135581Y-67462400D01*
X59780000Y-120521181D02*
X59780000Y-133714018D01*
X78033103Y-135637896D02*
X77028400Y-136642600D01*
X202223907Y-59674096D02*
X194775300Y-67122703D01*
X204147785Y-58877200D02*
X205943200Y-58877200D01*
X192851422Y-67919600D02*
X89728381Y-67919600D01*
X78033103Y-118597303D02*
X77028400Y-117592600D01*
X78033103Y-80497303D02*
X77028400Y-79492600D01*
X78033103Y-116587896D02*
X77028400Y-117592600D01*
X78830000Y-114664018D02*
X78830000Y-101471181D01*
X78830000Y-82421181D02*
X78830000Y-95614018D01*
X78830000Y-120521181D02*
X78830000Y-133714018D01*
X77028400Y-79492600D02*
X87804503Y-68716496D01*
X97083103Y-116587896D02*
X96078400Y-117592600D01*
X97083103Y-80497303D02*
X96078400Y-79492600D01*
X106346503Y-69224496D02*
X96078400Y-79492600D01*
X97083103Y-99547303D02*
X96078400Y-98542600D01*
X96875296Y-130223632D02*
X101294002Y-134642338D01*
X97083103Y-97537896D02*
X96078400Y-98542600D01*
X97880000Y-82421181D02*
X97880000Y-95614018D01*
X108270381Y-68427600D02*
X192979818Y-68427600D01*
X194903696Y-67630703D02*
X200320303Y-62214096D01*
X101465899Y-140780100D02*
X100840900Y-141405100D01*
X202244181Y-61417200D02*
X205943200Y-61417200D01*
X96078400Y-128299754D02*
X96078400Y-117592600D01*
X102090899Y-139271218D02*
X102090899Y-136566216D01*
X97880000Y-114664018D02*
X97880000Y-101471181D01*
X116133103Y-99547303D02*
X115128400Y-98542600D01*
X126823381Y-68924600D02*
X194768818Y-68924600D01*
X116133103Y-97537896D02*
X115128400Y-98542600D01*
X116133103Y-80497303D02*
X115128400Y-79492600D01*
X116930000Y-101471181D02*
X116930000Y-114664018D01*
X116133103Y-116587896D02*
X115128400Y-117592600D01*
X196692696Y-68127703D02*
X200863200Y-63957200D01*
X124899503Y-69721496D02*
X115128400Y-79492600D01*
X116930000Y-82421181D02*
X116930000Y-95614018D01*
X198782696Y-68577703D02*
X203403200Y-63957200D01*
X135980000Y-101471181D02*
X135980000Y-114664018D01*
X134885506Y-78785493D02*
X143499503Y-70171496D01*
X135183103Y-116587896D02*
X134178400Y-117592600D01*
X135980000Y-95614018D02*
X135980000Y-82421181D01*
X196858818Y-69374600D02*
X145423381Y-69374600D01*
X133381503Y-135058246D02*
X127034650Y-141405100D01*
X135183103Y-97537896D02*
X134178400Y-98542600D01*
X135183103Y-99547303D02*
X134178400Y-98542600D01*
X134178400Y-133134368D02*
X134178400Y-117592600D01*
X200872696Y-69027703D02*
X205943200Y-63957200D01*
X198948818Y-69824600D02*
X164023381Y-69824600D01*
X162099503Y-70621496D02*
X153228400Y-79492600D01*
G04 #@! TA.AperFunction,Conductor*
G36*
X161712351Y-139578600D02*
G01*
X161720105Y-139583078D01*
X161722426Y-139591703D01*
X161664901Y-140035702D01*
X161625647Y-140385177D01*
X161625643Y-140385218D01*
X161604731Y-140683690D01*
X161604729Y-140683732D01*
X161600718Y-140986418D01*
X161600717Y-140986424D01*
X161611810Y-141337005D01*
X161608647Y-141345382D01*
X161600658Y-141349062D01*
X160380522Y-141405696D01*
X160372099Y-141402657D01*
X160369028Y-141398123D01*
X159943791Y-140265494D01*
X159944091Y-140256546D01*
X159950632Y-140250430D01*
X159952333Y-140249934D01*
X160320258Y-140172533D01*
X160321906Y-140172308D01*
X160710178Y-140147481D01*
X161061948Y-140092264D01*
X161332030Y-139920878D01*
X161472754Y-139556077D01*
X161478927Y-139549595D01*
X161485191Y-139548691D01*
X161712351Y-139578600D01*
G37*
G04 #@! TD.AperFunction*
G04 #@! TA.AperFunction,Conductor*
G36*
X154450612Y-79357992D02*
G01*
X154454940Y-79365832D01*
X154454974Y-79366180D01*
X154483075Y-79709107D01*
X154483083Y-79709227D01*
X154501607Y-80011594D01*
X154501609Y-80011609D01*
X154540699Y-80306086D01*
X154540700Y-80306089D01*
X154631484Y-80637267D01*
X154631484Y-80637269D01*
X154800777Y-81039518D01*
X154800828Y-81048473D01*
X154795069Y-81054598D01*
X154588487Y-81154083D01*
X154579547Y-81154585D01*
X154574075Y-81150594D01*
X154340978Y-80842036D01*
X154054720Y-80720156D01*
X154054719Y-80720155D01*
X153731055Y-80712915D01*
X153380298Y-80740599D01*
X153379567Y-80740611D01*
X153024626Y-80724223D01*
X153016520Y-80720418D01*
X153013478Y-80711995D01*
X153013641Y-80710520D01*
X153226450Y-79500322D01*
X153231258Y-79492769D01*
X153236665Y-79490724D01*
X154442011Y-79355509D01*
X154450612Y-79357992D01*
G37*
G04 #@! TD.AperFunction*
G04 #@! TA.AperFunction,Conductor*
G36*
X154588486Y-96881115D02*
G01*
X154795068Y-96980600D01*
X154801035Y-96987277D01*
X154800776Y-96995680D01*
X154631483Y-97397927D01*
X154631483Y-97397929D01*
X154540699Y-97729107D01*
X154540698Y-97729110D01*
X154501607Y-98023587D01*
X154501605Y-98023602D01*
X154483081Y-98325972D01*
X154483073Y-98326093D01*
X154454974Y-98669016D01*
X154450883Y-98676982D01*
X154442358Y-98679722D01*
X154442009Y-98679688D01*
X153236669Y-98544476D01*
X153228829Y-98540148D01*
X153226450Y-98534875D01*
X153013643Y-97324688D01*
X153015585Y-97315949D01*
X153023140Y-97311141D01*
X153024618Y-97310976D01*
X153300558Y-97298235D01*
X153379567Y-97294587D01*
X153380298Y-97294599D01*
X153402085Y-97296318D01*
X153731048Y-97322282D01*
X154054719Y-97315041D01*
X154340977Y-97193161D01*
X154574075Y-96884602D01*
X154581796Y-96880068D01*
X154588486Y-96881115D01*
G37*
G04 #@! TD.AperFunction*
G04 #@! TA.AperFunction,Conductor*
G36*
X154450612Y-98407992D02*
G01*
X154454940Y-98415832D01*
X154454974Y-98416180D01*
X154483075Y-98759107D01*
X154483083Y-98759227D01*
X154501607Y-99061594D01*
X154501609Y-99061609D01*
X154540699Y-99356086D01*
X154540700Y-99356089D01*
X154631484Y-99687267D01*
X154631484Y-99687269D01*
X154800777Y-100089518D01*
X154800828Y-100098473D01*
X154795069Y-100104598D01*
X154588487Y-100204083D01*
X154579547Y-100204585D01*
X154574075Y-100200594D01*
X154340978Y-99892036D01*
X154054720Y-99770156D01*
X154054719Y-99770156D01*
X153731055Y-99762915D01*
X153380298Y-99790599D01*
X153379567Y-99790611D01*
X153024626Y-99774223D01*
X153016520Y-99770418D01*
X153013478Y-99761995D01*
X153013641Y-99760520D01*
X153226450Y-98550322D01*
X153231258Y-98542769D01*
X153236665Y-98540724D01*
X154442011Y-98405509D01*
X154450612Y-98407992D01*
G37*
G04 #@! TD.AperFunction*
G04 #@! TA.AperFunction,Conductor*
G36*
X154588486Y-115931115D02*
G01*
X154795068Y-116030600D01*
X154801035Y-116037277D01*
X154800776Y-116045680D01*
X154631483Y-116447927D01*
X154631483Y-116447929D01*
X154540699Y-116779107D01*
X154540698Y-116779110D01*
X154501607Y-117073587D01*
X154501605Y-117073602D01*
X154483081Y-117375972D01*
X154483073Y-117376093D01*
X154454974Y-117719016D01*
X154450883Y-117726982D01*
X154442358Y-117729722D01*
X154442009Y-117729688D01*
X153236669Y-117594476D01*
X153228829Y-117590148D01*
X153226450Y-117584875D01*
X153013643Y-116374688D01*
X153015585Y-116365949D01*
X153023140Y-116361141D01*
X153024618Y-116360976D01*
X153300558Y-116348235D01*
X153379567Y-116344587D01*
X153380298Y-116344599D01*
X153402085Y-116346318D01*
X153731048Y-116372282D01*
X154054719Y-116365041D01*
X154340977Y-116243161D01*
X154574075Y-115934602D01*
X154581796Y-115930068D01*
X154588486Y-115931115D01*
G37*
G04 #@! TD.AperFunction*
G04 #@! TA.AperFunction,Conductor*
G36*
X153235923Y-117597921D02*
G01*
X154164639Y-118378176D01*
X154176435Y-118388086D01*
X154180565Y-118396031D01*
X154177867Y-118404570D01*
X154177392Y-118405101D01*
X154026896Y-118563557D01*
X153940833Y-118654172D01*
X153940671Y-118654336D01*
X153714441Y-118873276D01*
X153714429Y-118873289D01*
X153527486Y-119105951D01*
X153527486Y-119105953D01*
X153400328Y-119405117D01*
X153354566Y-119813214D01*
X153350239Y-119821054D01*
X153342939Y-119823610D01*
X153113861Y-119823610D01*
X153105588Y-119820183D01*
X153102234Y-119813214D01*
X153056471Y-119405116D01*
X152929312Y-119105951D01*
X152929312Y-119105950D01*
X152742368Y-118873289D01*
X152742356Y-118873276D01*
X152516151Y-118654360D01*
X152515977Y-118654185D01*
X152515954Y-118654161D01*
X152454068Y-118589000D01*
X152279407Y-118405100D01*
X152276195Y-118396742D01*
X152279834Y-118388559D01*
X152280346Y-118388101D01*
X153220875Y-117597921D01*
X153229413Y-117595224D01*
X153235923Y-117597921D01*
G37*
G04 #@! TD.AperFunction*
G04 #@! TA.AperFunction,Conductor*
G36*
X102180992Y-139578538D02*
G01*
X102188745Y-139583015D01*
X102191066Y-139591640D01*
X102133549Y-140035647D01*
X102094315Y-140385112D01*
X102094311Y-140385162D01*
X102073423Y-140683630D01*
X102073421Y-140683675D01*
X102069435Y-140986361D01*
X102069434Y-140986365D01*
X102080548Y-141336945D01*
X102077385Y-141345323D01*
X102069397Y-141349003D01*
X100849273Y-141405695D01*
X100840850Y-141402656D01*
X100837777Y-141398121D01*
X100412476Y-140265519D01*
X100412776Y-140256569D01*
X100419316Y-140250453D01*
X100421020Y-140249957D01*
X100788932Y-140172536D01*
X100790583Y-140172310D01*
X101178841Y-140147460D01*
X101530601Y-140092222D01*
X101800675Y-139920821D01*
X101941392Y-139556018D01*
X101947567Y-139549534D01*
X101953831Y-139548630D01*
X102180992Y-139578538D01*
G37*
G04 #@! TD.AperFunction*
G04 #@! TA.AperFunction,Conductor*
G36*
X205315085Y-55709069D02*
G01*
X205315197Y-55709179D01*
X205588378Y-55981753D01*
X205940467Y-56333061D01*
X205943903Y-56341329D01*
X205943903Y-56341351D01*
X205943211Y-57223183D01*
X205939778Y-57231454D01*
X205931502Y-57234874D01*
X205929411Y-57234684D01*
X205539739Y-57163593D01*
X205536624Y-57162556D01*
X205498220Y-57143434D01*
X205224861Y-57007322D01*
X205224826Y-57007304D01*
X204960359Y-56867846D01*
X204960358Y-56867845D01*
X204960353Y-56867844D01*
X204701614Y-56843483D01*
X204413486Y-57027753D01*
X204404670Y-57029323D01*
X204398909Y-57026169D01*
X204236938Y-56864198D01*
X204233511Y-56855925D01*
X204236817Y-56847775D01*
X204501789Y-56575008D01*
X204688692Y-56368954D01*
X204846895Y-56187893D01*
X205033799Y-55981839D01*
X205298542Y-55709308D01*
X205306763Y-55705762D01*
X205315085Y-55709069D01*
G37*
G04 #@! TD.AperFunction*
G04 #@! TA.AperFunction,Conductor*
G36*
X63800024Y-49813991D02*
G01*
X63806349Y-49820325D01*
X63929029Y-50116991D01*
X63929045Y-50117030D01*
X64028690Y-50334232D01*
X64136449Y-50509836D01*
X64136454Y-50509843D01*
X64287899Y-50692434D01*
X64287918Y-50692455D01*
X64510679Y-50922443D01*
X64513974Y-50930770D01*
X64510548Y-50938856D01*
X64348746Y-51100658D01*
X64340473Y-51104085D01*
X64333913Y-51102072D01*
X64060972Y-50917220D01*
X63813806Y-50913342D01*
X63813805Y-50913343D01*
X63560765Y-51013053D01*
X63560766Y-51013054D01*
X63263281Y-51133110D01*
X63260666Y-51133826D01*
X62891454Y-51190147D01*
X62882759Y-51188007D01*
X62878124Y-51180345D01*
X62877990Y-51178589D01*
X62877298Y-50199322D01*
X62880719Y-50191049D01*
X62884528Y-50188503D01*
X63791072Y-49813982D01*
X63800024Y-49813991D01*
G37*
G04 #@! TD.AperFunction*
G04 #@! TA.AperFunction,Conductor*
G36*
X230768492Y-77666038D02*
G01*
X230776245Y-77670515D01*
X230778566Y-77679140D01*
X230721049Y-78123147D01*
X230681815Y-78472612D01*
X230681811Y-78472662D01*
X230660923Y-78771130D01*
X230660921Y-78771175D01*
X230656935Y-79073861D01*
X230656934Y-79073865D01*
X230668048Y-79424445D01*
X230664885Y-79432823D01*
X230656897Y-79436503D01*
X229436773Y-79493195D01*
X229428350Y-79490156D01*
X229425277Y-79485621D01*
X228999976Y-78353019D01*
X229000276Y-78344069D01*
X229006816Y-78337953D01*
X229008520Y-78337457D01*
X229376432Y-78260036D01*
X229378083Y-78259810D01*
X229766341Y-78234960D01*
X230118101Y-78179722D01*
X230388175Y-78008321D01*
X230528892Y-77643518D01*
X230535067Y-77637034D01*
X230541331Y-77636130D01*
X230768492Y-77666038D01*
G37*
G04 #@! TD.AperFunction*
G04 #@! TA.AperFunction,Conductor*
G36*
X232209171Y-68695600D02*
G01*
X232370599Y-68857028D01*
X232374026Y-68865301D01*
X232371196Y-68872931D01*
X232267490Y-68993487D01*
X232210600Y-69100215D01*
X232180656Y-69205560D01*
X232180641Y-69205620D01*
X232150749Y-69330032D01*
X232150590Y-69330576D01*
X232097800Y-69483357D01*
X232091860Y-69490057D01*
X232082921Y-69490594D01*
X232082290Y-69490356D01*
X231728004Y-69344563D01*
X231721657Y-69338245D01*
X231721636Y-69338195D01*
X231667055Y-69205560D01*
X231575843Y-68983908D01*
X231575864Y-68974955D01*
X231582211Y-68968637D01*
X231582811Y-68968410D01*
X231735645Y-68915599D01*
X231736142Y-68915454D01*
X231860610Y-68885549D01*
X231965984Y-68855598D01*
X232072712Y-68798707D01*
X232193271Y-68695002D01*
X232201775Y-68692206D01*
X232209171Y-68695600D01*
G37*
G04 #@! TD.AperFunction*
G04 #@! TA.AperFunction,Conductor*
G36*
X211851738Y-48377711D02*
G01*
X211858064Y-48384050D01*
X211858443Y-48385109D01*
X211973441Y-48762876D01*
X211973866Y-48764898D01*
X212010139Y-49069093D01*
X212039967Y-49331589D01*
X212039968Y-49331593D01*
X212139348Y-49594693D01*
X212377852Y-49893427D01*
X212380336Y-49902031D01*
X212376982Y-49909000D01*
X212215000Y-50070982D01*
X212206727Y-50074409D01*
X212199427Y-50071852D01*
X211900693Y-49833348D01*
X211637593Y-49733968D01*
X211637589Y-49733967D01*
X211375124Y-49704142D01*
X211375091Y-49704124D01*
X211375061Y-49704135D01*
X211070898Y-49667866D01*
X211068876Y-49667441D01*
X210691109Y-49552443D01*
X210684192Y-49546755D01*
X210683323Y-49537843D01*
X210683694Y-49536804D01*
X211020638Y-48720983D01*
X211026961Y-48714647D01*
X211842786Y-48377702D01*
X211851738Y-48377711D01*
G37*
G04 #@! TD.AperFunction*
G04 #@! TA.AperFunction,Conductor*
G36*
X232209171Y-69914800D02*
G01*
X232370598Y-70076228D01*
X232374025Y-70084501D01*
X232371195Y-70092131D01*
X232267490Y-70212687D01*
X232210599Y-70319415D01*
X232180656Y-70424760D01*
X232180641Y-70424820D01*
X232150749Y-70549232D01*
X232150590Y-70549776D01*
X232097800Y-70702557D01*
X232091860Y-70709257D01*
X232082921Y-70709794D01*
X232082290Y-70709556D01*
X231728004Y-70563763D01*
X231721657Y-70557445D01*
X231721636Y-70557395D01*
X231667055Y-70424760D01*
X231575843Y-70203108D01*
X231575864Y-70194155D01*
X231582211Y-70187837D01*
X231582811Y-70187610D01*
X231735645Y-70134799D01*
X231736142Y-70134654D01*
X231860610Y-70104749D01*
X231965984Y-70074798D01*
X232072712Y-70017907D01*
X232193271Y-69914202D01*
X232201775Y-69911406D01*
X232209171Y-69914800D01*
G37*
G04 #@! TD.AperFunction*
G04 #@! TA.AperFunction,Conductor*
G36*
X214391738Y-48377711D02*
G01*
X214398064Y-48384050D01*
X214398443Y-48385109D01*
X214513441Y-48762876D01*
X214513866Y-48764898D01*
X214550139Y-49069093D01*
X214579967Y-49331589D01*
X214579968Y-49331593D01*
X214679348Y-49594693D01*
X214917852Y-49893427D01*
X214920336Y-49902031D01*
X214916982Y-49909000D01*
X214755000Y-50070982D01*
X214746727Y-50074409D01*
X214739427Y-50071852D01*
X214440693Y-49833348D01*
X214177593Y-49733968D01*
X214177589Y-49733967D01*
X213915124Y-49704142D01*
X213915091Y-49704124D01*
X213915061Y-49704135D01*
X213610898Y-49667866D01*
X213608876Y-49667441D01*
X213231109Y-49552443D01*
X213224192Y-49546755D01*
X213223323Y-49537843D01*
X213223694Y-49536804D01*
X213560638Y-48720983D01*
X213566961Y-48714647D01*
X214382786Y-48377702D01*
X214391738Y-48377711D01*
G37*
G04 #@! TD.AperFunction*
G04 #@! TA.AperFunction,Conductor*
G36*
X232209171Y-71083200D02*
G01*
X232370598Y-71244628D01*
X232374025Y-71252901D01*
X232371195Y-71260531D01*
X232267490Y-71381087D01*
X232210599Y-71487815D01*
X232180656Y-71593160D01*
X232180641Y-71593220D01*
X232150749Y-71717632D01*
X232150590Y-71718176D01*
X232097800Y-71870957D01*
X232091860Y-71877657D01*
X232082921Y-71878194D01*
X232082290Y-71877956D01*
X231728004Y-71732163D01*
X231721657Y-71725845D01*
X231721636Y-71725795D01*
X231667055Y-71593160D01*
X231575843Y-71371508D01*
X231575864Y-71362555D01*
X231582211Y-71356237D01*
X231582811Y-71356010D01*
X231735645Y-71303199D01*
X231736142Y-71303054D01*
X231860610Y-71273149D01*
X231965984Y-71243198D01*
X232072712Y-71186307D01*
X232193271Y-71082602D01*
X232201775Y-71079806D01*
X232209171Y-71083200D01*
G37*
G04 #@! TD.AperFunction*
G04 #@! TA.AperFunction,Conductor*
G36*
X216931738Y-48377711D02*
G01*
X216938064Y-48384050D01*
X216938443Y-48385109D01*
X217053441Y-48762876D01*
X217053866Y-48764898D01*
X217090139Y-49069093D01*
X217119967Y-49331589D01*
X217119968Y-49331593D01*
X217219348Y-49594693D01*
X217457852Y-49893427D01*
X217460336Y-49902031D01*
X217456982Y-49909000D01*
X217295000Y-50070982D01*
X217286727Y-50074409D01*
X217279427Y-50071852D01*
X216980693Y-49833348D01*
X216717593Y-49733968D01*
X216717589Y-49733967D01*
X216455124Y-49704142D01*
X216455091Y-49704124D01*
X216455061Y-49704135D01*
X216150898Y-49667866D01*
X216148876Y-49667441D01*
X215771109Y-49552443D01*
X215764192Y-49546755D01*
X215763323Y-49537843D01*
X215763694Y-49536804D01*
X216100638Y-48720983D01*
X216106961Y-48714647D01*
X216922786Y-48377702D01*
X216931738Y-48377711D01*
G37*
G04 #@! TD.AperFunction*
G04 #@! TA.AperFunction,Conductor*
G36*
X232234571Y-72226200D02*
G01*
X232395999Y-72387628D01*
X232399426Y-72395901D01*
X232396596Y-72403531D01*
X232292890Y-72524087D01*
X232236000Y-72630815D01*
X232206056Y-72736160D01*
X232206041Y-72736220D01*
X232176149Y-72860632D01*
X232175990Y-72861176D01*
X232123200Y-73013957D01*
X232117260Y-73020657D01*
X232108321Y-73021194D01*
X232107690Y-73020956D01*
X231753404Y-72875163D01*
X231747057Y-72868845D01*
X231747036Y-72868795D01*
X231692455Y-72736160D01*
X231601243Y-72514508D01*
X231601264Y-72505555D01*
X231607611Y-72499237D01*
X231608211Y-72499010D01*
X231761045Y-72446199D01*
X231761542Y-72446054D01*
X231886010Y-72416149D01*
X231991384Y-72386198D01*
X232098112Y-72329307D01*
X232218671Y-72225602D01*
X232227175Y-72222806D01*
X232234571Y-72226200D01*
G37*
G04 #@! TD.AperFunction*
G04 #@! TA.AperFunction,Conductor*
G36*
X219471738Y-48377711D02*
G01*
X219478064Y-48384050D01*
X219478443Y-48385109D01*
X219593441Y-48762876D01*
X219593866Y-48764898D01*
X219630139Y-49069093D01*
X219659967Y-49331589D01*
X219659968Y-49331593D01*
X219759348Y-49594693D01*
X219997852Y-49893427D01*
X220000336Y-49902031D01*
X219996982Y-49909000D01*
X219835000Y-50070982D01*
X219826727Y-50074409D01*
X219819427Y-50071852D01*
X219520693Y-49833348D01*
X219257593Y-49733968D01*
X219257589Y-49733967D01*
X218995124Y-49704142D01*
X218995091Y-49704124D01*
X218995061Y-49704135D01*
X218690898Y-49667866D01*
X218688876Y-49667441D01*
X218311109Y-49552443D01*
X218304192Y-49546755D01*
X218303323Y-49537843D01*
X218303694Y-49536804D01*
X218640638Y-48720983D01*
X218646961Y-48714647D01*
X219462786Y-48377702D01*
X219471738Y-48377711D01*
G37*
G04 #@! TD.AperFunction*
G04 #@! TA.AperFunction,Conductor*
G36*
X211738486Y-96881115D02*
G01*
X211945068Y-96980600D01*
X211951035Y-96987277D01*
X211950776Y-96995680D01*
X211781483Y-97397927D01*
X211781483Y-97397929D01*
X211690699Y-97729107D01*
X211690698Y-97729110D01*
X211651607Y-98023587D01*
X211651605Y-98023602D01*
X211633081Y-98325972D01*
X211633073Y-98326093D01*
X211604974Y-98669016D01*
X211600883Y-98676982D01*
X211592358Y-98679722D01*
X211592009Y-98679688D01*
X210386669Y-98544476D01*
X210378829Y-98540148D01*
X210376450Y-98534875D01*
X210163643Y-97324688D01*
X210165585Y-97315949D01*
X210173140Y-97311141D01*
X210174618Y-97310976D01*
X210450558Y-97298235D01*
X210529567Y-97294587D01*
X210530298Y-97294599D01*
X210552085Y-97296318D01*
X210881048Y-97322282D01*
X211204719Y-97315041D01*
X211490977Y-97193161D01*
X211724075Y-96884602D01*
X211731796Y-96880068D01*
X211738486Y-96881115D01*
G37*
G04 #@! TD.AperFunction*
G04 #@! TA.AperFunction,Conductor*
G36*
X211600612Y-98407992D02*
G01*
X211604940Y-98415832D01*
X211604974Y-98416180D01*
X211633075Y-98759107D01*
X211633083Y-98759227D01*
X211651607Y-99061594D01*
X211651609Y-99061609D01*
X211690699Y-99356086D01*
X211690700Y-99356089D01*
X211781484Y-99687267D01*
X211781484Y-99687269D01*
X211950777Y-100089518D01*
X211950828Y-100098473D01*
X211945069Y-100104598D01*
X211738487Y-100204083D01*
X211729547Y-100204585D01*
X211724075Y-100200594D01*
X211490978Y-99892036D01*
X211204720Y-99770156D01*
X210881055Y-99762915D01*
X210530298Y-99790599D01*
X210529567Y-99790611D01*
X210174626Y-99774223D01*
X210166520Y-99770418D01*
X210163478Y-99761995D01*
X210163641Y-99760520D01*
X210376450Y-98550322D01*
X210381258Y-98542769D01*
X210386665Y-98540724D01*
X211592011Y-98405509D01*
X211600612Y-98407992D01*
G37*
G04 #@! TD.AperFunction*
G04 #@! TA.AperFunction,Conductor*
G36*
X192550612Y-79357992D02*
G01*
X192554940Y-79365832D01*
X192554974Y-79366180D01*
X192583075Y-79709107D01*
X192583083Y-79709227D01*
X192601607Y-80011594D01*
X192601609Y-80011609D01*
X192640699Y-80306086D01*
X192640700Y-80306089D01*
X192731484Y-80637267D01*
X192731484Y-80637269D01*
X192900777Y-81039518D01*
X192900828Y-81048473D01*
X192895069Y-81054598D01*
X192688487Y-81154083D01*
X192679547Y-81154585D01*
X192674075Y-81150594D01*
X192440978Y-80842036D01*
X192154720Y-80720156D01*
X192154720Y-80720155D01*
X191831055Y-80712915D01*
X191480298Y-80740599D01*
X191479567Y-80740611D01*
X191124626Y-80724223D01*
X191116520Y-80720418D01*
X191113478Y-80711995D01*
X191113641Y-80710520D01*
X191326450Y-79500322D01*
X191331258Y-79492769D01*
X191336665Y-79490724D01*
X192542011Y-79355509D01*
X192550612Y-79357992D01*
G37*
G04 #@! TD.AperFunction*
G04 #@! TA.AperFunction,Conductor*
G36*
X192688486Y-96881114D02*
G01*
X192895068Y-96980599D01*
X192901035Y-96987276D01*
X192900776Y-96995679D01*
X192731483Y-97397926D01*
X192731483Y-97397928D01*
X192640699Y-97729106D01*
X192640698Y-97729109D01*
X192601607Y-98023586D01*
X192601605Y-98023601D01*
X192583081Y-98325971D01*
X192583073Y-98326092D01*
X192554974Y-98669015D01*
X192550883Y-98676981D01*
X192542358Y-98679721D01*
X192542009Y-98679687D01*
X191336669Y-98544476D01*
X191328829Y-98540148D01*
X191326450Y-98534875D01*
X191113643Y-97324688D01*
X191115585Y-97315949D01*
X191123140Y-97311141D01*
X191124618Y-97310976D01*
X191400558Y-97298235D01*
X191479567Y-97294587D01*
X191480298Y-97294599D01*
X191502085Y-97296318D01*
X191831048Y-97322282D01*
X192154719Y-97315040D01*
X192440977Y-97193160D01*
X192674075Y-96884601D01*
X192681796Y-96880067D01*
X192688486Y-96881114D01*
G37*
G04 #@! TD.AperFunction*
G04 #@! TA.AperFunction,Conductor*
G36*
X192550612Y-98407992D02*
G01*
X192554940Y-98415832D01*
X192554974Y-98416180D01*
X192583075Y-98759107D01*
X192583083Y-98759227D01*
X192601607Y-99061594D01*
X192601609Y-99061609D01*
X192640699Y-99356086D01*
X192640700Y-99356089D01*
X192731484Y-99687267D01*
X192731484Y-99687269D01*
X192900777Y-100089518D01*
X192900828Y-100098473D01*
X192895069Y-100104598D01*
X192688487Y-100204083D01*
X192679547Y-100204585D01*
X192674075Y-100200594D01*
X192440978Y-99892036D01*
X192154720Y-99770156D01*
X191831055Y-99762915D01*
X191480298Y-99790599D01*
X191479567Y-99790611D01*
X191124626Y-99774223D01*
X191116520Y-99770418D01*
X191113478Y-99761995D01*
X191113641Y-99760520D01*
X191326450Y-98550322D01*
X191331258Y-98542769D01*
X191336665Y-98540724D01*
X192542011Y-98405509D01*
X192550612Y-98407992D01*
G37*
G04 #@! TD.AperFunction*
G04 #@! TA.AperFunction,Conductor*
G36*
X173500612Y-79357992D02*
G01*
X173504940Y-79365832D01*
X173504974Y-79366180D01*
X173533075Y-79709107D01*
X173533083Y-79709227D01*
X173551607Y-80011594D01*
X173551609Y-80011609D01*
X173590699Y-80306086D01*
X173590700Y-80306089D01*
X173681484Y-80637267D01*
X173681484Y-80637269D01*
X173850777Y-81039518D01*
X173850828Y-81048473D01*
X173845069Y-81054598D01*
X173638487Y-81154083D01*
X173629547Y-81154585D01*
X173624075Y-81150594D01*
X173390978Y-80842036D01*
X173104720Y-80720156D01*
X173104719Y-80720155D01*
X172781055Y-80712915D01*
X172430298Y-80740599D01*
X172429567Y-80740611D01*
X172074626Y-80724223D01*
X172066520Y-80720418D01*
X172063478Y-80711995D01*
X172063641Y-80710520D01*
X172276450Y-79500322D01*
X172281258Y-79492769D01*
X172286665Y-79490724D01*
X173492011Y-79355509D01*
X173500612Y-79357992D01*
G37*
G04 #@! TD.AperFunction*
G04 #@! TA.AperFunction,Conductor*
G36*
X59200612Y-98407992D02*
G01*
X59204940Y-98415832D01*
X59204974Y-98416180D01*
X59233075Y-98759107D01*
X59233083Y-98759227D01*
X59251607Y-99061594D01*
X59251609Y-99061609D01*
X59290699Y-99356086D01*
X59290700Y-99356089D01*
X59381484Y-99687267D01*
X59381484Y-99687269D01*
X59550777Y-100089518D01*
X59550828Y-100098473D01*
X59545069Y-100104598D01*
X59338487Y-100204083D01*
X59329547Y-100204585D01*
X59324075Y-100200594D01*
X59090978Y-99892036D01*
X58804720Y-99770156D01*
X58481055Y-99762915D01*
X58130298Y-99790599D01*
X58129567Y-99790611D01*
X57774626Y-99774223D01*
X57766520Y-99770418D01*
X57763478Y-99761995D01*
X57763641Y-99760520D01*
X57976450Y-98550322D01*
X57981258Y-98542769D01*
X57986665Y-98540724D01*
X59192011Y-98405509D01*
X59200612Y-98407992D01*
G37*
G04 #@! TD.AperFunction*
G04 #@! TA.AperFunction,Conductor*
G36*
X59338486Y-96881115D02*
G01*
X59545068Y-96980600D01*
X59551035Y-96987277D01*
X59550776Y-96995680D01*
X59381483Y-97397927D01*
X59381483Y-97397929D01*
X59290699Y-97729107D01*
X59290698Y-97729110D01*
X59251607Y-98023587D01*
X59251605Y-98023602D01*
X59233081Y-98325972D01*
X59233073Y-98326093D01*
X59204974Y-98669016D01*
X59200883Y-98676982D01*
X59192358Y-98679722D01*
X59192009Y-98679688D01*
X57986669Y-98544476D01*
X57978829Y-98540148D01*
X57976450Y-98534875D01*
X57763643Y-97324688D01*
X57765585Y-97315949D01*
X57773140Y-97311141D01*
X57774618Y-97310976D01*
X58050558Y-97298235D01*
X58129567Y-97294587D01*
X58130298Y-97294599D01*
X58152085Y-97296318D01*
X58481048Y-97322282D01*
X58804719Y-97315041D01*
X59090977Y-97193161D01*
X59324075Y-96884602D01*
X59331796Y-96880068D01*
X59338486Y-96881115D01*
G37*
G04 #@! TD.AperFunction*
G04 #@! TA.AperFunction,Conductor*
G36*
X78388486Y-96881115D02*
G01*
X78595068Y-96980600D01*
X78601035Y-96987277D01*
X78600776Y-96995680D01*
X78431483Y-97397927D01*
X78431483Y-97397929D01*
X78340699Y-97729107D01*
X78340698Y-97729110D01*
X78301607Y-98023587D01*
X78301605Y-98023602D01*
X78283081Y-98325972D01*
X78283073Y-98326093D01*
X78254974Y-98669016D01*
X78250883Y-98676982D01*
X78242358Y-98679722D01*
X78242009Y-98679688D01*
X77036669Y-98544476D01*
X77028829Y-98540148D01*
X77026450Y-98534875D01*
X76813643Y-97324688D01*
X76815585Y-97315949D01*
X76823140Y-97311141D01*
X76824618Y-97310976D01*
X77100558Y-97298235D01*
X77179567Y-97294587D01*
X77180298Y-97294599D01*
X77202085Y-97296318D01*
X77531048Y-97322282D01*
X77854719Y-97315041D01*
X78140977Y-97193161D01*
X78374075Y-96884602D01*
X78381796Y-96880068D01*
X78388486Y-96881115D01*
G37*
G04 #@! TD.AperFunction*
G04 #@! TA.AperFunction,Conductor*
G36*
X78250612Y-98407992D02*
G01*
X78254940Y-98415832D01*
X78254974Y-98416180D01*
X78283075Y-98759107D01*
X78283083Y-98759227D01*
X78301607Y-99061594D01*
X78301609Y-99061609D01*
X78340699Y-99356086D01*
X78340700Y-99356089D01*
X78431484Y-99687267D01*
X78431484Y-99687269D01*
X78600777Y-100089518D01*
X78600828Y-100098473D01*
X78595069Y-100104598D01*
X78388487Y-100204083D01*
X78379547Y-100204585D01*
X78374075Y-100200594D01*
X78140978Y-99892036D01*
X77854720Y-99770156D01*
X77531055Y-99762915D01*
X77180298Y-99790599D01*
X77179567Y-99790611D01*
X76824626Y-99774223D01*
X76816520Y-99770418D01*
X76813478Y-99761995D01*
X76813641Y-99760520D01*
X77026450Y-98550322D01*
X77031258Y-98542769D01*
X77036665Y-98540724D01*
X78242011Y-98405509D01*
X78250612Y-98407992D01*
G37*
G04 #@! TD.AperFunction*
G04 #@! TA.AperFunction,Conductor*
G36*
X135400612Y-79357992D02*
G01*
X135404940Y-79365832D01*
X135404974Y-79366180D01*
X135433075Y-79709107D01*
X135433083Y-79709227D01*
X135451607Y-80011594D01*
X135451609Y-80011609D01*
X135490699Y-80306086D01*
X135490700Y-80306089D01*
X135581484Y-80637267D01*
X135581484Y-80637269D01*
X135750777Y-81039518D01*
X135750828Y-81048473D01*
X135745069Y-81054598D01*
X135538487Y-81154083D01*
X135529547Y-81154585D01*
X135524075Y-81150594D01*
X135290978Y-80842036D01*
X135004720Y-80720156D01*
X135004720Y-80720155D01*
X134681055Y-80712915D01*
X134330298Y-80740599D01*
X134329567Y-80740611D01*
X133974626Y-80724223D01*
X133966520Y-80720418D01*
X133963478Y-80711995D01*
X133963641Y-80710520D01*
X134176450Y-79500322D01*
X134181258Y-79492769D01*
X134186665Y-79490724D01*
X135392011Y-79355509D01*
X135400612Y-79357992D01*
G37*
G04 #@! TD.AperFunction*
G04 #@! TA.AperFunction,Conductor*
G36*
X217466972Y-62602547D02*
G01*
X217765704Y-62841049D01*
X217765705Y-62841049D01*
X217765706Y-62841050D01*
X217850873Y-62873219D01*
X218028804Y-62940429D01*
X218028808Y-62940430D01*
X218291275Y-62970256D01*
X218291334Y-62970289D01*
X218291338Y-62970264D01*
X218595502Y-63006531D01*
X218597517Y-63006955D01*
X218836494Y-63079704D01*
X218975290Y-63121956D01*
X218982207Y-63127644D01*
X218983076Y-63136556D01*
X218982697Y-63137615D01*
X218645762Y-63953414D01*
X218639436Y-63959753D01*
X218639414Y-63959762D01*
X217823615Y-64296697D01*
X217814661Y-64296688D01*
X217808335Y-64290349D01*
X217807956Y-64289290D01*
X217692955Y-63911517D01*
X217692531Y-63909499D01*
X217656260Y-63605306D01*
X217626430Y-63342808D01*
X217626429Y-63342804D01*
X217527049Y-63079704D01*
X217288547Y-62780972D01*
X217286063Y-62772368D01*
X217289416Y-62765400D01*
X217451400Y-62603416D01*
X217459672Y-62599990D01*
X217466972Y-62602547D01*
G37*
G04 #@! TD.AperFunction*
G04 #@! TA.AperFunction,Conductor*
G36*
X197959679Y-47282166D02*
G01*
X197966004Y-47288505D01*
X197966373Y-47289530D01*
X198078769Y-47654801D01*
X198079190Y-47656748D01*
X198117002Y-47950487D01*
X198117047Y-47950841D01*
X198117047Y-47950848D01*
X198149107Y-48203704D01*
X198149110Y-48203716D01*
X198248071Y-48457664D01*
X198248074Y-48457668D01*
X198339280Y-48571217D01*
X198480021Y-48746434D01*
X198482530Y-48755030D01*
X198479172Y-48762034D01*
X198317198Y-48924008D01*
X198308925Y-48927435D01*
X198301642Y-48924892D01*
X198096866Y-48762034D01*
X198010495Y-48693343D01*
X198010494Y-48693342D01*
X198010492Y-48693341D01*
X197829021Y-48626173D01*
X197753519Y-48598228D01*
X197650806Y-48587413D01*
X197496979Y-48571217D01*
X197200050Y-48537602D01*
X197197980Y-48537175D01*
X196830008Y-48425930D01*
X196823082Y-48420257D01*
X196822196Y-48411346D01*
X196822575Y-48410280D01*
X197150438Y-47616383D01*
X197156759Y-47610048D01*
X197950726Y-47282157D01*
X197959679Y-47282166D01*
G37*
G04 #@! TD.AperFunction*
G04 #@! TA.AperFunction,Conductor*
G36*
X197959653Y-49822177D02*
G01*
X197965978Y-49828516D01*
X197966354Y-49829566D01*
X198078398Y-50196611D01*
X198078822Y-50198614D01*
X198114792Y-50494236D01*
X198114828Y-50494550D01*
X198114829Y-50494554D01*
X198144641Y-50749332D01*
X198242009Y-51005029D01*
X198242010Y-51005030D01*
X198242011Y-51005032D01*
X198353327Y-51144242D01*
X198474125Y-51295310D01*
X198476615Y-51303912D01*
X198473260Y-51310890D01*
X198311290Y-51472860D01*
X198303017Y-51476287D01*
X198295710Y-51473725D01*
X198192503Y-51391198D01*
X198005432Y-51241611D01*
X198005430Y-51241610D01*
X198005429Y-51241609D01*
X197749731Y-51144241D01*
X197749732Y-51144241D01*
X197494954Y-51114429D01*
X197494950Y-51114428D01*
X197494758Y-51114406D01*
X197494691Y-51114398D01*
X197494636Y-51114392D01*
X197494636Y-51114391D01*
X197199014Y-51078422D01*
X197197011Y-51077998D01*
X196829966Y-50965954D01*
X196823054Y-50960261D01*
X196822192Y-50951348D01*
X196822563Y-50950309D01*
X197150438Y-50156383D01*
X197156759Y-50150048D01*
X197950699Y-49822168D01*
X197959653Y-49822177D01*
G37*
G04 #@! TD.AperFunction*
G04 #@! TA.AperFunction,Conductor*
G36*
X214926972Y-62602547D02*
G01*
X215225704Y-62841049D01*
X215225705Y-62841049D01*
X215225706Y-62841050D01*
X215310873Y-62873219D01*
X215488804Y-62940429D01*
X215488808Y-62940430D01*
X215751275Y-62970256D01*
X215751334Y-62970289D01*
X215751338Y-62970264D01*
X216055502Y-63006531D01*
X216057517Y-63006955D01*
X216296494Y-63079704D01*
X216435290Y-63121956D01*
X216442207Y-63127644D01*
X216443076Y-63136556D01*
X216442697Y-63137615D01*
X216105762Y-63953414D01*
X216099436Y-63959753D01*
X216099414Y-63959762D01*
X215283615Y-64296697D01*
X215274661Y-64296688D01*
X215268335Y-64290349D01*
X215267956Y-64289290D01*
X215152955Y-63911517D01*
X215152531Y-63909499D01*
X215116260Y-63605306D01*
X215086430Y-63342808D01*
X215086429Y-63342804D01*
X214987049Y-63079704D01*
X214748547Y-62780972D01*
X214746063Y-62772368D01*
X214749416Y-62765400D01*
X214911400Y-62603416D01*
X214919672Y-62599990D01*
X214926972Y-62602547D01*
G37*
G04 #@! TD.AperFunction*
G04 #@! TA.AperFunction,Conductor*
G36*
X196355605Y-54902294D02*
G01*
X197149290Y-55230122D01*
X197155627Y-55236447D01*
X197155636Y-55236469D01*
X197483502Y-56030469D01*
X197483492Y-56039424D01*
X197477154Y-56045749D01*
X197476265Y-56046075D01*
X197121553Y-56159988D01*
X197119759Y-56160411D01*
X196839665Y-56203604D01*
X196596273Y-56236879D01*
X196596264Y-56236881D01*
X196341533Y-56324767D01*
X196341532Y-56324767D01*
X196341531Y-56324768D01*
X196324719Y-56335822D01*
X196035345Y-56526083D01*
X196026549Y-56527765D01*
X196019770Y-56523602D01*
X195876882Y-56344427D01*
X195874403Y-56335822D01*
X195877514Y-56329108D01*
X196119310Y-56072640D01*
X196209348Y-55827403D01*
X196222293Y-55570167D01*
X196239697Y-55271566D01*
X196240104Y-55269118D01*
X196249180Y-55236447D01*
X196339870Y-54909976D01*
X196345385Y-54902924D01*
X196354274Y-54901837D01*
X196355605Y-54902294D01*
G37*
G04 #@! TD.AperFunction*
G04 #@! TA.AperFunction,Conductor*
G36*
X186593492Y-56576516D02*
G01*
X186779079Y-56713132D01*
X186779081Y-56713132D01*
X186779087Y-56713137D01*
X186973165Y-56827503D01*
X187167244Y-56913368D01*
X187167253Y-56913370D01*
X187167256Y-56913372D01*
X187361322Y-56970734D01*
X187545422Y-56998116D01*
X187553100Y-57002722D01*
X187555400Y-57009688D01*
X187555400Y-57239511D01*
X187551973Y-57247784D01*
X187545421Y-57251084D01*
X187361322Y-57278464D01*
X187167256Y-57335826D01*
X187167250Y-57335829D01*
X187167248Y-57335829D01*
X187167244Y-57335831D01*
X186973165Y-57421696D01*
X186973162Y-57421697D01*
X186973159Y-57421699D01*
X186779082Y-57536065D01*
X186779079Y-57536066D01*
X186593492Y-57672683D01*
X186584798Y-57674828D01*
X186577912Y-57671146D01*
X186086592Y-57132484D01*
X186083548Y-57124062D01*
X186086591Y-57116715D01*
X186577913Y-56578052D01*
X186586019Y-56574250D01*
X186593492Y-56576516D01*
G37*
G04 #@! TD.AperFunction*
G04 #@! TA.AperFunction,Conductor*
G36*
X230650612Y-117457992D02*
G01*
X230654940Y-117465832D01*
X230654974Y-117466180D01*
X230683075Y-117809107D01*
X230683083Y-117809227D01*
X230701607Y-118111594D01*
X230701609Y-118111609D01*
X230740699Y-118406086D01*
X230740700Y-118406089D01*
X230831484Y-118737267D01*
X230831484Y-118737269D01*
X231000777Y-119139518D01*
X231000828Y-119148473D01*
X230995069Y-119154598D01*
X230788487Y-119254083D01*
X230779547Y-119254585D01*
X230774075Y-119250594D01*
X230540978Y-118942036D01*
X230254720Y-118820156D01*
X230254719Y-118820155D01*
X229931055Y-118812915D01*
X229580298Y-118840599D01*
X229579567Y-118840611D01*
X229224626Y-118824223D01*
X229216520Y-118820418D01*
X229213478Y-118811995D01*
X229213641Y-118810520D01*
X229426450Y-117600322D01*
X229431258Y-117592769D01*
X229436665Y-117590724D01*
X230642011Y-117455509D01*
X230650612Y-117457992D01*
G37*
G04 #@! TD.AperFunction*
G04 #@! TA.AperFunction,Conductor*
G36*
X230650612Y-79357992D02*
G01*
X230654940Y-79365832D01*
X230654974Y-79366180D01*
X230683075Y-79709107D01*
X230683083Y-79709227D01*
X230701607Y-80011594D01*
X230701609Y-80011609D01*
X230740699Y-80306086D01*
X230740700Y-80306089D01*
X230831484Y-80637267D01*
X230831484Y-80637269D01*
X231000777Y-81039518D01*
X231000828Y-81048473D01*
X230995069Y-81054598D01*
X230788487Y-81154083D01*
X230779547Y-81154585D01*
X230774075Y-81150594D01*
X230540978Y-80842036D01*
X230254720Y-80720156D01*
X230254719Y-80720155D01*
X229931055Y-80712915D01*
X229580298Y-80740599D01*
X229579567Y-80740611D01*
X229224626Y-80724223D01*
X229216520Y-80720418D01*
X229213478Y-80711995D01*
X229213641Y-80710520D01*
X229426450Y-79500322D01*
X229431258Y-79492769D01*
X229436665Y-79490724D01*
X230642011Y-79355509D01*
X230650612Y-79357992D01*
G37*
G04 #@! TD.AperFunction*
G04 #@! TA.AperFunction,Conductor*
G36*
X230650612Y-98407992D02*
G01*
X230654940Y-98415832D01*
X230654974Y-98416180D01*
X230683075Y-98759107D01*
X230683083Y-98759227D01*
X230701607Y-99061594D01*
X230701609Y-99061609D01*
X230740699Y-99356086D01*
X230740700Y-99356089D01*
X230831484Y-99687267D01*
X230831484Y-99687269D01*
X231000777Y-100089518D01*
X231000828Y-100098473D01*
X230995069Y-100104598D01*
X230788487Y-100204083D01*
X230779547Y-100204585D01*
X230774075Y-100200594D01*
X230540978Y-99892036D01*
X230254720Y-99770156D01*
X230254719Y-99770156D01*
X229931055Y-99762915D01*
X229580298Y-99790599D01*
X229579567Y-99790611D01*
X229224626Y-99774223D01*
X229216520Y-99770418D01*
X229213478Y-99761995D01*
X229213641Y-99760520D01*
X229426450Y-98550322D01*
X229431258Y-98542769D01*
X229436665Y-98540724D01*
X230642011Y-98405509D01*
X230650612Y-98407992D01*
G37*
G04 #@! TD.AperFunction*
G04 #@! TA.AperFunction,Conductor*
G36*
X230788486Y-96881115D02*
G01*
X230995068Y-96980600D01*
X231001035Y-96987277D01*
X231000776Y-96995680D01*
X230831483Y-97397927D01*
X230831483Y-97397929D01*
X230740699Y-97729107D01*
X230740698Y-97729110D01*
X230701607Y-98023587D01*
X230701605Y-98023602D01*
X230683081Y-98325972D01*
X230683073Y-98326093D01*
X230654974Y-98669016D01*
X230650883Y-98676982D01*
X230642358Y-98679722D01*
X230642009Y-98679688D01*
X229436669Y-98544476D01*
X229428829Y-98540148D01*
X229426450Y-98534875D01*
X229213643Y-97324688D01*
X229215585Y-97315949D01*
X229223140Y-97311141D01*
X229224618Y-97310976D01*
X229500558Y-97298235D01*
X229579567Y-97294587D01*
X229580298Y-97294599D01*
X229602085Y-97296318D01*
X229931048Y-97322282D01*
X230254719Y-97315041D01*
X230540977Y-97193161D01*
X230774075Y-96884602D01*
X230781796Y-96880068D01*
X230788486Y-96881115D01*
G37*
G04 #@! TD.AperFunction*
G04 #@! TA.AperFunction,Conductor*
G36*
X230788486Y-134981115D02*
G01*
X230995068Y-135080600D01*
X231001035Y-135087277D01*
X231000776Y-135095680D01*
X230831483Y-135497927D01*
X230831483Y-135497929D01*
X230740699Y-135829107D01*
X230740698Y-135829110D01*
X230701607Y-136123587D01*
X230701605Y-136123602D01*
X230683081Y-136425972D01*
X230683073Y-136426093D01*
X230654974Y-136769016D01*
X230650883Y-136776982D01*
X230642358Y-136779722D01*
X230642009Y-136779688D01*
X229436669Y-136644476D01*
X229428829Y-136640148D01*
X229426450Y-136634875D01*
X229213643Y-135424688D01*
X229215585Y-135415949D01*
X229223140Y-135411141D01*
X229224618Y-135410976D01*
X229500558Y-135398235D01*
X229579567Y-135394587D01*
X229580298Y-135394599D01*
X229602085Y-135396318D01*
X229931048Y-135422282D01*
X230254719Y-135415041D01*
X230540977Y-135293161D01*
X230774075Y-134984602D01*
X230781796Y-134980068D01*
X230788486Y-134981115D01*
G37*
G04 #@! TD.AperFunction*
G04 #@! TA.AperFunction,Conductor*
G36*
X230788486Y-115931115D02*
G01*
X230995068Y-116030600D01*
X231001035Y-116037277D01*
X231000776Y-116045680D01*
X230831483Y-116447927D01*
X230831483Y-116447929D01*
X230740699Y-116779107D01*
X230740698Y-116779110D01*
X230701607Y-117073587D01*
X230701605Y-117073602D01*
X230683081Y-117375972D01*
X230683073Y-117376093D01*
X230654974Y-117719016D01*
X230650883Y-117726982D01*
X230642358Y-117729722D01*
X230642009Y-117729688D01*
X229436669Y-117594476D01*
X229428829Y-117590148D01*
X229426450Y-117584875D01*
X229213643Y-116374688D01*
X229215585Y-116365949D01*
X229223140Y-116361141D01*
X229224618Y-116360976D01*
X229500558Y-116348235D01*
X229579567Y-116344587D01*
X229580298Y-116344599D01*
X229602085Y-116346318D01*
X229931048Y-116372282D01*
X230254719Y-116365041D01*
X230540977Y-116243161D01*
X230774075Y-115934602D01*
X230781796Y-115930068D01*
X230788486Y-115931115D01*
G37*
G04 #@! TD.AperFunction*
G04 #@! TA.AperFunction,Conductor*
G36*
X227091738Y-63617711D02*
G01*
X227098064Y-63624050D01*
X227098443Y-63625109D01*
X227213441Y-64002876D01*
X227213866Y-64004898D01*
X227250139Y-64309093D01*
X227279967Y-64571589D01*
X227279968Y-64571593D01*
X227379348Y-64834693D01*
X227617852Y-65133427D01*
X227620336Y-65142031D01*
X227616982Y-65149000D01*
X227455000Y-65310982D01*
X227446727Y-65314409D01*
X227439427Y-65311852D01*
X227140693Y-65073348D01*
X226877593Y-64973968D01*
X226877589Y-64973967D01*
X226615124Y-64944142D01*
X226615091Y-64944124D01*
X226615061Y-64944135D01*
X226310898Y-64907866D01*
X226308876Y-64907441D01*
X225931109Y-64792443D01*
X225924192Y-64786755D01*
X225923323Y-64777843D01*
X225923694Y-64776804D01*
X226260638Y-63960983D01*
X226266961Y-63954647D01*
X227082786Y-63617702D01*
X227091738Y-63617711D01*
G37*
G04 #@! TD.AperFunction*
G04 #@! TA.AperFunction,Conductor*
G36*
X211878232Y-77830658D02*
G01*
X212040342Y-77992768D01*
X212043769Y-78001041D01*
X212041275Y-78008261D01*
X211773009Y-78350326D01*
X211651441Y-78672517D01*
X211621767Y-78988775D01*
X211621766Y-78988787D01*
X211622770Y-79320981D01*
X211622751Y-79321463D01*
X211594254Y-79679299D01*
X211590181Y-79687274D01*
X211581662Y-79690033D01*
X211580704Y-79689917D01*
X210386127Y-79494685D01*
X210378515Y-79489968D01*
X210376440Y-79484853D01*
X210197055Y-78274132D01*
X210199233Y-78265448D01*
X210206914Y-78260845D01*
X210207830Y-78260747D01*
X210565186Y-78236903D01*
X210565614Y-78236891D01*
X210858597Y-78240576D01*
X210895235Y-78241037D01*
X210895236Y-78241036D01*
X210895244Y-78241037D01*
X210895253Y-78241036D01*
X210895257Y-78241036D01*
X211002652Y-78231637D01*
X211207547Y-78213708D01*
X211525153Y-78094579D01*
X211862738Y-77829725D01*
X211871361Y-77827315D01*
X211878232Y-77830658D01*
G37*
G04 #@! TD.AperFunction*
G04 #@! TA.AperFunction,Conductor*
G36*
X211738486Y-115931115D02*
G01*
X211945068Y-116030600D01*
X211951035Y-116037277D01*
X211950776Y-116045680D01*
X211781483Y-116447927D01*
X211781483Y-116447929D01*
X211690699Y-116779107D01*
X211690698Y-116779110D01*
X211651607Y-117073587D01*
X211651605Y-117073602D01*
X211633081Y-117375972D01*
X211633073Y-117376093D01*
X211604974Y-117719016D01*
X211600883Y-117726982D01*
X211592358Y-117729722D01*
X211592009Y-117729688D01*
X210386669Y-117594476D01*
X210378829Y-117590148D01*
X210376450Y-117584875D01*
X210163643Y-116374688D01*
X210165585Y-116365949D01*
X210173140Y-116361141D01*
X210174618Y-116360976D01*
X210450558Y-116348235D01*
X210529567Y-116344587D01*
X210530298Y-116344599D01*
X210552085Y-116346318D01*
X210881048Y-116372282D01*
X211204719Y-116365041D01*
X211490977Y-116243161D01*
X211724075Y-115934602D01*
X211731796Y-115930068D01*
X211738486Y-115931115D01*
G37*
G04 #@! TD.AperFunction*
G04 #@! TA.AperFunction,Conductor*
G36*
X211738486Y-134981115D02*
G01*
X211945068Y-135080600D01*
X211951035Y-135087277D01*
X211950776Y-135095680D01*
X211781483Y-135497927D01*
X211781483Y-135497929D01*
X211690699Y-135829107D01*
X211690698Y-135829110D01*
X211651607Y-136123587D01*
X211651605Y-136123602D01*
X211633081Y-136425972D01*
X211633073Y-136426093D01*
X211604974Y-136769016D01*
X211600883Y-136776982D01*
X211592358Y-136779722D01*
X211592009Y-136779688D01*
X210386669Y-136644476D01*
X210378829Y-136640148D01*
X210376450Y-136634875D01*
X210163643Y-135424688D01*
X210165585Y-135415949D01*
X210173140Y-135411141D01*
X210174618Y-135410976D01*
X210450558Y-135398235D01*
X210529567Y-135394587D01*
X210530298Y-135394599D01*
X210552085Y-135396318D01*
X210881048Y-135422282D01*
X211204719Y-135415041D01*
X211490977Y-135293161D01*
X211724075Y-134984602D01*
X211731796Y-134980068D01*
X211738486Y-134981115D01*
G37*
G04 #@! TD.AperFunction*
G04 #@! TA.AperFunction,Conductor*
G36*
X211600612Y-79357992D02*
G01*
X211604940Y-79365832D01*
X211604974Y-79366180D01*
X211633075Y-79709107D01*
X211633083Y-79709227D01*
X211651607Y-80011594D01*
X211651609Y-80011609D01*
X211690699Y-80306086D01*
X211690700Y-80306089D01*
X211781484Y-80637267D01*
X211781484Y-80637269D01*
X211950777Y-81039518D01*
X211950828Y-81048473D01*
X211945069Y-81054598D01*
X211738487Y-81154083D01*
X211729547Y-81154585D01*
X211724075Y-81150594D01*
X211490978Y-80842036D01*
X211204720Y-80720156D01*
X211204720Y-80720155D01*
X210881055Y-80712915D01*
X210530298Y-80740599D01*
X210529567Y-80740611D01*
X210174626Y-80724223D01*
X210166520Y-80720418D01*
X210163478Y-80711995D01*
X210163641Y-80710520D01*
X210376450Y-79500322D01*
X210381258Y-79492769D01*
X210386665Y-79490724D01*
X211592011Y-79355509D01*
X211600612Y-79357992D01*
G37*
G04 #@! TD.AperFunction*
G04 #@! TA.AperFunction,Conductor*
G36*
X211600612Y-117457992D02*
G01*
X211604940Y-117465832D01*
X211604974Y-117466180D01*
X211633075Y-117809107D01*
X211633083Y-117809227D01*
X211651607Y-118111594D01*
X211651609Y-118111609D01*
X211690699Y-118406086D01*
X211690700Y-118406089D01*
X211781484Y-118737267D01*
X211781484Y-118737269D01*
X211950777Y-119139518D01*
X211950828Y-119148473D01*
X211945069Y-119154598D01*
X211738487Y-119254083D01*
X211729547Y-119254585D01*
X211724075Y-119250594D01*
X211490978Y-118942036D01*
X211204720Y-118820156D01*
X211204719Y-118820155D01*
X210881055Y-118812915D01*
X210530298Y-118840599D01*
X210529567Y-118840611D01*
X210174626Y-118824223D01*
X210166520Y-118820418D01*
X210163478Y-118811995D01*
X210163641Y-118810520D01*
X210376450Y-117600322D01*
X210381258Y-117592769D01*
X210386665Y-117590724D01*
X211592011Y-117455509D01*
X211600612Y-117457992D01*
G37*
G04 #@! TD.AperFunction*
G04 #@! TA.AperFunction,Conductor*
G36*
X214382794Y-64296672D02*
G01*
X214389120Y-64303011D01*
X214389111Y-64311965D01*
X214388630Y-64312982D01*
X214202823Y-64661420D01*
X214201694Y-64663150D01*
X214063823Y-64838352D01*
X214012265Y-64903872D01*
X213957409Y-64972792D01*
X213847725Y-65110601D01*
X213731954Y-65366916D01*
X213731953Y-65366920D01*
X213689365Y-65746804D01*
X213685038Y-65754643D01*
X213677738Y-65757200D01*
X213448661Y-65757200D01*
X213440388Y-65753773D01*
X213437034Y-65746804D01*
X213394445Y-65366920D01*
X213394444Y-65366916D01*
X213278675Y-65110604D01*
X213114134Y-64903872D01*
X212924704Y-64663150D01*
X212923575Y-64661420D01*
X212737769Y-64312982D01*
X212736900Y-64304070D01*
X212742588Y-64297153D01*
X212743591Y-64296678D01*
X213558712Y-63958063D01*
X213567665Y-63958055D01*
X214382794Y-64296672D01*
G37*
G04 #@! TD.AperFunction*
G04 #@! TA.AperFunction,Conductor*
G36*
X191335923Y-117597921D02*
G01*
X192264639Y-118378176D01*
X192276435Y-118388086D01*
X192280565Y-118396031D01*
X192277867Y-118404570D01*
X192277392Y-118405101D01*
X192126896Y-118563557D01*
X192040833Y-118654172D01*
X192040671Y-118654336D01*
X191814441Y-118873276D01*
X191814429Y-118873289D01*
X191627486Y-119105951D01*
X191627486Y-119105953D01*
X191500328Y-119405117D01*
X191454566Y-119813214D01*
X191450239Y-119821054D01*
X191442939Y-119823610D01*
X191213861Y-119823610D01*
X191205588Y-119820183D01*
X191202234Y-119813214D01*
X191156471Y-119405116D01*
X191029312Y-119105951D01*
X191029311Y-119105950D01*
X190842368Y-118873289D01*
X190842356Y-118873276D01*
X190616151Y-118654360D01*
X190615977Y-118654185D01*
X190615954Y-118654161D01*
X190554068Y-118589000D01*
X190379407Y-118405100D01*
X190376195Y-118396742D01*
X190379834Y-118388559D01*
X190380346Y-118388101D01*
X191320875Y-117597921D01*
X191329413Y-117595224D01*
X191335923Y-117597921D01*
G37*
G04 #@! TD.AperFunction*
G04 #@! TA.AperFunction,Conductor*
G36*
X210203601Y-63617697D02*
G01*
X211019414Y-63954637D01*
X211025753Y-63960963D01*
X211025762Y-63960985D01*
X211362697Y-64776784D01*
X211362688Y-64785738D01*
X211356349Y-64792064D01*
X211355290Y-64792443D01*
X210977521Y-64907441D01*
X210975499Y-64907866D01*
X210734816Y-64936565D01*
X210671338Y-64944135D01*
X210601307Y-64952093D01*
X210408808Y-64973967D01*
X210408804Y-64973968D01*
X210145704Y-65073348D01*
X209846972Y-65311852D01*
X209838368Y-65314336D01*
X209831399Y-65310982D01*
X209669417Y-65149000D01*
X209665990Y-65140727D01*
X209668546Y-65133428D01*
X209907050Y-64834692D01*
X210006430Y-64571590D01*
X210036264Y-64309061D01*
X210072531Y-64004893D01*
X210072954Y-64002882D01*
X210187956Y-63625108D01*
X210193644Y-63618192D01*
X210202556Y-63617323D01*
X210203601Y-63617697D01*
G37*
G04 #@! TD.AperFunction*
G04 #@! TA.AperFunction,Conductor*
G36*
X192688486Y-115931115D02*
G01*
X192895068Y-116030600D01*
X192901035Y-116037277D01*
X192900776Y-116045680D01*
X192731483Y-116447927D01*
X192731483Y-116447929D01*
X192640699Y-116779107D01*
X192640698Y-116779110D01*
X192601607Y-117073587D01*
X192601605Y-117073602D01*
X192583081Y-117375972D01*
X192583073Y-117376093D01*
X192554974Y-117719016D01*
X192550883Y-117726982D01*
X192542358Y-117729722D01*
X192542009Y-117729688D01*
X191336669Y-117594476D01*
X191328829Y-117590148D01*
X191326450Y-117584875D01*
X191113643Y-116374688D01*
X191115585Y-116365949D01*
X191123140Y-116361141D01*
X191124618Y-116360976D01*
X191400558Y-116348235D01*
X191479567Y-116344587D01*
X191480298Y-116344599D01*
X191502085Y-116346318D01*
X191831048Y-116372282D01*
X192154719Y-116365041D01*
X192440977Y-116243161D01*
X192674075Y-115934602D01*
X192681796Y-115930068D01*
X192688486Y-115931115D01*
G37*
G04 #@! TD.AperFunction*
G04 #@! TA.AperFunction,Conductor*
G36*
X188065733Y-139743158D02*
G01*
X188227843Y-139905268D01*
X188231270Y-139913541D01*
X188228776Y-139920761D01*
X187960510Y-140262826D01*
X187838942Y-140585017D01*
X187809267Y-140901276D01*
X187809266Y-140901287D01*
X187810271Y-141233482D01*
X187810252Y-141233964D01*
X187781754Y-141591800D01*
X187777681Y-141599775D01*
X187769162Y-141602534D01*
X187768204Y-141602418D01*
X186573627Y-141407185D01*
X186566015Y-141402468D01*
X186563940Y-141397353D01*
X186539696Y-141233723D01*
X186384555Y-140186632D01*
X186386733Y-140177948D01*
X186394414Y-140173345D01*
X186395330Y-140173247D01*
X186752687Y-140149403D01*
X186753115Y-140149391D01*
X187046098Y-140153076D01*
X187082736Y-140153537D01*
X187082737Y-140153536D01*
X187082745Y-140153537D01*
X187082754Y-140153536D01*
X187082758Y-140153536D01*
X187190153Y-140144137D01*
X187395048Y-140126208D01*
X187712654Y-140007079D01*
X188050239Y-139742225D01*
X188058862Y-139739815D01*
X188065733Y-139743158D01*
G37*
G04 #@! TD.AperFunction*
G04 #@! TA.AperFunction,Conductor*
G36*
X192060660Y-78500255D02*
G01*
X192061395Y-78500834D01*
X192336112Y-78735515D01*
X192336436Y-78735814D01*
X192456200Y-78855602D01*
X192572236Y-78971662D01*
X192572241Y-78971666D01*
X192572243Y-78971668D01*
X192818605Y-79173645D01*
X193134336Y-79314615D01*
X193568086Y-79366369D01*
X193575895Y-79370752D01*
X193578400Y-79377987D01*
X193578400Y-79607212D01*
X193574973Y-79615485D01*
X193568086Y-79618830D01*
X193134334Y-79670584D01*
X192818609Y-79811551D01*
X192572236Y-80013536D01*
X192336450Y-80249370D01*
X192336112Y-80249682D01*
X192061396Y-80484365D01*
X192052879Y-80487133D01*
X192044900Y-80483069D01*
X192044321Y-80482333D01*
X191704744Y-80013536D01*
X191332370Y-79499461D01*
X191330293Y-79490753D01*
X191332369Y-79485739D01*
X192044322Y-78502865D01*
X192051949Y-78498177D01*
X192060660Y-78500255D01*
G37*
G04 #@! TD.AperFunction*
G04 #@! TA.AperFunction,Conductor*
G36*
X173500612Y-98407992D02*
G01*
X173504940Y-98415832D01*
X173504974Y-98416180D01*
X173533075Y-98759107D01*
X173533083Y-98759227D01*
X173551607Y-99061594D01*
X173551609Y-99061609D01*
X173590699Y-99356086D01*
X173590700Y-99356089D01*
X173681484Y-99687267D01*
X173681484Y-99687269D01*
X173850777Y-100089518D01*
X173850828Y-100098473D01*
X173845069Y-100104598D01*
X173638487Y-100204083D01*
X173629547Y-100204585D01*
X173624075Y-100200594D01*
X173390978Y-99892036D01*
X173104720Y-99770156D01*
X172781055Y-99762915D01*
X172430298Y-99790599D01*
X172429567Y-99790611D01*
X172074626Y-99774223D01*
X172066520Y-99770418D01*
X172063478Y-99761995D01*
X172063641Y-99760520D01*
X172276450Y-98550322D01*
X172281258Y-98542769D01*
X172286665Y-98540724D01*
X173492011Y-98405509D01*
X173500612Y-98407992D01*
G37*
G04 #@! TD.AperFunction*
G04 #@! TA.AperFunction,Conductor*
G36*
X173638486Y-115931115D02*
G01*
X173845068Y-116030600D01*
X173851035Y-116037277D01*
X173850776Y-116045680D01*
X173681483Y-116447927D01*
X173681483Y-116447929D01*
X173590699Y-116779107D01*
X173590698Y-116779110D01*
X173551607Y-117073587D01*
X173551605Y-117073602D01*
X173533081Y-117375972D01*
X173533073Y-117376093D01*
X173504974Y-117719016D01*
X173500883Y-117726982D01*
X173492358Y-117729722D01*
X173492009Y-117729688D01*
X172286669Y-117594476D01*
X172278829Y-117590148D01*
X172276450Y-117584875D01*
X172063643Y-116374688D01*
X172065585Y-116365949D01*
X172073140Y-116361141D01*
X172074618Y-116360976D01*
X172350558Y-116348235D01*
X172429567Y-116344587D01*
X172430298Y-116344599D01*
X172452085Y-116346318D01*
X172781048Y-116372282D01*
X173104719Y-116365041D01*
X173390977Y-116243161D01*
X173624075Y-115934602D01*
X173631796Y-115930068D01*
X173638486Y-115931115D01*
G37*
G04 #@! TD.AperFunction*
G04 #@! TA.AperFunction,Conductor*
G36*
X207663601Y-63617697D02*
G01*
X208479414Y-63954637D01*
X208485753Y-63960963D01*
X208485762Y-63960985D01*
X208822697Y-64776784D01*
X208822688Y-64785738D01*
X208816349Y-64792064D01*
X208815290Y-64792443D01*
X208437521Y-64907441D01*
X208435499Y-64907866D01*
X208194816Y-64936565D01*
X208131338Y-64944135D01*
X208061307Y-64952093D01*
X207868808Y-64973967D01*
X207868804Y-64973968D01*
X207605704Y-65073348D01*
X207306972Y-65311852D01*
X207298368Y-65314336D01*
X207291399Y-65310982D01*
X207129417Y-65149000D01*
X207125990Y-65140727D01*
X207128546Y-65133428D01*
X207367050Y-64834692D01*
X207466430Y-64571590D01*
X207496264Y-64309061D01*
X207532531Y-64004893D01*
X207532954Y-64002882D01*
X207647956Y-63625108D01*
X207653644Y-63618192D01*
X207662556Y-63617323D01*
X207663601Y-63617697D01*
G37*
G04 #@! TD.AperFunction*
G04 #@! TA.AperFunction,Conductor*
G36*
X173778232Y-77830658D02*
G01*
X173940342Y-77992768D01*
X173943769Y-78001041D01*
X173941275Y-78008261D01*
X173673009Y-78350326D01*
X173551441Y-78672517D01*
X173521767Y-78988775D01*
X173521766Y-78988787D01*
X173522770Y-79320981D01*
X173522751Y-79321463D01*
X173494254Y-79679299D01*
X173490181Y-79687274D01*
X173481662Y-79690033D01*
X173480704Y-79689917D01*
X172286127Y-79494685D01*
X172278515Y-79489968D01*
X172276440Y-79484853D01*
X172097055Y-78274132D01*
X172099233Y-78265448D01*
X172106914Y-78260845D01*
X172107830Y-78260747D01*
X172465186Y-78236903D01*
X172465614Y-78236891D01*
X172758597Y-78240576D01*
X172795235Y-78241037D01*
X172795236Y-78241036D01*
X172795244Y-78241037D01*
X172795253Y-78241036D01*
X172795257Y-78241036D01*
X172902652Y-78231637D01*
X173107547Y-78213708D01*
X173425153Y-78094579D01*
X173762738Y-77829725D01*
X173771361Y-77827315D01*
X173778232Y-77830658D01*
G37*
G04 #@! TD.AperFunction*
G04 #@! TA.AperFunction,Conductor*
G36*
X173638486Y-96881115D02*
G01*
X173845068Y-96980600D01*
X173851035Y-96987277D01*
X173850776Y-96995680D01*
X173681483Y-97397927D01*
X173681483Y-97397929D01*
X173590699Y-97729107D01*
X173590698Y-97729110D01*
X173551607Y-98023587D01*
X173551605Y-98023602D01*
X173533081Y-98325972D01*
X173533073Y-98326093D01*
X173504974Y-98669016D01*
X173500883Y-98676982D01*
X173492358Y-98679722D01*
X173492009Y-98679688D01*
X172286669Y-98544476D01*
X172278829Y-98540148D01*
X172276450Y-98534875D01*
X172063643Y-97324688D01*
X172065585Y-97315949D01*
X172073140Y-97311141D01*
X172074618Y-97310976D01*
X172350558Y-97298235D01*
X172429567Y-97294587D01*
X172430298Y-97294599D01*
X172452085Y-97296318D01*
X172781048Y-97322282D01*
X173104719Y-97315041D01*
X173390977Y-97193161D01*
X173624075Y-96884602D01*
X173631796Y-96880068D01*
X173638486Y-96881115D01*
G37*
G04 #@! TD.AperFunction*
G04 #@! TA.AperFunction,Conductor*
G36*
X63798891Y-54814459D02*
G01*
X63805218Y-54820797D01*
X63805607Y-54821889D01*
X63933071Y-55244931D01*
X63933497Y-55247023D01*
X63962564Y-55510553D01*
X63971020Y-55587211D01*
X63981810Y-55693759D01*
X64000780Y-55881093D01*
X64000781Y-55881096D01*
X64000781Y-55881098D01*
X64000782Y-55881100D01*
X64108648Y-56175434D01*
X64305049Y-56422848D01*
X64374116Y-56509854D01*
X64376575Y-56518464D01*
X64373225Y-56525401D01*
X64211201Y-56687425D01*
X64202928Y-56690852D01*
X64195654Y-56688316D01*
X64194532Y-56687425D01*
X63861234Y-56422848D01*
X63566900Y-56314982D01*
X63566898Y-56314981D01*
X63566896Y-56314981D01*
X63566893Y-56314980D01*
X63273011Y-56285220D01*
X62932823Y-56247697D01*
X62930731Y-56247271D01*
X62507689Y-56119807D01*
X62500756Y-56114139D01*
X62499861Y-56105229D01*
X62500243Y-56104155D01*
X62875438Y-55195982D01*
X62881764Y-55189646D01*
X62881767Y-55189644D01*
X63789939Y-54814450D01*
X63798891Y-54814459D01*
G37*
G04 #@! TD.AperFunction*
G04 #@! TA.AperFunction,Conductor*
G36*
X199686972Y-47362547D02*
G01*
X199985704Y-47601049D01*
X199985705Y-47601049D01*
X199985706Y-47601050D01*
X200070873Y-47633220D01*
X200248804Y-47700429D01*
X200248808Y-47700430D01*
X200511275Y-47730256D01*
X200511334Y-47730289D01*
X200511338Y-47730264D01*
X200815502Y-47766531D01*
X200817517Y-47766955D01*
X201056494Y-47839704D01*
X201195290Y-47881956D01*
X201202207Y-47887644D01*
X201203076Y-47896556D01*
X201202697Y-47897615D01*
X200865762Y-48713414D01*
X200859436Y-48719753D01*
X200859414Y-48719762D01*
X200043615Y-49056697D01*
X200034661Y-49056688D01*
X200028335Y-49050349D01*
X200027956Y-49049290D01*
X199912955Y-48671517D01*
X199912531Y-48669499D01*
X199876260Y-48365306D01*
X199846430Y-48102808D01*
X199846429Y-48102804D01*
X199747049Y-47839704D01*
X199508547Y-47540972D01*
X199506063Y-47532368D01*
X199509416Y-47525400D01*
X199671400Y-47363416D01*
X199679672Y-47359990D01*
X199686972Y-47362547D01*
G37*
G04 #@! TD.AperFunction*
G04 #@! TA.AperFunction,Conductor*
G36*
X202226972Y-47362547D02*
G01*
X202525704Y-47601049D01*
X202525705Y-47601049D01*
X202525706Y-47601050D01*
X202610873Y-47633220D01*
X202788804Y-47700429D01*
X202788808Y-47700430D01*
X203051275Y-47730256D01*
X203051334Y-47730289D01*
X203051338Y-47730264D01*
X203355502Y-47766531D01*
X203357517Y-47766955D01*
X203596494Y-47839704D01*
X203735290Y-47881956D01*
X203742207Y-47887644D01*
X203743076Y-47896556D01*
X203742697Y-47897615D01*
X203405762Y-48713414D01*
X203399436Y-48719753D01*
X203399414Y-48719762D01*
X202583615Y-49056697D01*
X202574661Y-49056688D01*
X202568335Y-49050349D01*
X202567956Y-49049290D01*
X202452955Y-48671517D01*
X202452531Y-48669499D01*
X202416260Y-48365306D01*
X202386430Y-48102808D01*
X202386429Y-48102804D01*
X202287049Y-47839704D01*
X202048547Y-47540972D01*
X202046063Y-47532368D01*
X202049416Y-47525400D01*
X202211400Y-47363416D01*
X202219672Y-47359990D01*
X202226972Y-47362547D01*
G37*
G04 #@! TD.AperFunction*
G04 #@! TA.AperFunction,Conductor*
G36*
X59200612Y-79357992D02*
G01*
X59204940Y-79365832D01*
X59204974Y-79366180D01*
X59233075Y-79709107D01*
X59233083Y-79709227D01*
X59251607Y-80011594D01*
X59251609Y-80011609D01*
X59290699Y-80306086D01*
X59290700Y-80306089D01*
X59381484Y-80637267D01*
X59381484Y-80637269D01*
X59550777Y-81039518D01*
X59550828Y-81048473D01*
X59545069Y-81054598D01*
X59338487Y-81154083D01*
X59329547Y-81154585D01*
X59324075Y-81150594D01*
X59090978Y-80842036D01*
X58804720Y-80720156D01*
X58804720Y-80720155D01*
X58481055Y-80712915D01*
X58130298Y-80740599D01*
X58129567Y-80740611D01*
X57774626Y-80724223D01*
X57766520Y-80720418D01*
X57763478Y-80711995D01*
X57763641Y-80710520D01*
X57976450Y-79500322D01*
X57981258Y-79492769D01*
X57986665Y-79490724D01*
X59192011Y-79355509D01*
X59200612Y-79357992D01*
G37*
G04 #@! TD.AperFunction*
G04 #@! TA.AperFunction,Conductor*
G36*
X59338486Y-134981115D02*
G01*
X59545068Y-135080600D01*
X59551035Y-135087277D01*
X59550776Y-135095680D01*
X59381483Y-135497927D01*
X59381483Y-135497929D01*
X59290699Y-135829107D01*
X59290698Y-135829110D01*
X59251607Y-136123587D01*
X59251605Y-136123602D01*
X59233081Y-136425972D01*
X59233073Y-136426093D01*
X59204974Y-136769016D01*
X59200883Y-136776982D01*
X59192358Y-136779722D01*
X59192009Y-136779688D01*
X57986669Y-136644476D01*
X57978829Y-136640148D01*
X57976450Y-136634875D01*
X57763643Y-135424688D01*
X57765585Y-135415949D01*
X57773140Y-135411141D01*
X57774618Y-135410976D01*
X58050558Y-135398235D01*
X58129567Y-135394587D01*
X58130298Y-135394599D01*
X58152085Y-135396318D01*
X58481048Y-135422282D01*
X58804719Y-135415041D01*
X59090977Y-135293161D01*
X59324075Y-134984602D01*
X59331796Y-134980068D01*
X59338486Y-134981115D01*
G37*
G04 #@! TD.AperFunction*
G04 #@! TA.AperFunction,Conductor*
G36*
X59478233Y-77830658D02*
G01*
X59640343Y-77992768D01*
X59643770Y-78001041D01*
X59641276Y-78008261D01*
X59373010Y-78350326D01*
X59251442Y-78672517D01*
X59221767Y-78988776D01*
X59221766Y-78988787D01*
X59222771Y-79320982D01*
X59222752Y-79321464D01*
X59194254Y-79679300D01*
X59190181Y-79687275D01*
X59181662Y-79690034D01*
X59180704Y-79689918D01*
X57986127Y-79494685D01*
X57978515Y-79489968D01*
X57976440Y-79484853D01*
X57952196Y-79321223D01*
X57797055Y-78274132D01*
X57799233Y-78265448D01*
X57806914Y-78260845D01*
X57807830Y-78260747D01*
X58165187Y-78236903D01*
X58165615Y-78236891D01*
X58458598Y-78240576D01*
X58495236Y-78241037D01*
X58495237Y-78241036D01*
X58495245Y-78241037D01*
X58495254Y-78241036D01*
X58495258Y-78241036D01*
X58602653Y-78231637D01*
X58807548Y-78213708D01*
X59125154Y-78094579D01*
X59462739Y-77829725D01*
X59471362Y-77827315D01*
X59478233Y-77830658D01*
G37*
G04 #@! TD.AperFunction*
G04 #@! TA.AperFunction,Conductor*
G36*
X59338486Y-115931115D02*
G01*
X59545068Y-116030600D01*
X59551035Y-116037277D01*
X59550776Y-116045680D01*
X59381483Y-116447927D01*
X59381483Y-116447929D01*
X59290699Y-116779107D01*
X59290698Y-116779110D01*
X59251607Y-117073587D01*
X59251605Y-117073602D01*
X59233081Y-117375972D01*
X59233073Y-117376093D01*
X59204974Y-117719016D01*
X59200883Y-117726982D01*
X59192358Y-117729722D01*
X59192009Y-117729688D01*
X57986669Y-117594476D01*
X57978829Y-117590148D01*
X57976450Y-117584875D01*
X57763643Y-116374688D01*
X57765585Y-116365949D01*
X57773140Y-116361141D01*
X57774618Y-116360976D01*
X58050558Y-116348235D01*
X58129567Y-116344587D01*
X58130298Y-116344599D01*
X58152085Y-116346318D01*
X58481048Y-116372282D01*
X58804719Y-116365041D01*
X59090977Y-116243161D01*
X59324075Y-115934602D01*
X59331796Y-115930068D01*
X59338486Y-115931115D01*
G37*
G04 #@! TD.AperFunction*
G04 #@! TA.AperFunction,Conductor*
G36*
X59200612Y-117457992D02*
G01*
X59204940Y-117465832D01*
X59204974Y-117466180D01*
X59233075Y-117809107D01*
X59233083Y-117809227D01*
X59251607Y-118111594D01*
X59251609Y-118111609D01*
X59290699Y-118406086D01*
X59290700Y-118406089D01*
X59381484Y-118737267D01*
X59381484Y-118737269D01*
X59550777Y-119139518D01*
X59550828Y-119148473D01*
X59545069Y-119154598D01*
X59338487Y-119254083D01*
X59329547Y-119254585D01*
X59324075Y-119250594D01*
X59090978Y-118942036D01*
X58804720Y-118820156D01*
X58804719Y-118820155D01*
X58481055Y-118812915D01*
X58130298Y-118840599D01*
X58129567Y-118840611D01*
X57774626Y-118824223D01*
X57766520Y-118820418D01*
X57763478Y-118811995D01*
X57763641Y-118810520D01*
X57976450Y-117600322D01*
X57981258Y-117592769D01*
X57986665Y-117590724D01*
X59192011Y-117455509D01*
X59200612Y-117457992D01*
G37*
G04 #@! TD.AperFunction*
G04 #@! TA.AperFunction,Conductor*
G36*
X78388486Y-134981115D02*
G01*
X78595068Y-135080600D01*
X78601035Y-135087277D01*
X78600776Y-135095680D01*
X78431483Y-135497927D01*
X78431483Y-135497929D01*
X78340699Y-135829107D01*
X78340698Y-135829110D01*
X78301607Y-136123587D01*
X78301605Y-136123602D01*
X78283081Y-136425972D01*
X78283073Y-136426093D01*
X78254974Y-136769016D01*
X78250883Y-136776982D01*
X78242358Y-136779722D01*
X78242009Y-136779688D01*
X77036669Y-136644476D01*
X77028829Y-136640148D01*
X77026450Y-136634875D01*
X76813643Y-135424688D01*
X76815585Y-135415949D01*
X76823140Y-135411141D01*
X76824618Y-135410976D01*
X77100558Y-135398235D01*
X77179567Y-135394587D01*
X77180298Y-135394599D01*
X77202085Y-135396318D01*
X77531048Y-135422282D01*
X77854719Y-135415041D01*
X78140977Y-135293161D01*
X78374075Y-134984602D01*
X78381796Y-134980068D01*
X78388486Y-134981115D01*
G37*
G04 #@! TD.AperFunction*
G04 #@! TA.AperFunction,Conductor*
G36*
X205603246Y-58056585D02*
G01*
X205603717Y-58057581D01*
X205942334Y-58872698D01*
X205942343Y-58881653D01*
X205942334Y-58881675D01*
X205603742Y-59696759D01*
X205597403Y-59703085D01*
X205588449Y-59703076D01*
X205587402Y-59702579D01*
X205240369Y-59516214D01*
X205238601Y-59515047D01*
X204998994Y-59323597D01*
X204793353Y-59157365D01*
X204538231Y-59041905D01*
X204538226Y-59041904D01*
X204159827Y-59003247D01*
X204151945Y-58998998D01*
X204149317Y-58991765D01*
X204146253Y-58762697D01*
X204149569Y-58754380D01*
X204156521Y-58750930D01*
X204535677Y-58704257D01*
X204791434Y-58587870D01*
X204997676Y-58424810D01*
X205237897Y-58237457D01*
X205239595Y-58236357D01*
X205587428Y-58051735D01*
X205596341Y-58050884D01*
X205603246Y-58056585D01*
G37*
G04 #@! TD.AperFunction*
G04 #@! TA.AperFunction,Conductor*
G36*
X78250612Y-117457992D02*
G01*
X78254940Y-117465832D01*
X78254974Y-117466180D01*
X78283075Y-117809107D01*
X78283083Y-117809227D01*
X78301607Y-118111594D01*
X78301609Y-118111609D01*
X78340699Y-118406086D01*
X78340700Y-118406089D01*
X78431484Y-118737267D01*
X78431484Y-118737269D01*
X78600777Y-119139518D01*
X78600828Y-119148473D01*
X78595069Y-119154598D01*
X78388487Y-119254083D01*
X78379547Y-119254585D01*
X78374075Y-119250594D01*
X78140978Y-118942036D01*
X77854720Y-118820156D01*
X77854720Y-118820155D01*
X77531055Y-118812915D01*
X77180298Y-118840599D01*
X77179567Y-118840611D01*
X76824626Y-118824223D01*
X76816520Y-118820418D01*
X76813478Y-118811995D01*
X76813641Y-118810520D01*
X77026450Y-117600322D01*
X77031258Y-117592769D01*
X77036665Y-117590724D01*
X78242011Y-117455509D01*
X78250612Y-117457992D01*
G37*
G04 #@! TD.AperFunction*
G04 #@! TA.AperFunction,Conductor*
G36*
X78250612Y-79357992D02*
G01*
X78254940Y-79365832D01*
X78254974Y-79366180D01*
X78283075Y-79709107D01*
X78283083Y-79709227D01*
X78301607Y-80011594D01*
X78301609Y-80011609D01*
X78340699Y-80306086D01*
X78340700Y-80306089D01*
X78431484Y-80637267D01*
X78431484Y-80637269D01*
X78600777Y-81039518D01*
X78600828Y-81048473D01*
X78595069Y-81054598D01*
X78388487Y-81154083D01*
X78379547Y-81154585D01*
X78374075Y-81150594D01*
X78140978Y-80842036D01*
X77854720Y-80720156D01*
X77854720Y-80720155D01*
X77531055Y-80712915D01*
X77180298Y-80740599D01*
X77179567Y-80740611D01*
X76824626Y-80724223D01*
X76816520Y-80720418D01*
X76813478Y-80711995D01*
X76813641Y-80710520D01*
X77026450Y-79500322D01*
X77031258Y-79492769D01*
X77036665Y-79490724D01*
X78242011Y-79355509D01*
X78250612Y-79357992D01*
G37*
G04 #@! TD.AperFunction*
G04 #@! TA.AperFunction,Conductor*
G36*
X78388486Y-115931115D02*
G01*
X78595068Y-116030600D01*
X78601035Y-116037277D01*
X78600776Y-116045680D01*
X78431483Y-116447927D01*
X78431483Y-116447929D01*
X78340699Y-116779107D01*
X78340698Y-116779110D01*
X78301607Y-117073587D01*
X78301605Y-117073602D01*
X78283081Y-117375972D01*
X78283073Y-117376093D01*
X78254974Y-117719016D01*
X78250883Y-117726982D01*
X78242358Y-117729722D01*
X78242009Y-117729688D01*
X77036669Y-117594476D01*
X77028829Y-117590148D01*
X77026450Y-117584875D01*
X76813643Y-116374688D01*
X76815585Y-116365949D01*
X76823140Y-116361141D01*
X76824618Y-116360976D01*
X77100558Y-116348235D01*
X77179567Y-116344587D01*
X77180298Y-116344599D01*
X77202085Y-116346318D01*
X77531048Y-116372282D01*
X77854719Y-116365041D01*
X78140977Y-116243161D01*
X78374075Y-115934602D01*
X78381796Y-115930068D01*
X78388486Y-115931115D01*
G37*
G04 #@! TD.AperFunction*
G04 #@! TA.AperFunction,Conductor*
G36*
X78528233Y-77830658D02*
G01*
X78690343Y-77992768D01*
X78693770Y-78001041D01*
X78691276Y-78008261D01*
X78423010Y-78350326D01*
X78301442Y-78672517D01*
X78271767Y-78988776D01*
X78271766Y-78988787D01*
X78272771Y-79320982D01*
X78272752Y-79321464D01*
X78244254Y-79679300D01*
X78240181Y-79687275D01*
X78231662Y-79690034D01*
X78230704Y-79689918D01*
X77036127Y-79494685D01*
X77028515Y-79489968D01*
X77026440Y-79484853D01*
X77002196Y-79321223D01*
X76847055Y-78274132D01*
X76849233Y-78265448D01*
X76856914Y-78260845D01*
X76857830Y-78260747D01*
X77215187Y-78236903D01*
X77215615Y-78236891D01*
X77508598Y-78240576D01*
X77545236Y-78241037D01*
X77545237Y-78241036D01*
X77545245Y-78241037D01*
X77545254Y-78241036D01*
X77545258Y-78241036D01*
X77652653Y-78231637D01*
X77857548Y-78213708D01*
X78175154Y-78094579D01*
X78512739Y-77829725D01*
X78521362Y-77827315D01*
X78528233Y-77830658D01*
G37*
G04 #@! TD.AperFunction*
G04 #@! TA.AperFunction,Conductor*
G36*
X97438486Y-115931115D02*
G01*
X97645068Y-116030600D01*
X97651035Y-116037277D01*
X97650776Y-116045680D01*
X97481483Y-116447927D01*
X97481483Y-116447929D01*
X97390699Y-116779107D01*
X97390698Y-116779110D01*
X97351607Y-117073587D01*
X97351605Y-117073602D01*
X97333081Y-117375972D01*
X97333073Y-117376093D01*
X97304974Y-117719016D01*
X97300883Y-117726982D01*
X97292358Y-117729722D01*
X97292009Y-117729688D01*
X96086669Y-117594476D01*
X96078829Y-117590148D01*
X96076450Y-117584875D01*
X95863643Y-116374688D01*
X95865585Y-116365949D01*
X95873140Y-116361141D01*
X95874618Y-116360976D01*
X96150558Y-116348235D01*
X96229567Y-116344587D01*
X96230298Y-116344599D01*
X96252085Y-116346318D01*
X96581048Y-116372282D01*
X96904719Y-116365041D01*
X97190977Y-116243161D01*
X97424075Y-115934602D01*
X97431796Y-115930068D01*
X97438486Y-115931115D01*
G37*
G04 #@! TD.AperFunction*
G04 #@! TA.AperFunction,Conductor*
G36*
X97300612Y-79357992D02*
G01*
X97304940Y-79365832D01*
X97304974Y-79366180D01*
X97333075Y-79709107D01*
X97333083Y-79709227D01*
X97351607Y-80011594D01*
X97351609Y-80011609D01*
X97390699Y-80306086D01*
X97390700Y-80306089D01*
X97481484Y-80637267D01*
X97481484Y-80637269D01*
X97650777Y-81039518D01*
X97650828Y-81048473D01*
X97645069Y-81054598D01*
X97438487Y-81154083D01*
X97429547Y-81154585D01*
X97424075Y-81150594D01*
X97190978Y-80842036D01*
X96904720Y-80720156D01*
X96904719Y-80720155D01*
X96581055Y-80712915D01*
X96230298Y-80740599D01*
X96229567Y-80740611D01*
X95874626Y-80724223D01*
X95866520Y-80720418D01*
X95863478Y-80711995D01*
X95863641Y-80710520D01*
X96076450Y-79500322D01*
X96081258Y-79492769D01*
X96086665Y-79490724D01*
X97292011Y-79355509D01*
X97300612Y-79357992D01*
G37*
G04 #@! TD.AperFunction*
G04 #@! TA.AperFunction,Conductor*
G36*
X97578233Y-77830658D02*
G01*
X97740343Y-77992768D01*
X97743770Y-78001041D01*
X97741276Y-78008261D01*
X97473010Y-78350326D01*
X97351442Y-78672517D01*
X97321767Y-78988776D01*
X97321766Y-78988787D01*
X97322771Y-79320982D01*
X97322752Y-79321464D01*
X97294254Y-79679300D01*
X97290181Y-79687275D01*
X97281662Y-79690034D01*
X97280704Y-79689918D01*
X96086127Y-79494685D01*
X96078515Y-79489968D01*
X96076440Y-79484853D01*
X96052196Y-79321223D01*
X95897055Y-78274132D01*
X95899233Y-78265448D01*
X95906914Y-78260845D01*
X95907830Y-78260747D01*
X96265187Y-78236903D01*
X96265615Y-78236891D01*
X96558598Y-78240576D01*
X96595236Y-78241037D01*
X96595237Y-78241036D01*
X96595245Y-78241037D01*
X96595254Y-78241036D01*
X96595258Y-78241036D01*
X96702653Y-78231637D01*
X96907548Y-78213708D01*
X97225154Y-78094579D01*
X97562739Y-77829725D01*
X97571362Y-77827315D01*
X97578233Y-77830658D01*
G37*
G04 #@! TD.AperFunction*
G04 #@! TA.AperFunction,Conductor*
G36*
X97300612Y-98407992D02*
G01*
X97304940Y-98415832D01*
X97304974Y-98416180D01*
X97333075Y-98759107D01*
X97333083Y-98759227D01*
X97351607Y-99061594D01*
X97351609Y-99061609D01*
X97390699Y-99356086D01*
X97390700Y-99356089D01*
X97481484Y-99687267D01*
X97481484Y-99687269D01*
X97650777Y-100089518D01*
X97650828Y-100098473D01*
X97645069Y-100104598D01*
X97438487Y-100204083D01*
X97429547Y-100204585D01*
X97424075Y-100200594D01*
X97190978Y-99892036D01*
X96904720Y-99770156D01*
X96904719Y-99770156D01*
X96581055Y-99762915D01*
X96230298Y-99790599D01*
X96229567Y-99790611D01*
X95874626Y-99774223D01*
X95866520Y-99770418D01*
X95863478Y-99761995D01*
X95863641Y-99760520D01*
X96076450Y-98550322D01*
X96081258Y-98542769D01*
X96086665Y-98540724D01*
X97292011Y-98405509D01*
X97300612Y-98407992D01*
G37*
G04 #@! TD.AperFunction*
G04 #@! TA.AperFunction,Conductor*
G36*
X97438486Y-96881115D02*
G01*
X97645068Y-96980600D01*
X97651035Y-96987277D01*
X97650776Y-96995680D01*
X97481483Y-97397927D01*
X97481483Y-97397929D01*
X97390699Y-97729107D01*
X97390698Y-97729110D01*
X97351607Y-98023587D01*
X97351605Y-98023602D01*
X97333081Y-98325972D01*
X97333073Y-98326093D01*
X97304974Y-98669016D01*
X97300883Y-98676982D01*
X97292358Y-98679722D01*
X97292009Y-98679688D01*
X96086669Y-98544476D01*
X96078829Y-98540148D01*
X96076450Y-98534875D01*
X95863643Y-97324688D01*
X95865585Y-97315949D01*
X95873140Y-97311141D01*
X95874618Y-97310976D01*
X96150558Y-97298235D01*
X96229567Y-97294587D01*
X96230298Y-97294599D01*
X96252085Y-97296318D01*
X96581048Y-97322282D01*
X96904719Y-97315041D01*
X97190977Y-97193161D01*
X97424075Y-96884602D01*
X97431796Y-96880068D01*
X97438486Y-96881115D01*
G37*
G04 #@! TD.AperFunction*
G04 #@! TA.AperFunction,Conductor*
G36*
X205603246Y-60596588D02*
G01*
X205603727Y-60597605D01*
X205942335Y-61412711D01*
X205942344Y-61421665D01*
X205942335Y-61421687D01*
X205603727Y-62236794D01*
X205597388Y-62243120D01*
X205588434Y-62243111D01*
X205587417Y-62242630D01*
X205238977Y-62056823D01*
X205237247Y-62055694D01*
X204996526Y-61866265D01*
X204996540Y-61866247D01*
X204996474Y-61866224D01*
X204789797Y-61701725D01*
X204533482Y-61585954D01*
X204533478Y-61585953D01*
X204153596Y-61543365D01*
X204145757Y-61539038D01*
X204143200Y-61531738D01*
X204143200Y-61302661D01*
X204146627Y-61294388D01*
X204153594Y-61291034D01*
X204533481Y-61248445D01*
X204789795Y-61132675D01*
X204996476Y-60968173D01*
X204996542Y-60968154D01*
X204996526Y-60968134D01*
X204996526Y-60968133D01*
X205237251Y-60778701D01*
X205238972Y-60777577D01*
X205587419Y-60591768D01*
X205596329Y-60590900D01*
X205603246Y-60596588D01*
G37*
G04 #@! TD.AperFunction*
G04 #@! TA.AperFunction,Conductor*
G36*
X96085923Y-117597921D02*
G01*
X97014639Y-118378176D01*
X97026435Y-118388086D01*
X97030565Y-118396031D01*
X97027867Y-118404570D01*
X97027392Y-118405101D01*
X96876896Y-118563557D01*
X96790833Y-118654172D01*
X96790671Y-118654336D01*
X96564441Y-118873276D01*
X96564429Y-118873289D01*
X96377486Y-119105951D01*
X96377486Y-119105953D01*
X96250328Y-119405117D01*
X96204566Y-119813214D01*
X96200239Y-119821054D01*
X96192939Y-119823610D01*
X95963861Y-119823610D01*
X95955588Y-119820183D01*
X95952234Y-119813214D01*
X95906471Y-119405116D01*
X95779312Y-119105951D01*
X95592368Y-118873289D01*
X95592356Y-118873276D01*
X95366151Y-118654360D01*
X95365977Y-118654185D01*
X95365954Y-118654161D01*
X95304068Y-118589000D01*
X95129407Y-118405100D01*
X95126195Y-118396742D01*
X95129834Y-118388559D01*
X95130346Y-118388101D01*
X96070875Y-117597921D01*
X96079413Y-117595224D01*
X96085923Y-117597921D01*
G37*
G04 #@! TD.AperFunction*
G04 #@! TA.AperFunction,Conductor*
G36*
X116350612Y-98407992D02*
G01*
X116354940Y-98415832D01*
X116354974Y-98416180D01*
X116383075Y-98759107D01*
X116383083Y-98759227D01*
X116401607Y-99061594D01*
X116401609Y-99061609D01*
X116440699Y-99356086D01*
X116440700Y-99356089D01*
X116531484Y-99687267D01*
X116531484Y-99687269D01*
X116700777Y-100089518D01*
X116700828Y-100098473D01*
X116695069Y-100104598D01*
X116488487Y-100204083D01*
X116479547Y-100204585D01*
X116474075Y-100200594D01*
X116240978Y-99892036D01*
X115954720Y-99770156D01*
X115954719Y-99770156D01*
X115631055Y-99762915D01*
X115280298Y-99790599D01*
X115279567Y-99790611D01*
X114924626Y-99774223D01*
X114916520Y-99770418D01*
X114913478Y-99761995D01*
X114913641Y-99760520D01*
X115126450Y-98550322D01*
X115131258Y-98542769D01*
X115136665Y-98540724D01*
X116342011Y-98405509D01*
X116350612Y-98407992D01*
G37*
G04 #@! TD.AperFunction*
G04 #@! TA.AperFunction,Conductor*
G36*
X116488486Y-96881115D02*
G01*
X116695068Y-96980600D01*
X116701035Y-96987277D01*
X116700776Y-96995680D01*
X116531483Y-97397927D01*
X116531483Y-97397929D01*
X116440699Y-97729107D01*
X116440698Y-97729110D01*
X116401607Y-98023587D01*
X116401605Y-98023602D01*
X116383081Y-98325972D01*
X116383073Y-98326093D01*
X116354974Y-98669016D01*
X116350883Y-98676982D01*
X116342358Y-98679722D01*
X116342009Y-98679688D01*
X115136669Y-98544476D01*
X115128829Y-98540148D01*
X115126450Y-98534875D01*
X114913643Y-97324688D01*
X114915585Y-97315949D01*
X114923140Y-97311141D01*
X114924618Y-97310976D01*
X115200558Y-97298235D01*
X115279567Y-97294587D01*
X115280298Y-97294599D01*
X115302085Y-97296318D01*
X115631048Y-97322282D01*
X115954719Y-97315041D01*
X116240977Y-97193161D01*
X116474075Y-96884602D01*
X116481796Y-96880068D01*
X116488486Y-96881115D01*
G37*
G04 #@! TD.AperFunction*
G04 #@! TA.AperFunction,Conductor*
G36*
X116350612Y-79357992D02*
G01*
X116354940Y-79365832D01*
X116354974Y-79366180D01*
X116383075Y-79709107D01*
X116383083Y-79709227D01*
X116401607Y-80011594D01*
X116401609Y-80011609D01*
X116440699Y-80306086D01*
X116440700Y-80306089D01*
X116531484Y-80637267D01*
X116531484Y-80637269D01*
X116700777Y-81039518D01*
X116700828Y-81048473D01*
X116695069Y-81054598D01*
X116488487Y-81154083D01*
X116479547Y-81154585D01*
X116474075Y-81150594D01*
X116240978Y-80842036D01*
X115954720Y-80720156D01*
X115954719Y-80720155D01*
X115631055Y-80712915D01*
X115280298Y-80740599D01*
X115279567Y-80740611D01*
X114924626Y-80724223D01*
X114916520Y-80720418D01*
X114913478Y-80711995D01*
X114913641Y-80710520D01*
X115126450Y-79500322D01*
X115131258Y-79492769D01*
X115136665Y-79490724D01*
X116342011Y-79355509D01*
X116350612Y-79357992D01*
G37*
G04 #@! TD.AperFunction*
G04 #@! TA.AperFunction,Conductor*
G36*
X116488486Y-115931115D02*
G01*
X116695068Y-116030600D01*
X116701035Y-116037277D01*
X116700776Y-116045680D01*
X116531483Y-116447927D01*
X116531483Y-116447929D01*
X116440699Y-116779107D01*
X116440698Y-116779110D01*
X116401607Y-117073587D01*
X116401605Y-117073602D01*
X116383081Y-117375972D01*
X116383073Y-117376093D01*
X116354974Y-117719016D01*
X116350883Y-117726982D01*
X116342358Y-117729722D01*
X116342009Y-117729688D01*
X115136669Y-117594476D01*
X115128829Y-117590148D01*
X115126450Y-117584875D01*
X114913643Y-116374688D01*
X114915585Y-116365949D01*
X114923140Y-116361141D01*
X114924618Y-116360976D01*
X115200558Y-116348235D01*
X115279567Y-116344587D01*
X115280298Y-116344599D01*
X115302085Y-116346318D01*
X115631048Y-116372282D01*
X115954719Y-116365041D01*
X116240977Y-116243161D01*
X116474075Y-115934602D01*
X116481796Y-115930068D01*
X116488486Y-115931115D01*
G37*
G04 #@! TD.AperFunction*
G04 #@! TA.AperFunction,Conductor*
G36*
X200043601Y-63617697D02*
G01*
X200859414Y-63954637D01*
X200865753Y-63960963D01*
X200865762Y-63960985D01*
X201202697Y-64776784D01*
X201202688Y-64785738D01*
X201196349Y-64792064D01*
X201195290Y-64792443D01*
X200817521Y-64907441D01*
X200815499Y-64907866D01*
X200574816Y-64936565D01*
X200511338Y-64944135D01*
X200441307Y-64952093D01*
X200248808Y-64973967D01*
X200248804Y-64973968D01*
X199985704Y-65073348D01*
X199686972Y-65311852D01*
X199678368Y-65314336D01*
X199671399Y-65310982D01*
X199509417Y-65149000D01*
X199505990Y-65140727D01*
X199508546Y-65133428D01*
X199747050Y-64834692D01*
X199846430Y-64571590D01*
X199876264Y-64309061D01*
X199912531Y-64004893D01*
X199912954Y-64002882D01*
X200027956Y-63625108D01*
X200033644Y-63618192D01*
X200042556Y-63617323D01*
X200043601Y-63617697D01*
G37*
G04 #@! TD.AperFunction*
G04 #@! TA.AperFunction,Conductor*
G36*
X116628233Y-77830658D02*
G01*
X116790343Y-77992768D01*
X116793770Y-78001041D01*
X116791276Y-78008261D01*
X116523010Y-78350326D01*
X116401442Y-78672517D01*
X116371767Y-78988776D01*
X116371766Y-78988787D01*
X116372771Y-79320982D01*
X116372752Y-79321464D01*
X116344254Y-79679300D01*
X116340181Y-79687275D01*
X116331662Y-79690034D01*
X116330704Y-79689918D01*
X115136127Y-79494685D01*
X115128515Y-79489968D01*
X115126440Y-79484853D01*
X115102196Y-79321223D01*
X114947055Y-78274132D01*
X114949233Y-78265448D01*
X114956914Y-78260845D01*
X114957830Y-78260747D01*
X115315187Y-78236903D01*
X115315615Y-78236891D01*
X115608598Y-78240576D01*
X115645236Y-78241037D01*
X115645237Y-78241036D01*
X115645245Y-78241037D01*
X115645254Y-78241036D01*
X115645258Y-78241036D01*
X115752653Y-78231637D01*
X115957548Y-78213708D01*
X116275154Y-78094579D01*
X116612739Y-77829725D01*
X116621362Y-77827315D01*
X116628233Y-77830658D01*
G37*
G04 #@! TD.AperFunction*
G04 #@! TA.AperFunction,Conductor*
G36*
X202583601Y-63617697D02*
G01*
X203399414Y-63954637D01*
X203405753Y-63960963D01*
X203405762Y-63960985D01*
X203742697Y-64776784D01*
X203742688Y-64785738D01*
X203736349Y-64792064D01*
X203735290Y-64792443D01*
X203357521Y-64907441D01*
X203355499Y-64907866D01*
X203114816Y-64936565D01*
X203051338Y-64944135D01*
X202981307Y-64952093D01*
X202788808Y-64973967D01*
X202788804Y-64973968D01*
X202525704Y-65073348D01*
X202226972Y-65311852D01*
X202218368Y-65314336D01*
X202211399Y-65310982D01*
X202049417Y-65149000D01*
X202045990Y-65140727D01*
X202048546Y-65133428D01*
X202287050Y-64834692D01*
X202386430Y-64571590D01*
X202416264Y-64309061D01*
X202452531Y-64004893D01*
X202452954Y-64002882D01*
X202567956Y-63625108D01*
X202573644Y-63618192D01*
X202582556Y-63617323D01*
X202583601Y-63617697D01*
G37*
G04 #@! TD.AperFunction*
G04 #@! TA.AperFunction,Conductor*
G36*
X135678232Y-77830658D02*
G01*
X135840342Y-77992768D01*
X135843769Y-78001041D01*
X135841275Y-78008261D01*
X135573009Y-78350326D01*
X135451441Y-78672517D01*
X135421767Y-78988775D01*
X135421766Y-78988787D01*
X135422770Y-79320981D01*
X135422751Y-79321463D01*
X135394254Y-79679299D01*
X135390181Y-79687274D01*
X135381662Y-79690033D01*
X135380704Y-79689917D01*
X134186127Y-79494685D01*
X134178515Y-79489968D01*
X134176440Y-79484853D01*
X133997055Y-78274132D01*
X133999233Y-78265448D01*
X134006914Y-78260845D01*
X134007830Y-78260747D01*
X134365186Y-78236903D01*
X134365614Y-78236891D01*
X134658597Y-78240576D01*
X134695235Y-78241037D01*
X134695236Y-78241036D01*
X134695244Y-78241037D01*
X134695253Y-78241036D01*
X134695257Y-78241036D01*
X134802652Y-78231637D01*
X135007547Y-78213708D01*
X135325153Y-78094579D01*
X135662738Y-77829725D01*
X135671361Y-77827315D01*
X135678232Y-77830658D01*
G37*
G04 #@! TD.AperFunction*
G04 #@! TA.AperFunction,Conductor*
G36*
X135538486Y-115931115D02*
G01*
X135745068Y-116030600D01*
X135751035Y-116037277D01*
X135750776Y-116045680D01*
X135581483Y-116447927D01*
X135581483Y-116447929D01*
X135490699Y-116779107D01*
X135490698Y-116779110D01*
X135451607Y-117073587D01*
X135451605Y-117073602D01*
X135433081Y-117375972D01*
X135433073Y-117376093D01*
X135404974Y-117719016D01*
X135400883Y-117726982D01*
X135392358Y-117729722D01*
X135392009Y-117729688D01*
X134186669Y-117594476D01*
X134178829Y-117590148D01*
X134176450Y-117584875D01*
X133963643Y-116374688D01*
X133965585Y-116365949D01*
X133973140Y-116361141D01*
X133974618Y-116360976D01*
X134250558Y-116348235D01*
X134329567Y-116344587D01*
X134330298Y-116344599D01*
X134352085Y-116346318D01*
X134681048Y-116372282D01*
X135004719Y-116365041D01*
X135290977Y-116243161D01*
X135524075Y-115934602D01*
X135531796Y-115930068D01*
X135538486Y-115931115D01*
G37*
G04 #@! TD.AperFunction*
G04 #@! TA.AperFunction,Conductor*
G36*
X128534483Y-139743158D02*
G01*
X128696593Y-139905268D01*
X128700020Y-139913541D01*
X128697526Y-139920761D01*
X128429260Y-140262826D01*
X128307692Y-140585017D01*
X128278017Y-140901276D01*
X128278016Y-140901287D01*
X128279021Y-141233482D01*
X128279002Y-141233964D01*
X128250504Y-141591800D01*
X128246431Y-141599775D01*
X128237912Y-141602534D01*
X128236954Y-141602418D01*
X127042377Y-141407185D01*
X127034765Y-141402468D01*
X127032690Y-141397353D01*
X127008446Y-141233723D01*
X126853305Y-140186632D01*
X126855483Y-140177948D01*
X126863164Y-140173345D01*
X126864080Y-140173247D01*
X127221437Y-140149403D01*
X127221865Y-140149391D01*
X127514848Y-140153076D01*
X127551486Y-140153537D01*
X127551487Y-140153536D01*
X127551495Y-140153537D01*
X127551504Y-140153536D01*
X127551508Y-140153536D01*
X127658903Y-140144137D01*
X127863798Y-140126208D01*
X128181404Y-140007079D01*
X128518989Y-139742225D01*
X128527612Y-139739815D01*
X128534483Y-139743158D01*
G37*
G04 #@! TD.AperFunction*
G04 #@! TA.AperFunction,Conductor*
G36*
X135538486Y-96881115D02*
G01*
X135745068Y-96980600D01*
X135751035Y-96987277D01*
X135750776Y-96995680D01*
X135581483Y-97397927D01*
X135581483Y-97397929D01*
X135490699Y-97729107D01*
X135490698Y-97729110D01*
X135451607Y-98023587D01*
X135451605Y-98023602D01*
X135433081Y-98325972D01*
X135433073Y-98326093D01*
X135404974Y-98669016D01*
X135400883Y-98676982D01*
X135392358Y-98679722D01*
X135392009Y-98679688D01*
X134186669Y-98544476D01*
X134178829Y-98540148D01*
X134176450Y-98534875D01*
X133963643Y-97324688D01*
X133965585Y-97315949D01*
X133973140Y-97311141D01*
X133974618Y-97310976D01*
X134250558Y-97298235D01*
X134329567Y-97294587D01*
X134330298Y-97294599D01*
X134352085Y-97296318D01*
X134681048Y-97322282D01*
X135004719Y-97315041D01*
X135290977Y-97193161D01*
X135524075Y-96884602D01*
X135531796Y-96880068D01*
X135538486Y-96881115D01*
G37*
G04 #@! TD.AperFunction*
G04 #@! TA.AperFunction,Conductor*
G36*
X135400612Y-98407992D02*
G01*
X135404940Y-98415832D01*
X135404974Y-98416180D01*
X135433075Y-98759107D01*
X135433083Y-98759227D01*
X135451607Y-99061594D01*
X135451609Y-99061609D01*
X135490699Y-99356086D01*
X135490700Y-99356089D01*
X135581484Y-99687267D01*
X135581484Y-99687269D01*
X135750777Y-100089518D01*
X135750828Y-100098473D01*
X135745069Y-100104598D01*
X135538487Y-100204083D01*
X135529547Y-100204585D01*
X135524075Y-100200594D01*
X135290978Y-99892036D01*
X135004720Y-99770156D01*
X134681055Y-99762915D01*
X134330298Y-99790599D01*
X134329567Y-99790611D01*
X133974626Y-99774223D01*
X133966520Y-99770418D01*
X133963478Y-99761995D01*
X133963641Y-99760520D01*
X134176450Y-98550322D01*
X134181258Y-98542769D01*
X134186665Y-98540724D01*
X135392011Y-98405509D01*
X135400612Y-98407992D01*
G37*
G04 #@! TD.AperFunction*
G04 #@! TA.AperFunction,Conductor*
G36*
X134185923Y-117597921D02*
G01*
X135114639Y-118378176D01*
X135126435Y-118388086D01*
X135130565Y-118396031D01*
X135127867Y-118404570D01*
X135127392Y-118405101D01*
X134976896Y-118563557D01*
X134890833Y-118654172D01*
X134890671Y-118654336D01*
X134664441Y-118873276D01*
X134664429Y-118873289D01*
X134477486Y-119105951D01*
X134477486Y-119105953D01*
X134350328Y-119405117D01*
X134304566Y-119813214D01*
X134300239Y-119821054D01*
X134292939Y-119823610D01*
X134063861Y-119823610D01*
X134055588Y-119820183D01*
X134052234Y-119813214D01*
X134006471Y-119405116D01*
X133879312Y-119105951D01*
X133879311Y-119105951D01*
X133692368Y-118873289D01*
X133692356Y-118873276D01*
X133466151Y-118654360D01*
X133465977Y-118654185D01*
X133465954Y-118654161D01*
X133404068Y-118589000D01*
X133229407Y-118405100D01*
X133226195Y-118396742D01*
X133229834Y-118388559D01*
X133230346Y-118388101D01*
X134170875Y-117597921D01*
X134179413Y-117595224D01*
X134185923Y-117597921D01*
G37*
G04 #@! TD.AperFunction*
G04 #@! TA.AperFunction,Conductor*
G36*
X205123601Y-63617697D02*
G01*
X205939414Y-63954637D01*
X205945753Y-63960963D01*
X205945762Y-63960985D01*
X206282697Y-64776784D01*
X206282688Y-64785738D01*
X206276349Y-64792064D01*
X206275290Y-64792443D01*
X205897521Y-64907441D01*
X205895499Y-64907866D01*
X205654816Y-64936565D01*
X205591338Y-64944135D01*
X205521307Y-64952093D01*
X205328808Y-64973967D01*
X205328804Y-64973968D01*
X205065704Y-65073348D01*
X204766972Y-65311852D01*
X204758368Y-65314336D01*
X204751399Y-65310982D01*
X204589417Y-65149000D01*
X204585990Y-65140727D01*
X204588546Y-65133428D01*
X204827050Y-64834692D01*
X204926430Y-64571590D01*
X204956264Y-64309061D01*
X204992531Y-64004893D01*
X204992954Y-64002882D01*
X205107956Y-63625108D01*
X205113644Y-63618192D01*
X205122556Y-63617323D01*
X205123601Y-63617697D01*
G37*
G04 #@! TD.AperFunction*
G04 #@! TA.AperFunction,Conductor*
G36*
X154728233Y-77830658D02*
G01*
X154890343Y-77992768D01*
X154893770Y-78001041D01*
X154891276Y-78008261D01*
X154623010Y-78350326D01*
X154501442Y-78672517D01*
X154471767Y-78988776D01*
X154471766Y-78988787D01*
X154472771Y-79320982D01*
X154472752Y-79321464D01*
X154444254Y-79679300D01*
X154440181Y-79687275D01*
X154431662Y-79690034D01*
X154430704Y-79689918D01*
X153236127Y-79494685D01*
X153228515Y-79489968D01*
X153226440Y-79484853D01*
X153202196Y-79321223D01*
X153047055Y-78274132D01*
X153049233Y-78265448D01*
X153056914Y-78260845D01*
X153057830Y-78260747D01*
X153415187Y-78236903D01*
X153415615Y-78236891D01*
X153708598Y-78240576D01*
X153745236Y-78241037D01*
X153745237Y-78241036D01*
X153745245Y-78241037D01*
X153745254Y-78241036D01*
X153745258Y-78241036D01*
X153852653Y-78231637D01*
X154057548Y-78213708D01*
X154375154Y-78094579D01*
X154712739Y-77829725D01*
X154721362Y-77827315D01*
X154728233Y-77830658D01*
G37*
G04 #@! TD.AperFunction*
M02*
