M48
; DRILL file {KiCad 7.0.5-7.0.5~ubuntu22.04.1} date Fri 14 Jul 2023 10:20:22 CEST
; FORMAT={-:-/ absolute / metric / decimal}
; #@! TF.CreationDate,2023-07-14T10:20:22+02:00
; #@! TF.GenerationSoftware,Kicad,Pcbnew,7.0.5-7.0.5~ubuntu22.04.1
; #@! TF.FileFunction,Plated,1,2,PTH
FMAT,2
METRIC
; #@! TA.AperFunction,Plated,PTH,ViaDrill
T1C0.400
; #@! TA.AperFunction,Plated,PTH,ComponentDrill
T2C0.750
; #@! TA.AperFunction,Plated,PTH,ComponentDrill
T3C1.000
; #@! TA.AperFunction,Plated,PTH,ComponentDrill
T4C1.092
; #@! TA.AperFunction,Plated,PTH,ComponentDrill
T5C1.500
%
G90
G05
T1
X231.724Y-69.342
X231.724Y-70.561
X231.724Y-71.73
X231.75Y-72.873
T2
X186.08Y-55.125
X186.08Y-57.125
T3
X48.378Y-50.192
X48.378Y-55.192
X62.878Y-50.192
X62.878Y-52.692
X62.878Y-55.192
X200.863Y-48.717
X200.863Y-63.957
X203.403Y-48.717
X203.403Y-63.957
X205.943Y-48.717
X205.943Y-56.337
X205.943Y-58.877
X205.943Y-61.417
X205.943Y-63.957
X208.483Y-48.717
X208.483Y-63.957
X211.023Y-48.717
X211.023Y-63.957
X213.563Y-48.717
X213.563Y-63.957
X216.103Y-48.717
X216.103Y-63.957
X218.643Y-48.717
X218.643Y-63.957
X221.183Y-48.717
X221.183Y-63.957
X223.723Y-48.717
X223.723Y-63.957
X226.263Y-48.717
X226.263Y-63.957
X228.803Y-48.717
X228.803Y-63.957
X231.343Y-48.717
X231.343Y-63.957
T4
X197.153Y-47.613
X197.153Y-50.153
X197.153Y-52.693
X197.153Y-55.233
X197.153Y-57.773
T5
X50.978Y-78.443
X50.978Y-97.493
X50.978Y-116.543
X50.978Y-135.593
X57.978Y-79.493
X57.978Y-98.543
X57.978Y-117.593
X57.978Y-136.643
X70.028Y-78.443
X70.028Y-97.493
X70.028Y-116.543
X70.028Y-135.593
X77.028Y-79.493
X77.028Y-98.543
X77.028Y-117.593
X77.028Y-136.643
X89.078Y-78.443
X89.078Y-97.493
X89.078Y-116.543
X93.841Y-140.355
X96.078Y-79.493
X96.078Y-98.543
X96.078Y-117.593
X100.841Y-141.405
X108.128Y-78.443
X108.128Y-97.493
X108.128Y-116.543
X115.128Y-79.493
X115.128Y-98.543
X115.128Y-117.593
X120.035Y-140.355
X127.035Y-141.405
X127.178Y-78.443
X127.178Y-97.493
X127.178Y-116.543
X134.178Y-79.493
X134.178Y-98.543
X134.178Y-117.593
X146.228Y-78.443
X146.228Y-97.493
X146.228Y-116.543
X153.228Y-79.493
X153.228Y-98.543
X153.228Y-117.593
X153.372Y-140.355
X160.372Y-141.405
X165.278Y-78.443
X165.278Y-97.493
X165.278Y-116.543
X172.278Y-79.493
X172.278Y-98.543
X172.278Y-117.593
X179.566Y-140.355
X184.328Y-78.443
X184.328Y-97.493
X184.328Y-116.543
X186.566Y-141.405
X191.328Y-79.493
X191.328Y-98.543
X191.328Y-117.593
X203.378Y-78.443
X203.378Y-97.493
X203.378Y-116.543
X203.378Y-135.593
X210.378Y-79.493
X210.378Y-98.543
X210.378Y-117.593
X210.378Y-136.643
X222.428Y-78.443
X222.428Y-97.493
X222.428Y-116.543
X222.428Y-135.593
X229.428Y-79.493
X229.428Y-98.543
X229.428Y-117.593
X229.428Y-136.643
T5
X56.028Y-47.092G85X54.728Y-47.092
G05
X56.028Y-58.292G85X54.728Y-58.292
G05
T0
M30
