G04 #@! TF.GenerationSoftware,KiCad,Pcbnew,7.0.5-7.0.5~ubuntu22.04.1*
G04 #@! TF.CreationDate,2023-07-14T10:16:13+02:00*
G04 #@! TF.ProjectId,pur-offset-space-55,7075722d-6f66-4667-9365-742d73706163,rev?*
G04 #@! TF.SameCoordinates,Original*
G04 #@! TF.FileFunction,Soldermask,Top*
G04 #@! TF.FilePolarity,Negative*
%FSLAX46Y46*%
G04 Gerber Fmt 4.6, Leading zero omitted, Abs format (unit mm)*
G04 Created by KiCad (PCBNEW 7.0.5-7.0.5~ubuntu22.04.1) date 2023-07-14 10:16:13*
%MOMM*%
%LPD*%
G01*
G04 APERTURE LIST*
G04 Aperture macros list*
%AMRoundRect*
0 Rectangle with rounded corners*
0 $1 Rounding radius*
0 $2 $3 $4 $5 $6 $7 $8 $9 X,Y pos of 4 corners*
0 Add a 4 corners polygon primitive as box body*
4,1,4,$2,$3,$4,$5,$6,$7,$8,$9,$2,$3,0*
0 Add four circle primitives for the rounded corners*
1,1,$1+$1,$2,$3*
1,1,$1+$1,$4,$5*
1,1,$1+$1,$6,$7*
1,1,$1+$1,$8,$9*
0 Add four rect primitives between the rounded corners*
20,1,$1+$1,$2,$3,$4,$5,0*
20,1,$1+$1,$4,$5,$6,$7,0*
20,1,$1+$1,$6,$7,$8,$9,0*
20,1,$1+$1,$8,$9,$2,$3,0*%
G04 Aperture macros list end*
%ADD10C,5.000000*%
%ADD11C,2.500000*%
%ADD12C,1.752600*%
%ADD13C,0.900000*%
%ADD14C,1.800000*%
%ADD15RoundRect,0.450000X0.450000X-0.450000X0.450000X0.450000X-0.450000X0.450000X-0.450000X-0.450000X0*%
%ADD16O,4.340000X1.800000*%
%ADD17RoundRect,0.250000X-0.625000X0.350000X-0.625000X-0.350000X0.625000X-0.350000X0.625000X0.350000X0*%
%ADD18O,1.750000X1.200000*%
G04 APERTURE END LIST*
D10*
X207778400Y-92792600D03*
D11*
X210378400Y-98542600D03*
X203378400Y-97492600D03*
D10*
X93478400Y-92792600D03*
D11*
X96078400Y-98542600D03*
X89078400Y-97492600D03*
D10*
X150628400Y-92792600D03*
D11*
X153228400Y-98542600D03*
X146228400Y-97492600D03*
D10*
X98240900Y-135655100D03*
D11*
X100840900Y-141405100D03*
X93840900Y-140355100D03*
D10*
X55378400Y-130892600D03*
D11*
X57978400Y-136642600D03*
X50978400Y-135592600D03*
D10*
X207778400Y-111842600D03*
D11*
X210378400Y-117592600D03*
X203378400Y-116542600D03*
D10*
X169678400Y-73742600D03*
D11*
X172278400Y-79492600D03*
X165278400Y-78442600D03*
D10*
X150628400Y-73742600D03*
D11*
X153228400Y-79492600D03*
X146228400Y-78442600D03*
D10*
X131578400Y-73742600D03*
D11*
X134178400Y-79492600D03*
X127178400Y-78442600D03*
D10*
X55378400Y-92792600D03*
D11*
X57978400Y-98542600D03*
X50978400Y-97492600D03*
D10*
X188728400Y-73742600D03*
D11*
X191328400Y-79492600D03*
X184328400Y-78442600D03*
D10*
X112528400Y-111842600D03*
D11*
X115128400Y-117592600D03*
X108128400Y-116542600D03*
D12*
X197153000Y-47612600D03*
X197153000Y-50152600D03*
X197153000Y-52692600D03*
X197153000Y-55232600D03*
X197153000Y-57772600D03*
D10*
X55378400Y-111842600D03*
D11*
X57978400Y-117592600D03*
X50978400Y-116542600D03*
D10*
X188728400Y-92792600D03*
D11*
X191328400Y-98542600D03*
X184328400Y-97492600D03*
D10*
X112528400Y-92792600D03*
D11*
X115128400Y-98542600D03*
X108128400Y-97492600D03*
D10*
X131578400Y-111842600D03*
D11*
X134178400Y-117592600D03*
X127178400Y-116542600D03*
D10*
X112528400Y-73742600D03*
D11*
X115128400Y-79492600D03*
X108128400Y-78442600D03*
D10*
X207778400Y-130892600D03*
D11*
X210378400Y-136642600D03*
X203378400Y-135592600D03*
D10*
X226828400Y-130892600D03*
D11*
X229428400Y-136642600D03*
X222428400Y-135592600D03*
D10*
X169678400Y-92792600D03*
D11*
X172278400Y-98542600D03*
X165278400Y-97492600D03*
D10*
X93478400Y-73742600D03*
D11*
X96078400Y-79492600D03*
X89078400Y-78442600D03*
D10*
X93478400Y-111842600D03*
D11*
X96078400Y-117592600D03*
X89078400Y-116542600D03*
D10*
X74428400Y-73742600D03*
D11*
X77028400Y-79492600D03*
X70028400Y-78442600D03*
D10*
X157772150Y-135655100D03*
D11*
X160372150Y-141405100D03*
X153372150Y-140355100D03*
D10*
X188728400Y-111842600D03*
D11*
X191328400Y-117592600D03*
X184328400Y-116542600D03*
D10*
X226828400Y-73742600D03*
D11*
X229428400Y-79492600D03*
X222428400Y-78442600D03*
D10*
X74428400Y-92792600D03*
D11*
X77028400Y-98542600D03*
X70028400Y-97492600D03*
D10*
X226828400Y-92792600D03*
D11*
X229428400Y-98542600D03*
X222428400Y-97492600D03*
D10*
X226828400Y-111842600D03*
D11*
X229428400Y-117592600D03*
X222428400Y-116542600D03*
D10*
X74428400Y-111842600D03*
D11*
X77028400Y-117592600D03*
X70028400Y-116542600D03*
D10*
X131578400Y-92792600D03*
D11*
X134178400Y-98542600D03*
X127178400Y-97492600D03*
D10*
X55378400Y-73742600D03*
D11*
X57978400Y-79492600D03*
X50978400Y-78442600D03*
D10*
X74428400Y-130892600D03*
D11*
X77028400Y-136642600D03*
X70028400Y-135592600D03*
D10*
X150628400Y-111842600D03*
D11*
X153228400Y-117592600D03*
X146228400Y-116542600D03*
D10*
X207778400Y-73742600D03*
D11*
X210378400Y-79492600D03*
X203378400Y-78442600D03*
D10*
X169678400Y-111842600D03*
D11*
X172278400Y-117592600D03*
X165278400Y-116542600D03*
D10*
X183965900Y-135655100D03*
D11*
X186565900Y-141405100D03*
X179565900Y-140355100D03*
D10*
X124434650Y-135655100D03*
D11*
X127034650Y-141405100D03*
X120034650Y-140355100D03*
D13*
X189877000Y-48989200D03*
X186877000Y-48989200D03*
D14*
X228803200Y-63957200D03*
X226263200Y-63957200D03*
D15*
X223723200Y-63957200D03*
X221183200Y-63957200D03*
D14*
X218643200Y-63957200D03*
X216103200Y-63957200D03*
X213563200Y-63957200D03*
X211023200Y-63957200D03*
X208483200Y-63957200D03*
X205943200Y-63957200D03*
X203403200Y-63957200D03*
X200863200Y-63957200D03*
D16*
X230073200Y-48717200D03*
D15*
X226263200Y-48717200D03*
D14*
X223723200Y-48717200D03*
X221183200Y-48717200D03*
X218643200Y-48717200D03*
X216103200Y-48717200D03*
X213563200Y-48717200D03*
X211023200Y-48717200D03*
X208483200Y-48717200D03*
X205943200Y-48717200D03*
X203403200Y-48717200D03*
X200863200Y-48717200D03*
X205943200Y-61417200D03*
X205943200Y-58877200D03*
X205943200Y-56337200D03*
D15*
X231343200Y-63957200D03*
D14*
X231343200Y-48717200D03*
D17*
X186080400Y-55124600D03*
D18*
X186080400Y-57124600D03*
M02*
