M48
; DRILL file {KiCad 7.0.5-7.0.5~ubuntu22.04.1} date Fri 14 Jul 2023 10:20:22 CEST
; FORMAT={-:-/ absolute / metric / decimal}
; #@! TF.CreationDate,2023-07-14T10:20:22+02:00
; #@! TF.GenerationSoftware,Kicad,Pcbnew,7.0.5-7.0.5~ubuntu22.04.1
; #@! TF.FileFunction,NonPlated,1,2,NPTH
FMAT,2
METRIC
; #@! TA.AperFunction,NonPlated,NPTH,ComponentDrill
T1C0.900
; #@! TA.AperFunction,NonPlated,NPTH,ComponentDrill
T2C5.000
%
G90
G05
T1
X186.877Y-48.989
X189.877Y-48.989
T2
X55.378Y-73.743
X55.378Y-92.793
X55.378Y-111.843
X55.378Y-130.893
X74.428Y-73.743
X74.428Y-92.793
X74.428Y-111.843
X74.428Y-130.893
X93.478Y-73.743
X93.478Y-92.793
X93.478Y-111.843
X98.241Y-135.655
X112.528Y-73.743
X112.528Y-92.793
X112.528Y-111.843
X124.435Y-135.655
X131.578Y-73.743
X131.578Y-92.793
X131.578Y-111.843
X150.628Y-73.743
X150.628Y-92.793
X150.628Y-111.843
X157.772Y-135.655
X169.678Y-73.743
X169.678Y-92.793
X169.678Y-111.843
X183.966Y-135.655
X188.728Y-73.743
X188.728Y-92.793
X188.728Y-111.843
X207.778Y-73.743
X207.778Y-92.793
X207.778Y-111.843
X207.778Y-130.893
X226.828Y-73.743
X226.828Y-92.793
X226.828Y-111.843
X226.828Y-130.893
T0
M30
