G04 #@! TF.GenerationSoftware,KiCad,Pcbnew,7.0.5-7.0.5~ubuntu22.04.1*
G04 #@! TF.CreationDate,2023-07-14T10:16:13+02:00*
G04 #@! TF.ProjectId,pur-offset-space-55,7075722d-6f66-4667-9365-742d73706163,rev?*
G04 #@! TF.SameCoordinates,Original*
G04 #@! TF.FileFunction,Profile,NP*
%FSLAX46Y46*%
G04 Gerber Fmt 4.6, Leading zero omitted, Abs format (unit mm)*
G04 Created by KiCad (PCBNEW 7.0.5-7.0.5~ubuntu22.04.1) date 2023-07-14 10:16:13*
%MOMM*%
%LPD*%
G01*
G04 APERTURE LIST*
G04 #@! TA.AperFunction,Profile*
%ADD10C,0.100000*%
G04 #@! TD*
%ADD11C,0.100000*%
G04 APERTURE END LIST*
D10*
X240333800Y-104945800D02*
G75*
G03*
X240333800Y-99745800I0J2600000D01*
G01*
X238333800Y-104945800D02*
G75*
G03*
X236333800Y-106945800I0J-2000000D01*
G01*
X178083800Y-44795200D02*
G75*
G03*
X176083800Y-46795140I-100J-1999900D01*
G01*
X193972586Y-145255348D02*
X194274685Y-145359718D01*
X45833800Y-64245800D02*
X45833800Y-46795140D01*
D11*
X87893019Y-145359673D02*
X87991102Y-145323089D01*
X88090846Y-145290284D01*
X88192295Y-145261358D01*
X88295493Y-145236412D01*
X88355267Y-145223983D01*
D10*
X236333800Y-97745800D02*
X236333800Y-83295800D01*
X236333860Y-46795140D02*
G75*
G03*
X234333800Y-44795140I-2000060J-60D01*
G01*
X81096300Y-142445800D02*
G75*
G03*
X79096300Y-140445800I-2000000J0D01*
G01*
X77508760Y-46795140D02*
G75*
G03*
X75508800Y-44795140I-1999960J40D01*
G01*
X45833800Y-106945800D02*
G75*
G03*
X43833800Y-104945800I-2000000J0D01*
G01*
D11*
X196204897Y-146907459D02*
X196285585Y-146983877D01*
X196366567Y-147059644D01*
X196447871Y-147134696D01*
X196529527Y-147208967D01*
X196576356Y-147251033D01*
D10*
X79096300Y-140445800D02*
X47833800Y-140445800D01*
X47833800Y-44795140D02*
X75508800Y-44795140D01*
X203071300Y-140445800D02*
G75*
G03*
X201071300Y-142445800I0J-2000000D01*
G01*
X236333800Y-106945800D02*
X236333800Y-138445800D01*
X201071300Y-145445800D02*
X201071300Y-142445800D01*
X47833800Y-44795140D02*
G75*
G03*
X45833800Y-46795140I0J-2000000D01*
G01*
X41833800Y-99745800D02*
X43833800Y-99745800D01*
X88355267Y-145223983D02*
X88696300Y-145208300D01*
X77508800Y-46795140D02*
X77508800Y-62245800D01*
D11*
X85336559Y-147463113D02*
X85420551Y-147394091D01*
X85504065Y-147324000D01*
X85587101Y-147252842D01*
X85669658Y-147180616D01*
X85716620Y-147138865D01*
D10*
X240333800Y-99745800D02*
X238333800Y-99745800D01*
X75508800Y-52720800D02*
G75*
G03*
X75508800Y-52720800I-1100000J0D01*
G01*
X174083800Y-64245800D02*
G75*
G03*
X176083800Y-62245800I0J2000000D01*
G01*
X240333800Y-104945800D02*
X238333800Y-104945800D01*
D11*
X195595138Y-146314400D02*
X195675316Y-146391851D01*
X195755292Y-146469773D01*
X195835111Y-146548063D01*
X195914818Y-146626620D01*
X195960333Y-146671591D01*
D10*
X86328857Y-146551287D02*
X86572680Y-146314116D01*
X195960333Y-146671591D02*
X196204897Y-146907459D01*
X81096300Y-145445800D02*
G75*
G03*
X85336559Y-147463113I2600000J0D01*
G01*
X176083800Y-46795140D02*
X176083800Y-62245800D01*
X42933800Y-102345800D02*
G75*
G03*
X42933800Y-102345800I-1100000J0D01*
G01*
X45833800Y-97745800D02*
X45833800Y-64245800D01*
D11*
X86572680Y-146314116D02*
X86653097Y-146237251D01*
X86733807Y-146161061D01*
X86814854Y-146085647D01*
X86896282Y-146011109D01*
X86943001Y-145968950D01*
X193471300Y-145208300D02*
X193584490Y-145210551D01*
X193695702Y-145217307D01*
X193804933Y-145228564D01*
X193912186Y-145244322D01*
X193972586Y-145255348D01*
D10*
X87893019Y-145359673D02*
X87602211Y-145489630D01*
X86943001Y-145968950D02*
X87200549Y-145763234D01*
X41833800Y-99745800D02*
G75*
G03*
X41833800Y-104945800I0J-2600000D01*
G01*
D11*
X194274685Y-145359718D02*
X194371163Y-145399990D01*
X194466068Y-145443841D01*
X194559446Y-145491169D01*
X194651340Y-145541872D01*
X194703203Y-145572323D01*
D10*
X241433800Y-102345800D02*
G75*
G03*
X241433800Y-102345800I-1100000J0D01*
G01*
X195349573Y-146081170D02*
X195595138Y-146314400D01*
X45833800Y-138445800D02*
G75*
G03*
X47833800Y-140445800I2000000J0D01*
G01*
X45833800Y-106945800D02*
X45833800Y-138445800D01*
X234333800Y-140445800D02*
X217283800Y-140445800D01*
X199571300Y-145445800D02*
G75*
G03*
X199571300Y-145445800I-1100000J0D01*
G01*
X236333800Y-97745800D02*
G75*
G03*
X238333800Y-99745800I2000000J0D01*
G01*
X84796300Y-145445800D02*
G75*
G03*
X84796300Y-145445800I-1100000J0D01*
G01*
D11*
X194967219Y-145763392D02*
X195052336Y-145829533D01*
X195136582Y-145897665D01*
X195220007Y-145967669D01*
X195302664Y-146039425D01*
X195349573Y-146081170D01*
D10*
X203071300Y-140445800D02*
X217283800Y-140445800D01*
X196576356Y-147251033D02*
X196831454Y-147463449D01*
X77508800Y-62245800D02*
G75*
G03*
X79508800Y-64245800I2000000J0D01*
G01*
X178083800Y-44795140D02*
X234333800Y-44795140D01*
X196831454Y-147463449D02*
G75*
G03*
X201071300Y-145445800I1639846J2017649D01*
G01*
X43833800Y-99745800D02*
G75*
G03*
X45833800Y-97745800I0J2000000D01*
G01*
X236333800Y-64245800D02*
X236333800Y-83295800D01*
X81096300Y-145445800D02*
X81096300Y-142445800D01*
X79508800Y-64245800D02*
X174083800Y-64245800D01*
X194703203Y-145572323D02*
X194967219Y-145763392D01*
D11*
X85962993Y-146907096D02*
X86043404Y-146830095D01*
X86123578Y-146752573D01*
X86203545Y-146674594D01*
X86283333Y-146596222D01*
X86328857Y-146551287D01*
D10*
X180283800Y-52720800D02*
G75*
G03*
X180283800Y-52720800I-1100000J0D01*
G01*
D11*
X87200549Y-145763234D02*
X87286585Y-145699220D01*
X87373600Y-145637435D01*
X87461645Y-145577998D01*
X87550774Y-145521029D01*
X87602211Y-145489630D01*
D10*
X193471300Y-145208300D02*
X88696300Y-145208300D01*
X234333800Y-140445800D02*
G75*
G03*
X236333800Y-138445800I0J2000000D01*
G01*
X236333800Y-46795140D02*
X236333800Y-64245800D01*
X41833800Y-104945800D02*
X43833800Y-104945800D01*
X85716620Y-147138865D02*
X85962993Y-146907096D01*
M02*
