G04 #@! TF.GenerationSoftware,KiCad,Pcbnew,7.0.5-7.0.5~ubuntu22.04.1*
G04 #@! TF.CreationDate,2023-07-14T10:16:13+02:00*
G04 #@! TF.ProjectId,pur-offset-space-55,7075722d-6f66-4667-9365-742d73706163,rev?*
G04 #@! TF.SameCoordinates,Original*
G04 #@! TF.FileFunction,Copper,L2,Bot*
G04 #@! TF.FilePolarity,Positive*
%FSLAX46Y46*%
G04 Gerber Fmt 4.6, Leading zero omitted, Abs format (unit mm)*
G04 Created by KiCad (PCBNEW 7.0.5-7.0.5~ubuntu22.04.1) date 2023-07-14 10:16:13*
%MOMM*%
%LPD*%
G01*
G04 APERTURE LIST*
G04 Aperture macros list*
%AMRoundRect*
0 Rectangle with rounded corners*
0 $1 Rounding radius*
0 $2 $3 $4 $5 $6 $7 $8 $9 X,Y pos of 4 corners*
0 Add a 4 corners polygon primitive as box body*
4,1,4,$2,$3,$4,$5,$6,$7,$8,$9,$2,$3,0*
0 Add four circle primitives for the rounded corners*
1,1,$1+$1,$2,$3*
1,1,$1+$1,$4,$5*
1,1,$1+$1,$6,$7*
1,1,$1+$1,$8,$9*
0 Add four rect primitives between the rounded corners*
20,1,$1+$1,$2,$3,$4,$5,0*
20,1,$1+$1,$4,$5,$6,$7,0*
20,1,$1+$1,$6,$7,$8,$9,0*
20,1,$1+$1,$8,$9,$2,$3,0*%
G04 Aperture macros list end*
G04 #@! TA.AperFunction,ComponentPad*
%ADD10C,2.500000*%
G04 #@! TD*
G04 #@! TA.AperFunction,ComponentPad*
%ADD11C,1.752600*%
G04 #@! TD*
G04 #@! TA.AperFunction,ComponentPad*
%ADD12C,2.000000*%
G04 #@! TD*
G04 #@! TA.AperFunction,ComponentPad*
%ADD13RoundRect,0.500000X0.500000X0.500000X-0.500000X0.500000X-0.500000X-0.500000X0.500000X-0.500000X0*%
G04 #@! TD*
G04 #@! TA.AperFunction,ComponentPad*
%ADD14RoundRect,0.550000X1.150000X0.550000X-1.150000X0.550000X-1.150000X-0.550000X1.150000X-0.550000X0*%
G04 #@! TD*
G04 #@! TA.AperFunction,SMDPad,CuDef*
%ADD15RoundRect,0.225000X-0.375000X0.225000X-0.375000X-0.225000X0.375000X-0.225000X0.375000X0.225000X0*%
G04 #@! TD*
G04 #@! TA.AperFunction,SMDPad,CuDef*
%ADD16RoundRect,0.225000X0.375000X-0.225000X0.375000X0.225000X-0.375000X0.225000X-0.375000X-0.225000X0*%
G04 #@! TD*
G04 #@! TA.AperFunction,SMDPad,CuDef*
%ADD17RoundRect,0.200000X-0.300000X-0.200000X0.300000X-0.200000X0.300000X0.200000X-0.300000X0.200000X0*%
G04 #@! TD*
G04 #@! TA.AperFunction,SMDPad,CuDef*
%ADD18RoundRect,0.175000X-0.175000X-0.575000X0.175000X-0.575000X0.175000X0.575000X-0.175000X0.575000X0*%
G04 #@! TD*
G04 #@! TA.AperFunction,ComponentPad*
%ADD19C,1.800000*%
G04 #@! TD*
G04 #@! TA.AperFunction,ComponentPad*
%ADD20RoundRect,0.450000X0.450000X-0.450000X0.450000X0.450000X-0.450000X0.450000X-0.450000X-0.450000X0*%
G04 #@! TD*
G04 #@! TA.AperFunction,ComponentPad*
%ADD21O,4.340000X1.800000*%
G04 #@! TD*
G04 #@! TA.AperFunction,ComponentPad*
%ADD22RoundRect,0.250000X-0.625000X0.350000X-0.625000X-0.350000X0.625000X-0.350000X0.625000X0.350000X0*%
G04 #@! TD*
G04 #@! TA.AperFunction,ComponentPad*
%ADD23O,1.750000X1.200000*%
G04 #@! TD*
G04 #@! TA.AperFunction,ViaPad*
%ADD24C,0.800000*%
G04 #@! TD*
G04 #@! TA.AperFunction,Conductor*
%ADD25C,0.250000*%
G04 #@! TD*
G04 APERTURE END LIST*
D10*
X210378400Y-98542600D03*
X203378400Y-97492600D03*
X96078400Y-98542600D03*
X89078400Y-97492600D03*
X153228400Y-98542600D03*
X146228400Y-97492600D03*
X100840900Y-141405100D03*
X93840900Y-140355100D03*
X57978400Y-136642600D03*
X50978400Y-135592600D03*
X210378400Y-117592600D03*
X203378400Y-116542600D03*
X172278400Y-79492600D03*
X165278400Y-78442600D03*
X153228400Y-79492600D03*
X146228400Y-78442600D03*
X134178400Y-79492600D03*
X127178400Y-78442600D03*
X57978400Y-98542600D03*
X50978400Y-97492600D03*
X191328400Y-79492600D03*
X184328400Y-78442600D03*
X115128400Y-117592600D03*
X108128400Y-116542600D03*
D11*
X197153000Y-47612600D03*
X197153000Y-50152600D03*
X197153000Y-52692600D03*
X197153000Y-55232600D03*
X197153000Y-57772600D03*
D10*
X57978400Y-117592600D03*
X50978400Y-116542600D03*
X191328400Y-98542600D03*
X184328400Y-97492600D03*
X115128400Y-98542600D03*
X108128400Y-97492600D03*
X134178400Y-117592600D03*
X127178400Y-116542600D03*
X115128400Y-79492600D03*
X108128400Y-78442600D03*
X210378400Y-136642600D03*
X203378400Y-135592600D03*
X229428400Y-136642600D03*
X222428400Y-135592600D03*
X172278400Y-98542600D03*
X165278400Y-97492600D03*
X96078400Y-79492600D03*
X89078400Y-78442600D03*
X96078400Y-117592600D03*
X89078400Y-116542600D03*
X77028400Y-79492600D03*
X70028400Y-78442600D03*
X160372150Y-141405100D03*
X153372150Y-140355100D03*
X191328400Y-117592600D03*
X184328400Y-116542600D03*
X229428400Y-79492600D03*
X222428400Y-78442600D03*
X77028400Y-98542600D03*
X70028400Y-97492600D03*
X229428400Y-98542600D03*
X222428400Y-97492600D03*
D12*
X62878000Y-55192200D03*
X62878000Y-50192200D03*
D13*
X62878000Y-52692200D03*
D14*
X55378000Y-58292200D03*
X55378000Y-47092200D03*
D12*
X48378000Y-50192200D03*
X48378000Y-55192200D03*
D10*
X229428400Y-117592600D03*
X222428400Y-116542600D03*
X77028400Y-117592600D03*
X70028400Y-116542600D03*
X134178400Y-98542600D03*
X127178400Y-97492600D03*
X57978400Y-79492600D03*
X50978400Y-78442600D03*
X77028400Y-136642600D03*
X70028400Y-135592600D03*
X153228400Y-117592600D03*
X146228400Y-116542600D03*
X210378400Y-79492600D03*
X203378400Y-78442600D03*
X172278400Y-117592600D03*
X165278400Y-116542600D03*
X186565900Y-141405100D03*
X179565900Y-140355100D03*
X127034650Y-141405100D03*
X120034650Y-140355100D03*
D15*
X69926200Y-107544600D03*
X69926200Y-110844600D03*
X69926200Y-69444600D03*
X69926200Y-72744600D03*
X69926200Y-126594600D03*
X69926200Y-129894600D03*
X69926200Y-88494600D03*
X69926200Y-91794600D03*
X50876200Y-69444600D03*
X50876200Y-72744600D03*
X127076200Y-88494600D03*
X127076200Y-91794600D03*
X88976200Y-107544600D03*
X88976200Y-110844600D03*
X222326200Y-126594600D03*
X222326200Y-129894600D03*
X184226200Y-69444600D03*
X184226200Y-72744600D03*
X203276200Y-107544600D03*
X203276200Y-110844600D03*
X165176200Y-107544600D03*
X165176200Y-110844600D03*
X146126200Y-107544600D03*
X146126200Y-110844600D03*
X50876200Y-126594600D03*
X50876200Y-129894600D03*
X127076200Y-107544600D03*
X127076200Y-110844600D03*
X184226200Y-107544600D03*
X184226200Y-110844600D03*
X222326200Y-88494600D03*
X222326200Y-91794600D03*
D16*
X59740800Y-126593600D03*
X59740800Y-123293600D03*
D15*
X222326200Y-69444600D03*
X222326200Y-72744600D03*
X108026200Y-88494600D03*
X108026200Y-91794600D03*
X119932450Y-131357100D03*
X119932450Y-134657100D03*
X127076200Y-69444600D03*
X127076200Y-72744600D03*
X50876200Y-88494600D03*
X50876200Y-91794600D03*
X50876200Y-107544600D03*
X50876200Y-110844600D03*
X203276200Y-126594600D03*
X203276200Y-129894600D03*
X88976200Y-88494600D03*
X88976200Y-91794600D03*
X165176200Y-88494600D03*
X165176200Y-91794600D03*
X108026200Y-69444600D03*
X108026200Y-72744600D03*
X88976200Y-69444600D03*
X88976200Y-72744600D03*
X222326200Y-107544600D03*
X222326200Y-110844600D03*
X146126200Y-88494600D03*
X146126200Y-91794600D03*
D17*
X192027000Y-50099200D03*
X192027000Y-47889200D03*
X184727000Y-50099200D03*
X184727000Y-47889200D03*
D18*
X186127000Y-50749200D03*
X189127000Y-50749200D03*
X190627000Y-50749200D03*
D15*
X165176200Y-69444600D03*
X165176200Y-72744600D03*
D19*
X228803200Y-63957200D03*
X226263200Y-63957200D03*
D20*
X223723200Y-63957200D03*
X221183200Y-63957200D03*
D19*
X218643200Y-63957200D03*
X216103200Y-63957200D03*
X213563200Y-63957200D03*
X211023200Y-63957200D03*
X208483200Y-63957200D03*
X205943200Y-63957200D03*
X203403200Y-63957200D03*
X200863200Y-63957200D03*
D21*
X230073200Y-48717200D03*
D20*
X226263200Y-48717200D03*
D19*
X223723200Y-48717200D03*
X221183200Y-48717200D03*
X218643200Y-48717200D03*
X216103200Y-48717200D03*
X213563200Y-48717200D03*
X211023200Y-48717200D03*
X208483200Y-48717200D03*
X205943200Y-48717200D03*
X203403200Y-48717200D03*
X200863200Y-48717200D03*
X205943200Y-61417200D03*
X205943200Y-58877200D03*
X205943200Y-56337200D03*
D20*
X231343200Y-63957200D03*
D19*
X231343200Y-48717200D03*
D15*
X93738700Y-131357100D03*
X93738700Y-134657100D03*
X184226200Y-88494600D03*
X184226200Y-91794600D03*
X153269950Y-131357100D03*
X153269950Y-134657100D03*
X146126200Y-69444600D03*
X146126200Y-72744600D03*
X179463700Y-131357100D03*
X179463700Y-134657100D03*
X203276200Y-88494600D03*
X203276200Y-91794600D03*
X108026200Y-107544600D03*
X108026200Y-110844600D03*
D22*
X186080400Y-55124600D03*
D23*
X186080400Y-57124600D03*
D15*
X203276200Y-69444600D03*
X203276200Y-72744600D03*
D24*
X231724200Y-69342000D03*
X231724200Y-70561200D03*
X231724200Y-71729600D03*
X231749600Y-72872600D03*
D25*
X50155507Y-80838699D02*
G75*
G03*
X52079381Y-81635600I1923893J1923899D01*
G01*
X48920395Y-78476618D02*
G75*
G03*
X49717296Y-80400496I2720805J18D01*
G01*
X49479189Y-57226189D02*
G75*
G03*
X50038000Y-55877137I-1349089J1349089D01*
G01*
X50038005Y-53070181D02*
G75*
G03*
X49241103Y-51146303I-2720805J-19D01*
G01*
X111858418Y-81635604D02*
G75*
G03*
X113782295Y-80838702I-18J2720804D01*
G01*
X49479211Y-57226211D02*
G75*
G03*
X48920400Y-58575262I1349089J-1349089D01*
G01*
X231996394Y-73293913D02*
G75*
G03*
X231873000Y-72996000I-421294J13D01*
G01*
X89773092Y-127391500D02*
G75*
G03*
X87849218Y-126594600I-1923892J-1923900D01*
G01*
X231199500Y-119168093D02*
G75*
G03*
X231996400Y-117244218I-1923900J1923893D01*
G01*
X223049600Y-126594582D02*
G75*
G03*
X224284521Y-126083078I0J1746482D01*
G01*
X197386718Y-131357104D02*
G75*
G03*
X199310595Y-130560202I-18J2720804D01*
G01*
X221979096Y-90042999D02*
G75*
G03*
X220967300Y-90462100I4J-1430901D01*
G01*
X223205818Y-90043004D02*
G75*
G03*
X225129695Y-89246102I-18J2720804D01*
G01*
X230749500Y-83626293D02*
G75*
G03*
X231546400Y-81702418I-1923900J1923893D01*
G01*
X230377994Y-73316416D02*
G75*
G03*
X230962201Y-74726799I1994606J16D01*
G01*
X231546406Y-76137183D02*
G75*
G03*
X230962199Y-74726801I-1994606J-17D01*
G01*
X231381300Y-71729590D02*
G75*
G03*
X230795933Y-71972066I0J-827810D01*
G01*
X220967301Y-90462101D02*
G75*
G03*
X220548200Y-91473896I1011799J-1011799D01*
G01*
X230708208Y-72059808D02*
G75*
G03*
X230378000Y-72856973I797192J-797192D01*
G01*
X220548195Y-104639618D02*
G75*
G03*
X221345096Y-106563496I2720805J18D01*
G01*
X221018092Y-71259692D02*
G75*
G03*
X220319600Y-72946028I1686308J-1686308D01*
G01*
X220319595Y-85361018D02*
G75*
G03*
X221116496Y-87284896I2720805J18D01*
G01*
X222704428Y-70561212D02*
G75*
G03*
X221018100Y-71259700I-28J-2384788D01*
G01*
X231549050Y-69444621D02*
G75*
G03*
X231672900Y-69393300I-50J175221D01*
G01*
X232261199Y-65452199D02*
G75*
G03*
X232968800Y-63743902I-1708299J1708299D01*
G01*
X189126998Y-54092614D02*
G75*
G03*
X189923896Y-56016492I2720802J14D01*
G01*
X230552902Y-66159801D02*
G75*
G03*
X232261200Y-65452200I-2J2415901D01*
G01*
X232968805Y-54009781D02*
G75*
G03*
X232171903Y-52085903I-2720805J-19D01*
G01*
X199270309Y-65362901D02*
G75*
G03*
X201194185Y-66159800I1923891J1923901D01*
G01*
X225923618Y-65709804D02*
G75*
G03*
X227847495Y-64912902I-18J2720804D01*
G01*
X197152995Y-61482218D02*
G75*
G03*
X197949896Y-63406096I2720805J18D01*
G01*
X199456707Y-64912899D02*
G75*
G03*
X201380581Y-65709800I1923893J1923899D01*
G01*
X65862195Y-63033418D02*
G75*
G03*
X66659096Y-64957296I2720805J18D01*
G01*
X65862205Y-55711581D02*
G75*
G03*
X65065303Y-53787703I-2720805J-19D01*
G01*
X219789100Y-62642188D02*
G75*
G03*
X219924131Y-62586266I0J190988D01*
G01*
X219924139Y-62698125D02*
G75*
G03*
X219789100Y-62642200I-135039J-135075D01*
G01*
X219924133Y-62586268D02*
G75*
G03*
X219924132Y-62698132I55967J-55932D01*
G01*
X225466300Y-57044093D02*
G75*
G03*
X226263200Y-55120218I-1923900J1923893D01*
G01*
X64355805Y-53078213D02*
G75*
G03*
X63423900Y-52692200I-931905J-931887D01*
G01*
X230685713Y-63299687D02*
G75*
G03*
X229098354Y-62642200I-1587313J-1587313D01*
G01*
X68265707Y-66563899D02*
G75*
G03*
X70189581Y-67360800I1923893J1923899D01*
G01*
X185283500Y-61782293D02*
G75*
G03*
X186080400Y-59858418I-1923900J1923893D01*
G01*
X203765707Y-61845299D02*
G75*
G03*
X205689581Y-62642200I1923893J1923899D01*
G01*
X178578018Y-67360804D02*
G75*
G03*
X180501895Y-66563902I-18J2720804D01*
G01*
X219630900Y-62642200D02*
X219789100Y-62642200D01*
X219789100Y-62642200D02*
X219630900Y-62642200D01*
X186103686Y-55101286D02*
G75*
G03*
X186127000Y-55045048I-56286J56286D01*
G01*
X216080818Y-52692604D02*
G75*
G03*
X218004695Y-51895702I-18J2720804D01*
G01*
X53942107Y-122496699D02*
G75*
G03*
X55865981Y-123293600I1923893J1923899D01*
G01*
X48377995Y-115805618D02*
G75*
G03*
X49174896Y-117729496I2720805J18D01*
G01*
X197949896Y-63406096D02*
X199456703Y-64912903D01*
X50155503Y-80838703D02*
X49717296Y-80400496D01*
X50978400Y-72846800D02*
X50978400Y-78442600D01*
X70028400Y-72846800D02*
X70028400Y-78442600D01*
X89078400Y-72846800D02*
X89078400Y-78442600D01*
X108128400Y-72846800D02*
X108128400Y-78442600D01*
X127178400Y-72846800D02*
X127178400Y-78442600D01*
X146228400Y-72846800D02*
X146228400Y-78442600D01*
X165278400Y-72846800D02*
X165278400Y-78442600D01*
X184328400Y-72846800D02*
X184328400Y-78442600D01*
X203378400Y-72846800D02*
X203378400Y-78442600D01*
X222428400Y-72846800D02*
X222428400Y-78442600D01*
X50978400Y-91896800D02*
X50978400Y-97492600D01*
X70028400Y-91896800D02*
X70028400Y-97492600D01*
X89078400Y-91896800D02*
X89078400Y-97492600D01*
X108128400Y-91896800D02*
X108128400Y-97492600D01*
X127178400Y-91896800D02*
X127178400Y-97492600D01*
X146228400Y-91896800D02*
X146228400Y-97492600D01*
X165278400Y-91896800D02*
X165278400Y-97492600D01*
X184328400Y-91896800D02*
X184328400Y-97492600D01*
X203378400Y-91896800D02*
X203378400Y-97492600D01*
X222428400Y-91896800D02*
X222428400Y-97492600D01*
X50978400Y-110946800D02*
X50978400Y-116542600D01*
X70028400Y-110946800D02*
X70028400Y-116542600D01*
X89078400Y-110946800D02*
X89078400Y-116542600D01*
X108128400Y-110946800D02*
X108128400Y-116542600D01*
X127178400Y-110946800D02*
X127178400Y-116542600D01*
X146228400Y-110946800D02*
X146228400Y-116542600D01*
X165278400Y-110946800D02*
X165278400Y-116542600D01*
X184328400Y-110946800D02*
X184328400Y-116542600D01*
X203378400Y-110946800D02*
X203378400Y-116542600D01*
X222428400Y-110946800D02*
X222428400Y-116542600D01*
X50978400Y-129996800D02*
X50978400Y-135592600D01*
X70028400Y-129996800D02*
X70028400Y-135592600D01*
X203378400Y-129996800D02*
X203378400Y-135592600D01*
X222428400Y-129996800D02*
X222428400Y-135592600D01*
X93840900Y-134759300D02*
X93840900Y-140355100D01*
X120034650Y-134759300D02*
X120034650Y-140355100D01*
X55865981Y-123293600D02*
X59740800Y-123293600D01*
X48378000Y-115805618D02*
X48378000Y-55192200D01*
X53942103Y-122496703D02*
X49174896Y-117729496D01*
X218004696Y-51895703D02*
X221183200Y-48717200D01*
X216080818Y-52692600D02*
X197153000Y-52692600D01*
X186127000Y-55045048D02*
X186127000Y-50749200D01*
X186103700Y-55101300D02*
X186080400Y-55124600D01*
X65862200Y-63033418D02*
X65862200Y-55711581D01*
X226263200Y-55120218D02*
X226263200Y-48717200D01*
X186080400Y-59858418D02*
X186080400Y-57124600D01*
X229098354Y-62642200D02*
X219789100Y-62642200D01*
X221183200Y-63957200D02*
X223723200Y-63957200D01*
X70189581Y-67360800D02*
X178578018Y-67360800D01*
X219924132Y-62698132D02*
X221183200Y-63957200D01*
X66659096Y-64957296D02*
X68265703Y-66563903D01*
X219924132Y-62586267D02*
X225466303Y-57044096D01*
X63423900Y-52692200D02*
X62878000Y-52692200D01*
X203765703Y-61845303D02*
X197153000Y-55232600D01*
X230685700Y-63299700D02*
X231343200Y-63957200D01*
X65065303Y-53787703D02*
X64355809Y-53078209D01*
X219630900Y-62642200D02*
X205689581Y-62642200D01*
X185283503Y-61782296D02*
X180501896Y-66563903D01*
X225923618Y-65709800D02*
X201380581Y-65709800D01*
X197153000Y-61482218D02*
X197153000Y-57772600D01*
X227847496Y-64912903D02*
X228803200Y-63957200D01*
X153372150Y-134759300D02*
X153372150Y-140355100D01*
X179565900Y-134759300D02*
X179565900Y-140355100D01*
X189923896Y-56016492D02*
X199270307Y-65362903D01*
X189127000Y-54092614D02*
X189127000Y-50749200D01*
X232171903Y-52085903D02*
X228803200Y-48717200D01*
X230552902Y-66159800D02*
X201194185Y-66159800D01*
X232968800Y-63743902D02*
X232968800Y-54009781D01*
X146126200Y-69444600D02*
X127076200Y-69444600D01*
X108026200Y-69444600D02*
X88976200Y-69444600D01*
X222326200Y-69444600D02*
X203276200Y-69444600D01*
X203276200Y-69444600D02*
X184226200Y-69444600D01*
X184226200Y-69444600D02*
X165176200Y-69444600D01*
X69926200Y-69444600D02*
X50876200Y-69444600D01*
X231724200Y-69342000D02*
X231672900Y-69393300D01*
X146126200Y-69444600D02*
X165176200Y-69444600D01*
X222326200Y-69444600D02*
X231549050Y-69444600D01*
X88976200Y-69444600D02*
X69926200Y-69444600D01*
X108026200Y-69444600D02*
X127076200Y-69444600D01*
X222326200Y-88494600D02*
X203276200Y-88494600D01*
X146126200Y-88494600D02*
X165176200Y-88494600D01*
X127076200Y-88494600D02*
X108026200Y-88494600D01*
X220319600Y-72946028D02*
X220319600Y-85361018D01*
X88976200Y-88494600D02*
X69926200Y-88494600D01*
X184226200Y-88494600D02*
X165176200Y-88494600D01*
X108026200Y-88494600D02*
X88976200Y-88494600D01*
X184226200Y-88494600D02*
X203276200Y-88494600D01*
X69926200Y-88494600D02*
X50876200Y-88494600D01*
X231724200Y-70561200D02*
X222704428Y-70561200D01*
X221116496Y-87284896D02*
X222326200Y-88494600D01*
X146126200Y-88494600D02*
X127076200Y-88494600D01*
X203276200Y-107544600D02*
X184226200Y-107544600D01*
X222326200Y-107544600D02*
X221345096Y-106563496D01*
X69926200Y-107544600D02*
X50876200Y-107544600D01*
X225129696Y-89246103D02*
X230749503Y-83626296D01*
X221979096Y-90043000D02*
X223205818Y-90043000D01*
X146126200Y-107544600D02*
X127076200Y-107544600D01*
X220548200Y-91473896D02*
X220548200Y-104639618D01*
X231381300Y-71729600D02*
X231724200Y-71729600D01*
X222326200Y-107544600D02*
X203276200Y-107544600D01*
X230795933Y-71972066D02*
X230708200Y-72059800D01*
X165176200Y-107544600D02*
X146126200Y-107544600D01*
X108026200Y-107544600D02*
X88976200Y-107544600D01*
X88976200Y-107544600D02*
X69926200Y-107544600D01*
X231546400Y-81702418D02*
X231546400Y-76137183D01*
X230378000Y-73316416D02*
X230378000Y-72856973D01*
X127076200Y-107544600D02*
X108026200Y-107544600D01*
X184226200Y-107544600D02*
X165176200Y-107544600D01*
X197386718Y-131357100D02*
X179463700Y-131357100D01*
X231996400Y-73293913D02*
X231996400Y-117244218D01*
X69926200Y-126594600D02*
X59741800Y-126594600D01*
X222326200Y-126594600D02*
X203276200Y-126594600D01*
X222326200Y-126594600D02*
X223049600Y-126594600D01*
X231873000Y-72996000D02*
X231749600Y-72872600D01*
X153269950Y-131357100D02*
X179463700Y-131357100D01*
X50876200Y-126594600D02*
X59739800Y-126594600D01*
X153269950Y-131357100D02*
X119932450Y-131357100D01*
X203276200Y-126594600D02*
X199310596Y-130560203D01*
X93738700Y-131357100D02*
X119932450Y-131357100D01*
X231199503Y-119168096D02*
X224284521Y-126083078D01*
X89773096Y-127391496D02*
X93738700Y-131357100D01*
X87849218Y-126594600D02*
X69926200Y-126594600D01*
X50038000Y-55877137D02*
X50038000Y-53070181D01*
X52079381Y-81635600D02*
X111858418Y-81635600D01*
X49241103Y-51146303D02*
X48249000Y-50154200D01*
X113782296Y-80838703D02*
X115128400Y-79492600D01*
X48920400Y-78476618D02*
X48920400Y-58575262D01*
G04 #@! TA.AperFunction,Conductor*
G36*
X232137737Y-72872570D02*
G01*
X232146002Y-72876018D01*
X232149408Y-72884299D01*
X232149406Y-72884461D01*
X232146669Y-73052202D01*
X232146661Y-73052427D01*
X232139676Y-73179700D01*
X232139668Y-73179822D01*
X232131330Y-73289722D01*
X232131322Y-73289844D01*
X232124333Y-73417184D01*
X232124330Y-73417264D01*
X232121588Y-73585432D01*
X232118027Y-73593648D01*
X232109890Y-73596941D01*
X231881428Y-73596941D01*
X231873155Y-73593514D01*
X231869866Y-73587030D01*
X231849644Y-73456368D01*
X231849643Y-73456366D01*
X231789945Y-73373155D01*
X231767623Y-73358886D01*
X231700666Y-73316084D01*
X231700631Y-73316063D01*
X231590972Y-73254382D01*
X231589410Y-73253330D01*
X231476968Y-73163592D01*
X231472639Y-73155753D01*
X231475121Y-73147149D01*
X231475966Y-73146201D01*
X231746159Y-72875052D01*
X231754424Y-72871612D01*
X232137737Y-72872570D01*
G37*
G04 #@! TD.AperFunction*
G04 #@! TA.AperFunction,Conductor*
G36*
X231575631Y-71370847D02*
G01*
X231575675Y-71370952D01*
X231723155Y-71724547D01*
X231723177Y-71733502D01*
X231723160Y-71733543D01*
X231576047Y-72087318D01*
X231569706Y-72093642D01*
X231560752Y-72093629D01*
X231559789Y-72093177D01*
X231434694Y-72027251D01*
X231434152Y-72026927D01*
X231398323Y-72002782D01*
X231329554Y-71956439D01*
X231329549Y-71956436D01*
X231329547Y-71956435D01*
X231296099Y-71938761D01*
X231237418Y-71907754D01*
X231138912Y-71901669D01*
X231138911Y-71901669D01*
X231024006Y-71954619D01*
X231015058Y-71954969D01*
X231009382Y-71950493D01*
X230882500Y-71760611D01*
X230880754Y-71751830D01*
X230885673Y-71744420D01*
X231040268Y-71639866D01*
X231040272Y-71639872D01*
X231040328Y-71639825D01*
X231157724Y-71561660D01*
X231157949Y-71561519D01*
X231262615Y-71499863D01*
X231262993Y-71499660D01*
X231389113Y-71438072D01*
X231389301Y-71437986D01*
X231560269Y-71364701D01*
X231569222Y-71364593D01*
X231575631Y-71370847D01*
G37*
G04 #@! TD.AperFunction*
G04 #@! TA.AperFunction,Conductor*
G36*
X63844114Y-52009662D02*
G01*
X63845002Y-52011105D01*
X64028128Y-52363576D01*
X64028141Y-52363600D01*
X64217488Y-52679022D01*
X64217496Y-52679034D01*
X64217500Y-52679040D01*
X64325027Y-52830322D01*
X64406869Y-52945468D01*
X64596237Y-53162863D01*
X64776332Y-53322984D01*
X64780238Y-53331042D01*
X64777302Y-53339502D01*
X64776831Y-53340001D01*
X64613019Y-53503813D01*
X64604746Y-53507240D01*
X64602969Y-53507104D01*
X64362663Y-53470172D01*
X64116498Y-53469674D01*
X63870332Y-53506513D01*
X63870330Y-53506513D01*
X63624165Y-53580688D01*
X63388253Y-53687555D01*
X63379303Y-53687847D01*
X63372962Y-53682132D01*
X63322204Y-53580688D01*
X62881750Y-52700400D01*
X62881112Y-52691468D01*
X62885374Y-52685673D01*
X63827784Y-52007004D01*
X63836499Y-52004951D01*
X63844114Y-52009662D01*
G37*
G04 #@! TD.AperFunction*
G04 #@! TA.AperFunction,Conductor*
G36*
X229833139Y-62635528D02*
G01*
X230186719Y-62807890D01*
X230186733Y-62807896D01*
X230553044Y-62939966D01*
X230553048Y-62939967D01*
X230553051Y-62939968D01*
X230919381Y-63025545D01*
X231285711Y-63064622D01*
X231635323Y-63057538D01*
X231643663Y-63060797D01*
X231647257Y-63068999D01*
X231646630Y-63073022D01*
X231345736Y-63952862D01*
X231339816Y-63959581D01*
X231339800Y-63959589D01*
X230455080Y-64391732D01*
X230446142Y-64392284D01*
X230439432Y-64386354D01*
X230438888Y-64385045D01*
X230305698Y-63999187D01*
X230168195Y-63647339D01*
X230030694Y-63341991D01*
X229893192Y-63083143D01*
X229758514Y-62875157D01*
X229756895Y-62866352D01*
X229757027Y-62865803D01*
X229816719Y-62643018D01*
X229822169Y-62635916D01*
X229831047Y-62634747D01*
X229833139Y-62635528D01*
G37*
G04 #@! TD.AperFunction*
G04 #@! TA.AperFunction,Conductor*
G36*
X51101212Y-76215017D02*
G01*
X51104565Y-76221985D01*
X51150328Y-76630083D01*
X51277486Y-76929244D01*
X51277486Y-76929246D01*
X51464429Y-77161908D01*
X51464441Y-77161921D01*
X51690647Y-77380838D01*
X51690821Y-77381013D01*
X51927392Y-77630099D01*
X51930604Y-77638457D01*
X51926965Y-77646640D01*
X51926434Y-77647114D01*
X50985926Y-78437277D01*
X50977387Y-78439975D01*
X50970874Y-78437277D01*
X50030365Y-77647114D01*
X50026235Y-77639169D01*
X50028933Y-77630630D01*
X50029407Y-77630099D01*
X50266005Y-77380984D01*
X50266125Y-77380863D01*
X50492361Y-77161917D01*
X50679312Y-76929247D01*
X50806471Y-76630083D01*
X50852234Y-76221985D01*
X50856561Y-76214146D01*
X50863861Y-76211590D01*
X51092939Y-76211590D01*
X51101212Y-76215017D01*
G37*
G04 #@! TD.AperFunction*
G04 #@! TA.AperFunction,Conductor*
G36*
X50884823Y-72750655D02*
G01*
X51048639Y-72884674D01*
X51366236Y-73144504D01*
X51370470Y-73152394D01*
X51367884Y-73160967D01*
X51367786Y-73161085D01*
X51321013Y-73216758D01*
X51321008Y-73216765D01*
X51266606Y-73298402D01*
X51212208Y-73396911D01*
X51157804Y-73512313D01*
X51106382Y-73637350D01*
X51100066Y-73643698D01*
X51095561Y-73644600D01*
X50860029Y-73644600D01*
X50851756Y-73641173D01*
X50849993Y-73638915D01*
X50777492Y-73517944D01*
X50777490Y-73517940D01*
X50701581Y-73409067D01*
X50625671Y-73317978D01*
X50605399Y-73298402D01*
X50549768Y-73244681D01*
X50549767Y-73244680D01*
X50484323Y-73196817D01*
X50479668Y-73189167D01*
X50481786Y-73180466D01*
X50482534Y-73179545D01*
X50868732Y-72751869D01*
X50876819Y-72748026D01*
X50884823Y-72750655D01*
G37*
G04 #@! TD.AperFunction*
G04 #@! TA.AperFunction,Conductor*
G36*
X70151212Y-76215017D02*
G01*
X70154565Y-76221985D01*
X70200328Y-76630083D01*
X70327486Y-76929244D01*
X70327486Y-76929246D01*
X70514429Y-77161908D01*
X70514441Y-77161921D01*
X70740647Y-77380838D01*
X70740821Y-77381013D01*
X70977392Y-77630099D01*
X70980604Y-77638457D01*
X70976965Y-77646640D01*
X70976434Y-77647114D01*
X70035926Y-78437277D01*
X70027387Y-78439975D01*
X70020874Y-78437277D01*
X69080365Y-77647114D01*
X69076235Y-77639169D01*
X69078933Y-77630630D01*
X69079407Y-77630099D01*
X69316005Y-77380984D01*
X69316125Y-77380863D01*
X69542361Y-77161917D01*
X69729312Y-76929247D01*
X69856471Y-76630083D01*
X69902234Y-76221985D01*
X69906561Y-76214146D01*
X69913861Y-76211590D01*
X70142939Y-76211590D01*
X70151212Y-76215017D01*
G37*
G04 #@! TD.AperFunction*
G04 #@! TA.AperFunction,Conductor*
G36*
X69934823Y-72750655D02*
G01*
X70098639Y-72884674D01*
X70416236Y-73144504D01*
X70420470Y-73152394D01*
X70417884Y-73160967D01*
X70417786Y-73161085D01*
X70371013Y-73216758D01*
X70371008Y-73216765D01*
X70316606Y-73298402D01*
X70262208Y-73396911D01*
X70207804Y-73512313D01*
X70156382Y-73637350D01*
X70150066Y-73643698D01*
X70145561Y-73644600D01*
X69910029Y-73644600D01*
X69901756Y-73641173D01*
X69899993Y-73638915D01*
X69827492Y-73517944D01*
X69827490Y-73517940D01*
X69751581Y-73409067D01*
X69675671Y-73317978D01*
X69655399Y-73298402D01*
X69599768Y-73244681D01*
X69599767Y-73244680D01*
X69534323Y-73196817D01*
X69529668Y-73189167D01*
X69531786Y-73180466D01*
X69532534Y-73179545D01*
X69918732Y-72751869D01*
X69926819Y-72748026D01*
X69934823Y-72750655D01*
G37*
G04 #@! TD.AperFunction*
G04 #@! TA.AperFunction,Conductor*
G36*
X89201212Y-76215017D02*
G01*
X89204565Y-76221985D01*
X89250328Y-76630083D01*
X89377486Y-76929244D01*
X89377486Y-76929246D01*
X89564429Y-77161908D01*
X89564441Y-77161921D01*
X89790647Y-77380838D01*
X89790821Y-77381013D01*
X90027392Y-77630099D01*
X90030604Y-77638457D01*
X90026965Y-77646640D01*
X90026434Y-77647114D01*
X89085926Y-78437277D01*
X89077387Y-78439975D01*
X89070874Y-78437277D01*
X88130365Y-77647114D01*
X88126235Y-77639169D01*
X88128933Y-77630630D01*
X88129407Y-77630099D01*
X88366005Y-77380984D01*
X88366125Y-77380863D01*
X88592361Y-77161917D01*
X88779312Y-76929247D01*
X88906471Y-76630083D01*
X88952234Y-76221985D01*
X88956561Y-76214146D01*
X88963861Y-76211590D01*
X89192939Y-76211590D01*
X89201212Y-76215017D01*
G37*
G04 #@! TD.AperFunction*
G04 #@! TA.AperFunction,Conductor*
G36*
X88984823Y-72750655D02*
G01*
X89148639Y-72884674D01*
X89466236Y-73144504D01*
X89470470Y-73152394D01*
X89467884Y-73160967D01*
X89467786Y-73161085D01*
X89421013Y-73216758D01*
X89421008Y-73216765D01*
X89366606Y-73298402D01*
X89312208Y-73396911D01*
X89257804Y-73512313D01*
X89206382Y-73637350D01*
X89200066Y-73643698D01*
X89195561Y-73644600D01*
X88960029Y-73644600D01*
X88951756Y-73641173D01*
X88949993Y-73638915D01*
X88877492Y-73517944D01*
X88877490Y-73517940D01*
X88801581Y-73409067D01*
X88725671Y-73317978D01*
X88705399Y-73298402D01*
X88649768Y-73244681D01*
X88649767Y-73244680D01*
X88584323Y-73196817D01*
X88579668Y-73189167D01*
X88581786Y-73180466D01*
X88582534Y-73179545D01*
X88968732Y-72751869D01*
X88976819Y-72748026D01*
X88984823Y-72750655D01*
G37*
G04 #@! TD.AperFunction*
G04 #@! TA.AperFunction,Conductor*
G36*
X108251212Y-76215017D02*
G01*
X108254565Y-76221985D01*
X108300328Y-76630083D01*
X108427486Y-76929244D01*
X108427486Y-76929246D01*
X108614429Y-77161908D01*
X108614441Y-77161921D01*
X108840647Y-77380838D01*
X108840821Y-77381013D01*
X109077392Y-77630099D01*
X109080604Y-77638457D01*
X109076965Y-77646640D01*
X109076434Y-77647114D01*
X108135926Y-78437277D01*
X108127387Y-78439975D01*
X108120874Y-78437277D01*
X107180365Y-77647114D01*
X107176235Y-77639169D01*
X107178933Y-77630630D01*
X107179407Y-77630099D01*
X107416005Y-77380984D01*
X107416125Y-77380863D01*
X107642361Y-77161917D01*
X107829312Y-76929247D01*
X107956471Y-76630083D01*
X108002234Y-76221985D01*
X108006561Y-76214146D01*
X108013861Y-76211590D01*
X108242939Y-76211590D01*
X108251212Y-76215017D01*
G37*
G04 #@! TD.AperFunction*
G04 #@! TA.AperFunction,Conductor*
G36*
X108034823Y-72750655D02*
G01*
X108198639Y-72884674D01*
X108516236Y-73144504D01*
X108520470Y-73152394D01*
X108517884Y-73160967D01*
X108517786Y-73161085D01*
X108471013Y-73216758D01*
X108471008Y-73216765D01*
X108416606Y-73298402D01*
X108362208Y-73396911D01*
X108307804Y-73512313D01*
X108256382Y-73637350D01*
X108250066Y-73643698D01*
X108245561Y-73644600D01*
X108010029Y-73644600D01*
X108001756Y-73641173D01*
X107999993Y-73638915D01*
X107927492Y-73517944D01*
X107927490Y-73517940D01*
X107851581Y-73409067D01*
X107775671Y-73317978D01*
X107755399Y-73298402D01*
X107699768Y-73244681D01*
X107699767Y-73244680D01*
X107634323Y-73196817D01*
X107629668Y-73189167D01*
X107631786Y-73180466D01*
X107632534Y-73179545D01*
X108018732Y-72751869D01*
X108026819Y-72748026D01*
X108034823Y-72750655D01*
G37*
G04 #@! TD.AperFunction*
G04 #@! TA.AperFunction,Conductor*
G36*
X127301212Y-76215017D02*
G01*
X127304565Y-76221985D01*
X127350328Y-76630083D01*
X127477486Y-76929244D01*
X127477486Y-76929246D01*
X127664429Y-77161908D01*
X127664441Y-77161921D01*
X127890647Y-77380838D01*
X127890821Y-77381013D01*
X128127392Y-77630099D01*
X128130604Y-77638457D01*
X128126965Y-77646640D01*
X128126434Y-77647114D01*
X127185926Y-78437277D01*
X127177387Y-78439975D01*
X127170874Y-78437277D01*
X126230365Y-77647114D01*
X126226235Y-77639169D01*
X126228933Y-77630630D01*
X126229407Y-77630099D01*
X126466005Y-77380984D01*
X126466125Y-77380863D01*
X126692361Y-77161917D01*
X126879312Y-76929247D01*
X127006471Y-76630083D01*
X127052234Y-76221985D01*
X127056561Y-76214146D01*
X127063861Y-76211590D01*
X127292939Y-76211590D01*
X127301212Y-76215017D01*
G37*
G04 #@! TD.AperFunction*
G04 #@! TA.AperFunction,Conductor*
G36*
X127084823Y-72750655D02*
G01*
X127248639Y-72884674D01*
X127566236Y-73144504D01*
X127570470Y-73152394D01*
X127567884Y-73160967D01*
X127567786Y-73161085D01*
X127521013Y-73216758D01*
X127521008Y-73216765D01*
X127466606Y-73298402D01*
X127412208Y-73396911D01*
X127357804Y-73512313D01*
X127306382Y-73637350D01*
X127300066Y-73643698D01*
X127295561Y-73644600D01*
X127060029Y-73644600D01*
X127051756Y-73641173D01*
X127049993Y-73638915D01*
X126977492Y-73517944D01*
X126977490Y-73517940D01*
X126901581Y-73409067D01*
X126825671Y-73317978D01*
X126805399Y-73298402D01*
X126749768Y-73244681D01*
X126749767Y-73244680D01*
X126684323Y-73196817D01*
X126679668Y-73189167D01*
X126681786Y-73180466D01*
X126682534Y-73179545D01*
X127068732Y-72751869D01*
X127076819Y-72748026D01*
X127084823Y-72750655D01*
G37*
G04 #@! TD.AperFunction*
G04 #@! TA.AperFunction,Conductor*
G36*
X146351212Y-76215017D02*
G01*
X146354565Y-76221985D01*
X146400328Y-76630083D01*
X146527486Y-76929244D01*
X146527486Y-76929246D01*
X146714429Y-77161908D01*
X146714441Y-77161921D01*
X146940647Y-77380838D01*
X146940821Y-77381013D01*
X147177392Y-77630099D01*
X147180604Y-77638457D01*
X147176965Y-77646640D01*
X147176434Y-77647114D01*
X146235926Y-78437277D01*
X146227387Y-78439975D01*
X146220874Y-78437277D01*
X145280365Y-77647114D01*
X145276235Y-77639169D01*
X145278933Y-77630630D01*
X145279407Y-77630099D01*
X145516005Y-77380984D01*
X145516125Y-77380863D01*
X145742361Y-77161917D01*
X145929312Y-76929247D01*
X146056471Y-76630083D01*
X146102234Y-76221985D01*
X146106561Y-76214146D01*
X146113861Y-76211590D01*
X146342939Y-76211590D01*
X146351212Y-76215017D01*
G37*
G04 #@! TD.AperFunction*
G04 #@! TA.AperFunction,Conductor*
G36*
X146134823Y-72750655D02*
G01*
X146298639Y-72884674D01*
X146616236Y-73144504D01*
X146620470Y-73152394D01*
X146617884Y-73160967D01*
X146617786Y-73161085D01*
X146571013Y-73216758D01*
X146571008Y-73216765D01*
X146516606Y-73298402D01*
X146462208Y-73396911D01*
X146407804Y-73512313D01*
X146356382Y-73637350D01*
X146350066Y-73643698D01*
X146345561Y-73644600D01*
X146110029Y-73644600D01*
X146101756Y-73641173D01*
X146099993Y-73638915D01*
X146027492Y-73517944D01*
X146027490Y-73517940D01*
X145951581Y-73409067D01*
X145875671Y-73317978D01*
X145855399Y-73298402D01*
X145799768Y-73244681D01*
X145799767Y-73244680D01*
X145734323Y-73196817D01*
X145729668Y-73189167D01*
X145731786Y-73180466D01*
X145732534Y-73179545D01*
X146118732Y-72751869D01*
X146126819Y-72748026D01*
X146134823Y-72750655D01*
G37*
G04 #@! TD.AperFunction*
G04 #@! TA.AperFunction,Conductor*
G36*
X165401212Y-76215017D02*
G01*
X165404565Y-76221985D01*
X165450328Y-76630083D01*
X165577486Y-76929244D01*
X165577486Y-76929246D01*
X165764429Y-77161908D01*
X165764441Y-77161921D01*
X165990647Y-77380838D01*
X165990821Y-77381013D01*
X166227392Y-77630099D01*
X166230604Y-77638457D01*
X166226965Y-77646640D01*
X166226434Y-77647114D01*
X165285926Y-78437277D01*
X165277387Y-78439975D01*
X165270874Y-78437277D01*
X164330365Y-77647114D01*
X164326235Y-77639169D01*
X164328933Y-77630630D01*
X164329407Y-77630099D01*
X164566005Y-77380984D01*
X164566125Y-77380863D01*
X164792361Y-77161917D01*
X164979312Y-76929247D01*
X165106471Y-76630083D01*
X165152234Y-76221985D01*
X165156561Y-76214146D01*
X165163861Y-76211590D01*
X165392939Y-76211590D01*
X165401212Y-76215017D01*
G37*
G04 #@! TD.AperFunction*
G04 #@! TA.AperFunction,Conductor*
G36*
X165184823Y-72750655D02*
G01*
X165348639Y-72884674D01*
X165666236Y-73144504D01*
X165670470Y-73152394D01*
X165667884Y-73160967D01*
X165667786Y-73161085D01*
X165621013Y-73216758D01*
X165621008Y-73216765D01*
X165566606Y-73298402D01*
X165512208Y-73396911D01*
X165457804Y-73512313D01*
X165406382Y-73637350D01*
X165400066Y-73643698D01*
X165395561Y-73644600D01*
X165160029Y-73644600D01*
X165151756Y-73641173D01*
X165149993Y-73638915D01*
X165077492Y-73517944D01*
X165077490Y-73517940D01*
X165001581Y-73409067D01*
X164925671Y-73317978D01*
X164905399Y-73298402D01*
X164849768Y-73244681D01*
X164849767Y-73244680D01*
X164784323Y-73196817D01*
X164779668Y-73189167D01*
X164781786Y-73180466D01*
X164782534Y-73179545D01*
X165168732Y-72751869D01*
X165176819Y-72748026D01*
X165184823Y-72750655D01*
G37*
G04 #@! TD.AperFunction*
G04 #@! TA.AperFunction,Conductor*
G36*
X184451212Y-76215017D02*
G01*
X184454565Y-76221985D01*
X184500328Y-76630083D01*
X184627486Y-76929244D01*
X184627486Y-76929246D01*
X184814429Y-77161908D01*
X184814441Y-77161921D01*
X185040647Y-77380838D01*
X185040821Y-77381013D01*
X185277392Y-77630099D01*
X185280604Y-77638457D01*
X185276965Y-77646640D01*
X185276434Y-77647114D01*
X184335926Y-78437277D01*
X184327387Y-78439975D01*
X184320874Y-78437277D01*
X183380365Y-77647114D01*
X183376235Y-77639169D01*
X183378933Y-77630630D01*
X183379407Y-77630099D01*
X183616005Y-77380984D01*
X183616125Y-77380863D01*
X183842361Y-77161917D01*
X184029312Y-76929247D01*
X184156471Y-76630083D01*
X184202234Y-76221985D01*
X184206561Y-76214146D01*
X184213861Y-76211590D01*
X184442939Y-76211590D01*
X184451212Y-76215017D01*
G37*
G04 #@! TD.AperFunction*
G04 #@! TA.AperFunction,Conductor*
G36*
X184234823Y-72750655D02*
G01*
X184398639Y-72884674D01*
X184716236Y-73144504D01*
X184720470Y-73152394D01*
X184717884Y-73160967D01*
X184717786Y-73161085D01*
X184671013Y-73216758D01*
X184671008Y-73216765D01*
X184616606Y-73298402D01*
X184562208Y-73396911D01*
X184507804Y-73512313D01*
X184456382Y-73637350D01*
X184450066Y-73643698D01*
X184445561Y-73644600D01*
X184210029Y-73644600D01*
X184201756Y-73641173D01*
X184199993Y-73638915D01*
X184127492Y-73517944D01*
X184127490Y-73517940D01*
X184051581Y-73409067D01*
X183975671Y-73317978D01*
X183955399Y-73298402D01*
X183899768Y-73244681D01*
X183899767Y-73244680D01*
X183834323Y-73196817D01*
X183829668Y-73189167D01*
X183831786Y-73180466D01*
X183832534Y-73179545D01*
X184218732Y-72751869D01*
X184226819Y-72748026D01*
X184234823Y-72750655D01*
G37*
G04 #@! TD.AperFunction*
G04 #@! TA.AperFunction,Conductor*
G36*
X203501212Y-76215017D02*
G01*
X203504565Y-76221985D01*
X203550328Y-76630083D01*
X203677486Y-76929244D01*
X203677486Y-76929246D01*
X203864429Y-77161908D01*
X203864441Y-77161921D01*
X204090647Y-77380838D01*
X204090821Y-77381013D01*
X204327392Y-77630099D01*
X204330604Y-77638457D01*
X204326965Y-77646640D01*
X204326434Y-77647114D01*
X203385926Y-78437277D01*
X203377387Y-78439975D01*
X203370874Y-78437277D01*
X202430365Y-77647114D01*
X202426235Y-77639169D01*
X202428933Y-77630630D01*
X202429407Y-77630099D01*
X202666005Y-77380984D01*
X202666125Y-77380863D01*
X202892361Y-77161917D01*
X203079312Y-76929247D01*
X203206471Y-76630083D01*
X203252234Y-76221985D01*
X203256561Y-76214146D01*
X203263861Y-76211590D01*
X203492939Y-76211590D01*
X203501212Y-76215017D01*
G37*
G04 #@! TD.AperFunction*
G04 #@! TA.AperFunction,Conductor*
G36*
X203284823Y-72750655D02*
G01*
X203448639Y-72884674D01*
X203766236Y-73144504D01*
X203770470Y-73152394D01*
X203767884Y-73160967D01*
X203767786Y-73161085D01*
X203721013Y-73216758D01*
X203721008Y-73216765D01*
X203666606Y-73298402D01*
X203612208Y-73396911D01*
X203557804Y-73512313D01*
X203506382Y-73637350D01*
X203500066Y-73643698D01*
X203495561Y-73644600D01*
X203260029Y-73644600D01*
X203251756Y-73641173D01*
X203249993Y-73638915D01*
X203177492Y-73517944D01*
X203177490Y-73517940D01*
X203101581Y-73409067D01*
X203025671Y-73317978D01*
X203005399Y-73298402D01*
X202949768Y-73244681D01*
X202949767Y-73244680D01*
X202884323Y-73196817D01*
X202879668Y-73189167D01*
X202881786Y-73180466D01*
X202882534Y-73179545D01*
X203268732Y-72751869D01*
X203276819Y-72748026D01*
X203284823Y-72750655D01*
G37*
G04 #@! TD.AperFunction*
G04 #@! TA.AperFunction,Conductor*
G36*
X222551212Y-76215017D02*
G01*
X222554565Y-76221985D01*
X222600328Y-76630083D01*
X222727486Y-76929244D01*
X222727486Y-76929246D01*
X222914429Y-77161908D01*
X222914441Y-77161921D01*
X223140647Y-77380838D01*
X223140821Y-77381013D01*
X223377392Y-77630099D01*
X223380604Y-77638457D01*
X223376965Y-77646640D01*
X223376434Y-77647114D01*
X222435925Y-78437277D01*
X222427386Y-78439975D01*
X222420874Y-78437277D01*
X221480365Y-77647114D01*
X221476235Y-77639169D01*
X221478933Y-77630630D01*
X221479407Y-77630099D01*
X221716005Y-77380984D01*
X221716125Y-77380863D01*
X221942361Y-77161917D01*
X222129312Y-76929247D01*
X222256471Y-76630083D01*
X222302234Y-76221985D01*
X222306561Y-76214146D01*
X222313861Y-76211590D01*
X222542939Y-76211590D01*
X222551212Y-76215017D01*
G37*
G04 #@! TD.AperFunction*
G04 #@! TA.AperFunction,Conductor*
G36*
X222334823Y-72750655D02*
G01*
X222498639Y-72884674D01*
X222816236Y-73144504D01*
X222820470Y-73152394D01*
X222817884Y-73160967D01*
X222817786Y-73161085D01*
X222771013Y-73216758D01*
X222771008Y-73216765D01*
X222716606Y-73298402D01*
X222662208Y-73396911D01*
X222607804Y-73512313D01*
X222556382Y-73637350D01*
X222550066Y-73643698D01*
X222545561Y-73644600D01*
X222310029Y-73644600D01*
X222301756Y-73641173D01*
X222299993Y-73638915D01*
X222227492Y-73517944D01*
X222227490Y-73517940D01*
X222151581Y-73409067D01*
X222075671Y-73317978D01*
X222055399Y-73298402D01*
X221999768Y-73244681D01*
X221999767Y-73244680D01*
X221934323Y-73196817D01*
X221929668Y-73189167D01*
X221931786Y-73180466D01*
X221932534Y-73179545D01*
X222318732Y-72751869D01*
X222326819Y-72748026D01*
X222334823Y-72750655D01*
G37*
G04 #@! TD.AperFunction*
G04 #@! TA.AperFunction,Conductor*
G36*
X51101212Y-95265017D02*
G01*
X51104565Y-95271985D01*
X51150328Y-95680083D01*
X51277486Y-95979244D01*
X51277486Y-95979246D01*
X51464429Y-96211908D01*
X51464441Y-96211921D01*
X51690647Y-96430838D01*
X51690821Y-96431013D01*
X51927392Y-96680099D01*
X51930604Y-96688457D01*
X51926965Y-96696640D01*
X51926434Y-96697114D01*
X50985925Y-97487277D01*
X50977386Y-97489975D01*
X50970874Y-97487277D01*
X50030365Y-96697114D01*
X50026235Y-96689169D01*
X50028933Y-96680630D01*
X50029407Y-96680099D01*
X50266005Y-96430984D01*
X50266125Y-96430863D01*
X50492361Y-96211917D01*
X50679312Y-95979247D01*
X50806471Y-95680083D01*
X50852234Y-95271985D01*
X50856561Y-95264146D01*
X50863861Y-95261590D01*
X51092939Y-95261590D01*
X51101212Y-95265017D01*
G37*
G04 #@! TD.AperFunction*
G04 #@! TA.AperFunction,Conductor*
G36*
X50884823Y-91800655D02*
G01*
X51048639Y-91934674D01*
X51366236Y-92194504D01*
X51370470Y-92202394D01*
X51367884Y-92210967D01*
X51367786Y-92211085D01*
X51321013Y-92266758D01*
X51321008Y-92266765D01*
X51266606Y-92348402D01*
X51212208Y-92446911D01*
X51157804Y-92562313D01*
X51106382Y-92687350D01*
X51100066Y-92693698D01*
X51095561Y-92694600D01*
X50860029Y-92694600D01*
X50851756Y-92691173D01*
X50849993Y-92688915D01*
X50777492Y-92567944D01*
X50777490Y-92567940D01*
X50701581Y-92459067D01*
X50625671Y-92367978D01*
X50605399Y-92348402D01*
X50549768Y-92294681D01*
X50549767Y-92294680D01*
X50484323Y-92246817D01*
X50479668Y-92239167D01*
X50481786Y-92230466D01*
X50482534Y-92229545D01*
X50868732Y-91801869D01*
X50876819Y-91798026D01*
X50884823Y-91800655D01*
G37*
G04 #@! TD.AperFunction*
G04 #@! TA.AperFunction,Conductor*
G36*
X70151212Y-95265017D02*
G01*
X70154565Y-95271985D01*
X70200328Y-95680083D01*
X70327486Y-95979244D01*
X70327486Y-95979246D01*
X70514429Y-96211908D01*
X70514441Y-96211921D01*
X70740647Y-96430838D01*
X70740821Y-96431013D01*
X70977392Y-96680099D01*
X70980604Y-96688457D01*
X70976965Y-96696640D01*
X70976434Y-96697114D01*
X70035926Y-97487277D01*
X70027387Y-97489975D01*
X70020874Y-97487277D01*
X69080365Y-96697114D01*
X69076235Y-96689169D01*
X69078933Y-96680630D01*
X69079407Y-96680099D01*
X69316005Y-96430984D01*
X69316125Y-96430863D01*
X69542361Y-96211917D01*
X69729312Y-95979247D01*
X69856471Y-95680083D01*
X69902234Y-95271985D01*
X69906561Y-95264146D01*
X69913861Y-95261590D01*
X70142939Y-95261590D01*
X70151212Y-95265017D01*
G37*
G04 #@! TD.AperFunction*
G04 #@! TA.AperFunction,Conductor*
G36*
X69934823Y-91800655D02*
G01*
X70098639Y-91934674D01*
X70416236Y-92194504D01*
X70420470Y-92202394D01*
X70417884Y-92210967D01*
X70417786Y-92211085D01*
X70371013Y-92266758D01*
X70371008Y-92266765D01*
X70316606Y-92348402D01*
X70262208Y-92446911D01*
X70207804Y-92562313D01*
X70156382Y-92687350D01*
X70150066Y-92693698D01*
X70145561Y-92694600D01*
X69910029Y-92694600D01*
X69901756Y-92691173D01*
X69899993Y-92688915D01*
X69827492Y-92567944D01*
X69827490Y-92567940D01*
X69751581Y-92459067D01*
X69675671Y-92367978D01*
X69655399Y-92348402D01*
X69599768Y-92294681D01*
X69599767Y-92294680D01*
X69534323Y-92246817D01*
X69529668Y-92239167D01*
X69531786Y-92230466D01*
X69532534Y-92229545D01*
X69918732Y-91801869D01*
X69926819Y-91798026D01*
X69934823Y-91800655D01*
G37*
G04 #@! TD.AperFunction*
G04 #@! TA.AperFunction,Conductor*
G36*
X89201212Y-95265017D02*
G01*
X89204565Y-95271985D01*
X89250328Y-95680083D01*
X89377486Y-95979244D01*
X89377486Y-95979246D01*
X89564429Y-96211908D01*
X89564441Y-96211921D01*
X89790647Y-96430838D01*
X89790821Y-96431013D01*
X90027392Y-96680099D01*
X90030604Y-96688457D01*
X90026965Y-96696640D01*
X90026434Y-96697114D01*
X89085926Y-97487277D01*
X89077387Y-97489975D01*
X89070874Y-97487277D01*
X88130365Y-96697114D01*
X88126235Y-96689169D01*
X88128933Y-96680630D01*
X88129407Y-96680099D01*
X88366005Y-96430984D01*
X88366125Y-96430863D01*
X88592361Y-96211917D01*
X88779312Y-95979247D01*
X88906471Y-95680083D01*
X88952234Y-95271985D01*
X88956561Y-95264146D01*
X88963861Y-95261590D01*
X89192939Y-95261590D01*
X89201212Y-95265017D01*
G37*
G04 #@! TD.AperFunction*
G04 #@! TA.AperFunction,Conductor*
G36*
X88984823Y-91800655D02*
G01*
X89148639Y-91934674D01*
X89466236Y-92194504D01*
X89470470Y-92202394D01*
X89467884Y-92210967D01*
X89467786Y-92211085D01*
X89421013Y-92266758D01*
X89421008Y-92266765D01*
X89366606Y-92348402D01*
X89312208Y-92446911D01*
X89257804Y-92562313D01*
X89206382Y-92687350D01*
X89200066Y-92693698D01*
X89195561Y-92694600D01*
X88960029Y-92694600D01*
X88951756Y-92691173D01*
X88949993Y-92688915D01*
X88877492Y-92567944D01*
X88877490Y-92567940D01*
X88801581Y-92459067D01*
X88725671Y-92367978D01*
X88705399Y-92348402D01*
X88649768Y-92294681D01*
X88649767Y-92294680D01*
X88584323Y-92246817D01*
X88579668Y-92239167D01*
X88581786Y-92230466D01*
X88582534Y-92229545D01*
X88968732Y-91801869D01*
X88976819Y-91798026D01*
X88984823Y-91800655D01*
G37*
G04 #@! TD.AperFunction*
G04 #@! TA.AperFunction,Conductor*
G36*
X108251212Y-95265017D02*
G01*
X108254565Y-95271985D01*
X108300328Y-95680083D01*
X108427486Y-95979244D01*
X108427486Y-95979246D01*
X108614429Y-96211908D01*
X108614441Y-96211921D01*
X108840647Y-96430838D01*
X108840821Y-96431013D01*
X109077392Y-96680099D01*
X109080604Y-96688457D01*
X109076965Y-96696640D01*
X109076434Y-96697114D01*
X108135926Y-97487277D01*
X108127387Y-97489975D01*
X108120874Y-97487277D01*
X107180365Y-96697114D01*
X107176235Y-96689169D01*
X107178933Y-96680630D01*
X107179407Y-96680099D01*
X107416005Y-96430984D01*
X107416125Y-96430863D01*
X107642361Y-96211917D01*
X107829312Y-95979247D01*
X107956471Y-95680083D01*
X108002234Y-95271985D01*
X108006561Y-95264146D01*
X108013861Y-95261590D01*
X108242939Y-95261590D01*
X108251212Y-95265017D01*
G37*
G04 #@! TD.AperFunction*
G04 #@! TA.AperFunction,Conductor*
G36*
X108034823Y-91800655D02*
G01*
X108198639Y-91934674D01*
X108516236Y-92194504D01*
X108520470Y-92202394D01*
X108517884Y-92210967D01*
X108517786Y-92211085D01*
X108471013Y-92266758D01*
X108471008Y-92266765D01*
X108416606Y-92348402D01*
X108362208Y-92446911D01*
X108307804Y-92562313D01*
X108256382Y-92687350D01*
X108250066Y-92693698D01*
X108245561Y-92694600D01*
X108010029Y-92694600D01*
X108001756Y-92691173D01*
X107999993Y-92688915D01*
X107927492Y-92567944D01*
X107927490Y-92567940D01*
X107851581Y-92459067D01*
X107775671Y-92367978D01*
X107755399Y-92348402D01*
X107699768Y-92294681D01*
X107699767Y-92294680D01*
X107634323Y-92246817D01*
X107629668Y-92239167D01*
X107631786Y-92230466D01*
X107632534Y-92229545D01*
X108018732Y-91801869D01*
X108026819Y-91798026D01*
X108034823Y-91800655D01*
G37*
G04 #@! TD.AperFunction*
G04 #@! TA.AperFunction,Conductor*
G36*
X127301212Y-95265017D02*
G01*
X127304565Y-95271985D01*
X127350328Y-95680083D01*
X127477486Y-95979244D01*
X127477486Y-95979246D01*
X127664429Y-96211908D01*
X127664441Y-96211921D01*
X127890647Y-96430838D01*
X127890821Y-96431013D01*
X128127392Y-96680099D01*
X128130604Y-96688457D01*
X128126965Y-96696640D01*
X128126434Y-96697114D01*
X127185926Y-97487277D01*
X127177387Y-97489975D01*
X127170874Y-97487277D01*
X126230365Y-96697114D01*
X126226235Y-96689169D01*
X126228933Y-96680630D01*
X126229407Y-96680099D01*
X126466005Y-96430984D01*
X126466125Y-96430863D01*
X126692361Y-96211917D01*
X126879312Y-95979247D01*
X127006471Y-95680083D01*
X127052234Y-95271985D01*
X127056561Y-95264146D01*
X127063861Y-95261590D01*
X127292939Y-95261590D01*
X127301212Y-95265017D01*
G37*
G04 #@! TD.AperFunction*
G04 #@! TA.AperFunction,Conductor*
G36*
X127084823Y-91800655D02*
G01*
X127248639Y-91934674D01*
X127566236Y-92194504D01*
X127570470Y-92202394D01*
X127567884Y-92210967D01*
X127567786Y-92211085D01*
X127521013Y-92266758D01*
X127521008Y-92266765D01*
X127466606Y-92348402D01*
X127412208Y-92446911D01*
X127357804Y-92562313D01*
X127306382Y-92687350D01*
X127300066Y-92693698D01*
X127295561Y-92694600D01*
X127060029Y-92694600D01*
X127051756Y-92691173D01*
X127049993Y-92688915D01*
X126977492Y-92567944D01*
X126977490Y-92567940D01*
X126901581Y-92459067D01*
X126825671Y-92367978D01*
X126805399Y-92348402D01*
X126749768Y-92294681D01*
X126749767Y-92294680D01*
X126684323Y-92246817D01*
X126679668Y-92239167D01*
X126681786Y-92230466D01*
X126682534Y-92229545D01*
X127068732Y-91801869D01*
X127076819Y-91798026D01*
X127084823Y-91800655D01*
G37*
G04 #@! TD.AperFunction*
G04 #@! TA.AperFunction,Conductor*
G36*
X146351212Y-95265017D02*
G01*
X146354565Y-95271985D01*
X146400328Y-95680083D01*
X146527486Y-95979244D01*
X146527486Y-95979246D01*
X146714429Y-96211908D01*
X146714441Y-96211921D01*
X146940647Y-96430838D01*
X146940821Y-96431013D01*
X147177392Y-96680099D01*
X147180604Y-96688457D01*
X147176965Y-96696640D01*
X147176434Y-96697114D01*
X146235925Y-97487277D01*
X146227386Y-97489975D01*
X146220874Y-97487277D01*
X145280365Y-96697114D01*
X145276235Y-96689169D01*
X145278933Y-96680630D01*
X145279407Y-96680099D01*
X145516005Y-96430984D01*
X145516125Y-96430863D01*
X145742361Y-96211917D01*
X145929312Y-95979247D01*
X146056471Y-95680083D01*
X146102234Y-95271985D01*
X146106561Y-95264146D01*
X146113861Y-95261590D01*
X146342939Y-95261590D01*
X146351212Y-95265017D01*
G37*
G04 #@! TD.AperFunction*
G04 #@! TA.AperFunction,Conductor*
G36*
X146134823Y-91800655D02*
G01*
X146298639Y-91934674D01*
X146616236Y-92194504D01*
X146620470Y-92202394D01*
X146617884Y-92210967D01*
X146617786Y-92211085D01*
X146571013Y-92266758D01*
X146571008Y-92266765D01*
X146516606Y-92348402D01*
X146462208Y-92446911D01*
X146407804Y-92562313D01*
X146356382Y-92687350D01*
X146350066Y-92693698D01*
X146345561Y-92694600D01*
X146110029Y-92694600D01*
X146101756Y-92691173D01*
X146099993Y-92688915D01*
X146027492Y-92567944D01*
X146027490Y-92567940D01*
X145951581Y-92459067D01*
X145875671Y-92367978D01*
X145855399Y-92348402D01*
X145799768Y-92294681D01*
X145799767Y-92294680D01*
X145734323Y-92246817D01*
X145729668Y-92239167D01*
X145731786Y-92230466D01*
X145732534Y-92229545D01*
X146118732Y-91801869D01*
X146126819Y-91798026D01*
X146134823Y-91800655D01*
G37*
G04 #@! TD.AperFunction*
G04 #@! TA.AperFunction,Conductor*
G36*
X165401212Y-95265017D02*
G01*
X165404565Y-95271985D01*
X165450328Y-95680083D01*
X165577486Y-95979244D01*
X165577486Y-95979246D01*
X165764429Y-96211908D01*
X165764441Y-96211921D01*
X165990647Y-96430838D01*
X165990821Y-96431013D01*
X166227392Y-96680099D01*
X166230604Y-96688457D01*
X166226965Y-96696640D01*
X166226434Y-96697114D01*
X165285926Y-97487277D01*
X165277387Y-97489975D01*
X165270874Y-97487277D01*
X164330365Y-96697114D01*
X164326235Y-96689169D01*
X164328933Y-96680630D01*
X164329407Y-96680099D01*
X164566005Y-96430984D01*
X164566125Y-96430863D01*
X164792361Y-96211917D01*
X164979312Y-95979247D01*
X165106471Y-95680083D01*
X165152234Y-95271985D01*
X165156561Y-95264146D01*
X165163861Y-95261590D01*
X165392939Y-95261590D01*
X165401212Y-95265017D01*
G37*
G04 #@! TD.AperFunction*
G04 #@! TA.AperFunction,Conductor*
G36*
X165184823Y-91800655D02*
G01*
X165348639Y-91934674D01*
X165666236Y-92194504D01*
X165670470Y-92202394D01*
X165667884Y-92210967D01*
X165667786Y-92211085D01*
X165621013Y-92266758D01*
X165621008Y-92266765D01*
X165566606Y-92348402D01*
X165512208Y-92446911D01*
X165457804Y-92562313D01*
X165406382Y-92687350D01*
X165400066Y-92693698D01*
X165395561Y-92694600D01*
X165160029Y-92694600D01*
X165151756Y-92691173D01*
X165149993Y-92688915D01*
X165077492Y-92567944D01*
X165077490Y-92567940D01*
X165001581Y-92459067D01*
X164925671Y-92367978D01*
X164905399Y-92348402D01*
X164849768Y-92294681D01*
X164849767Y-92294680D01*
X164784323Y-92246817D01*
X164779668Y-92239167D01*
X164781786Y-92230466D01*
X164782534Y-92229545D01*
X165168732Y-91801869D01*
X165176819Y-91798026D01*
X165184823Y-91800655D01*
G37*
G04 #@! TD.AperFunction*
G04 #@! TA.AperFunction,Conductor*
G36*
X184451212Y-95265017D02*
G01*
X184454565Y-95271985D01*
X184500328Y-95680083D01*
X184627486Y-95979244D01*
X184627486Y-95979246D01*
X184814429Y-96211908D01*
X184814441Y-96211921D01*
X185040647Y-96430838D01*
X185040821Y-96431013D01*
X185277392Y-96680099D01*
X185280604Y-96688457D01*
X185276965Y-96696640D01*
X185276434Y-96697114D01*
X184335925Y-97487277D01*
X184327386Y-97489975D01*
X184320874Y-97487277D01*
X183380365Y-96697114D01*
X183376235Y-96689169D01*
X183378933Y-96680630D01*
X183379407Y-96680099D01*
X183616005Y-96430984D01*
X183616125Y-96430863D01*
X183842361Y-96211917D01*
X184029312Y-95979247D01*
X184156471Y-95680083D01*
X184202234Y-95271985D01*
X184206561Y-95264146D01*
X184213861Y-95261590D01*
X184442939Y-95261590D01*
X184451212Y-95265017D01*
G37*
G04 #@! TD.AperFunction*
G04 #@! TA.AperFunction,Conductor*
G36*
X184234823Y-91800655D02*
G01*
X184398639Y-91934674D01*
X184716236Y-92194504D01*
X184720470Y-92202394D01*
X184717884Y-92210967D01*
X184717786Y-92211085D01*
X184671013Y-92266758D01*
X184671008Y-92266765D01*
X184616606Y-92348402D01*
X184562208Y-92446911D01*
X184507804Y-92562313D01*
X184456382Y-92687350D01*
X184450066Y-92693698D01*
X184445561Y-92694600D01*
X184210029Y-92694600D01*
X184201756Y-92691173D01*
X184199993Y-92688915D01*
X184127492Y-92567944D01*
X184127490Y-92567940D01*
X184051581Y-92459067D01*
X183975671Y-92367978D01*
X183955399Y-92348402D01*
X183899768Y-92294681D01*
X183899767Y-92294680D01*
X183834323Y-92246817D01*
X183829668Y-92239167D01*
X183831786Y-92230466D01*
X183832534Y-92229545D01*
X184218732Y-91801869D01*
X184226819Y-91798026D01*
X184234823Y-91800655D01*
G37*
G04 #@! TD.AperFunction*
G04 #@! TA.AperFunction,Conductor*
G36*
X203501212Y-95265017D02*
G01*
X203504565Y-95271985D01*
X203550328Y-95680083D01*
X203677486Y-95979244D01*
X203677486Y-95979246D01*
X203864429Y-96211908D01*
X203864441Y-96211921D01*
X204090647Y-96430838D01*
X204090821Y-96431013D01*
X204327392Y-96680099D01*
X204330604Y-96688457D01*
X204326965Y-96696640D01*
X204326434Y-96697114D01*
X203385926Y-97487277D01*
X203377387Y-97489975D01*
X203370874Y-97487277D01*
X202430365Y-96697114D01*
X202426235Y-96689169D01*
X202428933Y-96680630D01*
X202429407Y-96680099D01*
X202666005Y-96430984D01*
X202666125Y-96430863D01*
X202892361Y-96211917D01*
X203079312Y-95979247D01*
X203206471Y-95680083D01*
X203252234Y-95271985D01*
X203256561Y-95264146D01*
X203263861Y-95261590D01*
X203492939Y-95261590D01*
X203501212Y-95265017D01*
G37*
G04 #@! TD.AperFunction*
G04 #@! TA.AperFunction,Conductor*
G36*
X203284823Y-91800655D02*
G01*
X203448639Y-91934674D01*
X203766236Y-92194504D01*
X203770470Y-92202394D01*
X203767884Y-92210967D01*
X203767786Y-92211085D01*
X203721013Y-92266758D01*
X203721008Y-92266765D01*
X203666606Y-92348402D01*
X203612208Y-92446911D01*
X203557804Y-92562313D01*
X203506382Y-92687350D01*
X203500066Y-92693698D01*
X203495561Y-92694600D01*
X203260029Y-92694600D01*
X203251756Y-92691173D01*
X203249993Y-92688915D01*
X203177492Y-92567944D01*
X203177490Y-92567940D01*
X203101581Y-92459067D01*
X203025671Y-92367978D01*
X203005399Y-92348402D01*
X202949768Y-92294681D01*
X202949767Y-92294680D01*
X202884323Y-92246817D01*
X202879668Y-92239167D01*
X202881786Y-92230466D01*
X202882534Y-92229545D01*
X203268732Y-91801869D01*
X203276819Y-91798026D01*
X203284823Y-91800655D01*
G37*
G04 #@! TD.AperFunction*
G04 #@! TA.AperFunction,Conductor*
G36*
X222551212Y-95265017D02*
G01*
X222554565Y-95271985D01*
X222600328Y-95680083D01*
X222727486Y-95979244D01*
X222727486Y-95979246D01*
X222914429Y-96211908D01*
X222914441Y-96211921D01*
X223140647Y-96430838D01*
X223140821Y-96431013D01*
X223377392Y-96680099D01*
X223380604Y-96688457D01*
X223376965Y-96696640D01*
X223376434Y-96697114D01*
X222435925Y-97487277D01*
X222427386Y-97489975D01*
X222420874Y-97487277D01*
X221480365Y-96697114D01*
X221476235Y-96689169D01*
X221478933Y-96680630D01*
X221479407Y-96680099D01*
X221716005Y-96430984D01*
X221716125Y-96430863D01*
X221942361Y-96211917D01*
X222129312Y-95979247D01*
X222256471Y-95680083D01*
X222302234Y-95271985D01*
X222306561Y-95264146D01*
X222313861Y-95261590D01*
X222542939Y-95261590D01*
X222551212Y-95265017D01*
G37*
G04 #@! TD.AperFunction*
G04 #@! TA.AperFunction,Conductor*
G36*
X222334823Y-91800655D02*
G01*
X222498639Y-91934674D01*
X222816236Y-92194504D01*
X222820470Y-92202394D01*
X222817884Y-92210967D01*
X222817786Y-92211085D01*
X222771013Y-92266758D01*
X222771008Y-92266765D01*
X222716606Y-92348402D01*
X222662208Y-92446911D01*
X222607804Y-92562313D01*
X222556382Y-92687350D01*
X222550066Y-92693698D01*
X222545561Y-92694600D01*
X222310029Y-92694600D01*
X222301756Y-92691173D01*
X222299993Y-92688915D01*
X222227492Y-92567944D01*
X222227490Y-92567940D01*
X222151581Y-92459067D01*
X222075671Y-92367978D01*
X222055399Y-92348402D01*
X221999768Y-92294681D01*
X221999767Y-92294680D01*
X221934323Y-92246817D01*
X221929668Y-92239167D01*
X221931786Y-92230466D01*
X221932534Y-92229545D01*
X222318732Y-91801869D01*
X222326819Y-91798026D01*
X222334823Y-91800655D01*
G37*
G04 #@! TD.AperFunction*
G04 #@! TA.AperFunction,Conductor*
G36*
X51101212Y-114315017D02*
G01*
X51104565Y-114321985D01*
X51150328Y-114730083D01*
X51277486Y-115029244D01*
X51277486Y-115029246D01*
X51464429Y-115261908D01*
X51464441Y-115261921D01*
X51690647Y-115480838D01*
X51690821Y-115481013D01*
X51927392Y-115730099D01*
X51930604Y-115738457D01*
X51926965Y-115746640D01*
X51926434Y-115747114D01*
X50985925Y-116537277D01*
X50977386Y-116539975D01*
X50970874Y-116537277D01*
X50030365Y-115747114D01*
X50026235Y-115739169D01*
X50028933Y-115730630D01*
X50029407Y-115730099D01*
X50266005Y-115480984D01*
X50266125Y-115480863D01*
X50492361Y-115261917D01*
X50679312Y-115029247D01*
X50806471Y-114730083D01*
X50852234Y-114321985D01*
X50856561Y-114314146D01*
X50863861Y-114311590D01*
X51092939Y-114311590D01*
X51101212Y-114315017D01*
G37*
G04 #@! TD.AperFunction*
G04 #@! TA.AperFunction,Conductor*
G36*
X50884823Y-110850655D02*
G01*
X51048639Y-110984674D01*
X51366236Y-111244504D01*
X51370470Y-111252394D01*
X51367884Y-111260967D01*
X51367786Y-111261085D01*
X51321013Y-111316758D01*
X51321008Y-111316765D01*
X51266606Y-111398402D01*
X51212208Y-111496911D01*
X51157804Y-111612313D01*
X51106382Y-111737350D01*
X51100066Y-111743698D01*
X51095561Y-111744600D01*
X50860029Y-111744600D01*
X50851756Y-111741173D01*
X50849993Y-111738915D01*
X50777492Y-111617944D01*
X50777490Y-111617940D01*
X50701581Y-111509067D01*
X50625671Y-111417978D01*
X50605399Y-111398402D01*
X50549768Y-111344681D01*
X50549767Y-111344680D01*
X50484323Y-111296817D01*
X50479668Y-111289167D01*
X50481786Y-111280466D01*
X50482534Y-111279545D01*
X50868732Y-110851869D01*
X50876819Y-110848026D01*
X50884823Y-110850655D01*
G37*
G04 #@! TD.AperFunction*
G04 #@! TA.AperFunction,Conductor*
G36*
X70151212Y-114315017D02*
G01*
X70154565Y-114321985D01*
X70200328Y-114730083D01*
X70327486Y-115029244D01*
X70327486Y-115029246D01*
X70514429Y-115261908D01*
X70514441Y-115261921D01*
X70740647Y-115480838D01*
X70740821Y-115481013D01*
X70977392Y-115730099D01*
X70980604Y-115738457D01*
X70976965Y-115746640D01*
X70976434Y-115747114D01*
X70035926Y-116537277D01*
X70027387Y-116539975D01*
X70020874Y-116537277D01*
X69080365Y-115747114D01*
X69076235Y-115739169D01*
X69078933Y-115730630D01*
X69079407Y-115730099D01*
X69316005Y-115480984D01*
X69316125Y-115480863D01*
X69542361Y-115261917D01*
X69729312Y-115029247D01*
X69856471Y-114730083D01*
X69902234Y-114321985D01*
X69906561Y-114314146D01*
X69913861Y-114311590D01*
X70142939Y-114311590D01*
X70151212Y-114315017D01*
G37*
G04 #@! TD.AperFunction*
G04 #@! TA.AperFunction,Conductor*
G36*
X69934823Y-110850655D02*
G01*
X70098639Y-110984674D01*
X70416236Y-111244504D01*
X70420470Y-111252394D01*
X70417884Y-111260967D01*
X70417786Y-111261085D01*
X70371013Y-111316758D01*
X70371008Y-111316765D01*
X70316606Y-111398402D01*
X70262208Y-111496911D01*
X70207804Y-111612313D01*
X70156382Y-111737350D01*
X70150066Y-111743698D01*
X70145561Y-111744600D01*
X69910029Y-111744600D01*
X69901756Y-111741173D01*
X69899993Y-111738915D01*
X69827492Y-111617944D01*
X69827490Y-111617940D01*
X69751581Y-111509067D01*
X69675671Y-111417978D01*
X69655399Y-111398402D01*
X69599768Y-111344681D01*
X69599767Y-111344680D01*
X69534323Y-111296817D01*
X69529668Y-111289167D01*
X69531786Y-111280466D01*
X69532534Y-111279545D01*
X69918732Y-110851869D01*
X69926819Y-110848026D01*
X69934823Y-110850655D01*
G37*
G04 #@! TD.AperFunction*
G04 #@! TA.AperFunction,Conductor*
G36*
X89201212Y-114315017D02*
G01*
X89204565Y-114321985D01*
X89250328Y-114730083D01*
X89377486Y-115029244D01*
X89377486Y-115029246D01*
X89564429Y-115261908D01*
X89564441Y-115261921D01*
X89790647Y-115480838D01*
X89790821Y-115481013D01*
X90027392Y-115730099D01*
X90030604Y-115738457D01*
X90026965Y-115746640D01*
X90026434Y-115747114D01*
X89085926Y-116537277D01*
X89077387Y-116539975D01*
X89070874Y-116537277D01*
X88130365Y-115747114D01*
X88126235Y-115739169D01*
X88128933Y-115730630D01*
X88129407Y-115730099D01*
X88366005Y-115480984D01*
X88366125Y-115480863D01*
X88592361Y-115261917D01*
X88779312Y-115029247D01*
X88906471Y-114730083D01*
X88952234Y-114321985D01*
X88956561Y-114314146D01*
X88963861Y-114311590D01*
X89192939Y-114311590D01*
X89201212Y-114315017D01*
G37*
G04 #@! TD.AperFunction*
G04 #@! TA.AperFunction,Conductor*
G36*
X88984823Y-110850655D02*
G01*
X89148639Y-110984674D01*
X89466236Y-111244504D01*
X89470470Y-111252394D01*
X89467884Y-111260967D01*
X89467786Y-111261085D01*
X89421013Y-111316758D01*
X89421008Y-111316765D01*
X89366606Y-111398402D01*
X89312208Y-111496911D01*
X89257804Y-111612313D01*
X89206382Y-111737350D01*
X89200066Y-111743698D01*
X89195561Y-111744600D01*
X88960029Y-111744600D01*
X88951756Y-111741173D01*
X88949993Y-111738915D01*
X88877492Y-111617944D01*
X88877490Y-111617940D01*
X88801581Y-111509067D01*
X88725671Y-111417978D01*
X88705399Y-111398402D01*
X88649768Y-111344681D01*
X88649767Y-111344680D01*
X88584323Y-111296817D01*
X88579668Y-111289167D01*
X88581786Y-111280466D01*
X88582534Y-111279545D01*
X88968732Y-110851869D01*
X88976819Y-110848026D01*
X88984823Y-110850655D01*
G37*
G04 #@! TD.AperFunction*
G04 #@! TA.AperFunction,Conductor*
G36*
X108251212Y-114315017D02*
G01*
X108254565Y-114321985D01*
X108300328Y-114730083D01*
X108427486Y-115029244D01*
X108427486Y-115029246D01*
X108614429Y-115261908D01*
X108614441Y-115261921D01*
X108840647Y-115480838D01*
X108840821Y-115481013D01*
X109077392Y-115730099D01*
X109080604Y-115738457D01*
X109076965Y-115746640D01*
X109076434Y-115747114D01*
X108135926Y-116537277D01*
X108127387Y-116539975D01*
X108120874Y-116537277D01*
X107180365Y-115747114D01*
X107176235Y-115739169D01*
X107178933Y-115730630D01*
X107179407Y-115730099D01*
X107416005Y-115480984D01*
X107416125Y-115480863D01*
X107642361Y-115261917D01*
X107829312Y-115029247D01*
X107956471Y-114730083D01*
X108002234Y-114321985D01*
X108006561Y-114314146D01*
X108013861Y-114311590D01*
X108242939Y-114311590D01*
X108251212Y-114315017D01*
G37*
G04 #@! TD.AperFunction*
G04 #@! TA.AperFunction,Conductor*
G36*
X108034823Y-110850655D02*
G01*
X108198639Y-110984674D01*
X108516236Y-111244504D01*
X108520470Y-111252394D01*
X108517884Y-111260967D01*
X108517786Y-111261085D01*
X108471013Y-111316758D01*
X108471008Y-111316765D01*
X108416606Y-111398402D01*
X108362208Y-111496911D01*
X108307804Y-111612313D01*
X108256382Y-111737350D01*
X108250066Y-111743698D01*
X108245561Y-111744600D01*
X108010029Y-111744600D01*
X108001756Y-111741173D01*
X107999993Y-111738915D01*
X107927492Y-111617944D01*
X107927490Y-111617940D01*
X107851581Y-111509067D01*
X107775671Y-111417978D01*
X107755399Y-111398402D01*
X107699768Y-111344681D01*
X107699767Y-111344680D01*
X107634323Y-111296817D01*
X107629668Y-111289167D01*
X107631786Y-111280466D01*
X107632534Y-111279545D01*
X108018732Y-110851869D01*
X108026819Y-110848026D01*
X108034823Y-110850655D01*
G37*
G04 #@! TD.AperFunction*
G04 #@! TA.AperFunction,Conductor*
G36*
X127301212Y-114315017D02*
G01*
X127304565Y-114321985D01*
X127350328Y-114730083D01*
X127477486Y-115029244D01*
X127477486Y-115029246D01*
X127664429Y-115261908D01*
X127664441Y-115261921D01*
X127890647Y-115480838D01*
X127890821Y-115481013D01*
X128127392Y-115730099D01*
X128130604Y-115738457D01*
X128126965Y-115746640D01*
X128126434Y-115747114D01*
X127185926Y-116537277D01*
X127177387Y-116539975D01*
X127170874Y-116537277D01*
X126230365Y-115747114D01*
X126226235Y-115739169D01*
X126228933Y-115730630D01*
X126229407Y-115730099D01*
X126466005Y-115480984D01*
X126466125Y-115480863D01*
X126692361Y-115261917D01*
X126879312Y-115029247D01*
X127006471Y-114730083D01*
X127052234Y-114321985D01*
X127056561Y-114314146D01*
X127063861Y-114311590D01*
X127292939Y-114311590D01*
X127301212Y-114315017D01*
G37*
G04 #@! TD.AperFunction*
G04 #@! TA.AperFunction,Conductor*
G36*
X127084823Y-110850655D02*
G01*
X127248639Y-110984674D01*
X127566236Y-111244504D01*
X127570470Y-111252394D01*
X127567884Y-111260967D01*
X127567786Y-111261085D01*
X127521013Y-111316758D01*
X127521008Y-111316765D01*
X127466606Y-111398402D01*
X127412208Y-111496911D01*
X127357804Y-111612313D01*
X127306382Y-111737350D01*
X127300066Y-111743698D01*
X127295561Y-111744600D01*
X127060029Y-111744600D01*
X127051756Y-111741173D01*
X127049993Y-111738915D01*
X126977492Y-111617944D01*
X126977490Y-111617940D01*
X126901581Y-111509067D01*
X126825671Y-111417978D01*
X126805399Y-111398402D01*
X126749768Y-111344681D01*
X126749767Y-111344680D01*
X126684323Y-111296817D01*
X126679668Y-111289167D01*
X126681786Y-111280466D01*
X126682534Y-111279545D01*
X127068732Y-110851869D01*
X127076819Y-110848026D01*
X127084823Y-110850655D01*
G37*
G04 #@! TD.AperFunction*
G04 #@! TA.AperFunction,Conductor*
G36*
X146351212Y-114315017D02*
G01*
X146354565Y-114321985D01*
X146400328Y-114730083D01*
X146527486Y-115029244D01*
X146527486Y-115029246D01*
X146714429Y-115261908D01*
X146714441Y-115261921D01*
X146940647Y-115480838D01*
X146940821Y-115481013D01*
X147177392Y-115730099D01*
X147180604Y-115738457D01*
X147176965Y-115746640D01*
X147176434Y-115747114D01*
X146235926Y-116537277D01*
X146227387Y-116539975D01*
X146220874Y-116537277D01*
X145280365Y-115747114D01*
X145276235Y-115739169D01*
X145278933Y-115730630D01*
X145279407Y-115730099D01*
X145516005Y-115480984D01*
X145516125Y-115480863D01*
X145742361Y-115261917D01*
X145929312Y-115029247D01*
X146056471Y-114730083D01*
X146102234Y-114321985D01*
X146106561Y-114314146D01*
X146113861Y-114311590D01*
X146342939Y-114311590D01*
X146351212Y-114315017D01*
G37*
G04 #@! TD.AperFunction*
G04 #@! TA.AperFunction,Conductor*
G36*
X146134823Y-110850655D02*
G01*
X146298639Y-110984674D01*
X146616236Y-111244504D01*
X146620470Y-111252394D01*
X146617884Y-111260967D01*
X146617786Y-111261085D01*
X146571013Y-111316758D01*
X146571008Y-111316765D01*
X146516606Y-111398402D01*
X146462208Y-111496911D01*
X146407804Y-111612313D01*
X146356382Y-111737350D01*
X146350066Y-111743698D01*
X146345561Y-111744600D01*
X146110029Y-111744600D01*
X146101756Y-111741173D01*
X146099993Y-111738915D01*
X146027492Y-111617944D01*
X146027490Y-111617940D01*
X145951581Y-111509067D01*
X145875671Y-111417978D01*
X145855399Y-111398402D01*
X145799768Y-111344681D01*
X145799767Y-111344680D01*
X145734323Y-111296817D01*
X145729668Y-111289167D01*
X145731786Y-111280466D01*
X145732534Y-111279545D01*
X146118732Y-110851869D01*
X146126819Y-110848026D01*
X146134823Y-110850655D01*
G37*
G04 #@! TD.AperFunction*
G04 #@! TA.AperFunction,Conductor*
G36*
X165401212Y-114315017D02*
G01*
X165404565Y-114321985D01*
X165450328Y-114730083D01*
X165577486Y-115029244D01*
X165577486Y-115029246D01*
X165764429Y-115261908D01*
X165764441Y-115261921D01*
X165990647Y-115480838D01*
X165990821Y-115481013D01*
X166227392Y-115730099D01*
X166230604Y-115738457D01*
X166226965Y-115746640D01*
X166226434Y-115747114D01*
X165285926Y-116537277D01*
X165277387Y-116539975D01*
X165270874Y-116537277D01*
X164330365Y-115747114D01*
X164326235Y-115739169D01*
X164328933Y-115730630D01*
X164329407Y-115730099D01*
X164566005Y-115480984D01*
X164566125Y-115480863D01*
X164792361Y-115261917D01*
X164979312Y-115029247D01*
X165106471Y-114730083D01*
X165152234Y-114321985D01*
X165156561Y-114314146D01*
X165163861Y-114311590D01*
X165392939Y-114311590D01*
X165401212Y-114315017D01*
G37*
G04 #@! TD.AperFunction*
G04 #@! TA.AperFunction,Conductor*
G36*
X165184823Y-110850655D02*
G01*
X165348639Y-110984674D01*
X165666236Y-111244504D01*
X165670470Y-111252394D01*
X165667884Y-111260967D01*
X165667786Y-111261085D01*
X165621013Y-111316758D01*
X165621008Y-111316765D01*
X165566606Y-111398402D01*
X165512208Y-111496911D01*
X165457804Y-111612313D01*
X165406382Y-111737350D01*
X165400066Y-111743698D01*
X165395561Y-111744600D01*
X165160029Y-111744600D01*
X165151756Y-111741173D01*
X165149993Y-111738915D01*
X165077492Y-111617944D01*
X165077490Y-111617940D01*
X165001581Y-111509067D01*
X164925671Y-111417978D01*
X164905399Y-111398402D01*
X164849768Y-111344681D01*
X164849767Y-111344680D01*
X164784323Y-111296817D01*
X164779668Y-111289167D01*
X164781786Y-111280466D01*
X164782534Y-111279545D01*
X165168732Y-110851869D01*
X165176819Y-110848026D01*
X165184823Y-110850655D01*
G37*
G04 #@! TD.AperFunction*
G04 #@! TA.AperFunction,Conductor*
G36*
X184451212Y-114315017D02*
G01*
X184454565Y-114321985D01*
X184500328Y-114730083D01*
X184627486Y-115029244D01*
X184627486Y-115029246D01*
X184814429Y-115261908D01*
X184814441Y-115261921D01*
X185040647Y-115480838D01*
X185040821Y-115481013D01*
X185277392Y-115730099D01*
X185280604Y-115738457D01*
X185276965Y-115746640D01*
X185276434Y-115747114D01*
X184335926Y-116537277D01*
X184327387Y-116539975D01*
X184320874Y-116537277D01*
X183380365Y-115747114D01*
X183376235Y-115739169D01*
X183378933Y-115730630D01*
X183379407Y-115730099D01*
X183616005Y-115480984D01*
X183616125Y-115480863D01*
X183842361Y-115261917D01*
X184029312Y-115029247D01*
X184156471Y-114730083D01*
X184202234Y-114321985D01*
X184206561Y-114314146D01*
X184213861Y-114311590D01*
X184442939Y-114311590D01*
X184451212Y-114315017D01*
G37*
G04 #@! TD.AperFunction*
G04 #@! TA.AperFunction,Conductor*
G36*
X184234823Y-110850655D02*
G01*
X184398639Y-110984674D01*
X184716236Y-111244504D01*
X184720470Y-111252394D01*
X184717884Y-111260967D01*
X184717786Y-111261085D01*
X184671013Y-111316758D01*
X184671008Y-111316765D01*
X184616606Y-111398402D01*
X184562208Y-111496911D01*
X184507804Y-111612313D01*
X184456382Y-111737350D01*
X184450066Y-111743698D01*
X184445561Y-111744600D01*
X184210029Y-111744600D01*
X184201756Y-111741173D01*
X184199993Y-111738915D01*
X184127492Y-111617944D01*
X184127490Y-111617940D01*
X184051581Y-111509067D01*
X183975671Y-111417978D01*
X183955399Y-111398402D01*
X183899768Y-111344681D01*
X183899767Y-111344680D01*
X183834323Y-111296817D01*
X183829668Y-111289167D01*
X183831786Y-111280466D01*
X183832534Y-111279545D01*
X184218732Y-110851869D01*
X184226819Y-110848026D01*
X184234823Y-110850655D01*
G37*
G04 #@! TD.AperFunction*
G04 #@! TA.AperFunction,Conductor*
G36*
X203501212Y-114315017D02*
G01*
X203504565Y-114321985D01*
X203550328Y-114730083D01*
X203677486Y-115029244D01*
X203677486Y-115029246D01*
X203864429Y-115261908D01*
X203864441Y-115261921D01*
X204090647Y-115480838D01*
X204090821Y-115481013D01*
X204327392Y-115730099D01*
X204330604Y-115738457D01*
X204326965Y-115746640D01*
X204326434Y-115747114D01*
X203385926Y-116537277D01*
X203377387Y-116539975D01*
X203370874Y-116537277D01*
X202430365Y-115747114D01*
X202426235Y-115739169D01*
X202428933Y-115730630D01*
X202429407Y-115730099D01*
X202666005Y-115480984D01*
X202666125Y-115480863D01*
X202892361Y-115261917D01*
X203079312Y-115029247D01*
X203206471Y-114730083D01*
X203252234Y-114321985D01*
X203256561Y-114314146D01*
X203263861Y-114311590D01*
X203492939Y-114311590D01*
X203501212Y-114315017D01*
G37*
G04 #@! TD.AperFunction*
G04 #@! TA.AperFunction,Conductor*
G36*
X203284823Y-110850655D02*
G01*
X203448639Y-110984674D01*
X203766236Y-111244504D01*
X203770470Y-111252394D01*
X203767884Y-111260967D01*
X203767786Y-111261085D01*
X203721013Y-111316758D01*
X203721008Y-111316765D01*
X203666606Y-111398402D01*
X203612208Y-111496911D01*
X203557804Y-111612313D01*
X203506382Y-111737350D01*
X203500066Y-111743698D01*
X203495561Y-111744600D01*
X203260029Y-111744600D01*
X203251756Y-111741173D01*
X203249993Y-111738915D01*
X203177492Y-111617944D01*
X203177490Y-111617940D01*
X203101581Y-111509067D01*
X203025671Y-111417978D01*
X203005399Y-111398402D01*
X202949768Y-111344681D01*
X202949767Y-111344680D01*
X202884323Y-111296817D01*
X202879668Y-111289167D01*
X202881786Y-111280466D01*
X202882534Y-111279545D01*
X203268732Y-110851869D01*
X203276819Y-110848026D01*
X203284823Y-110850655D01*
G37*
G04 #@! TD.AperFunction*
G04 #@! TA.AperFunction,Conductor*
G36*
X222551212Y-114315017D02*
G01*
X222554565Y-114321985D01*
X222600328Y-114730083D01*
X222727486Y-115029244D01*
X222727486Y-115029246D01*
X222914429Y-115261908D01*
X222914441Y-115261921D01*
X223140647Y-115480838D01*
X223140821Y-115481013D01*
X223377392Y-115730099D01*
X223380604Y-115738457D01*
X223376965Y-115746640D01*
X223376434Y-115747114D01*
X222435925Y-116537277D01*
X222427386Y-116539975D01*
X222420874Y-116537277D01*
X221480365Y-115747114D01*
X221476235Y-115739169D01*
X221478933Y-115730630D01*
X221479407Y-115730099D01*
X221716005Y-115480984D01*
X221716125Y-115480863D01*
X221942361Y-115261917D01*
X222129312Y-115029247D01*
X222256471Y-114730083D01*
X222302234Y-114321985D01*
X222306561Y-114314146D01*
X222313861Y-114311590D01*
X222542939Y-114311590D01*
X222551212Y-114315017D01*
G37*
G04 #@! TD.AperFunction*
G04 #@! TA.AperFunction,Conductor*
G36*
X222334823Y-110850655D02*
G01*
X222498639Y-110984674D01*
X222816236Y-111244504D01*
X222820470Y-111252394D01*
X222817884Y-111260967D01*
X222817786Y-111261085D01*
X222771013Y-111316758D01*
X222771008Y-111316765D01*
X222716606Y-111398402D01*
X222662208Y-111496911D01*
X222607804Y-111612313D01*
X222556382Y-111737350D01*
X222550066Y-111743698D01*
X222545561Y-111744600D01*
X222310029Y-111744600D01*
X222301756Y-111741173D01*
X222299993Y-111738915D01*
X222227492Y-111617944D01*
X222227490Y-111617940D01*
X222151581Y-111509067D01*
X222075671Y-111417978D01*
X222055399Y-111398402D01*
X221999768Y-111344681D01*
X221999767Y-111344680D01*
X221934323Y-111296817D01*
X221929668Y-111289167D01*
X221931786Y-111280466D01*
X221932534Y-111279545D01*
X222318732Y-110851869D01*
X222326819Y-110848026D01*
X222334823Y-110850655D01*
G37*
G04 #@! TD.AperFunction*
G04 #@! TA.AperFunction,Conductor*
G36*
X51101212Y-133365017D02*
G01*
X51104565Y-133371985D01*
X51150328Y-133780083D01*
X51277486Y-134079244D01*
X51277486Y-134079246D01*
X51464429Y-134311908D01*
X51464441Y-134311921D01*
X51690647Y-134530838D01*
X51690821Y-134531013D01*
X51927392Y-134780099D01*
X51930604Y-134788457D01*
X51926965Y-134796640D01*
X51926434Y-134797114D01*
X50985926Y-135587277D01*
X50977387Y-135589975D01*
X50970874Y-135587277D01*
X50030365Y-134797114D01*
X50026235Y-134789169D01*
X50028933Y-134780630D01*
X50029407Y-134780099D01*
X50266005Y-134530984D01*
X50266125Y-134530863D01*
X50492361Y-134311917D01*
X50679312Y-134079247D01*
X50806471Y-133780083D01*
X50852234Y-133371985D01*
X50856561Y-133364146D01*
X50863861Y-133361590D01*
X51092939Y-133361590D01*
X51101212Y-133365017D01*
G37*
G04 #@! TD.AperFunction*
G04 #@! TA.AperFunction,Conductor*
G36*
X50884823Y-129900655D02*
G01*
X51048639Y-130034674D01*
X51366236Y-130294504D01*
X51370470Y-130302394D01*
X51367884Y-130310967D01*
X51367786Y-130311085D01*
X51321013Y-130366758D01*
X51321008Y-130366765D01*
X51266606Y-130448402D01*
X51212208Y-130546911D01*
X51157804Y-130662313D01*
X51106382Y-130787350D01*
X51100066Y-130793698D01*
X51095561Y-130794600D01*
X50860029Y-130794600D01*
X50851756Y-130791173D01*
X50849993Y-130788915D01*
X50777492Y-130667944D01*
X50777490Y-130667940D01*
X50701581Y-130559067D01*
X50625671Y-130467978D01*
X50605399Y-130448402D01*
X50549768Y-130394681D01*
X50549767Y-130394680D01*
X50484323Y-130346817D01*
X50479668Y-130339167D01*
X50481786Y-130330466D01*
X50482534Y-130329545D01*
X50868732Y-129901869D01*
X50876819Y-129898026D01*
X50884823Y-129900655D01*
G37*
G04 #@! TD.AperFunction*
G04 #@! TA.AperFunction,Conductor*
G36*
X70151212Y-133365017D02*
G01*
X70154565Y-133371985D01*
X70200328Y-133780083D01*
X70327486Y-134079244D01*
X70327486Y-134079246D01*
X70514429Y-134311908D01*
X70514441Y-134311921D01*
X70740647Y-134530838D01*
X70740821Y-134531013D01*
X70977392Y-134780099D01*
X70980604Y-134788457D01*
X70976965Y-134796640D01*
X70976434Y-134797114D01*
X70035926Y-135587277D01*
X70027387Y-135589975D01*
X70020874Y-135587277D01*
X69080365Y-134797114D01*
X69076235Y-134789169D01*
X69078933Y-134780630D01*
X69079407Y-134780099D01*
X69316005Y-134530984D01*
X69316125Y-134530863D01*
X69542361Y-134311917D01*
X69729312Y-134079247D01*
X69856471Y-133780083D01*
X69902234Y-133371985D01*
X69906561Y-133364146D01*
X69913861Y-133361590D01*
X70142939Y-133361590D01*
X70151212Y-133365017D01*
G37*
G04 #@! TD.AperFunction*
G04 #@! TA.AperFunction,Conductor*
G36*
X69934823Y-129900655D02*
G01*
X70098639Y-130034674D01*
X70416236Y-130294504D01*
X70420470Y-130302394D01*
X70417884Y-130310967D01*
X70417786Y-130311085D01*
X70371013Y-130366758D01*
X70371008Y-130366765D01*
X70316606Y-130448402D01*
X70262208Y-130546911D01*
X70207804Y-130662313D01*
X70156382Y-130787350D01*
X70150066Y-130793698D01*
X70145561Y-130794600D01*
X69910029Y-130794600D01*
X69901756Y-130791173D01*
X69899993Y-130788915D01*
X69827492Y-130667944D01*
X69827490Y-130667940D01*
X69751581Y-130559067D01*
X69675671Y-130467978D01*
X69655399Y-130448402D01*
X69599768Y-130394681D01*
X69599767Y-130394680D01*
X69534323Y-130346817D01*
X69529668Y-130339167D01*
X69531786Y-130330466D01*
X69532534Y-130329545D01*
X69918732Y-129901869D01*
X69926819Y-129898026D01*
X69934823Y-129900655D01*
G37*
G04 #@! TD.AperFunction*
G04 #@! TA.AperFunction,Conductor*
G36*
X203501212Y-133365017D02*
G01*
X203504565Y-133371985D01*
X203550328Y-133780083D01*
X203677486Y-134079244D01*
X203677486Y-134079246D01*
X203864429Y-134311908D01*
X203864441Y-134311921D01*
X204090647Y-134530838D01*
X204090821Y-134531013D01*
X204327392Y-134780099D01*
X204330604Y-134788457D01*
X204326965Y-134796640D01*
X204326434Y-134797114D01*
X203385926Y-135587277D01*
X203377387Y-135589975D01*
X203370874Y-135587277D01*
X202430365Y-134797114D01*
X202426235Y-134789169D01*
X202428933Y-134780630D01*
X202429407Y-134780099D01*
X202666005Y-134530984D01*
X202666125Y-134530863D01*
X202892361Y-134311917D01*
X203079312Y-134079247D01*
X203206471Y-133780083D01*
X203252234Y-133371985D01*
X203256561Y-133364146D01*
X203263861Y-133361590D01*
X203492939Y-133361590D01*
X203501212Y-133365017D01*
G37*
G04 #@! TD.AperFunction*
G04 #@! TA.AperFunction,Conductor*
G36*
X203284823Y-129900655D02*
G01*
X203448639Y-130034674D01*
X203766236Y-130294504D01*
X203770470Y-130302394D01*
X203767884Y-130310967D01*
X203767786Y-130311085D01*
X203721013Y-130366758D01*
X203721008Y-130366765D01*
X203666606Y-130448402D01*
X203612208Y-130546911D01*
X203557804Y-130662313D01*
X203506382Y-130787350D01*
X203500066Y-130793698D01*
X203495561Y-130794600D01*
X203260029Y-130794600D01*
X203251756Y-130791173D01*
X203249993Y-130788915D01*
X203177492Y-130667944D01*
X203177490Y-130667940D01*
X203101581Y-130559067D01*
X203025671Y-130467978D01*
X203005399Y-130448402D01*
X202949768Y-130394681D01*
X202949767Y-130394680D01*
X202884323Y-130346817D01*
X202879668Y-130339167D01*
X202881786Y-130330466D01*
X202882534Y-130329545D01*
X203268732Y-129901869D01*
X203276819Y-129898026D01*
X203284823Y-129900655D01*
G37*
G04 #@! TD.AperFunction*
G04 #@! TA.AperFunction,Conductor*
G36*
X222551212Y-133365017D02*
G01*
X222554565Y-133371985D01*
X222600328Y-133780083D01*
X222727486Y-134079244D01*
X222727486Y-134079246D01*
X222914429Y-134311908D01*
X222914441Y-134311921D01*
X223140647Y-134530838D01*
X223140821Y-134531013D01*
X223377392Y-134780099D01*
X223380604Y-134788457D01*
X223376965Y-134796640D01*
X223376434Y-134797114D01*
X222435925Y-135587277D01*
X222427386Y-135589975D01*
X222420874Y-135587277D01*
X221480365Y-134797114D01*
X221476235Y-134789169D01*
X221478933Y-134780630D01*
X221479407Y-134780099D01*
X221716005Y-134530984D01*
X221716125Y-134530863D01*
X221942361Y-134311917D01*
X222129312Y-134079247D01*
X222256471Y-133780083D01*
X222302234Y-133371985D01*
X222306561Y-133364146D01*
X222313861Y-133361590D01*
X222542939Y-133361590D01*
X222551212Y-133365017D01*
G37*
G04 #@! TD.AperFunction*
G04 #@! TA.AperFunction,Conductor*
G36*
X222334823Y-129900655D02*
G01*
X222498639Y-130034674D01*
X222816236Y-130294504D01*
X222820470Y-130302394D01*
X222817884Y-130310967D01*
X222817786Y-130311085D01*
X222771013Y-130366758D01*
X222771008Y-130366765D01*
X222716606Y-130448402D01*
X222662208Y-130546911D01*
X222607804Y-130662313D01*
X222556382Y-130787350D01*
X222550066Y-130793698D01*
X222545561Y-130794600D01*
X222310029Y-130794600D01*
X222301756Y-130791173D01*
X222299993Y-130788915D01*
X222227492Y-130667944D01*
X222227490Y-130667940D01*
X222151581Y-130559067D01*
X222075671Y-130467978D01*
X222055399Y-130448402D01*
X221999768Y-130394681D01*
X221999767Y-130394680D01*
X221934323Y-130346817D01*
X221929668Y-130339167D01*
X221931786Y-130330466D01*
X221932534Y-130329545D01*
X222318732Y-129901869D01*
X222326819Y-129898026D01*
X222334823Y-129900655D01*
G37*
G04 #@! TD.AperFunction*
G04 #@! TA.AperFunction,Conductor*
G36*
X93963712Y-138127517D02*
G01*
X93967065Y-138134485D01*
X94012828Y-138542583D01*
X94139986Y-138841744D01*
X94139986Y-138841746D01*
X94326929Y-139074408D01*
X94326941Y-139074421D01*
X94553147Y-139293338D01*
X94553321Y-139293513D01*
X94789892Y-139542599D01*
X94793104Y-139550957D01*
X94789465Y-139559140D01*
X94788934Y-139559614D01*
X93848425Y-140349777D01*
X93839886Y-140352475D01*
X93833374Y-140349777D01*
X92892865Y-139559614D01*
X92888735Y-139551669D01*
X92891433Y-139543130D01*
X92891907Y-139542599D01*
X93128505Y-139293484D01*
X93128625Y-139293363D01*
X93354861Y-139074417D01*
X93541812Y-138841747D01*
X93668971Y-138542583D01*
X93714734Y-138134485D01*
X93719061Y-138126646D01*
X93726361Y-138124090D01*
X93955439Y-138124090D01*
X93963712Y-138127517D01*
G37*
G04 #@! TD.AperFunction*
G04 #@! TA.AperFunction,Conductor*
G36*
X93747323Y-134663155D02*
G01*
X93911139Y-134797174D01*
X94228736Y-135057004D01*
X94232970Y-135064894D01*
X94230384Y-135073467D01*
X94230286Y-135073585D01*
X94183513Y-135129258D01*
X94183508Y-135129265D01*
X94129106Y-135210902D01*
X94074708Y-135309411D01*
X94020304Y-135424813D01*
X93968882Y-135549850D01*
X93962566Y-135556198D01*
X93958061Y-135557100D01*
X93722529Y-135557100D01*
X93714256Y-135553673D01*
X93712493Y-135551415D01*
X93639992Y-135430444D01*
X93639990Y-135430440D01*
X93564081Y-135321567D01*
X93488171Y-135230478D01*
X93467899Y-135210902D01*
X93412268Y-135157181D01*
X93412267Y-135157180D01*
X93346823Y-135109317D01*
X93342168Y-135101667D01*
X93344286Y-135092966D01*
X93345034Y-135092045D01*
X93731232Y-134664369D01*
X93739319Y-134660526D01*
X93747323Y-134663155D01*
G37*
G04 #@! TD.AperFunction*
G04 #@! TA.AperFunction,Conductor*
G36*
X120157462Y-138127517D02*
G01*
X120160815Y-138134485D01*
X120206578Y-138542583D01*
X120333736Y-138841744D01*
X120333736Y-138841746D01*
X120520679Y-139074408D01*
X120520691Y-139074421D01*
X120746897Y-139293338D01*
X120747071Y-139293513D01*
X120983642Y-139542599D01*
X120986854Y-139550957D01*
X120983215Y-139559140D01*
X120982684Y-139559614D01*
X120042176Y-140349777D01*
X120033637Y-140352475D01*
X120027124Y-140349777D01*
X119086615Y-139559614D01*
X119082485Y-139551669D01*
X119085183Y-139543130D01*
X119085657Y-139542599D01*
X119322255Y-139293484D01*
X119322375Y-139293363D01*
X119548611Y-139074417D01*
X119735562Y-138841747D01*
X119862721Y-138542583D01*
X119908484Y-138134485D01*
X119912811Y-138126646D01*
X119920111Y-138124090D01*
X120149189Y-138124090D01*
X120157462Y-138127517D01*
G37*
G04 #@! TD.AperFunction*
G04 #@! TA.AperFunction,Conductor*
G36*
X119941073Y-134663155D02*
G01*
X120104889Y-134797174D01*
X120422486Y-135057004D01*
X120426720Y-135064894D01*
X120424134Y-135073467D01*
X120424036Y-135073585D01*
X120377263Y-135129258D01*
X120377258Y-135129265D01*
X120322856Y-135210902D01*
X120268458Y-135309411D01*
X120214054Y-135424813D01*
X120162632Y-135549850D01*
X120156316Y-135556198D01*
X120151811Y-135557100D01*
X119916279Y-135557100D01*
X119908006Y-135553673D01*
X119906243Y-135551415D01*
X119833742Y-135430444D01*
X119833740Y-135430440D01*
X119757831Y-135321567D01*
X119681921Y-135230478D01*
X119661649Y-135210902D01*
X119606018Y-135157181D01*
X119606017Y-135157180D01*
X119540573Y-135109317D01*
X119535918Y-135101667D01*
X119538036Y-135092966D01*
X119538784Y-135092045D01*
X119924982Y-134664369D01*
X119933069Y-134660526D01*
X119941073Y-134663155D01*
G37*
G04 #@! TD.AperFunction*
G04 #@! TA.AperFunction,Conductor*
G36*
X59287333Y-122867881D02*
G01*
X59732684Y-123285061D01*
X59736379Y-123293218D01*
X59733224Y-123301599D01*
X59732684Y-123302139D01*
X59287333Y-123719318D01*
X59278952Y-123722473D01*
X59271736Y-123719676D01*
X59161923Y-123625904D01*
X59161915Y-123625897D01*
X59119719Y-123596851D01*
X59044137Y-123544823D01*
X58926358Y-123483249D01*
X58926353Y-123483247D01*
X58926347Y-123483244D01*
X58852765Y-123456958D01*
X58808579Y-123441174D01*
X58808576Y-123441173D01*
X58808575Y-123441173D01*
X58700298Y-123420420D01*
X58692817Y-123415497D01*
X58690800Y-123408929D01*
X58690800Y-123178270D01*
X58694227Y-123169997D01*
X58700296Y-123166779D01*
X58808579Y-123146025D01*
X58926358Y-123103950D01*
X59044137Y-123042376D01*
X59161916Y-122961301D01*
X59271738Y-122867522D01*
X59280253Y-122864756D01*
X59287333Y-122867881D01*
G37*
G04 #@! TD.AperFunction*
G04 #@! TA.AperFunction,Conductor*
G36*
X48382486Y-55193063D02*
G01*
X49289946Y-55569927D01*
X49296273Y-55576265D01*
X49296264Y-55585219D01*
X49295767Y-55586267D01*
X49086762Y-55975533D01*
X49085584Y-55977314D01*
X48954587Y-56140791D01*
X48871571Y-56244392D01*
X48684802Y-56473252D01*
X48684801Y-56473252D01*
X48552949Y-56757647D01*
X48552947Y-56757655D01*
X48504191Y-57181836D01*
X48499842Y-57189664D01*
X48492568Y-57192200D01*
X48263432Y-57192200D01*
X48255159Y-57188773D01*
X48251809Y-57181836D01*
X48203051Y-56757655D01*
X48203051Y-56757651D01*
X48071198Y-56473253D01*
X48036848Y-56431162D01*
X47884431Y-56244396D01*
X47884434Y-56244392D01*
X47884365Y-56244315D01*
X47670414Y-55977314D01*
X47669236Y-55975533D01*
X47460232Y-55586267D01*
X47459337Y-55577357D01*
X47465005Y-55570424D01*
X47466048Y-55569929D01*
X48373514Y-55193062D01*
X48382464Y-55193054D01*
X48382486Y-55193063D01*
G37*
G04 #@! TD.AperFunction*
G04 #@! TA.AperFunction,Conductor*
G36*
X220363601Y-48377697D02*
G01*
X221179414Y-48714637D01*
X221185753Y-48720963D01*
X221185762Y-48720985D01*
X221522697Y-49536784D01*
X221522688Y-49545738D01*
X221516349Y-49552064D01*
X221515290Y-49552443D01*
X221137521Y-49667441D01*
X221135499Y-49667866D01*
X220894816Y-49696565D01*
X220831338Y-49704135D01*
X220761307Y-49712093D01*
X220568808Y-49733967D01*
X220568804Y-49733968D01*
X220305704Y-49833348D01*
X220006972Y-50071852D01*
X219998368Y-50074336D01*
X219991399Y-50070982D01*
X219829417Y-49909000D01*
X219825990Y-49900727D01*
X219828546Y-49893428D01*
X220067050Y-49594692D01*
X220166430Y-49331590D01*
X220196264Y-49069061D01*
X220232531Y-48764893D01*
X220232954Y-48762882D01*
X220347956Y-48385108D01*
X220353644Y-48378192D01*
X220362556Y-48377323D01*
X220363601Y-48377697D01*
G37*
G04 #@! TD.AperFunction*
G04 #@! TA.AperFunction,Conductor*
G36*
X197498700Y-51888575D02*
G01*
X197499707Y-51889051D01*
X197838481Y-52069366D01*
X197840185Y-52070475D01*
X198074620Y-52254048D01*
X198074649Y-52254099D01*
X198074663Y-52254082D01*
X198276150Y-52413356D01*
X198525807Y-52525313D01*
X198895194Y-52566441D01*
X198903037Y-52570762D01*
X198905599Y-52578069D01*
X198905599Y-52807130D01*
X198902172Y-52815403D01*
X198895194Y-52818758D01*
X198525806Y-52859886D01*
X198276150Y-52971843D01*
X198074641Y-53131133D01*
X197840191Y-53314719D01*
X197838475Y-53315835D01*
X197499708Y-53496147D01*
X197490795Y-53497009D01*
X197483883Y-53491316D01*
X197483406Y-53490308D01*
X197153863Y-52697086D01*
X197153855Y-52688134D01*
X197483406Y-51894890D01*
X197489745Y-51888566D01*
X197498700Y-51888575D01*
G37*
G04 #@! TD.AperFunction*
G04 #@! TA.AperFunction,Conductor*
G36*
X186132427Y-50763056D02*
G01*
X186137365Y-50767994D01*
X186460490Y-51385079D01*
X186461292Y-51393997D01*
X186459911Y-51396919D01*
X186421341Y-51455777D01*
X186379018Y-51533860D01*
X186379003Y-51533890D01*
X186336675Y-51625476D01*
X186336669Y-51625491D01*
X186294328Y-51730609D01*
X186254772Y-51841433D01*
X186248764Y-51848073D01*
X186243753Y-51849200D01*
X186010247Y-51849200D01*
X186001974Y-51845773D01*
X185999228Y-51841433D01*
X185959673Y-51730617D01*
X185959669Y-51730607D01*
X185959664Y-51730593D01*
X185917328Y-51625487D01*
X185874992Y-51533882D01*
X185832656Y-51455776D01*
X185794087Y-51396918D01*
X185792420Y-51388122D01*
X185793507Y-51385085D01*
X186116635Y-50767993D01*
X186123509Y-50762254D01*
X186132427Y-50763056D01*
G37*
G04 #@! TD.AperFunction*
G04 #@! TA.AperFunction,Conductor*
G36*
X186253342Y-53928027D02*
G01*
X186255330Y-53930679D01*
X186342429Y-54089670D01*
X186342434Y-54089679D01*
X186432861Y-54232206D01*
X186432868Y-54232217D01*
X186523302Y-54352217D01*
X186613736Y-54449678D01*
X186694089Y-54516247D01*
X186698274Y-54524164D01*
X186695635Y-54532721D01*
X186694743Y-54533683D01*
X186088839Y-55117468D01*
X186080504Y-55120740D01*
X186072295Y-55117160D01*
X186072282Y-55117146D01*
X185512519Y-54534234D01*
X185509260Y-54525893D01*
X185512854Y-54517691D01*
X185514024Y-54516707D01*
X185603014Y-54451412D01*
X185702760Y-54354818D01*
X185802507Y-54234818D01*
X185902253Y-54091412D01*
X185998594Y-53930295D01*
X186005782Y-53924954D01*
X186008637Y-53924600D01*
X186245069Y-53924600D01*
X186253342Y-53928027D01*
G37*
G04 #@! TD.AperFunction*
G04 #@! TA.AperFunction,Conductor*
G36*
X226270035Y-48721120D02*
G01*
X227117924Y-49331474D01*
X227122637Y-49339089D01*
X227120585Y-49347805D01*
X227119470Y-49349134D01*
X226980798Y-49491482D01*
X226980786Y-49491496D01*
X226832655Y-49685289D01*
X226832646Y-49685302D01*
X226684499Y-49920858D01*
X226536351Y-50198155D01*
X226391345Y-50510428D01*
X226384752Y-50516488D01*
X226380733Y-50517200D01*
X226145667Y-50517200D01*
X226137394Y-50513773D01*
X226135055Y-50510428D01*
X225990050Y-50198160D01*
X225841901Y-49920860D01*
X225693752Y-49685302D01*
X225693743Y-49685289D01*
X225545612Y-49491496D01*
X225545603Y-49491484D01*
X225406929Y-49349134D01*
X225403611Y-49340817D01*
X225407146Y-49332589D01*
X225408470Y-49331477D01*
X226256365Y-48721119D01*
X226265081Y-48719068D01*
X226270035Y-48721120D01*
G37*
G04 #@! TD.AperFunction*
G04 #@! TA.AperFunction,Conductor*
G36*
X186087814Y-57129675D02*
G01*
X186670167Y-57606807D01*
X186674395Y-57614701D01*
X186671802Y-57623272D01*
X186670829Y-57624321D01*
X186585401Y-57705844D01*
X186585399Y-57705847D01*
X186490396Y-57822121D01*
X186490393Y-57822124D01*
X186395399Y-57963998D01*
X186395390Y-57964012D01*
X186300396Y-58131496D01*
X186208615Y-58318065D01*
X186201889Y-58323975D01*
X186198117Y-58324600D01*
X185962683Y-58324600D01*
X185954410Y-58321173D01*
X185952185Y-58318065D01*
X185860402Y-58131496D01*
X185765404Y-57964006D01*
X185765403Y-57964005D01*
X185765400Y-57963999D01*
X185670399Y-57822117D01*
X185575399Y-57705847D01*
X185489967Y-57624320D01*
X185486348Y-57616131D01*
X185489581Y-57607780D01*
X185490617Y-57606818D01*
X186072986Y-57129674D01*
X186081555Y-57127082D01*
X186087814Y-57129675D01*
G37*
G04 #@! TD.AperFunction*
G04 #@! TA.AperFunction,Conductor*
G36*
X223107808Y-63101158D02*
G01*
X223108962Y-63102526D01*
X223719279Y-63950365D01*
X223721331Y-63959081D01*
X223719279Y-63964035D01*
X223108962Y-64811873D01*
X223101347Y-64816586D01*
X223092631Y-64814534D01*
X223091268Y-64813384D01*
X222975833Y-64699874D01*
X222865449Y-64591330D01*
X222865436Y-64591317D01*
X222784950Y-64526435D01*
X222629875Y-64401425D01*
X222394322Y-64253279D01*
X222394323Y-64253279D01*
X222394320Y-64253277D01*
X222394316Y-64253275D01*
X222158758Y-64146867D01*
X222047517Y-64116328D01*
X221931803Y-64084561D01*
X221924732Y-64079066D01*
X221923200Y-64073278D01*
X221923200Y-63841121D01*
X221926627Y-63832848D01*
X221931802Y-63829838D01*
X222158758Y-63767532D01*
X222394316Y-63661124D01*
X222629875Y-63512974D01*
X222865433Y-63323084D01*
X223091265Y-63101017D01*
X223099564Y-63097661D01*
X223107808Y-63101158D01*
G37*
G04 #@! TD.AperFunction*
G04 #@! TA.AperFunction,Conductor*
G36*
X221813768Y-63099865D02*
G01*
X221815130Y-63101014D01*
X221933026Y-63216944D01*
X222040949Y-63323068D01*
X222040962Y-63323081D01*
X222040966Y-63323084D01*
X222276524Y-63512974D01*
X222512083Y-63661124D01*
X222747641Y-63767532D01*
X222974597Y-63829838D01*
X222981668Y-63835333D01*
X222983200Y-63841121D01*
X222983200Y-64073278D01*
X222979773Y-64081551D01*
X222974597Y-64084561D01*
X222833243Y-64123366D01*
X222747641Y-64146867D01*
X222512083Y-64253275D01*
X222512080Y-64253276D01*
X222512075Y-64253279D01*
X222276531Y-64401420D01*
X222276524Y-64401425D01*
X222040966Y-64591315D01*
X222040956Y-64591323D01*
X221815136Y-64813380D01*
X221806835Y-64816738D01*
X221798591Y-64813241D01*
X221797437Y-64811873D01*
X221187120Y-63964034D01*
X221185068Y-63955318D01*
X221187118Y-63950366D01*
X221797438Y-63102525D01*
X221805052Y-63097813D01*
X221813768Y-63099865D01*
G37*
G04 #@! TD.AperFunction*
G04 #@! TA.AperFunction,Conductor*
G36*
X197959653Y-54902177D02*
G01*
X197965978Y-54908516D01*
X197966354Y-54909566D01*
X198078398Y-55276611D01*
X198078822Y-55278614D01*
X198114792Y-55574236D01*
X198114828Y-55574550D01*
X198114829Y-55574554D01*
X198144641Y-55829332D01*
X198242009Y-56085029D01*
X198242010Y-56085030D01*
X198242011Y-56085032D01*
X198353327Y-56224242D01*
X198474125Y-56375310D01*
X198476615Y-56383912D01*
X198473260Y-56390890D01*
X198311290Y-56552860D01*
X198303017Y-56556287D01*
X198295710Y-56553725D01*
X198192503Y-56471198D01*
X198005432Y-56321611D01*
X198005430Y-56321610D01*
X198005429Y-56321609D01*
X197749731Y-56224241D01*
X197749732Y-56224241D01*
X197494954Y-56194429D01*
X197494950Y-56194428D01*
X197494758Y-56194406D01*
X197494691Y-56194398D01*
X197494636Y-56194392D01*
X197494636Y-56194391D01*
X197199014Y-56158422D01*
X197197011Y-56157998D01*
X196829966Y-56045954D01*
X196823054Y-56040261D01*
X196822192Y-56031348D01*
X196822563Y-56030309D01*
X197150438Y-55236383D01*
X197156759Y-55230048D01*
X197950699Y-54902168D01*
X197959653Y-54902177D01*
G37*
G04 #@! TD.AperFunction*
G04 #@! TA.AperFunction,Conductor*
G36*
X197950708Y-58103006D02*
G01*
X197957033Y-58109345D01*
X197957024Y-58118300D01*
X197956547Y-58119308D01*
X197776235Y-58458075D01*
X197775119Y-58459791D01*
X197591533Y-58694241D01*
X197432243Y-58895750D01*
X197320286Y-59145406D01*
X197279158Y-59514795D01*
X197274837Y-59522638D01*
X197267530Y-59525200D01*
X197038469Y-59525200D01*
X197030196Y-59521773D01*
X197026841Y-59514795D01*
X196985713Y-59145407D01*
X196873756Y-58895750D01*
X196714482Y-58694263D01*
X196714484Y-58694261D01*
X196714448Y-58694220D01*
X196530875Y-58459785D01*
X196529766Y-58458081D01*
X196349451Y-58119307D01*
X196348590Y-58110395D01*
X196354283Y-58103483D01*
X196355281Y-58103010D01*
X197148513Y-57773463D01*
X197157465Y-57773455D01*
X197950708Y-58103006D01*
G37*
G04 #@! TD.AperFunction*
G04 #@! TA.AperFunction,Conductor*
G36*
X227984340Y-63618003D02*
G01*
X228799489Y-63954721D01*
X228805827Y-63961047D01*
X228805836Y-63961069D01*
X229142605Y-64776560D01*
X229142596Y-64785515D01*
X229136257Y-64791840D01*
X229134990Y-64792280D01*
X228818617Y-64882205D01*
X228815961Y-64882638D01*
X228559770Y-64894531D01*
X228559444Y-64894537D01*
X228333897Y-64892403D01*
X228333894Y-64892403D01*
X228099567Y-64943998D01*
X227824835Y-65111768D01*
X227815988Y-65113155D01*
X227809590Y-65109078D01*
X227677942Y-64943998D01*
X227666275Y-64929368D01*
X227663797Y-64920764D01*
X227666651Y-64914331D01*
X227684121Y-64894539D01*
X227869811Y-64684165D01*
X227922893Y-64458756D01*
X227902310Y-64221317D01*
X227902297Y-64221096D01*
X227901104Y-64192352D01*
X227891006Y-63948940D01*
X227891322Y-63945723D01*
X227968500Y-63626070D01*
X227973773Y-63618833D01*
X227982619Y-63617444D01*
X227984340Y-63618003D01*
G37*
G04 #@! TD.AperFunction*
G04 #@! TA.AperFunction,Conductor*
G36*
X153494962Y-138127517D02*
G01*
X153498315Y-138134485D01*
X153544078Y-138542583D01*
X153671236Y-138841744D01*
X153671236Y-138841746D01*
X153858179Y-139074408D01*
X153858191Y-139074421D01*
X154084397Y-139293338D01*
X154084571Y-139293513D01*
X154321142Y-139542599D01*
X154324354Y-139550957D01*
X154320715Y-139559140D01*
X154320184Y-139559614D01*
X153379676Y-140349777D01*
X153371137Y-140352475D01*
X153364624Y-140349777D01*
X152424115Y-139559614D01*
X152419985Y-139551669D01*
X152422683Y-139543130D01*
X152423157Y-139542599D01*
X152659755Y-139293484D01*
X152659875Y-139293363D01*
X152886111Y-139074417D01*
X153073062Y-138841747D01*
X153200221Y-138542583D01*
X153245984Y-138134485D01*
X153250311Y-138126646D01*
X153257611Y-138124090D01*
X153486689Y-138124090D01*
X153494962Y-138127517D01*
G37*
G04 #@! TD.AperFunction*
G04 #@! TA.AperFunction,Conductor*
G36*
X153278573Y-134663155D02*
G01*
X153442389Y-134797174D01*
X153759986Y-135057004D01*
X153764220Y-135064894D01*
X153761634Y-135073467D01*
X153761536Y-135073585D01*
X153714763Y-135129258D01*
X153714758Y-135129265D01*
X153660356Y-135210902D01*
X153605958Y-135309411D01*
X153551554Y-135424813D01*
X153500132Y-135549850D01*
X153493816Y-135556198D01*
X153489311Y-135557100D01*
X153253779Y-135557100D01*
X153245506Y-135553673D01*
X153243743Y-135551415D01*
X153171242Y-135430444D01*
X153171240Y-135430440D01*
X153095331Y-135321567D01*
X153019421Y-135230478D01*
X152999149Y-135210902D01*
X152943518Y-135157181D01*
X152943517Y-135157180D01*
X152878073Y-135109317D01*
X152873418Y-135101667D01*
X152875536Y-135092966D01*
X152876284Y-135092045D01*
X153262482Y-134664369D01*
X153270569Y-134660526D01*
X153278573Y-134663155D01*
G37*
G04 #@! TD.AperFunction*
G04 #@! TA.AperFunction,Conductor*
G36*
X179688712Y-138127517D02*
G01*
X179692065Y-138134485D01*
X179737828Y-138542583D01*
X179864986Y-138841744D01*
X179864986Y-138841746D01*
X180051929Y-139074408D01*
X180051941Y-139074421D01*
X180278147Y-139293338D01*
X180278321Y-139293513D01*
X180514892Y-139542599D01*
X180518104Y-139550957D01*
X180514465Y-139559140D01*
X180513934Y-139559614D01*
X179573426Y-140349777D01*
X179564887Y-140352475D01*
X179558374Y-140349777D01*
X178617865Y-139559614D01*
X178613735Y-139551669D01*
X178616433Y-139543130D01*
X178616907Y-139542599D01*
X178853505Y-139293484D01*
X178853625Y-139293363D01*
X179079861Y-139074417D01*
X179266812Y-138841747D01*
X179393971Y-138542583D01*
X179439734Y-138134485D01*
X179444061Y-138126646D01*
X179451361Y-138124090D01*
X179680439Y-138124090D01*
X179688712Y-138127517D01*
G37*
G04 #@! TD.AperFunction*
G04 #@! TA.AperFunction,Conductor*
G36*
X179472323Y-134663155D02*
G01*
X179636139Y-134797174D01*
X179953736Y-135057004D01*
X179957970Y-135064894D01*
X179955384Y-135073467D01*
X179955286Y-135073585D01*
X179908513Y-135129258D01*
X179908508Y-135129265D01*
X179854106Y-135210902D01*
X179799708Y-135309411D01*
X179745304Y-135424813D01*
X179693882Y-135549850D01*
X179687566Y-135556198D01*
X179683061Y-135557100D01*
X179447529Y-135557100D01*
X179439256Y-135553673D01*
X179437493Y-135551415D01*
X179364992Y-135430444D01*
X179364990Y-135430440D01*
X179289081Y-135321567D01*
X179213171Y-135230478D01*
X179192899Y-135210902D01*
X179137268Y-135157181D01*
X179137267Y-135157180D01*
X179071823Y-135109317D01*
X179067168Y-135101667D01*
X179069286Y-135092966D01*
X179070034Y-135092045D01*
X179456232Y-134664369D01*
X179464319Y-134660526D01*
X179472323Y-134663155D01*
G37*
G04 #@! TD.AperFunction*
G04 #@! TA.AperFunction,Conductor*
G36*
X189132427Y-50763056D02*
G01*
X189137365Y-50767994D01*
X189460490Y-51385079D01*
X189461292Y-51393997D01*
X189459911Y-51396919D01*
X189421341Y-51455777D01*
X189379018Y-51533860D01*
X189379003Y-51533890D01*
X189336675Y-51625476D01*
X189336669Y-51625491D01*
X189294328Y-51730609D01*
X189254772Y-51841433D01*
X189248764Y-51848073D01*
X189243753Y-51849200D01*
X189010247Y-51849200D01*
X189001974Y-51845773D01*
X188999228Y-51841433D01*
X188959673Y-51730617D01*
X188959669Y-51730607D01*
X188959664Y-51730593D01*
X188917328Y-51625487D01*
X188874992Y-51533882D01*
X188832656Y-51455776D01*
X188794087Y-51396918D01*
X188792420Y-51388122D01*
X188793507Y-51385085D01*
X189116635Y-50767993D01*
X189123509Y-50762254D01*
X189132427Y-50763056D01*
G37*
G04 #@! TD.AperFunction*
G04 #@! TA.AperFunction,Conductor*
G36*
X230954045Y-49608105D02*
G01*
X230960375Y-49614437D01*
X230960374Y-49623392D01*
X230955403Y-49629053D01*
X230866383Y-49680305D01*
X230756785Y-49766655D01*
X230647190Y-49876250D01*
X230537581Y-50009111D01*
X230537578Y-50009113D01*
X230428568Y-50164374D01*
X230427266Y-50165924D01*
X230258157Y-50335033D01*
X230249884Y-50338460D01*
X230243162Y-50336336D01*
X229892717Y-50090321D01*
X229534241Y-49885168D01*
X229175760Y-49726511D01*
X229175757Y-49726510D01*
X229175753Y-49726508D01*
X229175750Y-49726507D01*
X229175745Y-49726505D01*
X228817276Y-49614352D01*
X228817274Y-49614351D01*
X228817269Y-49614350D01*
X228647838Y-49583317D01*
X228473012Y-49551297D01*
X228465492Y-49546435D01*
X228463611Y-49537680D01*
X228464303Y-49535330D01*
X228798021Y-48727319D01*
X228804347Y-48720981D01*
X228813301Y-48720972D01*
X230954045Y-49608105D01*
G37*
G04 #@! TD.AperFunction*
G04 #@! TA.AperFunction,Conductor*
G36*
X127545262Y-69018522D02*
G01*
X127655083Y-69112301D01*
X127772862Y-69193376D01*
X127890641Y-69254950D01*
X127890648Y-69254952D01*
X127890651Y-69254954D01*
X127920047Y-69265455D01*
X128008420Y-69297025D01*
X128116703Y-69317779D01*
X128124183Y-69322702D01*
X128126200Y-69329270D01*
X128126200Y-69559929D01*
X128122773Y-69568202D01*
X128116702Y-69571420D01*
X128008423Y-69592173D01*
X128008420Y-69592173D01*
X128008420Y-69592174D01*
X127988790Y-69599186D01*
X127890651Y-69634244D01*
X127890642Y-69634248D01*
X127890641Y-69634249D01*
X127772862Y-69695823D01*
X127772859Y-69695824D01*
X127772857Y-69695826D01*
X127772856Y-69695827D01*
X127655083Y-69776897D01*
X127655075Y-69776904D01*
X127545263Y-69870676D01*
X127536746Y-69873443D01*
X127529666Y-69870318D01*
X127343391Y-69695826D01*
X127084314Y-69453137D01*
X127080620Y-69444982D01*
X127083775Y-69436601D01*
X127084305Y-69436070D01*
X127529667Y-69018880D01*
X127538047Y-69015726D01*
X127545262Y-69018522D01*
G37*
G04 #@! TD.AperFunction*
G04 #@! TA.AperFunction,Conductor*
G36*
X145672733Y-69018881D02*
G01*
X146118084Y-69436061D01*
X146121779Y-69444217D01*
X146118624Y-69452598D01*
X146118084Y-69453138D01*
X145672733Y-69870318D01*
X145664352Y-69873473D01*
X145657136Y-69870676D01*
X145547323Y-69776904D01*
X145547315Y-69776897D01*
X145505119Y-69747851D01*
X145429537Y-69695823D01*
X145311758Y-69634249D01*
X145311753Y-69634247D01*
X145311747Y-69634244D01*
X145238165Y-69607958D01*
X145193979Y-69592174D01*
X145193976Y-69592173D01*
X145193975Y-69592173D01*
X145085698Y-69571420D01*
X145078217Y-69566497D01*
X145076200Y-69559929D01*
X145076200Y-69329270D01*
X145079627Y-69320997D01*
X145085696Y-69317779D01*
X145193979Y-69297025D01*
X145311758Y-69254950D01*
X145429537Y-69193376D01*
X145547316Y-69112301D01*
X145657138Y-69018522D01*
X145665653Y-69015756D01*
X145672733Y-69018881D01*
G37*
G04 #@! TD.AperFunction*
G04 #@! TA.AperFunction,Conductor*
G36*
X107572733Y-69018881D02*
G01*
X108018084Y-69436061D01*
X108021779Y-69444218D01*
X108018624Y-69452599D01*
X108018084Y-69453139D01*
X107572733Y-69870318D01*
X107564352Y-69873473D01*
X107557136Y-69870676D01*
X107447323Y-69776904D01*
X107447315Y-69776897D01*
X107405119Y-69747851D01*
X107329537Y-69695823D01*
X107211758Y-69634249D01*
X107211753Y-69634247D01*
X107211747Y-69634244D01*
X107138165Y-69607958D01*
X107093979Y-69592174D01*
X107093976Y-69592173D01*
X107093975Y-69592173D01*
X106985698Y-69571420D01*
X106978217Y-69566497D01*
X106976200Y-69559929D01*
X106976200Y-69329270D01*
X106979627Y-69320997D01*
X106985696Y-69317779D01*
X107093979Y-69297025D01*
X107211758Y-69254950D01*
X107329537Y-69193376D01*
X107447316Y-69112301D01*
X107557138Y-69018522D01*
X107565653Y-69015756D01*
X107572733Y-69018881D01*
G37*
G04 #@! TD.AperFunction*
G04 #@! TA.AperFunction,Conductor*
G36*
X89445262Y-69018522D02*
G01*
X89555083Y-69112301D01*
X89672862Y-69193376D01*
X89790641Y-69254950D01*
X89790648Y-69254952D01*
X89790651Y-69254954D01*
X89820047Y-69265455D01*
X89908420Y-69297025D01*
X90016703Y-69317779D01*
X90024183Y-69322702D01*
X90026200Y-69329270D01*
X90026200Y-69559929D01*
X90022773Y-69568202D01*
X90016702Y-69571420D01*
X89908423Y-69592173D01*
X89908420Y-69592173D01*
X89908420Y-69592174D01*
X89888790Y-69599186D01*
X89790651Y-69634244D01*
X89790642Y-69634248D01*
X89790641Y-69634249D01*
X89672862Y-69695823D01*
X89672859Y-69695824D01*
X89672857Y-69695826D01*
X89672856Y-69695827D01*
X89555083Y-69776897D01*
X89555075Y-69776904D01*
X89445263Y-69870676D01*
X89436746Y-69873443D01*
X89429666Y-69870318D01*
X89243391Y-69695826D01*
X88984314Y-69453137D01*
X88980620Y-69444982D01*
X88983775Y-69436601D01*
X88984305Y-69436070D01*
X89429667Y-69018880D01*
X89438047Y-69015726D01*
X89445262Y-69018522D01*
G37*
G04 #@! TD.AperFunction*
G04 #@! TA.AperFunction,Conductor*
G36*
X221872733Y-69018881D02*
G01*
X222318084Y-69436061D01*
X222321779Y-69444218D01*
X222318624Y-69452599D01*
X222318084Y-69453139D01*
X221872733Y-69870318D01*
X221864352Y-69873473D01*
X221857136Y-69870676D01*
X221747323Y-69776904D01*
X221747315Y-69776897D01*
X221705119Y-69747851D01*
X221629537Y-69695823D01*
X221511758Y-69634249D01*
X221511753Y-69634247D01*
X221511747Y-69634244D01*
X221438165Y-69607958D01*
X221393979Y-69592174D01*
X221393976Y-69592173D01*
X221393975Y-69592173D01*
X221285698Y-69571420D01*
X221278217Y-69566497D01*
X221276200Y-69559929D01*
X221276200Y-69329270D01*
X221279627Y-69320997D01*
X221285696Y-69317779D01*
X221393979Y-69297025D01*
X221511758Y-69254950D01*
X221629537Y-69193376D01*
X221747316Y-69112301D01*
X221857138Y-69018522D01*
X221865653Y-69015756D01*
X221872733Y-69018881D01*
G37*
G04 #@! TD.AperFunction*
G04 #@! TA.AperFunction,Conductor*
G36*
X203745262Y-69018522D02*
G01*
X203855083Y-69112301D01*
X203972862Y-69193376D01*
X204090641Y-69254950D01*
X204090648Y-69254952D01*
X204090651Y-69254954D01*
X204120047Y-69265455D01*
X204208420Y-69297025D01*
X204316703Y-69317779D01*
X204324183Y-69322702D01*
X204326200Y-69329270D01*
X204326200Y-69559929D01*
X204322773Y-69568202D01*
X204316702Y-69571420D01*
X204208423Y-69592173D01*
X204208420Y-69592173D01*
X204208420Y-69592174D01*
X204188790Y-69599186D01*
X204090651Y-69634244D01*
X204090642Y-69634248D01*
X204090641Y-69634249D01*
X203972862Y-69695823D01*
X203972859Y-69695824D01*
X203972857Y-69695826D01*
X203972856Y-69695827D01*
X203855083Y-69776897D01*
X203855075Y-69776904D01*
X203745263Y-69870676D01*
X203736746Y-69873443D01*
X203729666Y-69870318D01*
X203284315Y-69453138D01*
X203280620Y-69444981D01*
X203283775Y-69436600D01*
X203284290Y-69436084D01*
X203729667Y-69018880D01*
X203738047Y-69015726D01*
X203745262Y-69018522D01*
G37*
G04 #@! TD.AperFunction*
G04 #@! TA.AperFunction,Conductor*
G36*
X184695262Y-69018522D02*
G01*
X184805083Y-69112301D01*
X184922862Y-69193376D01*
X185040641Y-69254950D01*
X185040648Y-69254952D01*
X185040651Y-69254954D01*
X185070047Y-69265455D01*
X185158420Y-69297025D01*
X185266703Y-69317779D01*
X185274183Y-69322702D01*
X185276200Y-69329270D01*
X185276200Y-69559929D01*
X185272773Y-69568202D01*
X185266702Y-69571420D01*
X185158423Y-69592173D01*
X185158420Y-69592173D01*
X185158420Y-69592174D01*
X185138790Y-69599186D01*
X185040651Y-69634244D01*
X185040642Y-69634248D01*
X185040641Y-69634249D01*
X184922862Y-69695823D01*
X184922859Y-69695824D01*
X184922857Y-69695826D01*
X184922856Y-69695827D01*
X184805083Y-69776897D01*
X184805075Y-69776904D01*
X184695263Y-69870676D01*
X184686746Y-69873443D01*
X184679666Y-69870318D01*
X184493391Y-69695826D01*
X184234314Y-69453137D01*
X184230620Y-69444982D01*
X184233775Y-69436601D01*
X184234305Y-69436070D01*
X184679667Y-69018880D01*
X184688047Y-69015726D01*
X184695262Y-69018522D01*
G37*
G04 #@! TD.AperFunction*
G04 #@! TA.AperFunction,Conductor*
G36*
X202822733Y-69018881D02*
G01*
X203268084Y-69436061D01*
X203271779Y-69444218D01*
X203268624Y-69452599D01*
X203268084Y-69453139D01*
X202822733Y-69870318D01*
X202814352Y-69873473D01*
X202807136Y-69870676D01*
X202697323Y-69776904D01*
X202697315Y-69776897D01*
X202655119Y-69747851D01*
X202579537Y-69695823D01*
X202461758Y-69634249D01*
X202461753Y-69634247D01*
X202461747Y-69634244D01*
X202388165Y-69607958D01*
X202343979Y-69592174D01*
X202343976Y-69592173D01*
X202343975Y-69592173D01*
X202235698Y-69571420D01*
X202228217Y-69566497D01*
X202226200Y-69559929D01*
X202226200Y-69329270D01*
X202229627Y-69320997D01*
X202235696Y-69317779D01*
X202343979Y-69297025D01*
X202461758Y-69254950D01*
X202579537Y-69193376D01*
X202697316Y-69112301D01*
X202807138Y-69018522D01*
X202815653Y-69015756D01*
X202822733Y-69018881D01*
G37*
G04 #@! TD.AperFunction*
G04 #@! TA.AperFunction,Conductor*
G36*
X183772733Y-69018881D02*
G01*
X184218084Y-69436061D01*
X184221779Y-69444218D01*
X184218624Y-69452599D01*
X184218084Y-69453139D01*
X183772733Y-69870318D01*
X183764352Y-69873473D01*
X183757136Y-69870676D01*
X183647323Y-69776904D01*
X183647315Y-69776897D01*
X183605119Y-69747851D01*
X183529537Y-69695823D01*
X183411758Y-69634249D01*
X183411753Y-69634247D01*
X183411747Y-69634244D01*
X183338165Y-69607958D01*
X183293979Y-69592174D01*
X183293976Y-69592173D01*
X183293975Y-69592173D01*
X183185698Y-69571420D01*
X183178217Y-69566497D01*
X183176200Y-69559929D01*
X183176200Y-69329270D01*
X183179627Y-69320997D01*
X183185696Y-69317779D01*
X183293979Y-69297025D01*
X183411758Y-69254950D01*
X183529537Y-69193376D01*
X183647316Y-69112301D01*
X183757138Y-69018522D01*
X183765653Y-69015756D01*
X183772733Y-69018881D01*
G37*
G04 #@! TD.AperFunction*
G04 #@! TA.AperFunction,Conductor*
G36*
X165645262Y-69018522D02*
G01*
X165755083Y-69112301D01*
X165872862Y-69193376D01*
X165990641Y-69254950D01*
X165990648Y-69254952D01*
X165990651Y-69254954D01*
X166020047Y-69265455D01*
X166108420Y-69297025D01*
X166216703Y-69317779D01*
X166224183Y-69322702D01*
X166226200Y-69329270D01*
X166226200Y-69559929D01*
X166222773Y-69568202D01*
X166216702Y-69571420D01*
X166108423Y-69592173D01*
X166108420Y-69592173D01*
X166108420Y-69592174D01*
X166088790Y-69599186D01*
X165990651Y-69634244D01*
X165990642Y-69634248D01*
X165990641Y-69634249D01*
X165872862Y-69695823D01*
X165872859Y-69695824D01*
X165872857Y-69695826D01*
X165872856Y-69695827D01*
X165755083Y-69776897D01*
X165755075Y-69776904D01*
X165645263Y-69870676D01*
X165636746Y-69873443D01*
X165629666Y-69870318D01*
X165443391Y-69695826D01*
X165184314Y-69453137D01*
X165180620Y-69444982D01*
X165183775Y-69436601D01*
X165184305Y-69436070D01*
X165629667Y-69018880D01*
X165638047Y-69015726D01*
X165645262Y-69018522D01*
G37*
G04 #@! TD.AperFunction*
G04 #@! TA.AperFunction,Conductor*
G36*
X69472733Y-69018881D02*
G01*
X69918084Y-69436061D01*
X69921779Y-69444218D01*
X69918624Y-69452599D01*
X69918084Y-69453139D01*
X69472733Y-69870318D01*
X69464352Y-69873473D01*
X69457136Y-69870676D01*
X69347323Y-69776904D01*
X69347315Y-69776897D01*
X69305119Y-69747851D01*
X69229537Y-69695823D01*
X69111758Y-69634249D01*
X69111753Y-69634247D01*
X69111747Y-69634244D01*
X69038165Y-69607958D01*
X68993979Y-69592174D01*
X68993976Y-69592173D01*
X68993975Y-69592173D01*
X68885698Y-69571420D01*
X68878217Y-69566497D01*
X68876200Y-69559929D01*
X68876200Y-69329270D01*
X68879627Y-69320997D01*
X68885696Y-69317779D01*
X68993979Y-69297025D01*
X69111758Y-69254950D01*
X69229537Y-69193376D01*
X69347316Y-69112301D01*
X69457138Y-69018522D01*
X69465653Y-69015756D01*
X69472733Y-69018881D01*
G37*
G04 #@! TD.AperFunction*
G04 #@! TA.AperFunction,Conductor*
G36*
X51345262Y-69018522D02*
G01*
X51455083Y-69112301D01*
X51572862Y-69193376D01*
X51690641Y-69254950D01*
X51690648Y-69254952D01*
X51690651Y-69254954D01*
X51720047Y-69265455D01*
X51808420Y-69297025D01*
X51916703Y-69317779D01*
X51924183Y-69322702D01*
X51926200Y-69329270D01*
X51926200Y-69559929D01*
X51922773Y-69568202D01*
X51916702Y-69571420D01*
X51808423Y-69592173D01*
X51808420Y-69592173D01*
X51808420Y-69592174D01*
X51788790Y-69599186D01*
X51690651Y-69634244D01*
X51690642Y-69634248D01*
X51690641Y-69634249D01*
X51572862Y-69695823D01*
X51572859Y-69695824D01*
X51572857Y-69695826D01*
X51572856Y-69695827D01*
X51455083Y-69776897D01*
X51455075Y-69776904D01*
X51345263Y-69870676D01*
X51336746Y-69873443D01*
X51329666Y-69870318D01*
X51143391Y-69695826D01*
X50884314Y-69453137D01*
X50880620Y-69444982D01*
X50883775Y-69436601D01*
X50884305Y-69436070D01*
X51329667Y-69018880D01*
X51338047Y-69015726D01*
X51345262Y-69018522D01*
G37*
G04 #@! TD.AperFunction*
G04 #@! TA.AperFunction,Conductor*
G36*
X164722733Y-69018881D02*
G01*
X165168084Y-69436061D01*
X165171779Y-69444218D01*
X165168624Y-69452599D01*
X165168084Y-69453139D01*
X164722733Y-69870318D01*
X164714352Y-69873473D01*
X164707136Y-69870676D01*
X164597323Y-69776904D01*
X164597315Y-69776897D01*
X164555119Y-69747851D01*
X164479537Y-69695823D01*
X164361758Y-69634249D01*
X164361753Y-69634247D01*
X164361747Y-69634244D01*
X164288165Y-69607958D01*
X164243979Y-69592174D01*
X164243976Y-69592173D01*
X164243975Y-69592173D01*
X164135697Y-69571420D01*
X164128216Y-69566497D01*
X164126200Y-69559932D01*
X164126200Y-69329267D01*
X164129626Y-69320997D01*
X164135694Y-69317780D01*
X164243979Y-69297025D01*
X164361758Y-69254950D01*
X164479537Y-69193376D01*
X164597316Y-69112301D01*
X164707138Y-69018522D01*
X164715653Y-69015756D01*
X164722733Y-69018881D01*
G37*
G04 #@! TD.AperFunction*
G04 #@! TA.AperFunction,Conductor*
G36*
X146595262Y-69018522D02*
G01*
X146705083Y-69112301D01*
X146822862Y-69193376D01*
X146940641Y-69254950D01*
X146940648Y-69254952D01*
X146940651Y-69254954D01*
X146970047Y-69265455D01*
X147058420Y-69297025D01*
X147166703Y-69317779D01*
X147174183Y-69322702D01*
X147176200Y-69329270D01*
X147176200Y-69559929D01*
X147172773Y-69568202D01*
X147166702Y-69571420D01*
X147058423Y-69592173D01*
X147058420Y-69592173D01*
X147058420Y-69592174D01*
X147038790Y-69599186D01*
X146940651Y-69634244D01*
X146940642Y-69634248D01*
X146940641Y-69634249D01*
X146822862Y-69695823D01*
X146822859Y-69695824D01*
X146822857Y-69695826D01*
X146822856Y-69695827D01*
X146705083Y-69776897D01*
X146705075Y-69776904D01*
X146595263Y-69870676D01*
X146586746Y-69873443D01*
X146579666Y-69870318D01*
X146393391Y-69695826D01*
X146134314Y-69453137D01*
X146130620Y-69444982D01*
X146133775Y-69436601D01*
X146134305Y-69436070D01*
X146579667Y-69018880D01*
X146588047Y-69015726D01*
X146595262Y-69018522D01*
G37*
G04 #@! TD.AperFunction*
G04 #@! TA.AperFunction,Conductor*
G36*
X231575590Y-68983360D02*
G01*
X231576190Y-68984592D01*
X231723323Y-69337498D01*
X231723344Y-69346452D01*
X231723323Y-69346502D01*
X231575633Y-69700744D01*
X231569286Y-69707062D01*
X231560332Y-69707041D01*
X231545264Y-69700744D01*
X231422910Y-69649612D01*
X231422887Y-69649603D01*
X231422852Y-69649588D01*
X231422837Y-69649582D01*
X231422797Y-69649566D01*
X231314907Y-69608485D01*
X231218438Y-69584166D01*
X231218433Y-69584165D01*
X231139427Y-69576110D01*
X231104618Y-69572562D01*
X231091339Y-69572316D01*
X230956091Y-69569812D01*
X230947883Y-69566233D01*
X230944608Y-69558114D01*
X230944608Y-69329834D01*
X230948035Y-69321561D01*
X230954750Y-69318238D01*
X231115525Y-69296653D01*
X231224565Y-69236873D01*
X231310749Y-69153897D01*
X231310846Y-69153805D01*
X231412326Y-69062053D01*
X231414431Y-69060539D01*
X231559659Y-68978894D01*
X231568548Y-68977828D01*
X231575590Y-68983360D01*
G37*
G04 #@! TD.AperFunction*
G04 #@! TA.AperFunction,Conductor*
G36*
X222795262Y-69018522D02*
G01*
X222905083Y-69112301D01*
X223022862Y-69193376D01*
X223140641Y-69254950D01*
X223140648Y-69254952D01*
X223140651Y-69254954D01*
X223170047Y-69265455D01*
X223258420Y-69297025D01*
X223366703Y-69317779D01*
X223374183Y-69322702D01*
X223376200Y-69329270D01*
X223376200Y-69559929D01*
X223372773Y-69568202D01*
X223366702Y-69571420D01*
X223258423Y-69592173D01*
X223258420Y-69592173D01*
X223258420Y-69592174D01*
X223238790Y-69599186D01*
X223140651Y-69634244D01*
X223140642Y-69634248D01*
X223140641Y-69634249D01*
X223022862Y-69695823D01*
X223022859Y-69695824D01*
X223022857Y-69695826D01*
X223022856Y-69695827D01*
X222905083Y-69776897D01*
X222905075Y-69776904D01*
X222795263Y-69870676D01*
X222786746Y-69873443D01*
X222779666Y-69870318D01*
X222593391Y-69695826D01*
X222334314Y-69453137D01*
X222330620Y-69444982D01*
X222333775Y-69436601D01*
X222334305Y-69436070D01*
X222779667Y-69018880D01*
X222788047Y-69015726D01*
X222795262Y-69018522D01*
G37*
G04 #@! TD.AperFunction*
G04 #@! TA.AperFunction,Conductor*
G36*
X70395262Y-69018522D02*
G01*
X70505083Y-69112301D01*
X70622862Y-69193376D01*
X70740641Y-69254950D01*
X70740648Y-69254952D01*
X70740651Y-69254954D01*
X70770047Y-69265455D01*
X70858420Y-69297025D01*
X70966703Y-69317779D01*
X70974183Y-69322702D01*
X70976200Y-69329270D01*
X70976200Y-69559929D01*
X70972773Y-69568202D01*
X70966702Y-69571420D01*
X70858423Y-69592173D01*
X70858420Y-69592173D01*
X70858420Y-69592174D01*
X70838790Y-69599186D01*
X70740651Y-69634244D01*
X70740642Y-69634248D01*
X70740641Y-69634249D01*
X70622862Y-69695823D01*
X70622859Y-69695824D01*
X70622857Y-69695826D01*
X70622856Y-69695827D01*
X70505083Y-69776897D01*
X70505075Y-69776904D01*
X70395263Y-69870676D01*
X70386746Y-69873443D01*
X70379666Y-69870318D01*
X70193391Y-69695826D01*
X69934314Y-69453137D01*
X69930620Y-69444982D01*
X69933775Y-69436601D01*
X69934305Y-69436070D01*
X70379667Y-69018880D01*
X70388047Y-69015726D01*
X70395262Y-69018522D01*
G37*
G04 #@! TD.AperFunction*
G04 #@! TA.AperFunction,Conductor*
G36*
X88522733Y-69018881D02*
G01*
X88968084Y-69436061D01*
X88971779Y-69444218D01*
X88968624Y-69452599D01*
X88968084Y-69453139D01*
X88522733Y-69870318D01*
X88514352Y-69873473D01*
X88507136Y-69870676D01*
X88397323Y-69776904D01*
X88397315Y-69776897D01*
X88355119Y-69747851D01*
X88279537Y-69695823D01*
X88161758Y-69634249D01*
X88161753Y-69634247D01*
X88161747Y-69634244D01*
X88088165Y-69607958D01*
X88043979Y-69592174D01*
X88043976Y-69592173D01*
X88043975Y-69592173D01*
X87935698Y-69571420D01*
X87928217Y-69566497D01*
X87926200Y-69559929D01*
X87926200Y-69329270D01*
X87929627Y-69320997D01*
X87935696Y-69317779D01*
X88043979Y-69297025D01*
X88161758Y-69254950D01*
X88279537Y-69193376D01*
X88397316Y-69112301D01*
X88507138Y-69018522D01*
X88515653Y-69015756D01*
X88522733Y-69018881D01*
G37*
G04 #@! TD.AperFunction*
G04 #@! TA.AperFunction,Conductor*
G36*
X126622733Y-69018881D02*
G01*
X127068084Y-69436061D01*
X127071779Y-69444218D01*
X127068624Y-69452599D01*
X127068084Y-69453139D01*
X126622733Y-69870318D01*
X126614352Y-69873473D01*
X126607136Y-69870676D01*
X126497323Y-69776904D01*
X126497315Y-69776897D01*
X126455119Y-69747851D01*
X126379537Y-69695823D01*
X126261758Y-69634249D01*
X126261753Y-69634247D01*
X126261747Y-69634244D01*
X126188165Y-69607958D01*
X126143979Y-69592174D01*
X126143976Y-69592173D01*
X126143975Y-69592173D01*
X126035698Y-69571420D01*
X126028217Y-69566497D01*
X126026200Y-69559929D01*
X126026200Y-69329270D01*
X126029627Y-69320997D01*
X126035696Y-69317779D01*
X126143979Y-69297025D01*
X126261758Y-69254950D01*
X126379537Y-69193376D01*
X126497316Y-69112301D01*
X126607138Y-69018522D01*
X126615653Y-69015756D01*
X126622733Y-69018881D01*
G37*
G04 #@! TD.AperFunction*
G04 #@! TA.AperFunction,Conductor*
G36*
X108495262Y-69018522D02*
G01*
X108605083Y-69112301D01*
X108722862Y-69193376D01*
X108840641Y-69254950D01*
X108840648Y-69254952D01*
X108840651Y-69254954D01*
X108870047Y-69265455D01*
X108958420Y-69297025D01*
X109066703Y-69317779D01*
X109074183Y-69322702D01*
X109076200Y-69329270D01*
X109076200Y-69559929D01*
X109072773Y-69568202D01*
X109066702Y-69571420D01*
X108958423Y-69592173D01*
X108958420Y-69592173D01*
X108958420Y-69592174D01*
X108938790Y-69599186D01*
X108840651Y-69634244D01*
X108840642Y-69634248D01*
X108840641Y-69634249D01*
X108722862Y-69695823D01*
X108722859Y-69695824D01*
X108722857Y-69695826D01*
X108722856Y-69695827D01*
X108605083Y-69776897D01*
X108605075Y-69776904D01*
X108495263Y-69870676D01*
X108486746Y-69873443D01*
X108479666Y-69870318D01*
X108293391Y-69695826D01*
X108034314Y-69453137D01*
X108030620Y-69444982D01*
X108033775Y-69436601D01*
X108034305Y-69436070D01*
X108479667Y-69018880D01*
X108488047Y-69015726D01*
X108495262Y-69018522D01*
G37*
G04 #@! TD.AperFunction*
G04 #@! TA.AperFunction,Conductor*
G36*
X221872733Y-88068881D02*
G01*
X222318084Y-88486061D01*
X222321779Y-88494218D01*
X222318624Y-88502599D01*
X222318084Y-88503139D01*
X221872733Y-88920318D01*
X221864352Y-88923473D01*
X221857136Y-88920676D01*
X221747323Y-88826904D01*
X221747315Y-88826897D01*
X221705119Y-88797851D01*
X221629537Y-88745823D01*
X221511758Y-88684249D01*
X221511753Y-88684247D01*
X221511747Y-88684244D01*
X221438165Y-88657958D01*
X221393979Y-88642174D01*
X221393976Y-88642173D01*
X221393975Y-88642173D01*
X221285698Y-88621420D01*
X221278217Y-88616497D01*
X221276200Y-88609929D01*
X221276200Y-88379270D01*
X221279627Y-88370997D01*
X221285696Y-88367779D01*
X221393979Y-88347025D01*
X221511758Y-88304950D01*
X221629537Y-88243376D01*
X221747316Y-88162301D01*
X221857138Y-88068522D01*
X221865653Y-88065756D01*
X221872733Y-88068881D01*
G37*
G04 #@! TD.AperFunction*
G04 #@! TA.AperFunction,Conductor*
G36*
X203745262Y-88068522D02*
G01*
X203855083Y-88162301D01*
X203972862Y-88243376D01*
X204090641Y-88304950D01*
X204090648Y-88304952D01*
X204090651Y-88304954D01*
X204120047Y-88315455D01*
X204208420Y-88347025D01*
X204316703Y-88367779D01*
X204324183Y-88372702D01*
X204326200Y-88379270D01*
X204326200Y-88609929D01*
X204322773Y-88618202D01*
X204316702Y-88621420D01*
X204208423Y-88642173D01*
X204208420Y-88642173D01*
X204208420Y-88642174D01*
X204188790Y-88649186D01*
X204090651Y-88684244D01*
X204090642Y-88684248D01*
X204090641Y-88684249D01*
X203972862Y-88745823D01*
X203972859Y-88745824D01*
X203972857Y-88745826D01*
X203972856Y-88745827D01*
X203855083Y-88826897D01*
X203855075Y-88826904D01*
X203745263Y-88920676D01*
X203736746Y-88923443D01*
X203729666Y-88920318D01*
X203284315Y-88503138D01*
X203280620Y-88494981D01*
X203283775Y-88486600D01*
X203284290Y-88486084D01*
X203729667Y-88068880D01*
X203738047Y-88065726D01*
X203745262Y-88068522D01*
G37*
G04 #@! TD.AperFunction*
G04 #@! TA.AperFunction,Conductor*
G36*
X164722733Y-88068881D02*
G01*
X165168084Y-88486061D01*
X165171779Y-88494218D01*
X165168624Y-88502599D01*
X165168084Y-88503139D01*
X164722733Y-88920318D01*
X164714352Y-88923473D01*
X164707136Y-88920676D01*
X164597323Y-88826904D01*
X164597315Y-88826897D01*
X164555119Y-88797851D01*
X164479537Y-88745823D01*
X164361758Y-88684249D01*
X164361753Y-88684247D01*
X164361747Y-88684244D01*
X164288165Y-88657958D01*
X164243979Y-88642174D01*
X164243976Y-88642173D01*
X164243975Y-88642173D01*
X164135697Y-88621420D01*
X164128216Y-88616497D01*
X164126200Y-88609932D01*
X164126200Y-88379267D01*
X164129626Y-88370997D01*
X164135694Y-88367780D01*
X164243979Y-88347025D01*
X164361758Y-88304950D01*
X164479537Y-88243376D01*
X164597316Y-88162301D01*
X164707138Y-88068522D01*
X164715653Y-88065756D01*
X164722733Y-88068881D01*
G37*
G04 #@! TD.AperFunction*
G04 #@! TA.AperFunction,Conductor*
G36*
X146595262Y-88068522D02*
G01*
X146705083Y-88162301D01*
X146822862Y-88243376D01*
X146940641Y-88304950D01*
X146940648Y-88304952D01*
X146940651Y-88304954D01*
X146970047Y-88315455D01*
X147058420Y-88347025D01*
X147166703Y-88367779D01*
X147174183Y-88372702D01*
X147176200Y-88379270D01*
X147176200Y-88609929D01*
X147172773Y-88618202D01*
X147166702Y-88621420D01*
X147058423Y-88642173D01*
X147058420Y-88642173D01*
X147058420Y-88642174D01*
X147038790Y-88649186D01*
X146940651Y-88684244D01*
X146940642Y-88684248D01*
X146940641Y-88684249D01*
X146822862Y-88745823D01*
X146822859Y-88745824D01*
X146822857Y-88745826D01*
X146822856Y-88745827D01*
X146705083Y-88826897D01*
X146705075Y-88826904D01*
X146595263Y-88920676D01*
X146586746Y-88923443D01*
X146579666Y-88920318D01*
X146393391Y-88745826D01*
X146134314Y-88503137D01*
X146130620Y-88494982D01*
X146133775Y-88486601D01*
X146134305Y-88486070D01*
X146579667Y-88068880D01*
X146588047Y-88065726D01*
X146595262Y-88068522D01*
G37*
G04 #@! TD.AperFunction*
G04 #@! TA.AperFunction,Conductor*
G36*
X126622733Y-88068881D02*
G01*
X127068084Y-88486061D01*
X127071779Y-88494218D01*
X127068624Y-88502599D01*
X127068084Y-88503139D01*
X126622733Y-88920318D01*
X126614352Y-88923473D01*
X126607136Y-88920676D01*
X126497323Y-88826904D01*
X126497315Y-88826897D01*
X126455119Y-88797851D01*
X126379537Y-88745823D01*
X126261758Y-88684249D01*
X126261753Y-88684247D01*
X126261747Y-88684244D01*
X126188165Y-88657958D01*
X126143979Y-88642174D01*
X126143976Y-88642173D01*
X126143975Y-88642173D01*
X126035698Y-88621420D01*
X126028217Y-88616497D01*
X126026200Y-88609929D01*
X126026200Y-88379270D01*
X126029627Y-88370997D01*
X126035696Y-88367779D01*
X126143979Y-88347025D01*
X126261758Y-88304950D01*
X126379537Y-88243376D01*
X126497316Y-88162301D01*
X126607138Y-88068522D01*
X126615653Y-88065756D01*
X126622733Y-88068881D01*
G37*
G04 #@! TD.AperFunction*
G04 #@! TA.AperFunction,Conductor*
G36*
X108495262Y-88068522D02*
G01*
X108605083Y-88162301D01*
X108722862Y-88243376D01*
X108840641Y-88304950D01*
X108840648Y-88304952D01*
X108840651Y-88304954D01*
X108870047Y-88315455D01*
X108958420Y-88347025D01*
X109066703Y-88367779D01*
X109074183Y-88372702D01*
X109076200Y-88379270D01*
X109076200Y-88609929D01*
X109072773Y-88618202D01*
X109066702Y-88621420D01*
X108958423Y-88642173D01*
X108958420Y-88642173D01*
X108958420Y-88642174D01*
X108938790Y-88649186D01*
X108840651Y-88684244D01*
X108840642Y-88684248D01*
X108840641Y-88684249D01*
X108722862Y-88745823D01*
X108722859Y-88745824D01*
X108722857Y-88745826D01*
X108722856Y-88745827D01*
X108605083Y-88826897D01*
X108605075Y-88826904D01*
X108495263Y-88920676D01*
X108486746Y-88923443D01*
X108479666Y-88920318D01*
X108293391Y-88745826D01*
X108034314Y-88503137D01*
X108030620Y-88494982D01*
X108033775Y-88486601D01*
X108034305Y-88486070D01*
X108479667Y-88068880D01*
X108488047Y-88065726D01*
X108495262Y-88068522D01*
G37*
G04 #@! TD.AperFunction*
G04 #@! TA.AperFunction,Conductor*
G36*
X70395262Y-88068522D02*
G01*
X70505083Y-88162301D01*
X70622862Y-88243376D01*
X70740641Y-88304950D01*
X70740648Y-88304952D01*
X70740651Y-88304954D01*
X70770047Y-88315455D01*
X70858420Y-88347025D01*
X70966703Y-88367779D01*
X70974183Y-88372702D01*
X70976200Y-88379270D01*
X70976200Y-88609929D01*
X70972773Y-88618202D01*
X70966702Y-88621420D01*
X70858423Y-88642173D01*
X70858420Y-88642173D01*
X70858420Y-88642174D01*
X70838790Y-88649186D01*
X70740651Y-88684244D01*
X70740642Y-88684248D01*
X70740641Y-88684249D01*
X70622862Y-88745823D01*
X70622859Y-88745824D01*
X70622857Y-88745826D01*
X70622856Y-88745827D01*
X70505083Y-88826897D01*
X70505075Y-88826904D01*
X70395263Y-88920676D01*
X70386746Y-88923443D01*
X70379666Y-88920318D01*
X70193391Y-88745826D01*
X69934314Y-88503137D01*
X69930620Y-88494982D01*
X69933775Y-88486601D01*
X69934305Y-88486070D01*
X70379667Y-88068880D01*
X70388047Y-88065726D01*
X70395262Y-88068522D01*
G37*
G04 #@! TD.AperFunction*
G04 #@! TA.AperFunction,Conductor*
G36*
X88522733Y-88068881D02*
G01*
X88968084Y-88486061D01*
X88971779Y-88494218D01*
X88968624Y-88502599D01*
X88968084Y-88503139D01*
X88522733Y-88920318D01*
X88514352Y-88923473D01*
X88507136Y-88920676D01*
X88397323Y-88826904D01*
X88397315Y-88826897D01*
X88355119Y-88797851D01*
X88279537Y-88745823D01*
X88161758Y-88684249D01*
X88161753Y-88684247D01*
X88161747Y-88684244D01*
X88088165Y-88657958D01*
X88043979Y-88642174D01*
X88043976Y-88642173D01*
X88043975Y-88642173D01*
X87935698Y-88621420D01*
X87928217Y-88616497D01*
X87926200Y-88609929D01*
X87926200Y-88379270D01*
X87929627Y-88370997D01*
X87935696Y-88367779D01*
X88043979Y-88347025D01*
X88161758Y-88304950D01*
X88279537Y-88243376D01*
X88397316Y-88162301D01*
X88507138Y-88068522D01*
X88515653Y-88065756D01*
X88522733Y-88068881D01*
G37*
G04 #@! TD.AperFunction*
G04 #@! TA.AperFunction,Conductor*
G36*
X165645262Y-88068522D02*
G01*
X165755083Y-88162301D01*
X165872862Y-88243376D01*
X165990641Y-88304950D01*
X165990648Y-88304952D01*
X165990651Y-88304954D01*
X166020047Y-88315455D01*
X166108420Y-88347025D01*
X166216703Y-88367779D01*
X166224183Y-88372702D01*
X166226200Y-88379270D01*
X166226200Y-88609929D01*
X166222773Y-88618202D01*
X166216702Y-88621420D01*
X166108423Y-88642173D01*
X166108420Y-88642173D01*
X166108420Y-88642174D01*
X166088790Y-88649186D01*
X165990651Y-88684244D01*
X165990642Y-88684248D01*
X165990641Y-88684249D01*
X165872862Y-88745823D01*
X165872859Y-88745824D01*
X165872857Y-88745826D01*
X165872856Y-88745827D01*
X165755083Y-88826897D01*
X165755075Y-88826904D01*
X165645263Y-88920676D01*
X165636746Y-88923443D01*
X165629666Y-88920318D01*
X165184315Y-88503138D01*
X165180620Y-88494981D01*
X165183775Y-88486600D01*
X165184290Y-88486084D01*
X165629667Y-88068880D01*
X165638047Y-88065726D01*
X165645262Y-88068522D01*
G37*
G04 #@! TD.AperFunction*
G04 #@! TA.AperFunction,Conductor*
G36*
X183772733Y-88068881D02*
G01*
X184218084Y-88486061D01*
X184221779Y-88494217D01*
X184218624Y-88502598D01*
X184218084Y-88503138D01*
X183772733Y-88920318D01*
X183764352Y-88923473D01*
X183757136Y-88920676D01*
X183647323Y-88826904D01*
X183647315Y-88826897D01*
X183605119Y-88797851D01*
X183529537Y-88745823D01*
X183411758Y-88684249D01*
X183411753Y-88684247D01*
X183411747Y-88684244D01*
X183338165Y-88657958D01*
X183293979Y-88642174D01*
X183293976Y-88642173D01*
X183293975Y-88642173D01*
X183185698Y-88621420D01*
X183178217Y-88616497D01*
X183176200Y-88609929D01*
X183176200Y-88379270D01*
X183179627Y-88370997D01*
X183185696Y-88367779D01*
X183293979Y-88347025D01*
X183411758Y-88304950D01*
X183529537Y-88243376D01*
X183647316Y-88162301D01*
X183757138Y-88068522D01*
X183765653Y-88065756D01*
X183772733Y-88068881D01*
G37*
G04 #@! TD.AperFunction*
G04 #@! TA.AperFunction,Conductor*
G36*
X107572733Y-88068881D02*
G01*
X108018084Y-88486061D01*
X108021779Y-88494217D01*
X108018624Y-88502598D01*
X108018084Y-88503138D01*
X107572733Y-88920318D01*
X107564352Y-88923473D01*
X107557136Y-88920676D01*
X107447323Y-88826904D01*
X107447315Y-88826897D01*
X107405119Y-88797851D01*
X107329537Y-88745823D01*
X107211758Y-88684249D01*
X107211753Y-88684247D01*
X107211747Y-88684244D01*
X107138165Y-88657958D01*
X107093979Y-88642174D01*
X107093976Y-88642173D01*
X107093975Y-88642173D01*
X106985698Y-88621420D01*
X106978217Y-88616497D01*
X106976200Y-88609929D01*
X106976200Y-88379270D01*
X106979627Y-88370997D01*
X106985696Y-88367779D01*
X107093979Y-88347025D01*
X107211758Y-88304950D01*
X107329537Y-88243376D01*
X107447316Y-88162301D01*
X107557138Y-88068522D01*
X107565653Y-88065756D01*
X107572733Y-88068881D01*
G37*
G04 #@! TD.AperFunction*
G04 #@! TA.AperFunction,Conductor*
G36*
X89445262Y-88068522D02*
G01*
X89555083Y-88162301D01*
X89672862Y-88243376D01*
X89790641Y-88304950D01*
X89790648Y-88304952D01*
X89790651Y-88304954D01*
X89820047Y-88315455D01*
X89908420Y-88347025D01*
X90016703Y-88367779D01*
X90024183Y-88372702D01*
X90026200Y-88379270D01*
X90026200Y-88609929D01*
X90022773Y-88618202D01*
X90016702Y-88621420D01*
X89908423Y-88642173D01*
X89908420Y-88642173D01*
X89908420Y-88642174D01*
X89888790Y-88649186D01*
X89790651Y-88684244D01*
X89790642Y-88684248D01*
X89790641Y-88684249D01*
X89672862Y-88745823D01*
X89672859Y-88745824D01*
X89672857Y-88745826D01*
X89672856Y-88745827D01*
X89555083Y-88826897D01*
X89555075Y-88826904D01*
X89445263Y-88920676D01*
X89436746Y-88923443D01*
X89429666Y-88920318D01*
X89243391Y-88745826D01*
X88984314Y-88503137D01*
X88980620Y-88494982D01*
X88983775Y-88486601D01*
X88984305Y-88486070D01*
X89429667Y-88068880D01*
X89438047Y-88065726D01*
X89445262Y-88068522D01*
G37*
G04 #@! TD.AperFunction*
G04 #@! TA.AperFunction,Conductor*
G36*
X184695262Y-88068522D02*
G01*
X184805083Y-88162301D01*
X184922862Y-88243376D01*
X185040641Y-88304950D01*
X185040648Y-88304952D01*
X185040651Y-88304954D01*
X185070047Y-88315455D01*
X185158420Y-88347025D01*
X185266703Y-88367779D01*
X185274183Y-88372702D01*
X185276200Y-88379270D01*
X185276200Y-88609929D01*
X185272773Y-88618202D01*
X185266702Y-88621420D01*
X185158423Y-88642173D01*
X185158420Y-88642173D01*
X185158420Y-88642174D01*
X185138790Y-88649186D01*
X185040651Y-88684244D01*
X185040642Y-88684248D01*
X185040641Y-88684249D01*
X184922862Y-88745823D01*
X184922859Y-88745824D01*
X184922857Y-88745826D01*
X184922856Y-88745827D01*
X184805083Y-88826897D01*
X184805075Y-88826904D01*
X184695263Y-88920676D01*
X184686746Y-88923443D01*
X184679666Y-88920318D01*
X184493391Y-88745826D01*
X184234314Y-88503137D01*
X184230620Y-88494982D01*
X184233775Y-88486601D01*
X184234305Y-88486070D01*
X184679667Y-88068880D01*
X184688047Y-88065726D01*
X184695262Y-88068522D01*
G37*
G04 #@! TD.AperFunction*
G04 #@! TA.AperFunction,Conductor*
G36*
X202822733Y-88068881D02*
G01*
X203268084Y-88486061D01*
X203271779Y-88494218D01*
X203268624Y-88502599D01*
X203268084Y-88503139D01*
X202822733Y-88920318D01*
X202814352Y-88923473D01*
X202807136Y-88920676D01*
X202697323Y-88826904D01*
X202697315Y-88826897D01*
X202655119Y-88797851D01*
X202579537Y-88745823D01*
X202461758Y-88684249D01*
X202461753Y-88684247D01*
X202461747Y-88684244D01*
X202388165Y-88657958D01*
X202343979Y-88642174D01*
X202343976Y-88642173D01*
X202343975Y-88642173D01*
X202235698Y-88621420D01*
X202228217Y-88616497D01*
X202226200Y-88609929D01*
X202226200Y-88379270D01*
X202229627Y-88370997D01*
X202235696Y-88367779D01*
X202343979Y-88347025D01*
X202461758Y-88304950D01*
X202579537Y-88243376D01*
X202697316Y-88162301D01*
X202807138Y-88068522D01*
X202815653Y-88065756D01*
X202822733Y-88068881D01*
G37*
G04 #@! TD.AperFunction*
G04 #@! TA.AperFunction,Conductor*
G36*
X69472733Y-88068881D02*
G01*
X69918084Y-88486061D01*
X69921779Y-88494218D01*
X69918624Y-88502599D01*
X69918084Y-88503139D01*
X69472733Y-88920318D01*
X69464352Y-88923473D01*
X69457136Y-88920676D01*
X69347323Y-88826904D01*
X69347315Y-88826897D01*
X69305119Y-88797851D01*
X69229537Y-88745823D01*
X69111758Y-88684249D01*
X69111753Y-88684247D01*
X69111747Y-88684244D01*
X69038165Y-88657958D01*
X68993979Y-88642174D01*
X68993976Y-88642173D01*
X68993975Y-88642173D01*
X68885698Y-88621420D01*
X68878217Y-88616497D01*
X68876200Y-88609929D01*
X68876200Y-88379270D01*
X68879627Y-88370997D01*
X68885696Y-88367779D01*
X68993979Y-88347025D01*
X69111758Y-88304950D01*
X69229537Y-88243376D01*
X69347316Y-88162301D01*
X69457138Y-88068522D01*
X69465653Y-88065756D01*
X69472733Y-88068881D01*
G37*
G04 #@! TD.AperFunction*
G04 #@! TA.AperFunction,Conductor*
G36*
X51345262Y-88068522D02*
G01*
X51455083Y-88162301D01*
X51572862Y-88243376D01*
X51690641Y-88304950D01*
X51690648Y-88304952D01*
X51690651Y-88304954D01*
X51720047Y-88315455D01*
X51808420Y-88347025D01*
X51916703Y-88367779D01*
X51924183Y-88372702D01*
X51926200Y-88379270D01*
X51926200Y-88609929D01*
X51922773Y-88618202D01*
X51916702Y-88621420D01*
X51808423Y-88642173D01*
X51808420Y-88642173D01*
X51808420Y-88642174D01*
X51788790Y-88649186D01*
X51690651Y-88684244D01*
X51690642Y-88684248D01*
X51690641Y-88684249D01*
X51572862Y-88745823D01*
X51572859Y-88745824D01*
X51572857Y-88745826D01*
X51572856Y-88745827D01*
X51455083Y-88826897D01*
X51455075Y-88826904D01*
X51345263Y-88920676D01*
X51336746Y-88923443D01*
X51329666Y-88920318D01*
X50884315Y-88503138D01*
X50880620Y-88494981D01*
X50883775Y-88486600D01*
X50884290Y-88486084D01*
X51329667Y-88068880D01*
X51338047Y-88065726D01*
X51345262Y-88068522D01*
G37*
G04 #@! TD.AperFunction*
G04 #@! TA.AperFunction,Conductor*
G36*
X231575618Y-70202473D02*
G01*
X231575896Y-70203088D01*
X231723323Y-70556697D01*
X231723344Y-70565651D01*
X231723323Y-70565701D01*
X231575896Y-70919311D01*
X231569549Y-70925629D01*
X231560595Y-70925608D01*
X231559989Y-70925334D01*
X231414620Y-70854627D01*
X231414124Y-70854356D01*
X231371277Y-70828110D01*
X231304984Y-70787501D01*
X231247850Y-70755658D01*
X231209293Y-70734169D01*
X231209288Y-70734167D01*
X231093602Y-70698929D01*
X231093596Y-70698928D01*
X230935023Y-70687013D01*
X230927030Y-70682976D01*
X230924200Y-70675346D01*
X230924200Y-70447053D01*
X230927627Y-70438780D01*
X230935021Y-70435386D01*
X231093598Y-70423470D01*
X231093600Y-70423469D01*
X231093602Y-70423469D01*
X231209288Y-70388231D01*
X231209289Y-70388230D01*
X231209294Y-70388229D01*
X231304984Y-70334897D01*
X231414133Y-70268036D01*
X231414616Y-70267772D01*
X231559981Y-70197068D01*
X231568918Y-70196532D01*
X231575618Y-70202473D01*
G37*
G04 #@! TD.AperFunction*
G04 #@! TA.AperFunction,Conductor*
G36*
X221666855Y-87655992D02*
G01*
X221784391Y-87737098D01*
X221829584Y-87768284D01*
X221829587Y-87768285D01*
X221829586Y-87768285D01*
X222000338Y-87866614D01*
X222171091Y-87945442D01*
X222171097Y-87945444D01*
X222171099Y-87945445D01*
X222341843Y-88004771D01*
X222499194Y-88041474D01*
X222506471Y-88046689D01*
X222507929Y-88055525D01*
X222507353Y-88057324D01*
X222329703Y-88488520D01*
X222323383Y-88494864D01*
X222319579Y-88495742D01*
X221735692Y-88530431D01*
X221727230Y-88527501D01*
X221723707Y-88521819D01*
X221677371Y-88351242D01*
X221628542Y-88190990D01*
X221579714Y-88050238D01*
X221530885Y-87928986D01*
X221530878Y-87928973D01*
X221530877Y-87928968D01*
X221485643Y-87834707D01*
X221485153Y-87825766D01*
X221487916Y-87821374D01*
X221651941Y-87657349D01*
X221660213Y-87653923D01*
X221666855Y-87655992D01*
G37*
G04 #@! TD.AperFunction*
G04 #@! TA.AperFunction,Conductor*
G36*
X127545262Y-88068522D02*
G01*
X127655083Y-88162301D01*
X127772862Y-88243376D01*
X127890641Y-88304950D01*
X127890648Y-88304952D01*
X127890651Y-88304954D01*
X127920047Y-88315455D01*
X128008420Y-88347025D01*
X128116703Y-88367779D01*
X128124183Y-88372702D01*
X128126200Y-88379270D01*
X128126200Y-88609929D01*
X128122773Y-88618202D01*
X128116702Y-88621420D01*
X128008423Y-88642173D01*
X128008420Y-88642173D01*
X128008420Y-88642174D01*
X127988790Y-88649186D01*
X127890651Y-88684244D01*
X127890642Y-88684248D01*
X127890641Y-88684249D01*
X127772862Y-88745823D01*
X127772859Y-88745824D01*
X127772857Y-88745826D01*
X127772856Y-88745827D01*
X127655083Y-88826897D01*
X127655075Y-88826904D01*
X127545263Y-88920676D01*
X127536746Y-88923443D01*
X127529666Y-88920318D01*
X127343391Y-88745826D01*
X127084314Y-88503137D01*
X127080620Y-88494982D01*
X127083775Y-88486601D01*
X127084305Y-88486070D01*
X127529667Y-88068880D01*
X127538047Y-88065726D01*
X127545262Y-88068522D01*
G37*
G04 #@! TD.AperFunction*
G04 #@! TA.AperFunction,Conductor*
G36*
X145672733Y-88068881D02*
G01*
X146118084Y-88486061D01*
X146121779Y-88494217D01*
X146118624Y-88502598D01*
X146118084Y-88503138D01*
X145672733Y-88920318D01*
X145664352Y-88923473D01*
X145657136Y-88920676D01*
X145547323Y-88826904D01*
X145547315Y-88826897D01*
X145505119Y-88797851D01*
X145429537Y-88745823D01*
X145311758Y-88684249D01*
X145311753Y-88684247D01*
X145311747Y-88684244D01*
X145238165Y-88657958D01*
X145193979Y-88642174D01*
X145193976Y-88642173D01*
X145193975Y-88642173D01*
X145085698Y-88621420D01*
X145078217Y-88616497D01*
X145076200Y-88609929D01*
X145076200Y-88379270D01*
X145079627Y-88370997D01*
X145085696Y-88367779D01*
X145193979Y-88347025D01*
X145311758Y-88304950D01*
X145429537Y-88243376D01*
X145547316Y-88162301D01*
X145657138Y-88068522D01*
X145665653Y-88065756D01*
X145672733Y-88068881D01*
G37*
G04 #@! TD.AperFunction*
G04 #@! TA.AperFunction,Conductor*
G36*
X202822733Y-107118881D02*
G01*
X203268084Y-107536061D01*
X203271779Y-107544218D01*
X203268624Y-107552599D01*
X203268084Y-107553139D01*
X202822733Y-107970318D01*
X202814352Y-107973473D01*
X202807136Y-107970676D01*
X202697323Y-107876904D01*
X202697315Y-107876897D01*
X202655119Y-107847851D01*
X202579537Y-107795823D01*
X202461758Y-107734249D01*
X202461753Y-107734247D01*
X202461747Y-107734244D01*
X202388165Y-107707958D01*
X202343979Y-107692174D01*
X202343976Y-107692173D01*
X202343975Y-107692173D01*
X202235698Y-107671420D01*
X202228217Y-107666497D01*
X202226200Y-107659929D01*
X202226200Y-107429270D01*
X202229627Y-107420997D01*
X202235696Y-107417779D01*
X202343979Y-107397025D01*
X202461758Y-107354950D01*
X202579537Y-107293376D01*
X202697316Y-107212301D01*
X202807138Y-107118522D01*
X202815653Y-107115756D01*
X202822733Y-107118881D01*
G37*
G04 #@! TD.AperFunction*
G04 #@! TA.AperFunction,Conductor*
G36*
X184695262Y-107118522D02*
G01*
X184805083Y-107212301D01*
X184922862Y-107293376D01*
X185040641Y-107354950D01*
X185040648Y-107354952D01*
X185040651Y-107354954D01*
X185070047Y-107365455D01*
X185158420Y-107397025D01*
X185266703Y-107417779D01*
X185274183Y-107422702D01*
X185276200Y-107429270D01*
X185276200Y-107659929D01*
X185272773Y-107668202D01*
X185266702Y-107671420D01*
X185158423Y-107692173D01*
X185158420Y-107692173D01*
X185158420Y-107692174D01*
X185138790Y-107699186D01*
X185040651Y-107734244D01*
X185040642Y-107734248D01*
X185040641Y-107734249D01*
X184922862Y-107795823D01*
X184922859Y-107795824D01*
X184922857Y-107795826D01*
X184922856Y-107795827D01*
X184805083Y-107876897D01*
X184805075Y-107876904D01*
X184695263Y-107970676D01*
X184686746Y-107973443D01*
X184679666Y-107970318D01*
X184493391Y-107795826D01*
X184234314Y-107553137D01*
X184230620Y-107544982D01*
X184233775Y-107536601D01*
X184234305Y-107536070D01*
X184679667Y-107118880D01*
X184688047Y-107115726D01*
X184695262Y-107118522D01*
G37*
G04 #@! TD.AperFunction*
G04 #@! TA.AperFunction,Conductor*
G36*
X221666855Y-106705992D02*
G01*
X221784391Y-106787098D01*
X221829584Y-106818284D01*
X221829587Y-106818285D01*
X221829586Y-106818285D01*
X222000338Y-106916614D01*
X222171091Y-106995442D01*
X222171097Y-106995444D01*
X222171099Y-106995445D01*
X222341843Y-107054770D01*
X222341843Y-107054771D01*
X222499194Y-107091474D01*
X222506471Y-107096689D01*
X222507929Y-107105525D01*
X222507353Y-107107324D01*
X222329703Y-107538520D01*
X222323383Y-107544864D01*
X222319579Y-107545742D01*
X221735692Y-107580431D01*
X221727230Y-107577501D01*
X221723707Y-107571819D01*
X221677371Y-107401242D01*
X221628542Y-107240990D01*
X221579714Y-107100238D01*
X221530885Y-106978986D01*
X221530878Y-106978973D01*
X221530877Y-106978968D01*
X221485643Y-106884707D01*
X221485153Y-106875766D01*
X221487916Y-106871374D01*
X221651941Y-106707349D01*
X221660213Y-106703923D01*
X221666855Y-106705992D01*
G37*
G04 #@! TD.AperFunction*
G04 #@! TA.AperFunction,Conductor*
G36*
X69472733Y-107118881D02*
G01*
X69918084Y-107536061D01*
X69921779Y-107544218D01*
X69918624Y-107552599D01*
X69918084Y-107553139D01*
X69472733Y-107970318D01*
X69464352Y-107973473D01*
X69457136Y-107970676D01*
X69347323Y-107876904D01*
X69347315Y-107876897D01*
X69305119Y-107847851D01*
X69229537Y-107795823D01*
X69111758Y-107734249D01*
X69111753Y-107734247D01*
X69111747Y-107734244D01*
X69038165Y-107707958D01*
X68993979Y-107692174D01*
X68993976Y-107692173D01*
X68993975Y-107692173D01*
X68885698Y-107671420D01*
X68878217Y-107666497D01*
X68876200Y-107659929D01*
X68876200Y-107429270D01*
X68879627Y-107420997D01*
X68885696Y-107417779D01*
X68993979Y-107397025D01*
X69111758Y-107354950D01*
X69229537Y-107293376D01*
X69347316Y-107212301D01*
X69457138Y-107118522D01*
X69465653Y-107115756D01*
X69472733Y-107118881D01*
G37*
G04 #@! TD.AperFunction*
G04 #@! TA.AperFunction,Conductor*
G36*
X51345262Y-107118522D02*
G01*
X51455083Y-107212301D01*
X51572862Y-107293376D01*
X51690641Y-107354950D01*
X51690648Y-107354952D01*
X51690651Y-107354954D01*
X51720047Y-107365455D01*
X51808420Y-107397025D01*
X51916703Y-107417779D01*
X51924183Y-107422702D01*
X51926200Y-107429270D01*
X51926200Y-107659929D01*
X51922773Y-107668202D01*
X51916702Y-107671420D01*
X51808423Y-107692173D01*
X51808420Y-107692173D01*
X51808420Y-107692174D01*
X51788790Y-107699186D01*
X51690651Y-107734244D01*
X51690642Y-107734248D01*
X51690641Y-107734249D01*
X51572862Y-107795823D01*
X51572859Y-107795824D01*
X51572857Y-107795826D01*
X51572856Y-107795827D01*
X51455083Y-107876897D01*
X51455075Y-107876904D01*
X51345263Y-107970676D01*
X51336746Y-107973443D01*
X51329666Y-107970318D01*
X51143391Y-107795826D01*
X50884314Y-107553137D01*
X50880620Y-107544982D01*
X50883775Y-107536601D01*
X50884305Y-107536070D01*
X51329667Y-107118880D01*
X51338047Y-107115726D01*
X51345262Y-107118522D01*
G37*
G04 #@! TD.AperFunction*
G04 #@! TA.AperFunction,Conductor*
G36*
X145672733Y-107118881D02*
G01*
X146118084Y-107536061D01*
X146121779Y-107544218D01*
X146118624Y-107552599D01*
X146118084Y-107553139D01*
X145672733Y-107970318D01*
X145664352Y-107973473D01*
X145657136Y-107970676D01*
X145547323Y-107876904D01*
X145547315Y-107876897D01*
X145505119Y-107847851D01*
X145429537Y-107795823D01*
X145311758Y-107734249D01*
X145311753Y-107734247D01*
X145311747Y-107734244D01*
X145238165Y-107707958D01*
X145193979Y-107692174D01*
X145193976Y-107692173D01*
X145193975Y-107692173D01*
X145085698Y-107671420D01*
X145078217Y-107666497D01*
X145076200Y-107659929D01*
X145076200Y-107429270D01*
X145079627Y-107420997D01*
X145085696Y-107417779D01*
X145193979Y-107397025D01*
X145311758Y-107354950D01*
X145429537Y-107293376D01*
X145547316Y-107212301D01*
X145657138Y-107118522D01*
X145665653Y-107115756D01*
X145672733Y-107118881D01*
G37*
G04 #@! TD.AperFunction*
G04 #@! TA.AperFunction,Conductor*
G36*
X127545262Y-107118522D02*
G01*
X127655083Y-107212301D01*
X127772862Y-107293376D01*
X127890641Y-107354950D01*
X127890648Y-107354952D01*
X127890651Y-107354954D01*
X127920047Y-107365455D01*
X128008420Y-107397025D01*
X128116703Y-107417779D01*
X128124183Y-107422702D01*
X128126200Y-107429270D01*
X128126200Y-107659929D01*
X128122773Y-107668202D01*
X128116702Y-107671420D01*
X128008423Y-107692173D01*
X128008420Y-107692173D01*
X128008420Y-107692174D01*
X127988790Y-107699186D01*
X127890651Y-107734244D01*
X127890642Y-107734248D01*
X127890641Y-107734249D01*
X127772862Y-107795823D01*
X127772859Y-107795824D01*
X127772857Y-107795826D01*
X127772856Y-107795827D01*
X127655083Y-107876897D01*
X127655075Y-107876904D01*
X127545263Y-107970676D01*
X127536746Y-107973443D01*
X127529666Y-107970318D01*
X127343391Y-107795826D01*
X127084314Y-107553137D01*
X127080620Y-107544982D01*
X127083775Y-107536601D01*
X127084305Y-107536070D01*
X127529667Y-107118880D01*
X127538047Y-107115726D01*
X127545262Y-107118522D01*
G37*
G04 #@! TD.AperFunction*
G04 #@! TA.AperFunction,Conductor*
G36*
X203745262Y-107118522D02*
G01*
X203855083Y-107212301D01*
X203972862Y-107293376D01*
X204090641Y-107354950D01*
X204090648Y-107354952D01*
X204090651Y-107354954D01*
X204120047Y-107365455D01*
X204208420Y-107397025D01*
X204316703Y-107417779D01*
X204324183Y-107422702D01*
X204326200Y-107429270D01*
X204326200Y-107659929D01*
X204322773Y-107668202D01*
X204316702Y-107671420D01*
X204208423Y-107692173D01*
X204208420Y-107692173D01*
X204208420Y-107692174D01*
X204188790Y-107699186D01*
X204090651Y-107734244D01*
X204090642Y-107734248D01*
X204090641Y-107734249D01*
X203972862Y-107795823D01*
X203972859Y-107795824D01*
X203972857Y-107795826D01*
X203972856Y-107795827D01*
X203855083Y-107876897D01*
X203855075Y-107876904D01*
X203745263Y-107970676D01*
X203736746Y-107973443D01*
X203729666Y-107970318D01*
X203543391Y-107795826D01*
X203284314Y-107553137D01*
X203280620Y-107544982D01*
X203283775Y-107536601D01*
X203284305Y-107536070D01*
X203729667Y-107118880D01*
X203738047Y-107115726D01*
X203745262Y-107118522D01*
G37*
G04 #@! TD.AperFunction*
G04 #@! TA.AperFunction,Conductor*
G36*
X221872733Y-107118881D02*
G01*
X222318084Y-107536061D01*
X222321779Y-107544218D01*
X222318624Y-107552599D01*
X222318084Y-107553139D01*
X221872733Y-107970318D01*
X221864352Y-107973473D01*
X221857136Y-107970676D01*
X221747323Y-107876904D01*
X221747315Y-107876897D01*
X221705119Y-107847851D01*
X221629537Y-107795823D01*
X221511758Y-107734249D01*
X221511753Y-107734247D01*
X221511747Y-107734244D01*
X221438165Y-107707958D01*
X221393979Y-107692174D01*
X221393976Y-107692173D01*
X221393975Y-107692173D01*
X221285698Y-107671420D01*
X221278217Y-107666497D01*
X221276200Y-107659929D01*
X221276200Y-107429270D01*
X221279627Y-107420997D01*
X221285696Y-107417779D01*
X221393979Y-107397025D01*
X221511758Y-107354950D01*
X221629537Y-107293376D01*
X221747316Y-107212301D01*
X221857138Y-107118522D01*
X221865653Y-107115756D01*
X221872733Y-107118881D01*
G37*
G04 #@! TD.AperFunction*
G04 #@! TA.AperFunction,Conductor*
G36*
X164722733Y-107118881D02*
G01*
X165168084Y-107536061D01*
X165171779Y-107544218D01*
X165168624Y-107552599D01*
X165168084Y-107553139D01*
X164722733Y-107970318D01*
X164714352Y-107973473D01*
X164707136Y-107970676D01*
X164597323Y-107876904D01*
X164597315Y-107876897D01*
X164555119Y-107847851D01*
X164479537Y-107795823D01*
X164361758Y-107734249D01*
X164361753Y-107734247D01*
X164361747Y-107734244D01*
X164288165Y-107707958D01*
X164243979Y-107692174D01*
X164243976Y-107692173D01*
X164243975Y-107692173D01*
X164135697Y-107671420D01*
X164128216Y-107666497D01*
X164126200Y-107659932D01*
X164126200Y-107429267D01*
X164129626Y-107420997D01*
X164135694Y-107417780D01*
X164243979Y-107397025D01*
X164361758Y-107354950D01*
X164479537Y-107293376D01*
X164597316Y-107212301D01*
X164707138Y-107118522D01*
X164715653Y-107115756D01*
X164722733Y-107118881D01*
G37*
G04 #@! TD.AperFunction*
G04 #@! TA.AperFunction,Conductor*
G36*
X146595262Y-107118522D02*
G01*
X146705083Y-107212301D01*
X146822862Y-107293376D01*
X146940641Y-107354950D01*
X146940648Y-107354952D01*
X146940651Y-107354954D01*
X146970047Y-107365455D01*
X147058420Y-107397025D01*
X147166703Y-107417779D01*
X147174183Y-107422702D01*
X147176200Y-107429270D01*
X147176200Y-107659929D01*
X147172773Y-107668202D01*
X147166702Y-107671420D01*
X147058423Y-107692173D01*
X147058420Y-107692173D01*
X147058420Y-107692174D01*
X147038790Y-107699186D01*
X146940651Y-107734244D01*
X146940642Y-107734248D01*
X146940641Y-107734249D01*
X146822862Y-107795823D01*
X146822859Y-107795824D01*
X146822857Y-107795826D01*
X146822856Y-107795827D01*
X146705083Y-107876897D01*
X146705075Y-107876904D01*
X146595263Y-107970676D01*
X146586746Y-107973443D01*
X146579666Y-107970318D01*
X146393391Y-107795826D01*
X146134314Y-107553137D01*
X146130620Y-107544982D01*
X146133775Y-107536601D01*
X146134305Y-107536070D01*
X146579667Y-107118880D01*
X146588047Y-107115726D01*
X146595262Y-107118522D01*
G37*
G04 #@! TD.AperFunction*
G04 #@! TA.AperFunction,Conductor*
G36*
X89445262Y-107118522D02*
G01*
X89555083Y-107212301D01*
X89672862Y-107293376D01*
X89790641Y-107354950D01*
X89790648Y-107354952D01*
X89790651Y-107354954D01*
X89820047Y-107365455D01*
X89908420Y-107397025D01*
X90016703Y-107417779D01*
X90024183Y-107422702D01*
X90026200Y-107429270D01*
X90026200Y-107659929D01*
X90022773Y-107668202D01*
X90016702Y-107671420D01*
X89908423Y-107692173D01*
X89908420Y-107692173D01*
X89908420Y-107692174D01*
X89888790Y-107699186D01*
X89790651Y-107734244D01*
X89790642Y-107734248D01*
X89790641Y-107734249D01*
X89672862Y-107795823D01*
X89672859Y-107795824D01*
X89672857Y-107795826D01*
X89672856Y-107795827D01*
X89555083Y-107876897D01*
X89555075Y-107876904D01*
X89445263Y-107970676D01*
X89436746Y-107973443D01*
X89429666Y-107970318D01*
X89243391Y-107795826D01*
X88984314Y-107553137D01*
X88980620Y-107544982D01*
X88983775Y-107536601D01*
X88984305Y-107536070D01*
X89429667Y-107118880D01*
X89438047Y-107115726D01*
X89445262Y-107118522D01*
G37*
G04 #@! TD.AperFunction*
G04 #@! TA.AperFunction,Conductor*
G36*
X107572733Y-107118881D02*
G01*
X108018084Y-107536061D01*
X108021779Y-107544218D01*
X108018624Y-107552599D01*
X108018084Y-107553139D01*
X107572733Y-107970318D01*
X107564352Y-107973473D01*
X107557136Y-107970676D01*
X107447323Y-107876904D01*
X107447315Y-107876897D01*
X107405119Y-107847851D01*
X107329537Y-107795823D01*
X107211758Y-107734249D01*
X107211753Y-107734247D01*
X107211747Y-107734244D01*
X107138165Y-107707958D01*
X107093979Y-107692174D01*
X107093976Y-107692173D01*
X107093975Y-107692173D01*
X106985698Y-107671420D01*
X106978217Y-107666497D01*
X106976200Y-107659929D01*
X106976200Y-107429270D01*
X106979627Y-107420997D01*
X106985696Y-107417779D01*
X107093979Y-107397025D01*
X107211758Y-107354950D01*
X107329537Y-107293376D01*
X107447316Y-107212301D01*
X107557138Y-107118522D01*
X107565653Y-107115756D01*
X107572733Y-107118881D01*
G37*
G04 #@! TD.AperFunction*
G04 #@! TA.AperFunction,Conductor*
G36*
X70395262Y-107118522D02*
G01*
X70505083Y-107212301D01*
X70622862Y-107293376D01*
X70740641Y-107354950D01*
X70740648Y-107354952D01*
X70740651Y-107354954D01*
X70770047Y-107365455D01*
X70858420Y-107397025D01*
X70966703Y-107417779D01*
X70974183Y-107422702D01*
X70976200Y-107429270D01*
X70976200Y-107659929D01*
X70972773Y-107668202D01*
X70966702Y-107671420D01*
X70858423Y-107692173D01*
X70858420Y-107692173D01*
X70858420Y-107692174D01*
X70838790Y-107699186D01*
X70740651Y-107734244D01*
X70740642Y-107734248D01*
X70740641Y-107734249D01*
X70622862Y-107795823D01*
X70622859Y-107795824D01*
X70622857Y-107795826D01*
X70622856Y-107795827D01*
X70505083Y-107876897D01*
X70505075Y-107876904D01*
X70395263Y-107970676D01*
X70386746Y-107973443D01*
X70379666Y-107970318D01*
X70193391Y-107795826D01*
X69934314Y-107553137D01*
X69930620Y-107544982D01*
X69933775Y-107536601D01*
X69934305Y-107536070D01*
X70379667Y-107118880D01*
X70388047Y-107115726D01*
X70395262Y-107118522D01*
G37*
G04 #@! TD.AperFunction*
G04 #@! TA.AperFunction,Conductor*
G36*
X88522733Y-107118881D02*
G01*
X88968084Y-107536061D01*
X88971779Y-107544218D01*
X88968624Y-107552599D01*
X88968084Y-107553139D01*
X88522733Y-107970318D01*
X88514352Y-107973473D01*
X88507136Y-107970676D01*
X88397323Y-107876904D01*
X88397315Y-107876897D01*
X88355119Y-107847851D01*
X88279537Y-107795823D01*
X88161758Y-107734249D01*
X88161753Y-107734247D01*
X88161747Y-107734244D01*
X88088165Y-107707958D01*
X88043979Y-107692174D01*
X88043976Y-107692173D01*
X88043975Y-107692173D01*
X87935698Y-107671420D01*
X87928217Y-107666497D01*
X87926200Y-107659929D01*
X87926200Y-107429270D01*
X87929627Y-107420997D01*
X87935696Y-107417779D01*
X88043979Y-107397025D01*
X88161758Y-107354950D01*
X88279537Y-107293376D01*
X88397316Y-107212301D01*
X88507138Y-107118522D01*
X88515653Y-107115756D01*
X88522733Y-107118881D01*
G37*
G04 #@! TD.AperFunction*
G04 #@! TA.AperFunction,Conductor*
G36*
X126622733Y-107118881D02*
G01*
X127068084Y-107536061D01*
X127071779Y-107544218D01*
X127068624Y-107552599D01*
X127068084Y-107553139D01*
X126622733Y-107970318D01*
X126614352Y-107973473D01*
X126607136Y-107970676D01*
X126497323Y-107876904D01*
X126497315Y-107876897D01*
X126455119Y-107847851D01*
X126379537Y-107795823D01*
X126261758Y-107734249D01*
X126261753Y-107734247D01*
X126261747Y-107734244D01*
X126188165Y-107707958D01*
X126143979Y-107692174D01*
X126143976Y-107692173D01*
X126143975Y-107692173D01*
X126035698Y-107671420D01*
X126028217Y-107666497D01*
X126026200Y-107659929D01*
X126026200Y-107429270D01*
X126029627Y-107420997D01*
X126035696Y-107417779D01*
X126143979Y-107397025D01*
X126261758Y-107354950D01*
X126379537Y-107293376D01*
X126497316Y-107212301D01*
X126607138Y-107118522D01*
X126615653Y-107115756D01*
X126622733Y-107118881D01*
G37*
G04 #@! TD.AperFunction*
G04 #@! TA.AperFunction,Conductor*
G36*
X108495262Y-107118522D02*
G01*
X108605083Y-107212301D01*
X108722862Y-107293376D01*
X108840641Y-107354950D01*
X108840648Y-107354952D01*
X108840651Y-107354954D01*
X108870047Y-107365455D01*
X108958420Y-107397025D01*
X109066703Y-107417779D01*
X109074183Y-107422702D01*
X109076200Y-107429270D01*
X109076200Y-107659929D01*
X109072773Y-107668202D01*
X109066702Y-107671420D01*
X108958423Y-107692173D01*
X108958420Y-107692173D01*
X108958420Y-107692174D01*
X108938790Y-107699186D01*
X108840651Y-107734244D01*
X108840642Y-107734248D01*
X108840641Y-107734249D01*
X108722862Y-107795823D01*
X108722859Y-107795824D01*
X108722857Y-107795826D01*
X108722856Y-107795827D01*
X108605083Y-107876897D01*
X108605075Y-107876904D01*
X108495263Y-107970676D01*
X108486746Y-107973443D01*
X108479666Y-107970318D01*
X108293391Y-107795826D01*
X108034314Y-107553137D01*
X108030620Y-107544982D01*
X108033775Y-107536601D01*
X108034305Y-107536070D01*
X108479667Y-107118880D01*
X108488047Y-107115726D01*
X108495262Y-107118522D01*
G37*
G04 #@! TD.AperFunction*
G04 #@! TA.AperFunction,Conductor*
G36*
X165645262Y-107118522D02*
G01*
X165755083Y-107212301D01*
X165872862Y-107293376D01*
X165990641Y-107354950D01*
X165990648Y-107354952D01*
X165990651Y-107354954D01*
X166020047Y-107365455D01*
X166108420Y-107397025D01*
X166216703Y-107417779D01*
X166224183Y-107422702D01*
X166226200Y-107429270D01*
X166226200Y-107659929D01*
X166222773Y-107668202D01*
X166216702Y-107671420D01*
X166108423Y-107692173D01*
X166108420Y-107692173D01*
X166108420Y-107692174D01*
X166088790Y-107699186D01*
X165990651Y-107734244D01*
X165990642Y-107734248D01*
X165990641Y-107734249D01*
X165872862Y-107795823D01*
X165872859Y-107795824D01*
X165872857Y-107795826D01*
X165872856Y-107795827D01*
X165755083Y-107876897D01*
X165755075Y-107876904D01*
X165645263Y-107970676D01*
X165636746Y-107973443D01*
X165629666Y-107970318D01*
X165443391Y-107795826D01*
X165184314Y-107553137D01*
X165180620Y-107544982D01*
X165183775Y-107536601D01*
X165184305Y-107536070D01*
X165629667Y-107118880D01*
X165638047Y-107115726D01*
X165645262Y-107118522D01*
G37*
G04 #@! TD.AperFunction*
G04 #@! TA.AperFunction,Conductor*
G36*
X183772733Y-107118881D02*
G01*
X184218084Y-107536061D01*
X184221779Y-107544218D01*
X184218624Y-107552599D01*
X184218084Y-107553139D01*
X183772733Y-107970318D01*
X183764352Y-107973473D01*
X183757136Y-107970676D01*
X183647323Y-107876904D01*
X183647315Y-107876897D01*
X183605119Y-107847851D01*
X183529537Y-107795823D01*
X183411758Y-107734249D01*
X183411753Y-107734247D01*
X183411747Y-107734244D01*
X183338165Y-107707958D01*
X183293979Y-107692174D01*
X183293976Y-107692173D01*
X183293975Y-107692173D01*
X183185698Y-107671420D01*
X183178217Y-107666497D01*
X183176200Y-107659929D01*
X183176200Y-107429270D01*
X183179627Y-107420997D01*
X183185696Y-107417779D01*
X183293979Y-107397025D01*
X183411758Y-107354950D01*
X183529537Y-107293376D01*
X183647316Y-107212301D01*
X183757138Y-107118522D01*
X183765653Y-107115756D01*
X183772733Y-107118881D01*
G37*
G04 #@! TD.AperFunction*
G04 #@! TA.AperFunction,Conductor*
G36*
X179932762Y-130931022D02*
G01*
X180042583Y-131024801D01*
X180160362Y-131105876D01*
X180278141Y-131167450D01*
X180278148Y-131167452D01*
X180278151Y-131167454D01*
X180307547Y-131177955D01*
X180395920Y-131209525D01*
X180504201Y-131230279D01*
X180511682Y-131235202D01*
X180513699Y-131241770D01*
X180513699Y-131472429D01*
X180510272Y-131480702D01*
X180504201Y-131483920D01*
X180395923Y-131504673D01*
X180395920Y-131504673D01*
X180395920Y-131504674D01*
X180376290Y-131511686D01*
X180278151Y-131546744D01*
X180278142Y-131546748D01*
X180278141Y-131546749D01*
X180160362Y-131608323D01*
X180160359Y-131608324D01*
X180160357Y-131608326D01*
X180160356Y-131608327D01*
X180042583Y-131689397D01*
X180042575Y-131689404D01*
X179932763Y-131783176D01*
X179924246Y-131785943D01*
X179917166Y-131782818D01*
X179730891Y-131608326D01*
X179471814Y-131365637D01*
X179468120Y-131357482D01*
X179471275Y-131349101D01*
X179471805Y-131348570D01*
X179917167Y-130931380D01*
X179925547Y-130928226D01*
X179932762Y-130931022D01*
G37*
G04 #@! TD.AperFunction*
G04 #@! TA.AperFunction,Conductor*
G36*
X69472733Y-126168881D02*
G01*
X69918084Y-126586061D01*
X69921779Y-126594218D01*
X69918624Y-126602599D01*
X69918084Y-126603139D01*
X69472733Y-127020318D01*
X69464352Y-127023473D01*
X69457136Y-127020676D01*
X69347323Y-126926904D01*
X69347315Y-126926897D01*
X69305119Y-126897851D01*
X69229537Y-126845823D01*
X69111758Y-126784249D01*
X69111753Y-126784247D01*
X69111747Y-126784244D01*
X69038165Y-126757958D01*
X68993979Y-126742174D01*
X68993976Y-126742173D01*
X68993975Y-126742173D01*
X68885698Y-126721420D01*
X68878217Y-126716497D01*
X68876200Y-126709929D01*
X68876200Y-126479270D01*
X68879627Y-126470997D01*
X68885696Y-126467779D01*
X68993979Y-126447025D01*
X69111758Y-126404950D01*
X69229537Y-126343376D01*
X69347316Y-126262301D01*
X69457138Y-126168522D01*
X69465653Y-126165756D01*
X69472733Y-126168881D01*
G37*
G04 #@! TD.AperFunction*
G04 #@! TA.AperFunction,Conductor*
G36*
X60209863Y-126167537D02*
G01*
X60319683Y-126261501D01*
X60437462Y-126342776D01*
X60555241Y-126404550D01*
X60673020Y-126446825D01*
X60750910Y-126461886D01*
X60781320Y-126467767D01*
X60788792Y-126472702D01*
X60790799Y-126479254D01*
X60790799Y-126709913D01*
X60787372Y-126718186D01*
X60781283Y-126721407D01*
X60673018Y-126741974D01*
X60555245Y-126783847D01*
X60437464Y-126845221D01*
X60319691Y-126926091D01*
X60319687Y-126926094D01*
X60209861Y-127019691D01*
X60201341Y-127022449D01*
X60194273Y-127019325D01*
X60094746Y-126926094D01*
X59942894Y-126783847D01*
X59748915Y-126602138D01*
X59745220Y-126593981D01*
X59748375Y-126585600D01*
X59748890Y-126585084D01*
X60194260Y-126167887D01*
X60202639Y-126164733D01*
X60209863Y-126167537D01*
G37*
G04 #@! TD.AperFunction*
G04 #@! TA.AperFunction,Conductor*
G36*
X221872733Y-126168881D02*
G01*
X222318084Y-126586061D01*
X222321779Y-126594218D01*
X222318624Y-126602599D01*
X222318084Y-126603139D01*
X221872733Y-127020318D01*
X221864352Y-127023473D01*
X221857136Y-127020676D01*
X221747323Y-126926904D01*
X221747315Y-126926897D01*
X221705119Y-126897851D01*
X221629537Y-126845823D01*
X221511758Y-126784249D01*
X221511753Y-126784247D01*
X221511747Y-126784244D01*
X221438165Y-126757958D01*
X221393979Y-126742174D01*
X221393976Y-126742173D01*
X221393975Y-126742173D01*
X221285698Y-126721420D01*
X221278217Y-126716497D01*
X221276200Y-126709929D01*
X221276200Y-126479270D01*
X221279627Y-126470997D01*
X221285696Y-126467779D01*
X221393979Y-126447025D01*
X221511758Y-126404950D01*
X221629537Y-126343376D01*
X221747316Y-126262301D01*
X221857138Y-126168522D01*
X221865653Y-126165756D01*
X221872733Y-126168881D01*
G37*
G04 #@! TD.AperFunction*
G04 #@! TA.AperFunction,Conductor*
G36*
X203745262Y-126168522D02*
G01*
X203855083Y-126262301D01*
X203972862Y-126343376D01*
X204090641Y-126404950D01*
X204090648Y-126404952D01*
X204090651Y-126404954D01*
X204120047Y-126415455D01*
X204208420Y-126447025D01*
X204316703Y-126467779D01*
X204324183Y-126472702D01*
X204326200Y-126479270D01*
X204326200Y-126709929D01*
X204322773Y-126718202D01*
X204316702Y-126721420D01*
X204208423Y-126742173D01*
X204208420Y-126742173D01*
X204208420Y-126742174D01*
X204188790Y-126749186D01*
X204090651Y-126784244D01*
X204090642Y-126784248D01*
X204090641Y-126784249D01*
X203972862Y-126845823D01*
X203972859Y-126845824D01*
X203972857Y-126845826D01*
X203972856Y-126845827D01*
X203855083Y-126926897D01*
X203855075Y-126926904D01*
X203745263Y-127020676D01*
X203736746Y-127023443D01*
X203729666Y-127020318D01*
X203543391Y-126845826D01*
X203284314Y-126603137D01*
X203280620Y-126594982D01*
X203283775Y-126586601D01*
X203284305Y-126586070D01*
X203729667Y-126168880D01*
X203738047Y-126165726D01*
X203745262Y-126168522D01*
G37*
G04 #@! TD.AperFunction*
G04 #@! TA.AperFunction,Conductor*
G36*
X222795311Y-126169949D02*
G01*
X222876327Y-126253139D01*
X222965351Y-126328505D01*
X223054375Y-126387825D01*
X223143399Y-126431099D01*
X223202374Y-126449136D01*
X223225432Y-126456188D01*
X223232341Y-126461884D01*
X223233566Y-126465546D01*
X223269939Y-126695195D01*
X223267849Y-126703902D01*
X223261797Y-126708216D01*
X223174684Y-126734793D01*
X223077836Y-126781790D01*
X222980997Y-126846232D01*
X222980990Y-126846236D01*
X222884148Y-126928129D01*
X222795308Y-127019261D01*
X222787079Y-127022793D01*
X222778933Y-127019634D01*
X222334329Y-126603292D01*
X222330632Y-126595136D01*
X222333786Y-126586755D01*
X222334307Y-126586233D01*
X222778929Y-126169574D01*
X222787309Y-126166418D01*
X222795311Y-126169949D01*
G37*
G04 #@! TD.AperFunction*
G04 #@! TA.AperFunction,Conductor*
G36*
X153739012Y-130931022D02*
G01*
X153848833Y-131024801D01*
X153966612Y-131105876D01*
X154084391Y-131167450D01*
X154084398Y-131167452D01*
X154084401Y-131167454D01*
X154113797Y-131177955D01*
X154202170Y-131209525D01*
X154310453Y-131230279D01*
X154317933Y-131235202D01*
X154319950Y-131241770D01*
X154319950Y-131472429D01*
X154316523Y-131480702D01*
X154310452Y-131483920D01*
X154202173Y-131504673D01*
X154202170Y-131504673D01*
X154202170Y-131504674D01*
X154182540Y-131511686D01*
X154084401Y-131546744D01*
X154084392Y-131546748D01*
X154084391Y-131546749D01*
X153966612Y-131608323D01*
X153966609Y-131608324D01*
X153966607Y-131608326D01*
X153966606Y-131608327D01*
X153848833Y-131689397D01*
X153848825Y-131689404D01*
X153739013Y-131783176D01*
X153730496Y-131785943D01*
X153723416Y-131782818D01*
X153537141Y-131608326D01*
X153278064Y-131365637D01*
X153274370Y-131357482D01*
X153277525Y-131349101D01*
X153278055Y-131348570D01*
X153723417Y-130931380D01*
X153731797Y-130928226D01*
X153739012Y-130931022D01*
G37*
G04 #@! TD.AperFunction*
G04 #@! TA.AperFunction,Conductor*
G36*
X179010233Y-130931381D02*
G01*
X179455584Y-131348561D01*
X179459279Y-131356718D01*
X179456124Y-131365099D01*
X179455584Y-131365639D01*
X179010233Y-131782818D01*
X179001852Y-131785973D01*
X178994636Y-131783176D01*
X178884823Y-131689404D01*
X178884815Y-131689397D01*
X178842619Y-131660351D01*
X178767037Y-131608323D01*
X178649258Y-131546749D01*
X178649253Y-131546747D01*
X178649247Y-131546744D01*
X178575665Y-131520458D01*
X178531479Y-131504674D01*
X178531476Y-131504673D01*
X178531475Y-131504673D01*
X178423198Y-131483920D01*
X178415717Y-131478997D01*
X178413700Y-131472429D01*
X178413700Y-131241770D01*
X178417127Y-131233497D01*
X178423196Y-131230279D01*
X178531479Y-131209525D01*
X178649258Y-131167450D01*
X178767037Y-131105876D01*
X178884816Y-131024801D01*
X178994638Y-130931022D01*
X179003153Y-130928256D01*
X179010233Y-130931381D01*
G37*
G04 #@! TD.AperFunction*
G04 #@! TA.AperFunction,Conductor*
G36*
X51345262Y-126168522D02*
G01*
X51455083Y-126262301D01*
X51572862Y-126343376D01*
X51690641Y-126404950D01*
X51690648Y-126404952D01*
X51690651Y-126404954D01*
X51720047Y-126415455D01*
X51808420Y-126447025D01*
X51916703Y-126467779D01*
X51924183Y-126472702D01*
X51926200Y-126479270D01*
X51926200Y-126709929D01*
X51922773Y-126718202D01*
X51916702Y-126721420D01*
X51808423Y-126742173D01*
X51808420Y-126742173D01*
X51808420Y-126742174D01*
X51788790Y-126749186D01*
X51690651Y-126784244D01*
X51690642Y-126784248D01*
X51690641Y-126784249D01*
X51572862Y-126845823D01*
X51572859Y-126845824D01*
X51572857Y-126845826D01*
X51572856Y-126845827D01*
X51455083Y-126926897D01*
X51455075Y-126926904D01*
X51345263Y-127020676D01*
X51336746Y-127023443D01*
X51329666Y-127020318D01*
X51143391Y-126845826D01*
X50884314Y-126603137D01*
X50880620Y-126594982D01*
X50883775Y-126586601D01*
X50884305Y-126586070D01*
X51329667Y-126168880D01*
X51338047Y-126165726D01*
X51345262Y-126168522D01*
G37*
G04 #@! TD.AperFunction*
G04 #@! TA.AperFunction,Conductor*
G36*
X59287340Y-126167887D02*
G01*
X59732684Y-126585061D01*
X59736379Y-126593217D01*
X59733224Y-126601598D01*
X59732684Y-126602138D01*
X59287326Y-127019325D01*
X59278945Y-127022480D01*
X59271738Y-127019691D01*
X59161911Y-126926094D01*
X59161907Y-126926091D01*
X59044134Y-126845221D01*
X58994779Y-126819502D01*
X58926358Y-126783849D01*
X58926354Y-126783847D01*
X58926353Y-126783847D01*
X58808580Y-126741974D01*
X58700316Y-126721407D01*
X58692828Y-126716497D01*
X58690800Y-126709913D01*
X58690800Y-126479254D01*
X58694227Y-126470981D01*
X58700279Y-126467767D01*
X58808579Y-126446825D01*
X58926358Y-126404550D01*
X59044137Y-126342776D01*
X59161916Y-126261501D01*
X59271737Y-126167536D01*
X59280250Y-126164762D01*
X59287340Y-126167887D01*
G37*
G04 #@! TD.AperFunction*
G04 #@! TA.AperFunction,Conductor*
G36*
X120401512Y-130931022D02*
G01*
X120511333Y-131024801D01*
X120629112Y-131105876D01*
X120746891Y-131167450D01*
X120746898Y-131167452D01*
X120746901Y-131167454D01*
X120776297Y-131177955D01*
X120864670Y-131209525D01*
X120972953Y-131230279D01*
X120980433Y-131235202D01*
X120982450Y-131241770D01*
X120982450Y-131472429D01*
X120979023Y-131480702D01*
X120972952Y-131483920D01*
X120864673Y-131504673D01*
X120864670Y-131504673D01*
X120864670Y-131504674D01*
X120845040Y-131511686D01*
X120746901Y-131546744D01*
X120746892Y-131546748D01*
X120746891Y-131546749D01*
X120629112Y-131608323D01*
X120629109Y-131608324D01*
X120629107Y-131608326D01*
X120629106Y-131608327D01*
X120511333Y-131689397D01*
X120511325Y-131689404D01*
X120401513Y-131783176D01*
X120392996Y-131785943D01*
X120385916Y-131782818D01*
X120199641Y-131608326D01*
X119940564Y-131365637D01*
X119936870Y-131357482D01*
X119940025Y-131349101D01*
X119940555Y-131348570D01*
X120385917Y-130931380D01*
X120394297Y-130928226D01*
X120401512Y-130931022D01*
G37*
G04 #@! TD.AperFunction*
G04 #@! TA.AperFunction,Conductor*
G36*
X152816483Y-130931381D02*
G01*
X153261834Y-131348561D01*
X153265529Y-131356718D01*
X153262374Y-131365099D01*
X153261834Y-131365639D01*
X152816483Y-131782818D01*
X152808102Y-131785973D01*
X152800886Y-131783176D01*
X152691073Y-131689404D01*
X152691065Y-131689397D01*
X152648869Y-131660351D01*
X152573287Y-131608323D01*
X152455508Y-131546749D01*
X152455503Y-131546747D01*
X152455497Y-131546744D01*
X152381915Y-131520458D01*
X152337729Y-131504674D01*
X152337726Y-131504673D01*
X152337725Y-131504673D01*
X152229448Y-131483920D01*
X152221967Y-131478997D01*
X152219950Y-131472429D01*
X152219950Y-131241770D01*
X152223377Y-131233497D01*
X152229446Y-131230279D01*
X152337729Y-131209525D01*
X152455508Y-131167450D01*
X152573287Y-131105876D01*
X152691066Y-131024801D01*
X152800888Y-130931022D01*
X152809403Y-130928256D01*
X152816483Y-130931381D01*
G37*
G04 #@! TD.AperFunction*
G04 #@! TA.AperFunction,Conductor*
G36*
X203269580Y-126593457D02*
G01*
X203277634Y-126597368D01*
X203279703Y-126600679D01*
X203457353Y-127031875D01*
X203457336Y-127040830D01*
X203450992Y-127047150D01*
X203449193Y-127047726D01*
X203291843Y-127084427D01*
X203121099Y-127143753D01*
X203121093Y-127143756D01*
X202950334Y-127222587D01*
X202779584Y-127320914D01*
X202616857Y-127433205D01*
X202608101Y-127435083D01*
X202601939Y-127431848D01*
X202437918Y-127267827D01*
X202434491Y-127259554D01*
X202435642Y-127254494D01*
X202480885Y-127160213D01*
X202529714Y-127038961D01*
X202578542Y-126898208D01*
X202627371Y-126737956D01*
X202673707Y-126567377D01*
X202679183Y-126560293D01*
X202685688Y-126558767D01*
X203269580Y-126593457D01*
G37*
G04 #@! TD.AperFunction*
G04 #@! TA.AperFunction,Conductor*
G36*
X119478983Y-130931381D02*
G01*
X119924334Y-131348561D01*
X119928029Y-131356718D01*
X119924874Y-131365099D01*
X119924334Y-131365639D01*
X119478983Y-131782818D01*
X119470602Y-131785973D01*
X119463386Y-131783176D01*
X119353573Y-131689404D01*
X119353565Y-131689397D01*
X119311369Y-131660351D01*
X119235787Y-131608323D01*
X119118008Y-131546749D01*
X119118003Y-131546747D01*
X119117997Y-131546744D01*
X119044415Y-131520458D01*
X119000229Y-131504674D01*
X119000226Y-131504673D01*
X119000225Y-131504673D01*
X118891948Y-131483920D01*
X118884467Y-131478997D01*
X118882450Y-131472429D01*
X118882450Y-131241770D01*
X118885877Y-131233497D01*
X118891946Y-131230279D01*
X119000229Y-131209525D01*
X119118008Y-131167450D01*
X119235787Y-131105876D01*
X119353566Y-131024801D01*
X119463388Y-130931022D01*
X119471903Y-130928256D01*
X119478983Y-130931381D01*
G37*
G04 #@! TD.AperFunction*
G04 #@! TA.AperFunction,Conductor*
G36*
X94207762Y-130931022D02*
G01*
X94317583Y-131024801D01*
X94435362Y-131105876D01*
X94553141Y-131167450D01*
X94553148Y-131167452D01*
X94553151Y-131167454D01*
X94582547Y-131177955D01*
X94670920Y-131209525D01*
X94779203Y-131230279D01*
X94786683Y-131235202D01*
X94788700Y-131241770D01*
X94788700Y-131472429D01*
X94785273Y-131480702D01*
X94779202Y-131483920D01*
X94670923Y-131504673D01*
X94670920Y-131504673D01*
X94670920Y-131504674D01*
X94651290Y-131511686D01*
X94553151Y-131546744D01*
X94553142Y-131546748D01*
X94553141Y-131546749D01*
X94435362Y-131608323D01*
X94435359Y-131608324D01*
X94435357Y-131608326D01*
X94435356Y-131608327D01*
X94317583Y-131689397D01*
X94317575Y-131689404D01*
X94207763Y-131783176D01*
X94199246Y-131785943D01*
X94192166Y-131782818D01*
X94005891Y-131608326D01*
X93746814Y-131365637D01*
X93743120Y-131357482D01*
X93746275Y-131349101D01*
X93746805Y-131348570D01*
X94192167Y-130931380D01*
X94200547Y-130928226D01*
X94207762Y-130931022D01*
G37*
G04 #@! TD.AperFunction*
G04 #@! TA.AperFunction,Conductor*
G36*
X93079355Y-130518492D02*
G01*
X93196891Y-130599598D01*
X93242084Y-130630784D01*
X93242087Y-130630785D01*
X93242086Y-130630785D01*
X93412838Y-130729114D01*
X93583591Y-130807942D01*
X93583597Y-130807944D01*
X93583599Y-130807945D01*
X93754343Y-130867271D01*
X93911694Y-130903974D01*
X93918971Y-130909189D01*
X93920429Y-130918025D01*
X93919853Y-130919824D01*
X93742203Y-131351020D01*
X93735883Y-131357364D01*
X93732079Y-131358242D01*
X93148192Y-131392932D01*
X93139730Y-131390002D01*
X93136207Y-131384320D01*
X93129005Y-131357807D01*
X93089871Y-131213743D01*
X93041042Y-131053491D01*
X92992214Y-130912738D01*
X92943385Y-130791486D01*
X92943378Y-130791473D01*
X92943377Y-130791468D01*
X92898143Y-130697207D01*
X92897653Y-130688266D01*
X92900416Y-130683874D01*
X93064441Y-130519849D01*
X93072713Y-130516423D01*
X93079355Y-130518492D01*
G37*
G04 #@! TD.AperFunction*
G04 #@! TA.AperFunction,Conductor*
G36*
X70395262Y-126168522D02*
G01*
X70505083Y-126262301D01*
X70622862Y-126343376D01*
X70740641Y-126404950D01*
X70740648Y-126404952D01*
X70740651Y-126404954D01*
X70770047Y-126415455D01*
X70858420Y-126447025D01*
X70966703Y-126467779D01*
X70974183Y-126472702D01*
X70976200Y-126479270D01*
X70976200Y-126709929D01*
X70972773Y-126718202D01*
X70966702Y-126721420D01*
X70858423Y-126742173D01*
X70858420Y-126742173D01*
X70858420Y-126742174D01*
X70838790Y-126749186D01*
X70740651Y-126784244D01*
X70740642Y-126784248D01*
X70740641Y-126784249D01*
X70622862Y-126845823D01*
X70622859Y-126845824D01*
X70622857Y-126845826D01*
X70622856Y-126845827D01*
X70505083Y-126926897D01*
X70505075Y-126926904D01*
X70395263Y-127020676D01*
X70386746Y-127023443D01*
X70379666Y-127020318D01*
X70193391Y-126845826D01*
X69934314Y-126603137D01*
X69930620Y-126594982D01*
X69933775Y-126586601D01*
X69934305Y-126586070D01*
X70379667Y-126168880D01*
X70388047Y-126165726D01*
X70395262Y-126168522D01*
G37*
G04 #@! TD.AperFunction*
G04 #@! TA.AperFunction,Conductor*
G36*
X49298779Y-49814505D02*
G01*
X49305105Y-49820843D01*
X49305525Y-49822039D01*
X49416359Y-50202717D01*
X49416810Y-50205391D01*
X49432243Y-50507387D01*
X49432248Y-50507854D01*
X49424534Y-50775786D01*
X49424534Y-50775788D01*
X49469696Y-51064066D01*
X49639347Y-51418537D01*
X49639827Y-51427479D01*
X49635018Y-51433495D01*
X49440513Y-51555711D01*
X49431685Y-51557211D01*
X49425584Y-51553622D01*
X49195792Y-51297786D01*
X49195789Y-51297784D01*
X48953654Y-51212150D01*
X48953651Y-51212149D01*
X48686019Y-51213608D01*
X48374570Y-51211739D01*
X48371769Y-51211381D01*
X48008421Y-51119397D01*
X48001242Y-51114045D01*
X47999950Y-51105184D01*
X48000473Y-51103601D01*
X48375612Y-50195843D01*
X48381938Y-50189507D01*
X49289826Y-49814496D01*
X49298779Y-49814505D01*
G37*
G04 #@! TD.AperFunction*
G04 #@! TA.AperFunction,Conductor*
G36*
X113926889Y-79294291D02*
G01*
X115120750Y-79490590D01*
X115128357Y-79495314D01*
X115130426Y-79500429D01*
X115308802Y-80710990D01*
X115306618Y-80719675D01*
X115298933Y-80724271D01*
X115297929Y-80724375D01*
X114974328Y-80743820D01*
X114973744Y-80743826D01*
X114677429Y-80732068D01*
X114393154Y-80742114D01*
X114393151Y-80742115D01*
X114093519Y-80827800D01*
X114093515Y-80827802D01*
X113759677Y-81037390D01*
X113750848Y-81038887D01*
X113744309Y-81034776D01*
X113601101Y-80855200D01*
X113598623Y-80846597D01*
X113601510Y-80840128D01*
X113856933Y-80553268D01*
X113946773Y-80258976D01*
X113937502Y-79956260D01*
X113902241Y-79637592D01*
X113902178Y-79635917D01*
X113906738Y-79500429D01*
X113913299Y-79305442D01*
X113917002Y-79297290D01*
X113925386Y-79294144D01*
X113926889Y-79294291D01*
G37*
G04 #@! TD.AperFunction*
M02*
