0
SECTION
2
HEADER
9
$INSUNITS
70
4
9
$ACADVER
1
AC1014
9
$HANDSEED
5
FFFF
0
ENDSEC
0
SECTION
2
TABLES
0
TABLE
2
VPORT
5
8
100
AcDbSymbolTable
0
ENDTAB
0
TABLE
2
LTYPE
5
5
100
AcDbSymbolTable
0
LTYPE
5
14
100
AcDbSymbolTableRecord
100
AcDbLinetypeTableRecord
2
BYBLOCK
70
0
0
LTYPE
5
15
100
AcDbSymbolTableRecord
100
AcDbLinetypeTableRecord
2
BYLAYER
70
0
0
ENDTAB
0
TABLE
2
LAYER
5
2
100
AcDbSymbolTable
70
2
0
LAYER
5
50
100
AcDbSymbolTableRecord
100
AcDbLayerTableRecord
2
0
70
0
6
CONTINUOUS
0
ENDTAB
0
TABLE
2
STYLE
5
3
100
AcDbSymbolTable
70
1
0
STYLE
5
11
100
AcDbSymbolTableRecord
100
AcDbTextStyleTableRecord
2
STANDARD
70
0
0
ENDTAB
0
TABLE
2
VIEW
5
6
100
AcDbSymbolTable
70
0
0
ENDTAB
0
TABLE
2
UCS
5
7
100
AcDbSymbolTable
70
0
0
ENDTAB
0
TABLE
2
APPID
5
9
100
AcDbSymbolTable
70
2
0
APPID
5
12
100
AcDbSymbolTableRecord
100
AcDbRegAppTableRecord
2
ACAD
70
0
0
ENDTAB
0
TABLE
2
DIMSTYLE
5
A
100
AcDbSymbolTable
70
1
0
ENDTAB
0
TABLE
2
BLOCK_RECORD
5
1
100
AcDbSymbolTable
70
1
0
BLOCK_RECORD
5
1F
100
AcDbSymbolTableRecord
100
AcDbBlockTableRecord
2
*MODEL_SPACE
0
BLOCK_RECORD
5
1B
100
AcDbSymbolTableRecord
100
AcDbBlockTableRecord
2
*PAPER_SPACE
0
ENDTAB
0
ENDSEC
0
SECTION
2
BLOCKS
0
BLOCK
5
20
100
AcDbEntity
100
AcDbBlockBegin
2
*MODEL_SPACE
0
ENDBLK
5
21
100
AcDbEntity
100
AcDbBlockEnd
0
BLOCK
5
1C
100
AcDbEntity
100
AcDbBlockBegin
2
*PAPER_SPACE
0
ENDBLK
5
1D
100
AcDbEntity
100
AcDbBlockEnd
0
ENDSEC
0
SECTION
2
ENTITIES
0
LINE
5
100
100
AcDbEntity
8
0
100
AcDbLine
10
-95.250000000000028
20
4.599999999999997
30
0
11
-95.250000000000028
21
38.099999999999994
31
0
0
ARC
5
101
100
AcDbEntity
8
0
100
AcDbCircle
10
-61.575000000000017
20
40.100000000000009
30
0
40
2.0000000000000018
210
0
220
0
230
1
100
AcDbArc
50
180
51
270
0
LINE
5
102
100
AcDbEntity
8
0
100
AcDbLine
10
-61.575000000000017
20
38.100000000000009
30
0
11
32.999999999999979
21
38.100000000000009
31
0
0
ARC
5
103
100
AcDbEntity
8
0
100
AcDbCircle
10
32.999999999999986
20
40.100000000000009
30
0
40
2.0000000000000018
210
0
220
0
230
1
100
AcDbArc
50
-90
51
0
0
LINE
5
104
100
AcDbEntity
8
0
100
AcDbLine
10
95.250000000000028
20
38.100000000000009
30
0
11
95.250000000000028
21
19.050000000000004
31
0
0
LINE
5
105
100
AcDbEntity
8
0
100
AcDbLine
10
95.250000000000043
20
4.6000000000000014
30
0
11
95.250000000000028
21
19.050000000000004
31
0
0
ARC
5
106
100
AcDbEntity
8
0
100
AcDbCircle
10
97.250000000000014
20
4.6000000000000014
30
0
40
1.9999999999999751
210
0
220
0
230
1
100
AcDbArc
50
180
51
270
0
LINE
5
107
100
AcDbEntity
8
0
100
AcDbLine
10
99.250000000000028
20
2.6000000000000014
30
0
11
97.250000000000014
21
2.6000000000000014
31
0
0
ARC
5
108
100
AcDbEntity
8
0
100
AcDbCircle
10
99.250000000000028
20
0
30
0
40
2.6000000000000014
210
0
220
0
230
1
100
AcDbArc
50
-90
51
90
0
LINE
5
109
100
AcDbEntity
8
0
100
AcDbLine
10
99.250000000000028
20
-2.6000000000000014
30
0
11
97.250000000000057
21
-2.6000000000000014
31
0
0
ARC
5
110
100
AcDbEntity
8
0
100
AcDbCircle
10
97.250000000000057
20
-4.6000000000000014
30
0
40
2
210
0
220
-0
230
1
100
AcDbArc
50
90
51
180
0
LINE
5
111
100
AcDbEntity
8
0
100
AcDbLine
10
95.250000000000057
20
-4.5999999999999552
30
0
11
95.249999999999204
21
-36.099999999999739
31
0
0
ARC
5
112
100
AcDbEntity
8
0
100
AcDbCircle
10
93.249999999999176
20
-36.099999999999667
30
0
40
2.0000000000003526
210
0
220
0
230
1
100
AcDbArc
50
270
51
360
0
LINE
5
113
100
AcDbEntity
8
0
100
AcDbLine
10
93.249999999999176
20
-38.100000000000016
30
0
11
76.200000000000017
21
-38.100000000000009
31
0
0
LINE
5
114
100
AcDbEntity
8
0
100
AcDbLine
10
61.987500000000118
20
-38.100000000000009
30
0
11
76.200000000000017
21
-38.100000000000009
31
0
0
ARC
5
115
100
AcDbEntity
8
0
100
AcDbCircle
10
61.987500000000125
20
-40.100000000000016
30
0
40
2.0000000000000062
210
0
220
0
230
1
100
AcDbArc
50
90.000000000000199
51
180
0
LINE
5
116
100
AcDbEntity
8
0
100
AcDbLine
10
59.987500000000011
20
-43.100000000000009
30
0
11
59.987500000000125
21
-40.100000000000016
31
0
0
ARC
5
117
100
AcDbEntity
8
0
100
AcDbCircle
10
57.387500000000017
20
-43.100000000000009
30
0
40
2.6000000000102244
210
0
220
0
230
1
100
AcDbArc
50
-129.10251804109353
51
0
0
SPLINE
5
118
100
AcDbEntity
8
0
100
AcDbSpline
70
4
71
5
72
16
73
10
74
0
42
0.000000001
43
0.0000000001
44
0.0000000001
40
0
40
0
40
0
40
0
40
0
40
0
40
0.20000000000000001
40
0.40000000000000002
40
0.60000000000000009
40
0.80000000000000004
40
1
40
1
40
1
40
1
40
1
40
1
41
1
41
1
41
1
41
1
41
1
41
1
41
1
41
1
41
1
41
1
10
52.387500000000017
20
-42.862500000000018
30
0
10
52.561489940475781
20
-42.862500000000018
30
0
10
52.895676344941279
20
-42.893875161105569
30
0
10
53.355614879770542
20
-43.034973908267659
30
0
10
53.899435476534478
20
-43.381075719643427
30
0
10
54.515243920954177
20
-43.959534546506951
30
0
10
54.995705499954752
20
-44.450598330812056
30
0
10
55.365841673883942
20
-44.797159976063973
30
0
10
55.61927001949941
20
-45.013305166033405
30
0
10
55.747654227250827
20
-45.117648592210699
30
0
0
LINE
5
119
100
AcDbEntity
8
0
100
AcDbLine
10
52.387500000000017
20
-42.862500000000018
30
0
11
-52.387500000000017
21
-42.862500000000018
31
0
0
SPLINE
5
120
100
AcDbEntity
8
0
100
AcDbSpline
70
4
71
5
72
16
73
10
74
0
42
0.000000001
43
0.0000000001
44
0.0000000001
40
0
40
0
40
0
40
0
40
0
40
0
40
0.20000000000000001
40
0.40000000000000002
40
0.60000000000000009
40
0.80000000000000004
40
1
40
1
40
1
40
1
40
1
40
1
41
1
41
1
41
1
41
1
41
1
41
1
41
1
41
1
41
1
41
1
10
-55.74724111523124
20
-45.11731276478362
30
0
10
-55.618888088360677
20
-45.01295066149909
30
0
10
-55.365515307542353
20
-44.796781882921152
30
0
10
-54.995442110656285
20
-44.450226110243008
30
0
10
-54.515031455878344
20
-43.959237665656786
30
0
10
-53.899264690879754
20
-43.380922297951166
30
0
10
-53.355488249781864
20
-43.034921773978269
30
0
10
-52.895603098533229
20
-42.893865676527234
30
0
10
-52.561463631592588
20
-42.862500000000011
30
0
10
-52.387500000000003
20
-42.862500000000011
30
0
0
ARC
5
121
100
AcDbEntity
8
0
100
AcDbCircle
10
-57.387500000000003
20
-43.100000000000009
30
0
40
2.5999999999999979
210
0
220
0
230
1
100
AcDbArc
50
180
51
309.11425028496348
0
CIRCLE
5
122
100
AcDbEntity
8
0
100
AcDbCircle
10
-57.387500000000003
20
-43.100000000000009
30
0
40
1.0999999999999952
210
0
220
-0
230
1
0
LINE
5
123
100
AcDbEntity
8
0
100
AcDbLine
10
-59.987500000000004
20
-43.100000000000009
30
0
11
-59.987500000000004
21
-40.100000000000016
31
0
0
ARC
5
124
100
AcDbEntity
8
0
100
AcDbCircle
10
-61.987500000000011
20
-40.100000000000016
30
0
40
2.0000000000000107
210
0
220
-0
230
1
100
AcDbArc
50
0
51
90
0
LINE
5
125
100
AcDbEntity
8
0
100
AcDbLine
10
-61.987500000000011
20
-38.100000000000009
30
0
11
-93.250000000000014
21
-38.09999999999998
31
0
0
ARC
5
126
100
AcDbEntity
8
0
100
AcDbCircle
10
-93.250000000000014
20
-36.099999999999987
30
0
40
2.0000000000000107
210
0
220
0
230
1
100
AcDbArc
50
180
51
270
0
LINE
5
127
100
AcDbEntity
8
0
100
AcDbLine
10
-95.250000000000043
20
-4.6000000000000094
30
0
11
-95.250000000000028
21
-36.099999999999987
31
0
0
ARC
5
128
100
AcDbEntity
8
0
100
AcDbCircle
10
-97.250000000000028
20
-4.6000000000000094
30
0
40
1.9999999999999929
210
-0
220
0
230
1
100
AcDbArc
50
0
51
90
0
LINE
5
129
100
AcDbEntity
8
0
100
AcDbLine
10
-99.250000000000028
20
-2.6000000000000001
30
0
11
-97.250000000000028
21
-2.6000000000000001
31
0
0
ARC
5
130
100
AcDbEntity
8
0
100
AcDbCircle
10
-99.250000000000028
20
0
30
0
40
2.6000000000000001
210
0
220
-0
230
1
100
AcDbArc
50
90
51
270
0
LINE
5
131
100
AcDbEntity
8
0
100
AcDbLine
10
-99.250000000000028
20
2.6000000000000001
30
0
11
-97.250000000000014
21
2.6000000000000001
31
0
0
ARC
5
132
100
AcDbEntity
8
0
100
AcDbCircle
10
-97.250000000000014
20
4.6000000000000005
30
0
40
2
210
0
220
0
230
1
100
AcDbArc
50
270
51
360
0
CIRCLE
5
133
100
AcDbEntity
8
0
100
AcDbCircle
10
-99.250000000000028
20
0
30
0
40
1.1000000000000005
210
0
220
-0
230
1
0
CIRCLE
5
134
100
AcDbEntity
8
0
100
AcDbCircle
10
-66.675000000000026
20
49.625
30
0
40
1.1000000000000001
210
0
220
-0
230
1
0
CIRCLE
5
135
100
AcDbEntity
8
0
100
AcDbCircle
10
38.099999999999987
20
49.625
30
0
40
1.0999999999999992
210
0
220
-0
230
1
0
CIRCLE
5
136
100
AcDbEntity
8
0
100
AcDbCircle
10
99.250000000000028
20
0
30
0
40
1.1000000000000025
210
0
220
-0
230
1
0
CIRCLE
5
137
100
AcDbEntity
8
0
100
AcDbCircle
10
57.387500000000017
20
-43.100000000000009
30
0
40
1.0999999999999952
210
0
220
-0
230
1
0
LINE
5
138
100
AcDbEntity
8
0
100
AcDbLine
10
-95.250000000000028
20
38.099999999999994
30
0
11
-95.250000000000028
21
55.550660068883531
31
0
0
ARC
5
139
100
AcDbEntity
8
0
100
AcDbCircle
10
-93.250000000000014
20
55.550660068883531
30
0
40
2.0000000000000107
210
0
220
-0
230
1
100
AcDbArc
50
90
51
180
0
LINE
5
140
100
AcDbEntity
8
0
100
AcDbLine
10
-93.250000000000014
20
57.550660068883545
30
0
11
-65.575000000000017
21
57.550660068883502
31
0
0
ARC
5
141
100
AcDbEntity
8
0
100
AcDbCircle
10
-65.575000000000017
20
55.550660068883502
30
0
40
2.0000000000000018
210
0
220
-0
230
1
100
AcDbArc
50
0
51
90
0
LINE
5
142
100
AcDbEntity
8
0
100
AcDbLine
10
-63.575000000000017
20
55.550660068883502
30
0
11
-63.575000000000017
21
40.100000000000009
31
0
0
ARC
5
143
100
AcDbEntity
8
0
100
AcDbCircle
10
36.999999999999986
20
55.550660068883566
30
0
40
2.0000000000000018
210
0
220
-0
230
1
100
AcDbArc
50
90
51
180
0
LINE
5
144
100
AcDbEntity
8
0
100
AcDbLine
10
36.999999999999986
20
57.550660068883566
30
0
11
93.250000000000028
21
57.550660068883573
31
0
0
ARC
5
145
100
AcDbEntity
8
0
100
AcDbCircle
10
93.250000000000028
20
55.550660068883587
30
0
40
1.9999999999999929
210
0
220
-0
230
1
100
AcDbArc
50
0
51
90
0
LINE
5
146
100
AcDbEntity
8
0
100
AcDbLine
10
95.250000000000028
20
55.550660068883587
30
0
11
95.250000000000028
21
38.100000000000009
31
0
0
LINE
5
147
100
AcDbEntity
8
0
100
AcDbLine
10
34.999999999999986
20
55.550660068883566
30
0
11
34.999999999999986
21
40.100000000000009
31
0
0
ENDSEC
0
SECTION
2
OBJECTS
0
DICTIONARY
5
C
100
AcDbDictionary
3
ACAD_GROUP
350
D
3
ACAD_MLINESTYLE
350
17
0
DICTIONARY
5
D
100
AcDbDictionary
0
DICTIONARY
5
1A
330
C
100
AcDbDictionary
0
DICTIONARY
5
17
100
AcDbDictionary
0
ENDSEC
0
EOF
